%TF.GenerationSoftware,KiCad,Pcbnew,(5.1.10)-1*%
%TF.CreationDate,2021-12-19T12:14:16+01:00*%
%TF.ProjectId,KiCadPCB,4b694361-6450-4434-922e-6b696361645f,rev?*%
%TF.SameCoordinates,Original*%
%TF.FileFunction,Copper,L1,Top*%
%TF.FilePolarity,Positive*%
%FSLAX46Y46*%
G04 Gerber Fmt 4.6, Leading zero omitted, Abs format (unit mm)*
G04 Created by KiCad (PCBNEW (5.1.10)-1) date 2021-12-19 12:14:16*
%MOMM*%
%LPD*%
G01*
G04 APERTURE LIST*
%TA.AperFunction,ComponentPad*%
%ADD10O,1.600000X1.600000*%
%TD*%
%TA.AperFunction,ComponentPad*%
%ADD11R,1.600000X1.600000*%
%TD*%
%TA.AperFunction,ComponentPad*%
%ADD12C,2.200000*%
%TD*%
%TA.AperFunction,ComponentPad*%
%ADD13C,1.600000*%
%TD*%
%TA.AperFunction,ComponentPad*%
%ADD14R,2.000000X2.000000*%
%TD*%
%TA.AperFunction,ComponentPad*%
%ADD15C,2.000000*%
%TD*%
%TA.AperFunction,ComponentPad*%
%ADD16R,2.500000X3.000000*%
%TD*%
%TA.AperFunction,ViaPad*%
%ADD17C,0.800000*%
%TD*%
%TA.AperFunction,Conductor*%
%ADD18C,0.400000*%
%TD*%
%TA.AperFunction,Conductor*%
%ADD19C,0.254000*%
%TD*%
%TA.AperFunction,Conductor*%
%ADD20C,0.100000*%
%TD*%
G04 APERTURE END LIST*
D10*
%TO.P,D14,2*%
%TO.N,Net-(D14-Pad2)*%
X219075000Y-50165000D03*
D11*
%TO.P,D14,1*%
%TO.N,/COL0*%
X211455000Y-50165000D03*
%TD*%
D10*
%TO.P,D13,2*%
%TO.N,/ROW1*%
X223520000Y-69215000D03*
D11*
%TO.P,D13,1*%
%TO.N,Net-(D13-Pad1)*%
X215900000Y-69215000D03*
%TD*%
D10*
%TO.P,D12,2*%
%TO.N,/ROW1*%
X204470000Y-69215000D03*
D11*
%TO.P,D12,1*%
%TO.N,Net-(D12-Pad1)*%
X196850000Y-69215000D03*
%TD*%
D10*
%TO.P,D11,2*%
%TO.N,/ROW1*%
X185420000Y-69215000D03*
D11*
%TO.P,D11,1*%
%TO.N,Net-(D11-Pad1)*%
X177800000Y-69215000D03*
%TD*%
D10*
%TO.P,D10,2*%
%TO.N,/ROW1*%
X166370000Y-69215000D03*
D11*
%TO.P,D10,1*%
%TO.N,Net-(D10-Pad1)*%
X158750000Y-69215000D03*
%TD*%
D10*
%TO.P,D9,2*%
%TO.N,/ROW1*%
X147320000Y-69215000D03*
D11*
%TO.P,D9,1*%
%TO.N,Net-(D9-Pad1)*%
X139700000Y-69215000D03*
%TD*%
D10*
%TO.P,D8,2*%
%TO.N,/ROW1*%
X128270000Y-69215000D03*
D11*
%TO.P,D8,1*%
%TO.N,Net-(D8-Pad1)*%
X120650000Y-69215000D03*
%TD*%
D10*
%TO.P,D7,2*%
%TO.N,/ROW1*%
X109220000Y-69215000D03*
D11*
%TO.P,D7,1*%
%TO.N,Net-(D7-Pad1)*%
X101600000Y-69215000D03*
%TD*%
D10*
%TO.P,D6,2*%
%TO.N,/ROW0*%
X204470000Y-50165000D03*
D11*
%TO.P,D6,1*%
%TO.N,Net-(D6-Pad1)*%
X196850000Y-50165000D03*
%TD*%
D10*
%TO.P,D5,2*%
%TO.N,/ROW0*%
X185420000Y-50165000D03*
D11*
%TO.P,D5,1*%
%TO.N,Net-(D5-Pad1)*%
X177800000Y-50165000D03*
%TD*%
D10*
%TO.P,D4,2*%
%TO.N,/ROW0*%
X166370000Y-50165000D03*
D11*
%TO.P,D4,1*%
%TO.N,Net-(D4-Pad1)*%
X158750000Y-50165000D03*
%TD*%
D10*
%TO.P,D3,2*%
%TO.N,/ROW0*%
X147320000Y-50165000D03*
D11*
%TO.P,D3,1*%
%TO.N,Net-(D3-Pad1)*%
X139700000Y-50165000D03*
%TD*%
D10*
%TO.P,D2,2*%
%TO.N,/ROW0*%
X128270000Y-50165000D03*
D11*
%TO.P,D2,1*%
%TO.N,Net-(D2-Pad1)*%
X120650000Y-50165000D03*
%TD*%
D10*
%TO.P,D1,2*%
%TO.N,/ROW0*%
X109220000Y-50165000D03*
D11*
%TO.P,D1,1*%
%TO.N,Net-(D1-Pad1)*%
X101600000Y-50165000D03*
%TD*%
D12*
%TO.P,SW13,2*%
%TO.N,Net-(D13-Pad1)*%
X215900000Y-58420000D03*
%TO.P,SW13,1*%
%TO.N,/COL6*%
X222250000Y-55880000D03*
%TD*%
%TO.P,SW12,2*%
%TO.N,Net-(D12-Pad1)*%
X196850000Y-58420000D03*
%TO.P,SW12,1*%
%TO.N,/COL5*%
X203200000Y-55880000D03*
%TD*%
%TO.P,SW11,2*%
%TO.N,Net-(D11-Pad1)*%
X177800000Y-58420000D03*
%TO.P,SW11,1*%
%TO.N,/COL4*%
X184150000Y-55880000D03*
%TD*%
%TO.P,SW10,2*%
%TO.N,Net-(D10-Pad1)*%
X158750000Y-58420000D03*
%TO.P,SW10,1*%
%TO.N,/COL3*%
X165100000Y-55880000D03*
%TD*%
%TO.P,SW9,2*%
%TO.N,Net-(D9-Pad1)*%
X139700000Y-58420000D03*
%TO.P,SW9,1*%
%TO.N,/COL2*%
X146050000Y-55880000D03*
%TD*%
%TO.P,SW8,2*%
%TO.N,Net-(D8-Pad1)*%
X120650000Y-58420000D03*
%TO.P,SW8,1*%
%TO.N,/COL1*%
X127000000Y-55880000D03*
%TD*%
%TO.P,SW7,2*%
%TO.N,Net-(D7-Pad1)*%
X101600000Y-58420000D03*
%TO.P,SW7,1*%
%TO.N,/COL0*%
X107950000Y-55880000D03*
%TD*%
%TO.P,SW6,2*%
%TO.N,Net-(D6-Pad1)*%
X196850000Y-39370000D03*
%TO.P,SW6,1*%
%TO.N,/COL6*%
X203200000Y-36830000D03*
%TD*%
%TO.P,SW5,2*%
%TO.N,Net-(D5-Pad1)*%
X177800000Y-39370000D03*
%TO.P,SW5,1*%
%TO.N,/COL5*%
X184150000Y-36830000D03*
%TD*%
%TO.P,SW4,2*%
%TO.N,Net-(D4-Pad1)*%
X158750000Y-39370000D03*
%TO.P,SW4,1*%
%TO.N,/COL4*%
X165100000Y-36830000D03*
%TD*%
%TO.P,SW3,2*%
%TO.N,Net-(D3-Pad1)*%
X139700000Y-39370000D03*
%TO.P,SW3,1*%
%TO.N,/COL3*%
X146050000Y-36830000D03*
%TD*%
%TO.P,SW2,2*%
%TO.N,Net-(D2-Pad1)*%
X120650000Y-39370000D03*
%TO.P,SW2,1*%
%TO.N,/COL2*%
X127000000Y-36830000D03*
%TD*%
%TO.P,SW1,2*%
%TO.N,Net-(D1-Pad1)*%
X101600000Y-39370000D03*
%TO.P,SW1,1*%
%TO.N,/COL1*%
X107950000Y-36830000D03*
%TD*%
D13*
%TO.P,U1,24*%
%TO.N,Net-(U1-Pad24)*%
X95250000Y-36830000D03*
%TO.P,U1,23*%
%TO.N,GND*%
X95250000Y-39370000D03*
%TO.P,U1,22*%
%TO.N,Net-(U1-Pad22)*%
X95250000Y-41910000D03*
%TO.P,U1,21*%
%TO.N,+5V*%
X95250000Y-44450000D03*
%TO.P,U1,20*%
%TO.N,Net-(U1-Pad20)*%
X95250000Y-46990000D03*
%TO.P,U1,19*%
%TO.N,/COL0*%
X95250000Y-49530000D03*
%TO.P,U1,18*%
%TO.N,/COL1*%
X95250000Y-52070000D03*
%TO.P,U1,17*%
%TO.N,/COL2*%
X95250000Y-54610000D03*
%TO.P,U1,16*%
%TO.N,/COL3*%
X95250000Y-57150000D03*
%TO.P,U1,15*%
%TO.N,/COL4*%
X95250000Y-59690000D03*
%TO.P,U1,14*%
%TO.N,/COL5*%
X95250000Y-62230000D03*
%TO.P,U1,13*%
%TO.N,/COL6*%
X95250000Y-64770000D03*
%TO.P,U1,12*%
%TO.N,/ROW1*%
X80010000Y-64770000D03*
%TO.P,U1,11*%
%TO.N,/ROW0*%
X80010000Y-62230000D03*
%TO.P,U1,10*%
%TO.N,Net-(U1-Pad10)*%
X80010000Y-59690000D03*
%TO.P,U1,9*%
%TO.N,Net-(U1-Pad9)*%
X80010000Y-57150000D03*
%TO.P,U1,8*%
%TO.N,Net-(SW14-PadA)*%
X80010000Y-54610000D03*
%TO.P,U1,7*%
%TO.N,Net-(SW14-PadB)*%
X80010000Y-52070000D03*
%TO.P,U1,6*%
%TO.N,Net-(U1-Pad6)*%
X80010000Y-49530000D03*
%TO.P,U1,5*%
%TO.N,Net-(U1-Pad5)*%
X80010000Y-46990000D03*
%TO.P,U1,4*%
%TO.N,GND*%
X80010000Y-44450000D03*
%TO.P,U1,3*%
X80010000Y-41910000D03*
%TO.P,U1,2*%
%TO.N,Net-(U1-Pad2)*%
X80010000Y-39370000D03*
D11*
%TO.P,U1,1*%
%TO.N,Net-(U1-Pad1)*%
X80010000Y-36830000D03*
%TD*%
D14*
%TO.P,SW14,A*%
%TO.N,Net-(SW14-PadA)*%
X224000000Y-33020000D03*
D15*
%TO.P,SW14,C*%
%TO.N,GND*%
X221500000Y-33020000D03*
%TO.P,SW14,B*%
%TO.N,Net-(SW14-PadB)*%
X219000000Y-33020000D03*
D16*
%TO.P,SW14,MP*%
%TO.N,N/C*%
X227100000Y-40520000D03*
X215900000Y-40520000D03*
D15*
%TO.P,SW14,S1*%
%TO.N,/ROW0*%
X224000000Y-47520000D03*
%TO.P,SW14,S2*%
%TO.N,Net-(D14-Pad2)*%
X219000000Y-47520000D03*
%TD*%
D17*
%TO.N,/ROW0*%
X86360000Y-43815000D03*
%TO.N,Net-(SW14-PadA)*%
X83185000Y-41275000D03*
%TO.N,Net-(SW14-PadB)*%
X82550000Y-43180000D03*
%TD*%
D18*
%TO.N,/ROW0*%
X222599999Y-46119999D02*
X224000000Y-47520000D01*
X208515001Y-46119999D02*
X222599999Y-46119999D01*
X204470000Y-50165000D02*
X208515001Y-46119999D01*
X127069999Y-51365001D02*
X128270000Y-50165000D01*
X110420001Y-51365001D02*
X127069999Y-51365001D01*
X109220000Y-50165000D02*
X110420001Y-51365001D01*
X146119999Y-51365001D02*
X147320000Y-50165000D01*
X129470001Y-51365001D02*
X146119999Y-51365001D01*
X128270000Y-50165000D02*
X129470001Y-51365001D01*
X148520001Y-51365001D02*
X147320000Y-50165000D01*
X165169999Y-51365001D02*
X148520001Y-51365001D01*
X166370000Y-50165000D02*
X165169999Y-51365001D01*
X184219999Y-51365001D02*
X185420000Y-50165000D01*
X167570001Y-51365001D02*
X184219999Y-51365001D01*
X166370000Y-50165000D02*
X167570001Y-51365001D01*
X203269999Y-51365001D02*
X186620001Y-51365001D01*
X186620001Y-51365001D02*
X185420000Y-50165000D01*
X204470000Y-50165000D02*
X203269999Y-51365001D01*
X80010000Y-62230000D02*
X86360000Y-55880000D01*
X86360000Y-55880000D02*
X86360000Y-43815000D01*
X86360000Y-43815000D02*
X86360000Y-43815000D01*
%TO.N,Net-(D1-Pad1)*%
X101600000Y-39370000D02*
X101600000Y-50165000D01*
%TO.N,Net-(D2-Pad1)*%
X120650000Y-39370000D02*
X120650000Y-50165000D01*
%TO.N,Net-(D3-Pad1)*%
X139700000Y-42490002D02*
X139700000Y-50165000D01*
X139700000Y-39370000D02*
X139700000Y-42490002D01*
%TO.N,Net-(D4-Pad1)*%
X158750000Y-39370000D02*
X158750000Y-50165000D01*
%TO.N,Net-(D5-Pad1)*%
X177800000Y-50165000D02*
X177800000Y-39370000D01*
%TO.N,Net-(D6-Pad1)*%
X196850000Y-50165000D02*
X196850000Y-39370000D01*
%TO.N,/ROW1*%
X205670001Y-70415001D02*
X204470000Y-69215000D01*
X222319999Y-70415001D02*
X205670001Y-70415001D01*
X223520000Y-69215000D02*
X222319999Y-70415001D01*
X203269999Y-70415001D02*
X204470000Y-69215000D01*
X186620001Y-70415001D02*
X203269999Y-70415001D01*
X185420000Y-69215000D02*
X186620001Y-70415001D01*
X167570001Y-70415001D02*
X166370000Y-69215000D01*
X184219999Y-70415001D02*
X167570001Y-70415001D01*
X185420000Y-69215000D02*
X184219999Y-70415001D01*
X165169999Y-70415001D02*
X166370000Y-69215000D01*
X148520001Y-70415001D02*
X165169999Y-70415001D01*
X147320000Y-69215000D02*
X148520001Y-70415001D01*
X129470001Y-70415001D02*
X128270000Y-69215000D01*
X146119999Y-70415001D02*
X129470001Y-70415001D01*
X147320000Y-69215000D02*
X146119999Y-70415001D01*
X110420001Y-70415001D02*
X109220000Y-69215000D01*
X127069999Y-70415001D02*
X110420001Y-70415001D01*
X128270000Y-69215000D02*
X127069999Y-70415001D01*
X80457999Y-70560001D02*
X107874999Y-70560001D01*
X107874999Y-70560001D02*
X109220000Y-69215000D01*
X79210001Y-69312003D02*
X80457999Y-70560001D01*
X79210001Y-65569999D02*
X79210001Y-69312003D01*
X80010000Y-64770000D02*
X79210001Y-65569999D01*
%TO.N,Net-(D7-Pad1)*%
X101600000Y-58420000D02*
X101600000Y-69215000D01*
%TO.N,Net-(D8-Pad1)*%
X120650000Y-69215000D02*
X120650000Y-58420000D01*
%TO.N,Net-(D9-Pad1)*%
X139700000Y-69215000D02*
X139700000Y-58420000D01*
%TO.N,Net-(D10-Pad1)*%
X158750000Y-60379998D02*
X158750000Y-58420000D01*
X158750000Y-69215000D02*
X158750000Y-60379998D01*
%TO.N,Net-(D11-Pad1)*%
X177800000Y-69215000D02*
X177800000Y-58420000D01*
%TO.N,Net-(D12-Pad1)*%
X196850000Y-69215000D02*
X196850000Y-58420000D01*
%TO.N,Net-(D13-Pad1)*%
X215900000Y-58420000D02*
X215900000Y-69215000D01*
%TO.N,/COL1*%
X106045000Y-34925000D02*
X107950000Y-36830000D01*
X94828542Y-34925000D02*
X106045000Y-34925000D01*
X90805000Y-38948542D02*
X94828542Y-34925000D01*
X90805000Y-51435000D02*
X90805000Y-38948542D01*
X91440000Y-52070000D02*
X90805000Y-51435000D01*
X95250000Y-52070000D02*
X91440000Y-52070000D01*
%TO.N,/COL2*%
X127000000Y-36830000D02*
X124460000Y-34290000D01*
X124460000Y-34290000D02*
X94615000Y-34290000D01*
X94615000Y-34290000D02*
X90170000Y-38735000D01*
X90170000Y-38735000D02*
X90170000Y-53975000D01*
X90805000Y-54610000D02*
X95250000Y-54610000D01*
X90170000Y-53975000D02*
X90805000Y-54610000D01*
%TO.N,/COL3*%
X142875000Y-33655000D02*
X146050000Y-36830000D01*
X94193542Y-33655000D02*
X142875000Y-33655000D01*
X89535000Y-38313542D02*
X94193542Y-33655000D01*
X89535000Y-55880000D02*
X89535000Y-38313542D01*
X90805000Y-57150000D02*
X89535000Y-55880000D01*
X95250000Y-57150000D02*
X90805000Y-57150000D01*
%TO.N,/COL4*%
X165100000Y-36830000D02*
X161290000Y-33020000D01*
X140970000Y-33020000D02*
X140900020Y-32950020D01*
X161290000Y-33020000D02*
X140970000Y-33020000D01*
X140900020Y-32950020D02*
X94049980Y-32950020D01*
X94049980Y-32950020D02*
X88900000Y-38100000D01*
X88900000Y-38100000D02*
X88900000Y-58420000D01*
X88900000Y-58420000D02*
X90170000Y-59690000D01*
X90170000Y-59690000D02*
X95250000Y-59690000D01*
%TO.N,/COL5*%
X88265000Y-61595000D02*
X88900000Y-62230000D01*
X88900000Y-62230000D02*
X95250000Y-62230000D01*
X93593532Y-32350010D02*
X88265000Y-37678542D01*
X88265000Y-37678542D02*
X88265000Y-61595000D01*
X179670010Y-32350010D02*
X93593532Y-32350010D01*
X184150000Y-36830000D02*
X179670010Y-32350010D01*
%TO.N,/COL6*%
X203200000Y-36830000D02*
X198120000Y-31750000D01*
X198120000Y-31750000D02*
X93345000Y-31750000D01*
X93345000Y-31750000D02*
X87630000Y-37465000D01*
X87630000Y-37465000D02*
X87630000Y-63500000D01*
X88900000Y-64770000D02*
X95250000Y-64770000D01*
X87630000Y-63500000D02*
X88900000Y-64770000D01*
%TO.N,/COL0*%
X111864989Y-51965011D02*
X107950000Y-55880000D01*
X209654989Y-51965011D02*
X111864989Y-51965011D01*
X211455000Y-50165000D02*
X209654989Y-51965011D01*
X95250000Y-50293998D02*
X95250000Y-49530000D01*
X100836002Y-55880000D02*
X95250000Y-50293998D01*
X107950000Y-55880000D02*
X100836002Y-55880000D01*
%TO.N,Net-(SW14-PadA)*%
X83584999Y-41674999D02*
X83584999Y-51035001D01*
X83185000Y-41275000D02*
X83584999Y-41674999D01*
X83584999Y-51035001D02*
X80010000Y-54610000D01*
%TO.N,GND*%
X108670001Y-38330001D02*
X107315000Y-38330001D01*
X125499999Y-37550001D02*
X109450001Y-37550001D01*
X126279999Y-38330001D02*
X125499999Y-37550001D01*
X128500001Y-37550001D02*
X127720001Y-38330001D01*
X144549999Y-37550001D02*
X128500001Y-37550001D01*
X145329999Y-38330001D02*
X144549999Y-37550001D01*
X146770001Y-38330001D02*
X145329999Y-38330001D01*
X221500000Y-33020000D02*
X221500000Y-33240002D01*
X147550001Y-37550001D02*
X146770001Y-38330001D01*
X201699999Y-37550001D02*
X185650001Y-37550001D01*
X165820001Y-38330001D02*
X164379999Y-38330001D01*
X164379999Y-38330001D02*
X163599999Y-37550001D01*
X202479999Y-38330001D02*
X201699999Y-37550001D01*
X107315000Y-38330001D02*
X106449999Y-37465000D01*
X221500000Y-33240002D02*
X216410001Y-38330001D01*
X163599999Y-37550001D02*
X147550001Y-37550001D01*
X185650001Y-37550001D02*
X184870001Y-38330001D01*
X109450001Y-37550001D02*
X108670001Y-38330001D01*
X216410001Y-38330001D02*
X202479999Y-38330001D01*
X184870001Y-38330001D02*
X183429999Y-38330001D01*
X127720001Y-38330001D02*
X126279999Y-38330001D01*
X183429999Y-38330001D02*
X182649999Y-37550001D01*
X182649999Y-37550001D02*
X166600001Y-37550001D01*
X166600001Y-37550001D02*
X165820001Y-38330001D01*
X97155000Y-37465000D02*
X95250000Y-39370000D01*
X106449999Y-37465000D02*
X97155000Y-37465000D01*
%TO.N,Net-(SW14-PadB)*%
X82550000Y-49530000D02*
X80010000Y-52070000D01*
X82550000Y-43180000D02*
X82550000Y-49530000D01*
%TO.N,Net-(D14-Pad2)*%
X219000000Y-50090000D02*
X219075000Y-50165000D01*
X219000000Y-47520000D02*
X219000000Y-50090000D01*
%TD*%
D19*
%TO.N,GND*%
X205296233Y-26524614D02*
X205296239Y-26524619D01*
X210330388Y-31558769D01*
X210351052Y-31583948D01*
X210376231Y-31604612D01*
X210376233Y-31604614D01*
X210399369Y-31623601D01*
X210451550Y-31666425D01*
X210566207Y-31727710D01*
X210690617Y-31765450D01*
X210787581Y-31775000D01*
X210787591Y-31775000D01*
X210820000Y-31778192D01*
X210852409Y-31775000D01*
X217932761Y-31775000D01*
X217730013Y-31977748D01*
X217551082Y-32245537D01*
X217427832Y-32543088D01*
X217365000Y-32858967D01*
X217365000Y-33181033D01*
X217427832Y-33496912D01*
X217551082Y-33794463D01*
X217730013Y-34062252D01*
X217957748Y-34289987D01*
X218225537Y-34468918D01*
X218523088Y-34592168D01*
X218838967Y-34655000D01*
X219161033Y-34655000D01*
X219476912Y-34592168D01*
X219774463Y-34468918D01*
X220042252Y-34289987D01*
X220269987Y-34062252D01*
X220334925Y-33965065D01*
X220364587Y-33975808D01*
X221320395Y-33020000D01*
X220364587Y-32064192D01*
X220334925Y-32074935D01*
X220269987Y-31977748D01*
X220067239Y-31775000D01*
X220583884Y-31775000D01*
X220544192Y-31884587D01*
X221500000Y-32840395D01*
X221514143Y-32826253D01*
X221693748Y-33005858D01*
X221679605Y-33020000D01*
X221693748Y-33034143D01*
X221514143Y-33213748D01*
X221500000Y-33199605D01*
X220544192Y-34155413D01*
X220639956Y-34419814D01*
X220929571Y-34560704D01*
X221241108Y-34642384D01*
X221562595Y-34661718D01*
X221881675Y-34617961D01*
X222186088Y-34512795D01*
X222360044Y-34419814D01*
X222414024Y-34270777D01*
X222469463Y-34374494D01*
X222548815Y-34471185D01*
X222645506Y-34550537D01*
X222755820Y-34609502D01*
X222875518Y-34645812D01*
X223000000Y-34658072D01*
X225000000Y-34658072D01*
X225124482Y-34645812D01*
X225244180Y-34609502D01*
X225354494Y-34550537D01*
X225451185Y-34471185D01*
X225530537Y-34374494D01*
X225589502Y-34264180D01*
X225625812Y-34144482D01*
X225638072Y-34020000D01*
X225638072Y-32020000D01*
X225625812Y-31895518D01*
X225589502Y-31775820D01*
X225589064Y-31775000D01*
X227297721Y-31775000D01*
X227694545Y-31813909D01*
X228045208Y-31919780D01*
X228368625Y-32091744D01*
X228652484Y-32323254D01*
X228885965Y-32605486D01*
X229060183Y-32927695D01*
X229168502Y-33277614D01*
X229210000Y-33672443D01*
X229210001Y-68547711D01*
X229171091Y-68944545D01*
X229065220Y-69295206D01*
X228893257Y-69618623D01*
X228661748Y-69902482D01*
X228379514Y-70135965D01*
X228057304Y-70310184D01*
X227707385Y-70418502D01*
X227312557Y-70460000D01*
X224239657Y-70460000D01*
X224434759Y-70329637D01*
X224634637Y-70129759D01*
X224791680Y-69894727D01*
X224899853Y-69633574D01*
X224955000Y-69356335D01*
X224955000Y-69073665D01*
X224899853Y-68796426D01*
X224791680Y-68535273D01*
X224634637Y-68300241D01*
X224434759Y-68100363D01*
X224199727Y-67943320D01*
X223938574Y-67835147D01*
X223661335Y-67780000D01*
X223378665Y-67780000D01*
X223101426Y-67835147D01*
X222840273Y-67943320D01*
X222605241Y-68100363D01*
X222405363Y-68300241D01*
X222248320Y-68535273D01*
X222140147Y-68796426D01*
X222085000Y-69073665D01*
X222085000Y-69356335D01*
X222103714Y-69450418D01*
X221974132Y-69580001D01*
X217338072Y-69580001D01*
X217338072Y-68415000D01*
X217325812Y-68290518D01*
X217289502Y-68170820D01*
X217230537Y-68060506D01*
X217151185Y-67963815D01*
X217054494Y-67884463D01*
X216944180Y-67825498D01*
X216824482Y-67789188D01*
X216735000Y-67780375D01*
X216735000Y-60700475D01*
X217075000Y-60700475D01*
X217075000Y-61219525D01*
X217176261Y-61728601D01*
X217374893Y-62208141D01*
X217663262Y-62639715D01*
X218030285Y-63006738D01*
X218461859Y-63295107D01*
X218941399Y-63493739D01*
X219450475Y-63595000D01*
X219969525Y-63595000D01*
X220478601Y-63493739D01*
X220958141Y-63295107D01*
X221389715Y-63006738D01*
X221756738Y-62639715D01*
X222045107Y-62208141D01*
X222243739Y-61728601D01*
X222345000Y-61219525D01*
X222345000Y-60813740D01*
X223305000Y-60813740D01*
X223305000Y-61106260D01*
X223362068Y-61393158D01*
X223474010Y-61663411D01*
X223636525Y-61906632D01*
X223843368Y-62113475D01*
X224086589Y-62275990D01*
X224356842Y-62387932D01*
X224643740Y-62445000D01*
X224936260Y-62445000D01*
X225223158Y-62387932D01*
X225493411Y-62275990D01*
X225736632Y-62113475D01*
X225943475Y-61906632D01*
X226105990Y-61663411D01*
X226217932Y-61393158D01*
X226275000Y-61106260D01*
X226275000Y-60813740D01*
X226217932Y-60526842D01*
X226105990Y-60256589D01*
X225943475Y-60013368D01*
X225736632Y-59806525D01*
X225493411Y-59644010D01*
X225223158Y-59532068D01*
X224936260Y-59475000D01*
X224643740Y-59475000D01*
X224356842Y-59532068D01*
X224086589Y-59644010D01*
X223843368Y-59806525D01*
X223636525Y-60013368D01*
X223474010Y-60256589D01*
X223362068Y-60526842D01*
X223305000Y-60813740D01*
X222345000Y-60813740D01*
X222345000Y-60700475D01*
X222243739Y-60191399D01*
X222045107Y-59711859D01*
X221756738Y-59280285D01*
X221389715Y-58913262D01*
X220958141Y-58624893D01*
X220478601Y-58426261D01*
X219969525Y-58325000D01*
X219450475Y-58325000D01*
X218941399Y-58426261D01*
X218461859Y-58624893D01*
X218030285Y-58913262D01*
X217663262Y-59280285D01*
X217374893Y-59711859D01*
X217176261Y-60191399D01*
X217075000Y-60700475D01*
X216735000Y-60700475D01*
X216735000Y-59948738D01*
X217005998Y-59767663D01*
X217247663Y-59525998D01*
X217437537Y-59241831D01*
X217568325Y-58926081D01*
X217635000Y-58590883D01*
X217635000Y-58249117D01*
X217568325Y-57913919D01*
X217437537Y-57598169D01*
X217247663Y-57314002D01*
X217005998Y-57072337D01*
X216721831Y-56882463D01*
X216406081Y-56751675D01*
X216070883Y-56685000D01*
X215729117Y-56685000D01*
X215393919Y-56751675D01*
X215078169Y-56882463D01*
X214794002Y-57072337D01*
X214552337Y-57314002D01*
X214362463Y-57598169D01*
X214231675Y-57913919D01*
X214165000Y-58249117D01*
X214165000Y-58590883D01*
X214231675Y-58926081D01*
X214362463Y-59241831D01*
X214518261Y-59475000D01*
X214483740Y-59475000D01*
X214196842Y-59532068D01*
X213926589Y-59644010D01*
X213683368Y-59806525D01*
X213476525Y-60013368D01*
X213314010Y-60256589D01*
X213202068Y-60526842D01*
X213145000Y-60813740D01*
X213145000Y-61106260D01*
X213202068Y-61393158D01*
X213314010Y-61663411D01*
X213476525Y-61906632D01*
X213683368Y-62113475D01*
X213926589Y-62275990D01*
X214196842Y-62387932D01*
X214483740Y-62445000D01*
X214776260Y-62445000D01*
X215063158Y-62387932D01*
X215065000Y-62387169D01*
X215065001Y-67780375D01*
X214975518Y-67789188D01*
X214855820Y-67825498D01*
X214745506Y-67884463D01*
X214648815Y-67963815D01*
X214569463Y-68060506D01*
X214510498Y-68170820D01*
X214474188Y-68290518D01*
X214461928Y-68415000D01*
X214461928Y-69580001D01*
X206015870Y-69580001D01*
X205886286Y-69450417D01*
X205905000Y-69356335D01*
X205905000Y-69073665D01*
X205849853Y-68796426D01*
X205741680Y-68535273D01*
X205584637Y-68300241D01*
X205384759Y-68100363D01*
X205149727Y-67943320D01*
X204888574Y-67835147D01*
X204611335Y-67780000D01*
X204328665Y-67780000D01*
X204051426Y-67835147D01*
X203790273Y-67943320D01*
X203555241Y-68100363D01*
X203355363Y-68300241D01*
X203198320Y-68535273D01*
X203090147Y-68796426D01*
X203035000Y-69073665D01*
X203035000Y-69356335D01*
X203053714Y-69450418D01*
X202924132Y-69580001D01*
X198288072Y-69580001D01*
X198288072Y-68415000D01*
X198275812Y-68290518D01*
X198239502Y-68170820D01*
X198180537Y-68060506D01*
X198101185Y-67963815D01*
X198004494Y-67884463D01*
X197894180Y-67825498D01*
X197774482Y-67789188D01*
X197685000Y-67780375D01*
X197685000Y-60700475D01*
X198025000Y-60700475D01*
X198025000Y-61219525D01*
X198126261Y-61728601D01*
X198324893Y-62208141D01*
X198613262Y-62639715D01*
X198980285Y-63006738D01*
X199411859Y-63295107D01*
X199891399Y-63493739D01*
X200400475Y-63595000D01*
X200919525Y-63595000D01*
X201428601Y-63493739D01*
X201908141Y-63295107D01*
X202339715Y-63006738D01*
X202706738Y-62639715D01*
X202995107Y-62208141D01*
X203193739Y-61728601D01*
X203295000Y-61219525D01*
X203295000Y-60813740D01*
X204255000Y-60813740D01*
X204255000Y-61106260D01*
X204312068Y-61393158D01*
X204424010Y-61663411D01*
X204586525Y-61906632D01*
X204793368Y-62113475D01*
X205036589Y-62275990D01*
X205306842Y-62387932D01*
X205593740Y-62445000D01*
X205886260Y-62445000D01*
X206173158Y-62387932D01*
X206443411Y-62275990D01*
X206686632Y-62113475D01*
X206893475Y-61906632D01*
X207055990Y-61663411D01*
X207167932Y-61393158D01*
X207225000Y-61106260D01*
X207225000Y-60813740D01*
X207167932Y-60526842D01*
X207055990Y-60256589D01*
X206893475Y-60013368D01*
X206686632Y-59806525D01*
X206443411Y-59644010D01*
X206173158Y-59532068D01*
X205886260Y-59475000D01*
X205593740Y-59475000D01*
X205306842Y-59532068D01*
X205036589Y-59644010D01*
X204793368Y-59806525D01*
X204586525Y-60013368D01*
X204424010Y-60256589D01*
X204312068Y-60526842D01*
X204255000Y-60813740D01*
X203295000Y-60813740D01*
X203295000Y-60700475D01*
X203193739Y-60191399D01*
X202995107Y-59711859D01*
X202706738Y-59280285D01*
X202339715Y-58913262D01*
X201908141Y-58624893D01*
X201428601Y-58426261D01*
X200919525Y-58325000D01*
X200400475Y-58325000D01*
X199891399Y-58426261D01*
X199411859Y-58624893D01*
X198980285Y-58913262D01*
X198613262Y-59280285D01*
X198324893Y-59711859D01*
X198126261Y-60191399D01*
X198025000Y-60700475D01*
X197685000Y-60700475D01*
X197685000Y-59948738D01*
X197955998Y-59767663D01*
X198197663Y-59525998D01*
X198387537Y-59241831D01*
X198518325Y-58926081D01*
X198585000Y-58590883D01*
X198585000Y-58249117D01*
X198518325Y-57913919D01*
X198387537Y-57598169D01*
X198197663Y-57314002D01*
X197955998Y-57072337D01*
X197671831Y-56882463D01*
X197356081Y-56751675D01*
X197020883Y-56685000D01*
X196679117Y-56685000D01*
X196343919Y-56751675D01*
X196028169Y-56882463D01*
X195744002Y-57072337D01*
X195502337Y-57314002D01*
X195312463Y-57598169D01*
X195181675Y-57913919D01*
X195115000Y-58249117D01*
X195115000Y-58590883D01*
X195181675Y-58926081D01*
X195312463Y-59241831D01*
X195468261Y-59475000D01*
X195433740Y-59475000D01*
X195146842Y-59532068D01*
X194876589Y-59644010D01*
X194633368Y-59806525D01*
X194426525Y-60013368D01*
X194264010Y-60256589D01*
X194152068Y-60526842D01*
X194095000Y-60813740D01*
X194095000Y-61106260D01*
X194152068Y-61393158D01*
X194264010Y-61663411D01*
X194426525Y-61906632D01*
X194633368Y-62113475D01*
X194876589Y-62275990D01*
X195146842Y-62387932D01*
X195433740Y-62445000D01*
X195726260Y-62445000D01*
X196013158Y-62387932D01*
X196015001Y-62387169D01*
X196015000Y-67780375D01*
X195925518Y-67789188D01*
X195805820Y-67825498D01*
X195695506Y-67884463D01*
X195598815Y-67963815D01*
X195519463Y-68060506D01*
X195460498Y-68170820D01*
X195424188Y-68290518D01*
X195411928Y-68415000D01*
X195411928Y-69580001D01*
X186965870Y-69580001D01*
X186836286Y-69450417D01*
X186855000Y-69356335D01*
X186855000Y-69073665D01*
X186799853Y-68796426D01*
X186691680Y-68535273D01*
X186534637Y-68300241D01*
X186334759Y-68100363D01*
X186099727Y-67943320D01*
X185838574Y-67835147D01*
X185561335Y-67780000D01*
X185278665Y-67780000D01*
X185001426Y-67835147D01*
X184740273Y-67943320D01*
X184505241Y-68100363D01*
X184305363Y-68300241D01*
X184148320Y-68535273D01*
X184040147Y-68796426D01*
X183985000Y-69073665D01*
X183985000Y-69356335D01*
X184003714Y-69450418D01*
X183874132Y-69580001D01*
X179238072Y-69580001D01*
X179238072Y-68415000D01*
X179225812Y-68290518D01*
X179189502Y-68170820D01*
X179130537Y-68060506D01*
X179051185Y-67963815D01*
X178954494Y-67884463D01*
X178844180Y-67825498D01*
X178724482Y-67789188D01*
X178635000Y-67780375D01*
X178635000Y-60700475D01*
X178975000Y-60700475D01*
X178975000Y-61219525D01*
X179076261Y-61728601D01*
X179274893Y-62208141D01*
X179563262Y-62639715D01*
X179930285Y-63006738D01*
X180361859Y-63295107D01*
X180841399Y-63493739D01*
X181350475Y-63595000D01*
X181869525Y-63595000D01*
X182378601Y-63493739D01*
X182858141Y-63295107D01*
X183289715Y-63006738D01*
X183656738Y-62639715D01*
X183945107Y-62208141D01*
X184143739Y-61728601D01*
X184245000Y-61219525D01*
X184245000Y-60813740D01*
X185205000Y-60813740D01*
X185205000Y-61106260D01*
X185262068Y-61393158D01*
X185374010Y-61663411D01*
X185536525Y-61906632D01*
X185743368Y-62113475D01*
X185986589Y-62275990D01*
X186256842Y-62387932D01*
X186543740Y-62445000D01*
X186836260Y-62445000D01*
X187123158Y-62387932D01*
X187393411Y-62275990D01*
X187636632Y-62113475D01*
X187843475Y-61906632D01*
X188005990Y-61663411D01*
X188117932Y-61393158D01*
X188175000Y-61106260D01*
X188175000Y-60813740D01*
X188117932Y-60526842D01*
X188005990Y-60256589D01*
X187843475Y-60013368D01*
X187636632Y-59806525D01*
X187393411Y-59644010D01*
X187123158Y-59532068D01*
X186836260Y-59475000D01*
X186543740Y-59475000D01*
X186256842Y-59532068D01*
X185986589Y-59644010D01*
X185743368Y-59806525D01*
X185536525Y-60013368D01*
X185374010Y-60256589D01*
X185262068Y-60526842D01*
X185205000Y-60813740D01*
X184245000Y-60813740D01*
X184245000Y-60700475D01*
X184143739Y-60191399D01*
X183945107Y-59711859D01*
X183656738Y-59280285D01*
X183289715Y-58913262D01*
X182858141Y-58624893D01*
X182378601Y-58426261D01*
X181869525Y-58325000D01*
X181350475Y-58325000D01*
X180841399Y-58426261D01*
X180361859Y-58624893D01*
X179930285Y-58913262D01*
X179563262Y-59280285D01*
X179274893Y-59711859D01*
X179076261Y-60191399D01*
X178975000Y-60700475D01*
X178635000Y-60700475D01*
X178635000Y-59948738D01*
X178905998Y-59767663D01*
X179147663Y-59525998D01*
X179337537Y-59241831D01*
X179468325Y-58926081D01*
X179535000Y-58590883D01*
X179535000Y-58249117D01*
X179468325Y-57913919D01*
X179337537Y-57598169D01*
X179147663Y-57314002D01*
X178905998Y-57072337D01*
X178621831Y-56882463D01*
X178306081Y-56751675D01*
X177970883Y-56685000D01*
X177629117Y-56685000D01*
X177293919Y-56751675D01*
X176978169Y-56882463D01*
X176694002Y-57072337D01*
X176452337Y-57314002D01*
X176262463Y-57598169D01*
X176131675Y-57913919D01*
X176065000Y-58249117D01*
X176065000Y-58590883D01*
X176131675Y-58926081D01*
X176262463Y-59241831D01*
X176418261Y-59475000D01*
X176383740Y-59475000D01*
X176096842Y-59532068D01*
X175826589Y-59644010D01*
X175583368Y-59806525D01*
X175376525Y-60013368D01*
X175214010Y-60256589D01*
X175102068Y-60526842D01*
X175045000Y-60813740D01*
X175045000Y-61106260D01*
X175102068Y-61393158D01*
X175214010Y-61663411D01*
X175376525Y-61906632D01*
X175583368Y-62113475D01*
X175826589Y-62275990D01*
X176096842Y-62387932D01*
X176383740Y-62445000D01*
X176676260Y-62445000D01*
X176963158Y-62387932D01*
X176965001Y-62387169D01*
X176965000Y-67780375D01*
X176875518Y-67789188D01*
X176755820Y-67825498D01*
X176645506Y-67884463D01*
X176548815Y-67963815D01*
X176469463Y-68060506D01*
X176410498Y-68170820D01*
X176374188Y-68290518D01*
X176361928Y-68415000D01*
X176361928Y-69580001D01*
X167915870Y-69580001D01*
X167786286Y-69450417D01*
X167805000Y-69356335D01*
X167805000Y-69073665D01*
X167749853Y-68796426D01*
X167641680Y-68535273D01*
X167484637Y-68300241D01*
X167284759Y-68100363D01*
X167049727Y-67943320D01*
X166788574Y-67835147D01*
X166511335Y-67780000D01*
X166228665Y-67780000D01*
X165951426Y-67835147D01*
X165690273Y-67943320D01*
X165455241Y-68100363D01*
X165255363Y-68300241D01*
X165098320Y-68535273D01*
X164990147Y-68796426D01*
X164935000Y-69073665D01*
X164935000Y-69356335D01*
X164953714Y-69450418D01*
X164824132Y-69580001D01*
X160188072Y-69580001D01*
X160188072Y-68415000D01*
X160175812Y-68290518D01*
X160139502Y-68170820D01*
X160080537Y-68060506D01*
X160001185Y-67963815D01*
X159904494Y-67884463D01*
X159794180Y-67825498D01*
X159674482Y-67789188D01*
X159585000Y-67780375D01*
X159585000Y-60700475D01*
X159925000Y-60700475D01*
X159925000Y-61219525D01*
X160026261Y-61728601D01*
X160224893Y-62208141D01*
X160513262Y-62639715D01*
X160880285Y-63006738D01*
X161311859Y-63295107D01*
X161791399Y-63493739D01*
X162300475Y-63595000D01*
X162819525Y-63595000D01*
X163328601Y-63493739D01*
X163808141Y-63295107D01*
X164239715Y-63006738D01*
X164606738Y-62639715D01*
X164895107Y-62208141D01*
X165093739Y-61728601D01*
X165195000Y-61219525D01*
X165195000Y-60813740D01*
X166155000Y-60813740D01*
X166155000Y-61106260D01*
X166212068Y-61393158D01*
X166324010Y-61663411D01*
X166486525Y-61906632D01*
X166693368Y-62113475D01*
X166936589Y-62275990D01*
X167206842Y-62387932D01*
X167493740Y-62445000D01*
X167786260Y-62445000D01*
X168073158Y-62387932D01*
X168343411Y-62275990D01*
X168586632Y-62113475D01*
X168793475Y-61906632D01*
X168955990Y-61663411D01*
X169067932Y-61393158D01*
X169125000Y-61106260D01*
X169125000Y-60813740D01*
X169067932Y-60526842D01*
X168955990Y-60256589D01*
X168793475Y-60013368D01*
X168586632Y-59806525D01*
X168343411Y-59644010D01*
X168073158Y-59532068D01*
X167786260Y-59475000D01*
X167493740Y-59475000D01*
X167206842Y-59532068D01*
X166936589Y-59644010D01*
X166693368Y-59806525D01*
X166486525Y-60013368D01*
X166324010Y-60256589D01*
X166212068Y-60526842D01*
X166155000Y-60813740D01*
X165195000Y-60813740D01*
X165195000Y-60700475D01*
X165093739Y-60191399D01*
X164895107Y-59711859D01*
X164606738Y-59280285D01*
X164239715Y-58913262D01*
X163808141Y-58624893D01*
X163328601Y-58426261D01*
X162819525Y-58325000D01*
X162300475Y-58325000D01*
X161791399Y-58426261D01*
X161311859Y-58624893D01*
X160880285Y-58913262D01*
X160513262Y-59280285D01*
X160224893Y-59711859D01*
X160026261Y-60191399D01*
X159925000Y-60700475D01*
X159585000Y-60700475D01*
X159585000Y-59948738D01*
X159855998Y-59767663D01*
X160097663Y-59525998D01*
X160287537Y-59241831D01*
X160418325Y-58926081D01*
X160485000Y-58590883D01*
X160485000Y-58249117D01*
X160418325Y-57913919D01*
X160287537Y-57598169D01*
X160097663Y-57314002D01*
X159855998Y-57072337D01*
X159571831Y-56882463D01*
X159256081Y-56751675D01*
X158920883Y-56685000D01*
X158579117Y-56685000D01*
X158243919Y-56751675D01*
X157928169Y-56882463D01*
X157644002Y-57072337D01*
X157402337Y-57314002D01*
X157212463Y-57598169D01*
X157081675Y-57913919D01*
X157015000Y-58249117D01*
X157015000Y-58590883D01*
X157081675Y-58926081D01*
X157212463Y-59241831D01*
X157368261Y-59475000D01*
X157333740Y-59475000D01*
X157046842Y-59532068D01*
X156776589Y-59644010D01*
X156533368Y-59806525D01*
X156326525Y-60013368D01*
X156164010Y-60256589D01*
X156052068Y-60526842D01*
X155995000Y-60813740D01*
X155995000Y-61106260D01*
X156052068Y-61393158D01*
X156164010Y-61663411D01*
X156326525Y-61906632D01*
X156533368Y-62113475D01*
X156776589Y-62275990D01*
X157046842Y-62387932D01*
X157333740Y-62445000D01*
X157626260Y-62445000D01*
X157913158Y-62387932D01*
X157915001Y-62387169D01*
X157915000Y-67780375D01*
X157825518Y-67789188D01*
X157705820Y-67825498D01*
X157595506Y-67884463D01*
X157498815Y-67963815D01*
X157419463Y-68060506D01*
X157360498Y-68170820D01*
X157324188Y-68290518D01*
X157311928Y-68415000D01*
X157311928Y-69580001D01*
X148865870Y-69580001D01*
X148736286Y-69450417D01*
X148755000Y-69356335D01*
X148755000Y-69073665D01*
X148699853Y-68796426D01*
X148591680Y-68535273D01*
X148434637Y-68300241D01*
X148234759Y-68100363D01*
X147999727Y-67943320D01*
X147738574Y-67835147D01*
X147461335Y-67780000D01*
X147178665Y-67780000D01*
X146901426Y-67835147D01*
X146640273Y-67943320D01*
X146405241Y-68100363D01*
X146205363Y-68300241D01*
X146048320Y-68535273D01*
X145940147Y-68796426D01*
X145885000Y-69073665D01*
X145885000Y-69356335D01*
X145903714Y-69450418D01*
X145774132Y-69580001D01*
X141138072Y-69580001D01*
X141138072Y-68415000D01*
X141125812Y-68290518D01*
X141089502Y-68170820D01*
X141030537Y-68060506D01*
X140951185Y-67963815D01*
X140854494Y-67884463D01*
X140744180Y-67825498D01*
X140624482Y-67789188D01*
X140535000Y-67780375D01*
X140535000Y-60700475D01*
X140875000Y-60700475D01*
X140875000Y-61219525D01*
X140976261Y-61728601D01*
X141174893Y-62208141D01*
X141463262Y-62639715D01*
X141830285Y-63006738D01*
X142261859Y-63295107D01*
X142741399Y-63493739D01*
X143250475Y-63595000D01*
X143769525Y-63595000D01*
X144278601Y-63493739D01*
X144758141Y-63295107D01*
X145189715Y-63006738D01*
X145556738Y-62639715D01*
X145845107Y-62208141D01*
X146043739Y-61728601D01*
X146145000Y-61219525D01*
X146145000Y-60813740D01*
X147105000Y-60813740D01*
X147105000Y-61106260D01*
X147162068Y-61393158D01*
X147274010Y-61663411D01*
X147436525Y-61906632D01*
X147643368Y-62113475D01*
X147886589Y-62275990D01*
X148156842Y-62387932D01*
X148443740Y-62445000D01*
X148736260Y-62445000D01*
X149023158Y-62387932D01*
X149293411Y-62275990D01*
X149536632Y-62113475D01*
X149743475Y-61906632D01*
X149905990Y-61663411D01*
X150017932Y-61393158D01*
X150075000Y-61106260D01*
X150075000Y-60813740D01*
X150017932Y-60526842D01*
X149905990Y-60256589D01*
X149743475Y-60013368D01*
X149536632Y-59806525D01*
X149293411Y-59644010D01*
X149023158Y-59532068D01*
X148736260Y-59475000D01*
X148443740Y-59475000D01*
X148156842Y-59532068D01*
X147886589Y-59644010D01*
X147643368Y-59806525D01*
X147436525Y-60013368D01*
X147274010Y-60256589D01*
X147162068Y-60526842D01*
X147105000Y-60813740D01*
X146145000Y-60813740D01*
X146145000Y-60700475D01*
X146043739Y-60191399D01*
X145845107Y-59711859D01*
X145556738Y-59280285D01*
X145189715Y-58913262D01*
X144758141Y-58624893D01*
X144278601Y-58426261D01*
X143769525Y-58325000D01*
X143250475Y-58325000D01*
X142741399Y-58426261D01*
X142261859Y-58624893D01*
X141830285Y-58913262D01*
X141463262Y-59280285D01*
X141174893Y-59711859D01*
X140976261Y-60191399D01*
X140875000Y-60700475D01*
X140535000Y-60700475D01*
X140535000Y-59948738D01*
X140805998Y-59767663D01*
X141047663Y-59525998D01*
X141237537Y-59241831D01*
X141368325Y-58926081D01*
X141435000Y-58590883D01*
X141435000Y-58249117D01*
X141368325Y-57913919D01*
X141237537Y-57598169D01*
X141047663Y-57314002D01*
X140805998Y-57072337D01*
X140521831Y-56882463D01*
X140206081Y-56751675D01*
X139870883Y-56685000D01*
X139529117Y-56685000D01*
X139193919Y-56751675D01*
X138878169Y-56882463D01*
X138594002Y-57072337D01*
X138352337Y-57314002D01*
X138162463Y-57598169D01*
X138031675Y-57913919D01*
X137965000Y-58249117D01*
X137965000Y-58590883D01*
X138031675Y-58926081D01*
X138162463Y-59241831D01*
X138318261Y-59475000D01*
X138283740Y-59475000D01*
X137996842Y-59532068D01*
X137726589Y-59644010D01*
X137483368Y-59806525D01*
X137276525Y-60013368D01*
X137114010Y-60256589D01*
X137002068Y-60526842D01*
X136945000Y-60813740D01*
X136945000Y-61106260D01*
X137002068Y-61393158D01*
X137114010Y-61663411D01*
X137276525Y-61906632D01*
X137483368Y-62113475D01*
X137726589Y-62275990D01*
X137996842Y-62387932D01*
X138283740Y-62445000D01*
X138576260Y-62445000D01*
X138863158Y-62387932D01*
X138865001Y-62387169D01*
X138865000Y-67780375D01*
X138775518Y-67789188D01*
X138655820Y-67825498D01*
X138545506Y-67884463D01*
X138448815Y-67963815D01*
X138369463Y-68060506D01*
X138310498Y-68170820D01*
X138274188Y-68290518D01*
X138261928Y-68415000D01*
X138261928Y-69580001D01*
X129815870Y-69580001D01*
X129686286Y-69450417D01*
X129705000Y-69356335D01*
X129705000Y-69073665D01*
X129649853Y-68796426D01*
X129541680Y-68535273D01*
X129384637Y-68300241D01*
X129184759Y-68100363D01*
X128949727Y-67943320D01*
X128688574Y-67835147D01*
X128411335Y-67780000D01*
X128128665Y-67780000D01*
X127851426Y-67835147D01*
X127590273Y-67943320D01*
X127355241Y-68100363D01*
X127155363Y-68300241D01*
X126998320Y-68535273D01*
X126890147Y-68796426D01*
X126835000Y-69073665D01*
X126835000Y-69356335D01*
X126853714Y-69450418D01*
X126724132Y-69580001D01*
X122088072Y-69580001D01*
X122088072Y-68415000D01*
X122075812Y-68290518D01*
X122039502Y-68170820D01*
X121980537Y-68060506D01*
X121901185Y-67963815D01*
X121804494Y-67884463D01*
X121694180Y-67825498D01*
X121574482Y-67789188D01*
X121485000Y-67780375D01*
X121485000Y-60700475D01*
X121825000Y-60700475D01*
X121825000Y-61219525D01*
X121926261Y-61728601D01*
X122124893Y-62208141D01*
X122413262Y-62639715D01*
X122780285Y-63006738D01*
X123211859Y-63295107D01*
X123691399Y-63493739D01*
X124200475Y-63595000D01*
X124719525Y-63595000D01*
X125228601Y-63493739D01*
X125708141Y-63295107D01*
X126139715Y-63006738D01*
X126506738Y-62639715D01*
X126795107Y-62208141D01*
X126993739Y-61728601D01*
X127095000Y-61219525D01*
X127095000Y-60813740D01*
X128055000Y-60813740D01*
X128055000Y-61106260D01*
X128112068Y-61393158D01*
X128224010Y-61663411D01*
X128386525Y-61906632D01*
X128593368Y-62113475D01*
X128836589Y-62275990D01*
X129106842Y-62387932D01*
X129393740Y-62445000D01*
X129686260Y-62445000D01*
X129973158Y-62387932D01*
X130243411Y-62275990D01*
X130486632Y-62113475D01*
X130693475Y-61906632D01*
X130855990Y-61663411D01*
X130967932Y-61393158D01*
X131025000Y-61106260D01*
X131025000Y-60813740D01*
X130967932Y-60526842D01*
X130855990Y-60256589D01*
X130693475Y-60013368D01*
X130486632Y-59806525D01*
X130243411Y-59644010D01*
X129973158Y-59532068D01*
X129686260Y-59475000D01*
X129393740Y-59475000D01*
X129106842Y-59532068D01*
X128836589Y-59644010D01*
X128593368Y-59806525D01*
X128386525Y-60013368D01*
X128224010Y-60256589D01*
X128112068Y-60526842D01*
X128055000Y-60813740D01*
X127095000Y-60813740D01*
X127095000Y-60700475D01*
X126993739Y-60191399D01*
X126795107Y-59711859D01*
X126506738Y-59280285D01*
X126139715Y-58913262D01*
X125708141Y-58624893D01*
X125228601Y-58426261D01*
X124719525Y-58325000D01*
X124200475Y-58325000D01*
X123691399Y-58426261D01*
X123211859Y-58624893D01*
X122780285Y-58913262D01*
X122413262Y-59280285D01*
X122124893Y-59711859D01*
X121926261Y-60191399D01*
X121825000Y-60700475D01*
X121485000Y-60700475D01*
X121485000Y-59948738D01*
X121755998Y-59767663D01*
X121997663Y-59525998D01*
X122187537Y-59241831D01*
X122318325Y-58926081D01*
X122385000Y-58590883D01*
X122385000Y-58249117D01*
X122318325Y-57913919D01*
X122187537Y-57598169D01*
X121997663Y-57314002D01*
X121755998Y-57072337D01*
X121471831Y-56882463D01*
X121156081Y-56751675D01*
X120820883Y-56685000D01*
X120479117Y-56685000D01*
X120143919Y-56751675D01*
X119828169Y-56882463D01*
X119544002Y-57072337D01*
X119302337Y-57314002D01*
X119112463Y-57598169D01*
X118981675Y-57913919D01*
X118915000Y-58249117D01*
X118915000Y-58590883D01*
X118981675Y-58926081D01*
X119112463Y-59241831D01*
X119268261Y-59475000D01*
X119233740Y-59475000D01*
X118946842Y-59532068D01*
X118676589Y-59644010D01*
X118433368Y-59806525D01*
X118226525Y-60013368D01*
X118064010Y-60256589D01*
X117952068Y-60526842D01*
X117895000Y-60813740D01*
X117895000Y-61106260D01*
X117952068Y-61393158D01*
X118064010Y-61663411D01*
X118226525Y-61906632D01*
X118433368Y-62113475D01*
X118676589Y-62275990D01*
X118946842Y-62387932D01*
X119233740Y-62445000D01*
X119526260Y-62445000D01*
X119813158Y-62387932D01*
X119815001Y-62387169D01*
X119815000Y-67780375D01*
X119725518Y-67789188D01*
X119605820Y-67825498D01*
X119495506Y-67884463D01*
X119398815Y-67963815D01*
X119319463Y-68060506D01*
X119260498Y-68170820D01*
X119224188Y-68290518D01*
X119211928Y-68415000D01*
X119211928Y-69580001D01*
X110765870Y-69580001D01*
X110636286Y-69450417D01*
X110655000Y-69356335D01*
X110655000Y-69073665D01*
X110599853Y-68796426D01*
X110491680Y-68535273D01*
X110334637Y-68300241D01*
X110134759Y-68100363D01*
X109899727Y-67943320D01*
X109638574Y-67835147D01*
X109361335Y-67780000D01*
X109078665Y-67780000D01*
X108801426Y-67835147D01*
X108540273Y-67943320D01*
X108305241Y-68100363D01*
X108105363Y-68300241D01*
X107948320Y-68535273D01*
X107840147Y-68796426D01*
X107785000Y-69073665D01*
X107785000Y-69356335D01*
X107803714Y-69450418D01*
X107529132Y-69725001D01*
X103038072Y-69725001D01*
X103038072Y-68415000D01*
X103025812Y-68290518D01*
X102989502Y-68170820D01*
X102930537Y-68060506D01*
X102851185Y-67963815D01*
X102754494Y-67884463D01*
X102644180Y-67825498D01*
X102524482Y-67789188D01*
X102435000Y-67780375D01*
X102435000Y-60700475D01*
X102775000Y-60700475D01*
X102775000Y-61219525D01*
X102876261Y-61728601D01*
X103074893Y-62208141D01*
X103363262Y-62639715D01*
X103730285Y-63006738D01*
X104161859Y-63295107D01*
X104641399Y-63493739D01*
X105150475Y-63595000D01*
X105669525Y-63595000D01*
X106178601Y-63493739D01*
X106658141Y-63295107D01*
X107089715Y-63006738D01*
X107456738Y-62639715D01*
X107745107Y-62208141D01*
X107943739Y-61728601D01*
X108045000Y-61219525D01*
X108045000Y-60813740D01*
X109005000Y-60813740D01*
X109005000Y-61106260D01*
X109062068Y-61393158D01*
X109174010Y-61663411D01*
X109336525Y-61906632D01*
X109543368Y-62113475D01*
X109786589Y-62275990D01*
X110056842Y-62387932D01*
X110343740Y-62445000D01*
X110636260Y-62445000D01*
X110923158Y-62387932D01*
X111193411Y-62275990D01*
X111436632Y-62113475D01*
X111643475Y-61906632D01*
X111805990Y-61663411D01*
X111917932Y-61393158D01*
X111975000Y-61106260D01*
X111975000Y-60813740D01*
X111917932Y-60526842D01*
X111805990Y-60256589D01*
X111643475Y-60013368D01*
X111436632Y-59806525D01*
X111193411Y-59644010D01*
X110923158Y-59532068D01*
X110636260Y-59475000D01*
X110343740Y-59475000D01*
X110056842Y-59532068D01*
X109786589Y-59644010D01*
X109543368Y-59806525D01*
X109336525Y-60013368D01*
X109174010Y-60256589D01*
X109062068Y-60526842D01*
X109005000Y-60813740D01*
X108045000Y-60813740D01*
X108045000Y-60700475D01*
X107943739Y-60191399D01*
X107745107Y-59711859D01*
X107456738Y-59280285D01*
X107089715Y-58913262D01*
X106658141Y-58624893D01*
X106178601Y-58426261D01*
X105669525Y-58325000D01*
X105150475Y-58325000D01*
X104641399Y-58426261D01*
X104161859Y-58624893D01*
X103730285Y-58913262D01*
X103363262Y-59280285D01*
X103074893Y-59711859D01*
X102876261Y-60191399D01*
X102775000Y-60700475D01*
X102435000Y-60700475D01*
X102435000Y-59948738D01*
X102705998Y-59767663D01*
X102947663Y-59525998D01*
X103137537Y-59241831D01*
X103268325Y-58926081D01*
X103335000Y-58590883D01*
X103335000Y-58249117D01*
X103268325Y-57913919D01*
X103137537Y-57598169D01*
X102947663Y-57314002D01*
X102705998Y-57072337D01*
X102421831Y-56882463D01*
X102106081Y-56751675D01*
X101921703Y-56715000D01*
X106421262Y-56715000D01*
X106602337Y-56985998D01*
X106844002Y-57227663D01*
X107128169Y-57417537D01*
X107443919Y-57548325D01*
X107779117Y-57615000D01*
X108120883Y-57615000D01*
X108456081Y-57548325D01*
X108771831Y-57417537D01*
X109055998Y-57227663D01*
X109297663Y-56985998D01*
X109487537Y-56701831D01*
X109618325Y-56386081D01*
X109685000Y-56050883D01*
X109685000Y-55709117D01*
X125265000Y-55709117D01*
X125265000Y-56050883D01*
X125331675Y-56386081D01*
X125462463Y-56701831D01*
X125652337Y-56985998D01*
X125894002Y-57227663D01*
X126178169Y-57417537D01*
X126493919Y-57548325D01*
X126829117Y-57615000D01*
X127170883Y-57615000D01*
X127506081Y-57548325D01*
X127821831Y-57417537D01*
X128105998Y-57227663D01*
X128347663Y-56985998D01*
X128537537Y-56701831D01*
X128668325Y-56386081D01*
X128735000Y-56050883D01*
X128735000Y-55709117D01*
X144315000Y-55709117D01*
X144315000Y-56050883D01*
X144381675Y-56386081D01*
X144512463Y-56701831D01*
X144702337Y-56985998D01*
X144944002Y-57227663D01*
X145228169Y-57417537D01*
X145543919Y-57548325D01*
X145879117Y-57615000D01*
X146220883Y-57615000D01*
X146556081Y-57548325D01*
X146871831Y-57417537D01*
X147155998Y-57227663D01*
X147397663Y-56985998D01*
X147587537Y-56701831D01*
X147718325Y-56386081D01*
X147785000Y-56050883D01*
X147785000Y-55709117D01*
X163365000Y-55709117D01*
X163365000Y-56050883D01*
X163431675Y-56386081D01*
X163562463Y-56701831D01*
X163752337Y-56985998D01*
X163994002Y-57227663D01*
X164278169Y-57417537D01*
X164593919Y-57548325D01*
X164929117Y-57615000D01*
X165270883Y-57615000D01*
X165606081Y-57548325D01*
X165921831Y-57417537D01*
X166205998Y-57227663D01*
X166447663Y-56985998D01*
X166637537Y-56701831D01*
X166768325Y-56386081D01*
X166835000Y-56050883D01*
X166835000Y-55709117D01*
X182415000Y-55709117D01*
X182415000Y-56050883D01*
X182481675Y-56386081D01*
X182612463Y-56701831D01*
X182802337Y-56985998D01*
X183044002Y-57227663D01*
X183328169Y-57417537D01*
X183643919Y-57548325D01*
X183979117Y-57615000D01*
X184320883Y-57615000D01*
X184656081Y-57548325D01*
X184971831Y-57417537D01*
X185255998Y-57227663D01*
X185497663Y-56985998D01*
X185687537Y-56701831D01*
X185818325Y-56386081D01*
X185885000Y-56050883D01*
X185885000Y-55709117D01*
X201465000Y-55709117D01*
X201465000Y-56050883D01*
X201531675Y-56386081D01*
X201662463Y-56701831D01*
X201852337Y-56985998D01*
X202094002Y-57227663D01*
X202378169Y-57417537D01*
X202693919Y-57548325D01*
X203029117Y-57615000D01*
X203370883Y-57615000D01*
X203706081Y-57548325D01*
X204021831Y-57417537D01*
X204305998Y-57227663D01*
X204547663Y-56985998D01*
X204737537Y-56701831D01*
X204868325Y-56386081D01*
X204935000Y-56050883D01*
X204935000Y-55709117D01*
X220515000Y-55709117D01*
X220515000Y-56050883D01*
X220581675Y-56386081D01*
X220712463Y-56701831D01*
X220902337Y-56985998D01*
X221144002Y-57227663D01*
X221428169Y-57417537D01*
X221743919Y-57548325D01*
X222079117Y-57615000D01*
X222420883Y-57615000D01*
X222756081Y-57548325D01*
X223071831Y-57417537D01*
X223355998Y-57227663D01*
X223597663Y-56985998D01*
X223787537Y-56701831D01*
X223918325Y-56386081D01*
X223985000Y-56050883D01*
X223985000Y-55709117D01*
X223918325Y-55373919D01*
X223787537Y-55058169D01*
X223597663Y-54774002D01*
X223355998Y-54532337D01*
X223071831Y-54342463D01*
X222756081Y-54211675D01*
X222420883Y-54145000D01*
X222079117Y-54145000D01*
X221743919Y-54211675D01*
X221428169Y-54342463D01*
X221144002Y-54532337D01*
X220902337Y-54774002D01*
X220712463Y-55058169D01*
X220581675Y-55373919D01*
X220515000Y-55709117D01*
X204935000Y-55709117D01*
X204868325Y-55373919D01*
X204737537Y-55058169D01*
X204547663Y-54774002D01*
X204305998Y-54532337D01*
X204021831Y-54342463D01*
X203706081Y-54211675D01*
X203370883Y-54145000D01*
X203029117Y-54145000D01*
X202693919Y-54211675D01*
X202378169Y-54342463D01*
X202094002Y-54532337D01*
X201852337Y-54774002D01*
X201662463Y-55058169D01*
X201531675Y-55373919D01*
X201465000Y-55709117D01*
X185885000Y-55709117D01*
X185818325Y-55373919D01*
X185687537Y-55058169D01*
X185497663Y-54774002D01*
X185255998Y-54532337D01*
X184971831Y-54342463D01*
X184656081Y-54211675D01*
X184320883Y-54145000D01*
X183979117Y-54145000D01*
X183643919Y-54211675D01*
X183328169Y-54342463D01*
X183044002Y-54532337D01*
X182802337Y-54774002D01*
X182612463Y-55058169D01*
X182481675Y-55373919D01*
X182415000Y-55709117D01*
X166835000Y-55709117D01*
X166768325Y-55373919D01*
X166637537Y-55058169D01*
X166447663Y-54774002D01*
X166205998Y-54532337D01*
X165921831Y-54342463D01*
X165606081Y-54211675D01*
X165270883Y-54145000D01*
X164929117Y-54145000D01*
X164593919Y-54211675D01*
X164278169Y-54342463D01*
X163994002Y-54532337D01*
X163752337Y-54774002D01*
X163562463Y-55058169D01*
X163431675Y-55373919D01*
X163365000Y-55709117D01*
X147785000Y-55709117D01*
X147718325Y-55373919D01*
X147587537Y-55058169D01*
X147397663Y-54774002D01*
X147155998Y-54532337D01*
X146871831Y-54342463D01*
X146556081Y-54211675D01*
X146220883Y-54145000D01*
X145879117Y-54145000D01*
X145543919Y-54211675D01*
X145228169Y-54342463D01*
X144944002Y-54532337D01*
X144702337Y-54774002D01*
X144512463Y-55058169D01*
X144381675Y-55373919D01*
X144315000Y-55709117D01*
X128735000Y-55709117D01*
X128668325Y-55373919D01*
X128537537Y-55058169D01*
X128347663Y-54774002D01*
X128105998Y-54532337D01*
X127821831Y-54342463D01*
X127506081Y-54211675D01*
X127170883Y-54145000D01*
X126829117Y-54145000D01*
X126493919Y-54211675D01*
X126178169Y-54342463D01*
X125894002Y-54532337D01*
X125652337Y-54774002D01*
X125462463Y-55058169D01*
X125331675Y-55373919D01*
X125265000Y-55709117D01*
X109685000Y-55709117D01*
X109621415Y-55389453D01*
X112210858Y-52800011D01*
X209613971Y-52800011D01*
X209654989Y-52804051D01*
X209696007Y-52800011D01*
X209696008Y-52800011D01*
X209818678Y-52787929D01*
X209976076Y-52740183D01*
X210121135Y-52662647D01*
X210248280Y-52558302D01*
X210274435Y-52526432D01*
X211197796Y-51603072D01*
X212255000Y-51603072D01*
X212379482Y-51590812D01*
X212499180Y-51554502D01*
X212609494Y-51495537D01*
X212706185Y-51416185D01*
X212785537Y-51319494D01*
X212844502Y-51209180D01*
X212880812Y-51089482D01*
X212893072Y-50965000D01*
X212893072Y-49365000D01*
X212880812Y-49240518D01*
X212844502Y-49120820D01*
X212785537Y-49010506D01*
X212706185Y-48913815D01*
X212609494Y-48834463D01*
X212499180Y-48775498D01*
X212379482Y-48739188D01*
X212255000Y-48726928D01*
X210655000Y-48726928D01*
X210530518Y-48739188D01*
X210410820Y-48775498D01*
X210300506Y-48834463D01*
X210203815Y-48913815D01*
X210124463Y-49010506D01*
X210065498Y-49120820D01*
X210029188Y-49240518D01*
X210016928Y-49365000D01*
X210016928Y-50422204D01*
X209309122Y-51130011D01*
X205534385Y-51130011D01*
X205584637Y-51079759D01*
X205741680Y-50844727D01*
X205849853Y-50583574D01*
X205905000Y-50306335D01*
X205905000Y-50023665D01*
X205886285Y-49929582D01*
X208860869Y-46954999D01*
X217464320Y-46954999D01*
X217427832Y-47043088D01*
X217365000Y-47358967D01*
X217365000Y-47681033D01*
X217427832Y-47996912D01*
X217551082Y-48294463D01*
X217730013Y-48562252D01*
X217957748Y-48789987D01*
X218165001Y-48928469D01*
X218165001Y-49047183D01*
X218160241Y-49050363D01*
X217960363Y-49250241D01*
X217803320Y-49485273D01*
X217695147Y-49746426D01*
X217640000Y-50023665D01*
X217640000Y-50306335D01*
X217695147Y-50583574D01*
X217803320Y-50844727D01*
X217960363Y-51079759D01*
X218160241Y-51279637D01*
X218395273Y-51436680D01*
X218656426Y-51544853D01*
X218933665Y-51600000D01*
X219216335Y-51600000D01*
X219493574Y-51544853D01*
X219754727Y-51436680D01*
X219989759Y-51279637D01*
X220189637Y-51079759D01*
X220346680Y-50844727D01*
X220454853Y-50583574D01*
X220510000Y-50306335D01*
X220510000Y-50023665D01*
X220454853Y-49746426D01*
X220346680Y-49485273D01*
X220189637Y-49250241D01*
X219989759Y-49050363D01*
X219835000Y-48946957D01*
X219835000Y-48928468D01*
X220042252Y-48789987D01*
X220269987Y-48562252D01*
X220448918Y-48294463D01*
X220572168Y-47996912D01*
X220635000Y-47681033D01*
X220635000Y-47358967D01*
X220572168Y-47043088D01*
X220535680Y-46954999D01*
X222254132Y-46954999D01*
X222413628Y-47114496D01*
X222365000Y-47358967D01*
X222365000Y-47681033D01*
X222427832Y-47996912D01*
X222551082Y-48294463D01*
X222730013Y-48562252D01*
X222957748Y-48789987D01*
X223225537Y-48968918D01*
X223523088Y-49092168D01*
X223838967Y-49155000D01*
X224161033Y-49155000D01*
X224476912Y-49092168D01*
X224774463Y-48968918D01*
X225042252Y-48789987D01*
X225269987Y-48562252D01*
X225448918Y-48294463D01*
X225572168Y-47996912D01*
X225635000Y-47681033D01*
X225635000Y-47358967D01*
X225572168Y-47043088D01*
X225448918Y-46745537D01*
X225269987Y-46477748D01*
X225042252Y-46250013D01*
X224774463Y-46071082D01*
X224476912Y-45947832D01*
X224161033Y-45885000D01*
X223838967Y-45885000D01*
X223594496Y-45933628D01*
X223219445Y-45558578D01*
X223193290Y-45526708D01*
X223066145Y-45422363D01*
X222921086Y-45344827D01*
X222763688Y-45297081D01*
X222641018Y-45284999D01*
X222641017Y-45284999D01*
X222599999Y-45280959D01*
X222558981Y-45284999D01*
X208556008Y-45284999D01*
X208515000Y-45280960D01*
X208473992Y-45284999D01*
X208473982Y-45284999D01*
X208351312Y-45297081D01*
X208193914Y-45344827D01*
X208048855Y-45422363D01*
X207921710Y-45526708D01*
X207895560Y-45558572D01*
X204705418Y-48748715D01*
X204611335Y-48730000D01*
X204328665Y-48730000D01*
X204051426Y-48785147D01*
X203790273Y-48893320D01*
X203555241Y-49050363D01*
X203355363Y-49250241D01*
X203198320Y-49485273D01*
X203090147Y-49746426D01*
X203035000Y-50023665D01*
X203035000Y-50306335D01*
X203053714Y-50400418D01*
X202924132Y-50530001D01*
X198288072Y-50530001D01*
X198288072Y-49365000D01*
X198275812Y-49240518D01*
X198239502Y-49120820D01*
X198180537Y-49010506D01*
X198101185Y-48913815D01*
X198004494Y-48834463D01*
X197894180Y-48775498D01*
X197774482Y-48739188D01*
X197685000Y-48730375D01*
X197685000Y-41650475D01*
X198025000Y-41650475D01*
X198025000Y-42169525D01*
X198126261Y-42678601D01*
X198324893Y-43158141D01*
X198613262Y-43589715D01*
X198980285Y-43956738D01*
X199411859Y-44245107D01*
X199891399Y-44443739D01*
X200400475Y-44545000D01*
X200919525Y-44545000D01*
X201428601Y-44443739D01*
X201908141Y-44245107D01*
X202339715Y-43956738D01*
X202706738Y-43589715D01*
X202995107Y-43158141D01*
X203193739Y-42678601D01*
X203295000Y-42169525D01*
X203295000Y-41763740D01*
X204255000Y-41763740D01*
X204255000Y-42056260D01*
X204312068Y-42343158D01*
X204424010Y-42613411D01*
X204586525Y-42856632D01*
X204793368Y-43063475D01*
X205036589Y-43225990D01*
X205306842Y-43337932D01*
X205593740Y-43395000D01*
X205886260Y-43395000D01*
X206173158Y-43337932D01*
X206443411Y-43225990D01*
X206686632Y-43063475D01*
X206893475Y-42856632D01*
X207055990Y-42613411D01*
X207167932Y-42343158D01*
X207225000Y-42056260D01*
X207225000Y-41763740D01*
X207167932Y-41476842D01*
X207055990Y-41206589D01*
X206893475Y-40963368D01*
X206686632Y-40756525D01*
X206443411Y-40594010D01*
X206173158Y-40482068D01*
X205886260Y-40425000D01*
X205593740Y-40425000D01*
X205306842Y-40482068D01*
X205036589Y-40594010D01*
X204793368Y-40756525D01*
X204586525Y-40963368D01*
X204424010Y-41206589D01*
X204312068Y-41476842D01*
X204255000Y-41763740D01*
X203295000Y-41763740D01*
X203295000Y-41650475D01*
X203193739Y-41141399D01*
X202995107Y-40661859D01*
X202706738Y-40230285D01*
X202339715Y-39863262D01*
X201908141Y-39574893D01*
X201428601Y-39376261D01*
X200919525Y-39275000D01*
X200400475Y-39275000D01*
X199891399Y-39376261D01*
X199411859Y-39574893D01*
X198980285Y-39863262D01*
X198613262Y-40230285D01*
X198324893Y-40661859D01*
X198126261Y-41141399D01*
X198025000Y-41650475D01*
X197685000Y-41650475D01*
X197685000Y-40898738D01*
X197955998Y-40717663D01*
X198197663Y-40475998D01*
X198387537Y-40191831D01*
X198518325Y-39876081D01*
X198585000Y-39540883D01*
X198585000Y-39199117D01*
X198549372Y-39020000D01*
X214011928Y-39020000D01*
X214011928Y-42020000D01*
X214024188Y-42144482D01*
X214060498Y-42264180D01*
X214119463Y-42374494D01*
X214198815Y-42471185D01*
X214295506Y-42550537D01*
X214405820Y-42609502D01*
X214525518Y-42645812D01*
X214650000Y-42658072D01*
X217150000Y-42658072D01*
X217274482Y-42645812D01*
X217394180Y-42609502D01*
X217504494Y-42550537D01*
X217601185Y-42471185D01*
X217680537Y-42374494D01*
X217739502Y-42264180D01*
X217775812Y-42144482D01*
X217788072Y-42020000D01*
X217788072Y-39020000D01*
X225211928Y-39020000D01*
X225211928Y-42020000D01*
X225224188Y-42144482D01*
X225260498Y-42264180D01*
X225319463Y-42374494D01*
X225398815Y-42471185D01*
X225495506Y-42550537D01*
X225605820Y-42609502D01*
X225725518Y-42645812D01*
X225850000Y-42658072D01*
X228350000Y-42658072D01*
X228474482Y-42645812D01*
X228594180Y-42609502D01*
X228704494Y-42550537D01*
X228801185Y-42471185D01*
X228880537Y-42374494D01*
X228939502Y-42264180D01*
X228975812Y-42144482D01*
X228988072Y-42020000D01*
X228988072Y-39020000D01*
X228975812Y-38895518D01*
X228939502Y-38775820D01*
X228880537Y-38665506D01*
X228801185Y-38568815D01*
X228704494Y-38489463D01*
X228594180Y-38430498D01*
X228474482Y-38394188D01*
X228350000Y-38381928D01*
X225850000Y-38381928D01*
X225725518Y-38394188D01*
X225605820Y-38430498D01*
X225495506Y-38489463D01*
X225398815Y-38568815D01*
X225319463Y-38665506D01*
X225260498Y-38775820D01*
X225224188Y-38895518D01*
X225211928Y-39020000D01*
X217788072Y-39020000D01*
X217775812Y-38895518D01*
X217739502Y-38775820D01*
X217680537Y-38665506D01*
X217601185Y-38568815D01*
X217504494Y-38489463D01*
X217394180Y-38430498D01*
X217274482Y-38394188D01*
X217150000Y-38381928D01*
X214650000Y-38381928D01*
X214525518Y-38394188D01*
X214405820Y-38430498D01*
X214295506Y-38489463D01*
X214198815Y-38568815D01*
X214119463Y-38665506D01*
X214060498Y-38775820D01*
X214024188Y-38895518D01*
X214011928Y-39020000D01*
X198549372Y-39020000D01*
X198518325Y-38863919D01*
X198387537Y-38548169D01*
X198197663Y-38264002D01*
X197955998Y-38022337D01*
X197671831Y-37832463D01*
X197356081Y-37701675D01*
X197020883Y-37635000D01*
X196679117Y-37635000D01*
X196343919Y-37701675D01*
X196028169Y-37832463D01*
X195744002Y-38022337D01*
X195502337Y-38264002D01*
X195312463Y-38548169D01*
X195181675Y-38863919D01*
X195115000Y-39199117D01*
X195115000Y-39540883D01*
X195181675Y-39876081D01*
X195312463Y-40191831D01*
X195468261Y-40425000D01*
X195433740Y-40425000D01*
X195146842Y-40482068D01*
X194876589Y-40594010D01*
X194633368Y-40756525D01*
X194426525Y-40963368D01*
X194264010Y-41206589D01*
X194152068Y-41476842D01*
X194095000Y-41763740D01*
X194095000Y-42056260D01*
X194152068Y-42343158D01*
X194264010Y-42613411D01*
X194426525Y-42856632D01*
X194633368Y-43063475D01*
X194876589Y-43225990D01*
X195146842Y-43337932D01*
X195433740Y-43395000D01*
X195726260Y-43395000D01*
X196013158Y-43337932D01*
X196015001Y-43337169D01*
X196015000Y-48730375D01*
X195925518Y-48739188D01*
X195805820Y-48775498D01*
X195695506Y-48834463D01*
X195598815Y-48913815D01*
X195519463Y-49010506D01*
X195460498Y-49120820D01*
X195424188Y-49240518D01*
X195411928Y-49365000D01*
X195411928Y-50530001D01*
X186965870Y-50530001D01*
X186836286Y-50400417D01*
X186855000Y-50306335D01*
X186855000Y-50023665D01*
X186799853Y-49746426D01*
X186691680Y-49485273D01*
X186534637Y-49250241D01*
X186334759Y-49050363D01*
X186099727Y-48893320D01*
X185838574Y-48785147D01*
X185561335Y-48730000D01*
X185278665Y-48730000D01*
X185001426Y-48785147D01*
X184740273Y-48893320D01*
X184505241Y-49050363D01*
X184305363Y-49250241D01*
X184148320Y-49485273D01*
X184040147Y-49746426D01*
X183985000Y-50023665D01*
X183985000Y-50306335D01*
X184003714Y-50400418D01*
X183874132Y-50530001D01*
X179238072Y-50530001D01*
X179238072Y-49365000D01*
X179225812Y-49240518D01*
X179189502Y-49120820D01*
X179130537Y-49010506D01*
X179051185Y-48913815D01*
X178954494Y-48834463D01*
X178844180Y-48775498D01*
X178724482Y-48739188D01*
X178635000Y-48730375D01*
X178635000Y-41650475D01*
X178975000Y-41650475D01*
X178975000Y-42169525D01*
X179076261Y-42678601D01*
X179274893Y-43158141D01*
X179563262Y-43589715D01*
X179930285Y-43956738D01*
X180361859Y-44245107D01*
X180841399Y-44443739D01*
X181350475Y-44545000D01*
X181869525Y-44545000D01*
X182378601Y-44443739D01*
X182858141Y-44245107D01*
X183289715Y-43956738D01*
X183656738Y-43589715D01*
X183945107Y-43158141D01*
X184143739Y-42678601D01*
X184245000Y-42169525D01*
X184245000Y-41763740D01*
X185205000Y-41763740D01*
X185205000Y-42056260D01*
X185262068Y-42343158D01*
X185374010Y-42613411D01*
X185536525Y-42856632D01*
X185743368Y-43063475D01*
X185986589Y-43225990D01*
X186256842Y-43337932D01*
X186543740Y-43395000D01*
X186836260Y-43395000D01*
X187123158Y-43337932D01*
X187393411Y-43225990D01*
X187636632Y-43063475D01*
X187843475Y-42856632D01*
X188005990Y-42613411D01*
X188117932Y-42343158D01*
X188175000Y-42056260D01*
X188175000Y-41763740D01*
X188117932Y-41476842D01*
X188005990Y-41206589D01*
X187843475Y-40963368D01*
X187636632Y-40756525D01*
X187393411Y-40594010D01*
X187123158Y-40482068D01*
X186836260Y-40425000D01*
X186543740Y-40425000D01*
X186256842Y-40482068D01*
X185986589Y-40594010D01*
X185743368Y-40756525D01*
X185536525Y-40963368D01*
X185374010Y-41206589D01*
X185262068Y-41476842D01*
X185205000Y-41763740D01*
X184245000Y-41763740D01*
X184245000Y-41650475D01*
X184143739Y-41141399D01*
X183945107Y-40661859D01*
X183656738Y-40230285D01*
X183289715Y-39863262D01*
X182858141Y-39574893D01*
X182378601Y-39376261D01*
X181869525Y-39275000D01*
X181350475Y-39275000D01*
X180841399Y-39376261D01*
X180361859Y-39574893D01*
X179930285Y-39863262D01*
X179563262Y-40230285D01*
X179274893Y-40661859D01*
X179076261Y-41141399D01*
X178975000Y-41650475D01*
X178635000Y-41650475D01*
X178635000Y-40898738D01*
X178905998Y-40717663D01*
X179147663Y-40475998D01*
X179337537Y-40191831D01*
X179468325Y-39876081D01*
X179535000Y-39540883D01*
X179535000Y-39199117D01*
X179468325Y-38863919D01*
X179337537Y-38548169D01*
X179147663Y-38264002D01*
X178905998Y-38022337D01*
X178621831Y-37832463D01*
X178306081Y-37701675D01*
X177970883Y-37635000D01*
X177629117Y-37635000D01*
X177293919Y-37701675D01*
X176978169Y-37832463D01*
X176694002Y-38022337D01*
X176452337Y-38264002D01*
X176262463Y-38548169D01*
X176131675Y-38863919D01*
X176065000Y-39199117D01*
X176065000Y-39540883D01*
X176131675Y-39876081D01*
X176262463Y-40191831D01*
X176418261Y-40425000D01*
X176383740Y-40425000D01*
X176096842Y-40482068D01*
X175826589Y-40594010D01*
X175583368Y-40756525D01*
X175376525Y-40963368D01*
X175214010Y-41206589D01*
X175102068Y-41476842D01*
X175045000Y-41763740D01*
X175045000Y-42056260D01*
X175102068Y-42343158D01*
X175214010Y-42613411D01*
X175376525Y-42856632D01*
X175583368Y-43063475D01*
X175826589Y-43225990D01*
X176096842Y-43337932D01*
X176383740Y-43395000D01*
X176676260Y-43395000D01*
X176963158Y-43337932D01*
X176965001Y-43337169D01*
X176965000Y-48730375D01*
X176875518Y-48739188D01*
X176755820Y-48775498D01*
X176645506Y-48834463D01*
X176548815Y-48913815D01*
X176469463Y-49010506D01*
X176410498Y-49120820D01*
X176374188Y-49240518D01*
X176361928Y-49365000D01*
X176361928Y-50530001D01*
X167915870Y-50530001D01*
X167786286Y-50400417D01*
X167805000Y-50306335D01*
X167805000Y-50023665D01*
X167749853Y-49746426D01*
X167641680Y-49485273D01*
X167484637Y-49250241D01*
X167284759Y-49050363D01*
X167049727Y-48893320D01*
X166788574Y-48785147D01*
X166511335Y-48730000D01*
X166228665Y-48730000D01*
X165951426Y-48785147D01*
X165690273Y-48893320D01*
X165455241Y-49050363D01*
X165255363Y-49250241D01*
X165098320Y-49485273D01*
X164990147Y-49746426D01*
X164935000Y-50023665D01*
X164935000Y-50306335D01*
X164953714Y-50400418D01*
X164824132Y-50530001D01*
X160188072Y-50530001D01*
X160188072Y-49365000D01*
X160175812Y-49240518D01*
X160139502Y-49120820D01*
X160080537Y-49010506D01*
X160001185Y-48913815D01*
X159904494Y-48834463D01*
X159794180Y-48775498D01*
X159674482Y-48739188D01*
X159585000Y-48730375D01*
X159585000Y-41650475D01*
X159925000Y-41650475D01*
X159925000Y-42169525D01*
X160026261Y-42678601D01*
X160224893Y-43158141D01*
X160513262Y-43589715D01*
X160880285Y-43956738D01*
X161311859Y-44245107D01*
X161791399Y-44443739D01*
X162300475Y-44545000D01*
X162819525Y-44545000D01*
X163328601Y-44443739D01*
X163808141Y-44245107D01*
X164239715Y-43956738D01*
X164606738Y-43589715D01*
X164895107Y-43158141D01*
X165093739Y-42678601D01*
X165195000Y-42169525D01*
X165195000Y-41763740D01*
X166155000Y-41763740D01*
X166155000Y-42056260D01*
X166212068Y-42343158D01*
X166324010Y-42613411D01*
X166486525Y-42856632D01*
X166693368Y-43063475D01*
X166936589Y-43225990D01*
X167206842Y-43337932D01*
X167493740Y-43395000D01*
X167786260Y-43395000D01*
X168073158Y-43337932D01*
X168343411Y-43225990D01*
X168586632Y-43063475D01*
X168793475Y-42856632D01*
X168955990Y-42613411D01*
X169067932Y-42343158D01*
X169125000Y-42056260D01*
X169125000Y-41763740D01*
X169067932Y-41476842D01*
X168955990Y-41206589D01*
X168793475Y-40963368D01*
X168586632Y-40756525D01*
X168343411Y-40594010D01*
X168073158Y-40482068D01*
X167786260Y-40425000D01*
X167493740Y-40425000D01*
X167206842Y-40482068D01*
X166936589Y-40594010D01*
X166693368Y-40756525D01*
X166486525Y-40963368D01*
X166324010Y-41206589D01*
X166212068Y-41476842D01*
X166155000Y-41763740D01*
X165195000Y-41763740D01*
X165195000Y-41650475D01*
X165093739Y-41141399D01*
X164895107Y-40661859D01*
X164606738Y-40230285D01*
X164239715Y-39863262D01*
X163808141Y-39574893D01*
X163328601Y-39376261D01*
X162819525Y-39275000D01*
X162300475Y-39275000D01*
X161791399Y-39376261D01*
X161311859Y-39574893D01*
X160880285Y-39863262D01*
X160513262Y-40230285D01*
X160224893Y-40661859D01*
X160026261Y-41141399D01*
X159925000Y-41650475D01*
X159585000Y-41650475D01*
X159585000Y-40898738D01*
X159855998Y-40717663D01*
X160097663Y-40475998D01*
X160287537Y-40191831D01*
X160418325Y-39876081D01*
X160485000Y-39540883D01*
X160485000Y-39199117D01*
X160418325Y-38863919D01*
X160287537Y-38548169D01*
X160097663Y-38264002D01*
X159855998Y-38022337D01*
X159571831Y-37832463D01*
X159256081Y-37701675D01*
X158920883Y-37635000D01*
X158579117Y-37635000D01*
X158243919Y-37701675D01*
X157928169Y-37832463D01*
X157644002Y-38022337D01*
X157402337Y-38264002D01*
X157212463Y-38548169D01*
X157081675Y-38863919D01*
X157015000Y-39199117D01*
X157015000Y-39540883D01*
X157081675Y-39876081D01*
X157212463Y-40191831D01*
X157368261Y-40425000D01*
X157333740Y-40425000D01*
X157046842Y-40482068D01*
X156776589Y-40594010D01*
X156533368Y-40756525D01*
X156326525Y-40963368D01*
X156164010Y-41206589D01*
X156052068Y-41476842D01*
X155995000Y-41763740D01*
X155995000Y-42056260D01*
X156052068Y-42343158D01*
X156164010Y-42613411D01*
X156326525Y-42856632D01*
X156533368Y-43063475D01*
X156776589Y-43225990D01*
X157046842Y-43337932D01*
X157333740Y-43395000D01*
X157626260Y-43395000D01*
X157913158Y-43337932D01*
X157915000Y-43337169D01*
X157915001Y-48730375D01*
X157825518Y-48739188D01*
X157705820Y-48775498D01*
X157595506Y-48834463D01*
X157498815Y-48913815D01*
X157419463Y-49010506D01*
X157360498Y-49120820D01*
X157324188Y-49240518D01*
X157311928Y-49365000D01*
X157311928Y-50530001D01*
X148865870Y-50530001D01*
X148736286Y-50400417D01*
X148755000Y-50306335D01*
X148755000Y-50023665D01*
X148699853Y-49746426D01*
X148591680Y-49485273D01*
X148434637Y-49250241D01*
X148234759Y-49050363D01*
X147999727Y-48893320D01*
X147738574Y-48785147D01*
X147461335Y-48730000D01*
X147178665Y-48730000D01*
X146901426Y-48785147D01*
X146640273Y-48893320D01*
X146405241Y-49050363D01*
X146205363Y-49250241D01*
X146048320Y-49485273D01*
X145940147Y-49746426D01*
X145885000Y-50023665D01*
X145885000Y-50306335D01*
X145903714Y-50400418D01*
X145774132Y-50530001D01*
X141138072Y-50530001D01*
X141138072Y-49365000D01*
X141125812Y-49240518D01*
X141089502Y-49120820D01*
X141030537Y-49010506D01*
X140951185Y-48913815D01*
X140854494Y-48834463D01*
X140744180Y-48775498D01*
X140624482Y-48739188D01*
X140535000Y-48730375D01*
X140535000Y-41650475D01*
X140875000Y-41650475D01*
X140875000Y-42169525D01*
X140976261Y-42678601D01*
X141174893Y-43158141D01*
X141463262Y-43589715D01*
X141830285Y-43956738D01*
X142261859Y-44245107D01*
X142741399Y-44443739D01*
X143250475Y-44545000D01*
X143769525Y-44545000D01*
X144278601Y-44443739D01*
X144758141Y-44245107D01*
X145189715Y-43956738D01*
X145556738Y-43589715D01*
X145845107Y-43158141D01*
X146043739Y-42678601D01*
X146145000Y-42169525D01*
X146145000Y-41763740D01*
X147105000Y-41763740D01*
X147105000Y-42056260D01*
X147162068Y-42343158D01*
X147274010Y-42613411D01*
X147436525Y-42856632D01*
X147643368Y-43063475D01*
X147886589Y-43225990D01*
X148156842Y-43337932D01*
X148443740Y-43395000D01*
X148736260Y-43395000D01*
X149023158Y-43337932D01*
X149293411Y-43225990D01*
X149536632Y-43063475D01*
X149743475Y-42856632D01*
X149905990Y-42613411D01*
X150017932Y-42343158D01*
X150075000Y-42056260D01*
X150075000Y-41763740D01*
X150017932Y-41476842D01*
X149905990Y-41206589D01*
X149743475Y-40963368D01*
X149536632Y-40756525D01*
X149293411Y-40594010D01*
X149023158Y-40482068D01*
X148736260Y-40425000D01*
X148443740Y-40425000D01*
X148156842Y-40482068D01*
X147886589Y-40594010D01*
X147643368Y-40756525D01*
X147436525Y-40963368D01*
X147274010Y-41206589D01*
X147162068Y-41476842D01*
X147105000Y-41763740D01*
X146145000Y-41763740D01*
X146145000Y-41650475D01*
X146043739Y-41141399D01*
X145845107Y-40661859D01*
X145556738Y-40230285D01*
X145189715Y-39863262D01*
X144758141Y-39574893D01*
X144278601Y-39376261D01*
X143769525Y-39275000D01*
X143250475Y-39275000D01*
X142741399Y-39376261D01*
X142261859Y-39574893D01*
X141830285Y-39863262D01*
X141463262Y-40230285D01*
X141174893Y-40661859D01*
X140976261Y-41141399D01*
X140875000Y-41650475D01*
X140535000Y-41650475D01*
X140535000Y-40898738D01*
X140805998Y-40717663D01*
X141047663Y-40475998D01*
X141237537Y-40191831D01*
X141368325Y-39876081D01*
X141435000Y-39540883D01*
X141435000Y-39199117D01*
X141368325Y-38863919D01*
X141237537Y-38548169D01*
X141047663Y-38264002D01*
X140805998Y-38022337D01*
X140521831Y-37832463D01*
X140206081Y-37701675D01*
X139870883Y-37635000D01*
X139529117Y-37635000D01*
X139193919Y-37701675D01*
X138878169Y-37832463D01*
X138594002Y-38022337D01*
X138352337Y-38264002D01*
X138162463Y-38548169D01*
X138031675Y-38863919D01*
X137965000Y-39199117D01*
X137965000Y-39540883D01*
X138031675Y-39876081D01*
X138162463Y-40191831D01*
X138318261Y-40425000D01*
X138283740Y-40425000D01*
X137996842Y-40482068D01*
X137726589Y-40594010D01*
X137483368Y-40756525D01*
X137276525Y-40963368D01*
X137114010Y-41206589D01*
X137002068Y-41476842D01*
X136945000Y-41763740D01*
X136945000Y-42056260D01*
X137002068Y-42343158D01*
X137114010Y-42613411D01*
X137276525Y-42856632D01*
X137483368Y-43063475D01*
X137726589Y-43225990D01*
X137996842Y-43337932D01*
X138283740Y-43395000D01*
X138576260Y-43395000D01*
X138863158Y-43337932D01*
X138865000Y-43337169D01*
X138865001Y-48730375D01*
X138775518Y-48739188D01*
X138655820Y-48775498D01*
X138545506Y-48834463D01*
X138448815Y-48913815D01*
X138369463Y-49010506D01*
X138310498Y-49120820D01*
X138274188Y-49240518D01*
X138261928Y-49365000D01*
X138261928Y-50530001D01*
X129815870Y-50530001D01*
X129686286Y-50400417D01*
X129705000Y-50306335D01*
X129705000Y-50023665D01*
X129649853Y-49746426D01*
X129541680Y-49485273D01*
X129384637Y-49250241D01*
X129184759Y-49050363D01*
X128949727Y-48893320D01*
X128688574Y-48785147D01*
X128411335Y-48730000D01*
X128128665Y-48730000D01*
X127851426Y-48785147D01*
X127590273Y-48893320D01*
X127355241Y-49050363D01*
X127155363Y-49250241D01*
X126998320Y-49485273D01*
X126890147Y-49746426D01*
X126835000Y-50023665D01*
X126835000Y-50306335D01*
X126853714Y-50400418D01*
X126724132Y-50530001D01*
X122088072Y-50530001D01*
X122088072Y-49365000D01*
X122075812Y-49240518D01*
X122039502Y-49120820D01*
X121980537Y-49010506D01*
X121901185Y-48913815D01*
X121804494Y-48834463D01*
X121694180Y-48775498D01*
X121574482Y-48739188D01*
X121485000Y-48730375D01*
X121485000Y-41650475D01*
X121825000Y-41650475D01*
X121825000Y-42169525D01*
X121926261Y-42678601D01*
X122124893Y-43158141D01*
X122413262Y-43589715D01*
X122780285Y-43956738D01*
X123211859Y-44245107D01*
X123691399Y-44443739D01*
X124200475Y-44545000D01*
X124719525Y-44545000D01*
X125228601Y-44443739D01*
X125708141Y-44245107D01*
X126139715Y-43956738D01*
X126506738Y-43589715D01*
X126795107Y-43158141D01*
X126993739Y-42678601D01*
X127095000Y-42169525D01*
X127095000Y-41763740D01*
X128055000Y-41763740D01*
X128055000Y-42056260D01*
X128112068Y-42343158D01*
X128224010Y-42613411D01*
X128386525Y-42856632D01*
X128593368Y-43063475D01*
X128836589Y-43225990D01*
X129106842Y-43337932D01*
X129393740Y-43395000D01*
X129686260Y-43395000D01*
X129973158Y-43337932D01*
X130243411Y-43225990D01*
X130486632Y-43063475D01*
X130693475Y-42856632D01*
X130855990Y-42613411D01*
X130967932Y-42343158D01*
X131025000Y-42056260D01*
X131025000Y-41763740D01*
X130967932Y-41476842D01*
X130855990Y-41206589D01*
X130693475Y-40963368D01*
X130486632Y-40756525D01*
X130243411Y-40594010D01*
X129973158Y-40482068D01*
X129686260Y-40425000D01*
X129393740Y-40425000D01*
X129106842Y-40482068D01*
X128836589Y-40594010D01*
X128593368Y-40756525D01*
X128386525Y-40963368D01*
X128224010Y-41206589D01*
X128112068Y-41476842D01*
X128055000Y-41763740D01*
X127095000Y-41763740D01*
X127095000Y-41650475D01*
X126993739Y-41141399D01*
X126795107Y-40661859D01*
X126506738Y-40230285D01*
X126139715Y-39863262D01*
X125708141Y-39574893D01*
X125228601Y-39376261D01*
X124719525Y-39275000D01*
X124200475Y-39275000D01*
X123691399Y-39376261D01*
X123211859Y-39574893D01*
X122780285Y-39863262D01*
X122413262Y-40230285D01*
X122124893Y-40661859D01*
X121926261Y-41141399D01*
X121825000Y-41650475D01*
X121485000Y-41650475D01*
X121485000Y-40898738D01*
X121755998Y-40717663D01*
X121997663Y-40475998D01*
X122187537Y-40191831D01*
X122318325Y-39876081D01*
X122385000Y-39540883D01*
X122385000Y-39199117D01*
X122318325Y-38863919D01*
X122187537Y-38548169D01*
X121997663Y-38264002D01*
X121755998Y-38022337D01*
X121471831Y-37832463D01*
X121156081Y-37701675D01*
X120820883Y-37635000D01*
X120479117Y-37635000D01*
X120143919Y-37701675D01*
X119828169Y-37832463D01*
X119544002Y-38022337D01*
X119302337Y-38264002D01*
X119112463Y-38548169D01*
X118981675Y-38863919D01*
X118915000Y-39199117D01*
X118915000Y-39540883D01*
X118981675Y-39876081D01*
X119112463Y-40191831D01*
X119268261Y-40425000D01*
X119233740Y-40425000D01*
X118946842Y-40482068D01*
X118676589Y-40594010D01*
X118433368Y-40756525D01*
X118226525Y-40963368D01*
X118064010Y-41206589D01*
X117952068Y-41476842D01*
X117895000Y-41763740D01*
X117895000Y-42056260D01*
X117952068Y-42343158D01*
X118064010Y-42613411D01*
X118226525Y-42856632D01*
X118433368Y-43063475D01*
X118676589Y-43225990D01*
X118946842Y-43337932D01*
X119233740Y-43395000D01*
X119526260Y-43395000D01*
X119813158Y-43337932D01*
X119815000Y-43337169D01*
X119815001Y-48730375D01*
X119725518Y-48739188D01*
X119605820Y-48775498D01*
X119495506Y-48834463D01*
X119398815Y-48913815D01*
X119319463Y-49010506D01*
X119260498Y-49120820D01*
X119224188Y-49240518D01*
X119211928Y-49365000D01*
X119211928Y-50530001D01*
X110765870Y-50530001D01*
X110636286Y-50400417D01*
X110655000Y-50306335D01*
X110655000Y-50023665D01*
X110599853Y-49746426D01*
X110491680Y-49485273D01*
X110334637Y-49250241D01*
X110134759Y-49050363D01*
X109899727Y-48893320D01*
X109638574Y-48785147D01*
X109361335Y-48730000D01*
X109078665Y-48730000D01*
X108801426Y-48785147D01*
X108540273Y-48893320D01*
X108305241Y-49050363D01*
X108105363Y-49250241D01*
X107948320Y-49485273D01*
X107840147Y-49746426D01*
X107785000Y-50023665D01*
X107785000Y-50306335D01*
X107840147Y-50583574D01*
X107948320Y-50844727D01*
X108105363Y-51079759D01*
X108305241Y-51279637D01*
X108540273Y-51436680D01*
X108801426Y-51544853D01*
X109078665Y-51600000D01*
X109361335Y-51600000D01*
X109455417Y-51581286D01*
X109800564Y-51926433D01*
X109826710Y-51958292D01*
X109953855Y-52062637D01*
X110098914Y-52140173D01*
X110256312Y-52187919D01*
X110378982Y-52200001D01*
X110378983Y-52200001D01*
X110420001Y-52204041D01*
X110447832Y-52201300D01*
X108440547Y-54208585D01*
X108120883Y-54145000D01*
X107779117Y-54145000D01*
X107443919Y-54211675D01*
X107128169Y-54342463D01*
X106844002Y-54532337D01*
X106602337Y-54774002D01*
X106421262Y-55045000D01*
X101181871Y-55045000D01*
X96451551Y-50314682D01*
X96521680Y-50209727D01*
X96629853Y-49948574D01*
X96685000Y-49671335D01*
X96685000Y-49388665D01*
X96629853Y-49111426D01*
X96521680Y-48850273D01*
X96364637Y-48615241D01*
X96164759Y-48415363D01*
X95932241Y-48260000D01*
X96164759Y-48104637D01*
X96364637Y-47904759D01*
X96521680Y-47669727D01*
X96629853Y-47408574D01*
X96685000Y-47131335D01*
X96685000Y-46848665D01*
X96629853Y-46571426D01*
X96521680Y-46310273D01*
X96364637Y-46075241D01*
X96164759Y-45875363D01*
X95932241Y-45720000D01*
X96164759Y-45564637D01*
X96364637Y-45364759D01*
X96521680Y-45129727D01*
X96629853Y-44868574D01*
X96685000Y-44591335D01*
X96685000Y-44308665D01*
X96629853Y-44031426D01*
X96521680Y-43770273D01*
X96364637Y-43535241D01*
X96164759Y-43335363D01*
X95932241Y-43180000D01*
X96164759Y-43024637D01*
X96364637Y-42824759D01*
X96521680Y-42589727D01*
X96629853Y-42328574D01*
X96685000Y-42051335D01*
X96685000Y-41768665D01*
X96684021Y-41763740D01*
X98845000Y-41763740D01*
X98845000Y-42056260D01*
X98902068Y-42343158D01*
X99014010Y-42613411D01*
X99176525Y-42856632D01*
X99383368Y-43063475D01*
X99626589Y-43225990D01*
X99896842Y-43337932D01*
X100183740Y-43395000D01*
X100476260Y-43395000D01*
X100763158Y-43337932D01*
X100765000Y-43337169D01*
X100765001Y-48730375D01*
X100675518Y-48739188D01*
X100555820Y-48775498D01*
X100445506Y-48834463D01*
X100348815Y-48913815D01*
X100269463Y-49010506D01*
X100210498Y-49120820D01*
X100174188Y-49240518D01*
X100161928Y-49365000D01*
X100161928Y-50965000D01*
X100174188Y-51089482D01*
X100210498Y-51209180D01*
X100269463Y-51319494D01*
X100348815Y-51416185D01*
X100445506Y-51495537D01*
X100555820Y-51554502D01*
X100675518Y-51590812D01*
X100800000Y-51603072D01*
X102400000Y-51603072D01*
X102524482Y-51590812D01*
X102644180Y-51554502D01*
X102754494Y-51495537D01*
X102851185Y-51416185D01*
X102930537Y-51319494D01*
X102989502Y-51209180D01*
X103025812Y-51089482D01*
X103038072Y-50965000D01*
X103038072Y-49365000D01*
X103025812Y-49240518D01*
X102989502Y-49120820D01*
X102930537Y-49010506D01*
X102851185Y-48913815D01*
X102754494Y-48834463D01*
X102644180Y-48775498D01*
X102524482Y-48739188D01*
X102435000Y-48730375D01*
X102435000Y-41650475D01*
X102775000Y-41650475D01*
X102775000Y-42169525D01*
X102876261Y-42678601D01*
X103074893Y-43158141D01*
X103363262Y-43589715D01*
X103730285Y-43956738D01*
X104161859Y-44245107D01*
X104641399Y-44443739D01*
X105150475Y-44545000D01*
X105669525Y-44545000D01*
X106178601Y-44443739D01*
X106658141Y-44245107D01*
X107089715Y-43956738D01*
X107456738Y-43589715D01*
X107745107Y-43158141D01*
X107943739Y-42678601D01*
X108045000Y-42169525D01*
X108045000Y-41763740D01*
X109005000Y-41763740D01*
X109005000Y-42056260D01*
X109062068Y-42343158D01*
X109174010Y-42613411D01*
X109336525Y-42856632D01*
X109543368Y-43063475D01*
X109786589Y-43225990D01*
X110056842Y-43337932D01*
X110343740Y-43395000D01*
X110636260Y-43395000D01*
X110923158Y-43337932D01*
X111193411Y-43225990D01*
X111436632Y-43063475D01*
X111643475Y-42856632D01*
X111805990Y-42613411D01*
X111917932Y-42343158D01*
X111975000Y-42056260D01*
X111975000Y-41763740D01*
X111917932Y-41476842D01*
X111805990Y-41206589D01*
X111643475Y-40963368D01*
X111436632Y-40756525D01*
X111193411Y-40594010D01*
X110923158Y-40482068D01*
X110636260Y-40425000D01*
X110343740Y-40425000D01*
X110056842Y-40482068D01*
X109786589Y-40594010D01*
X109543368Y-40756525D01*
X109336525Y-40963368D01*
X109174010Y-41206589D01*
X109062068Y-41476842D01*
X109005000Y-41763740D01*
X108045000Y-41763740D01*
X108045000Y-41650475D01*
X107943739Y-41141399D01*
X107745107Y-40661859D01*
X107456738Y-40230285D01*
X107089715Y-39863262D01*
X106658141Y-39574893D01*
X106178601Y-39376261D01*
X105669525Y-39275000D01*
X105150475Y-39275000D01*
X104641399Y-39376261D01*
X104161859Y-39574893D01*
X103730285Y-39863262D01*
X103363262Y-40230285D01*
X103074893Y-40661859D01*
X102876261Y-41141399D01*
X102775000Y-41650475D01*
X102435000Y-41650475D01*
X102435000Y-40898738D01*
X102705998Y-40717663D01*
X102947663Y-40475998D01*
X103137537Y-40191831D01*
X103268325Y-39876081D01*
X103335000Y-39540883D01*
X103335000Y-39199117D01*
X103268325Y-38863919D01*
X103137537Y-38548169D01*
X102947663Y-38264002D01*
X102705998Y-38022337D01*
X102421831Y-37832463D01*
X102106081Y-37701675D01*
X101770883Y-37635000D01*
X101429117Y-37635000D01*
X101093919Y-37701675D01*
X100778169Y-37832463D01*
X100494002Y-38022337D01*
X100252337Y-38264002D01*
X100062463Y-38548169D01*
X99931675Y-38863919D01*
X99865000Y-39199117D01*
X99865000Y-39540883D01*
X99931675Y-39876081D01*
X100062463Y-40191831D01*
X100218261Y-40425000D01*
X100183740Y-40425000D01*
X99896842Y-40482068D01*
X99626589Y-40594010D01*
X99383368Y-40756525D01*
X99176525Y-40963368D01*
X99014010Y-41206589D01*
X98902068Y-41476842D01*
X98845000Y-41763740D01*
X96684021Y-41763740D01*
X96629853Y-41491426D01*
X96521680Y-41230273D01*
X96364637Y-40995241D01*
X96164759Y-40795363D01*
X95930872Y-40639085D01*
X95991514Y-40606671D01*
X96063097Y-40362702D01*
X95250000Y-39549605D01*
X94436903Y-40362702D01*
X94508486Y-40606671D01*
X94572992Y-40637194D01*
X94570273Y-40638320D01*
X94335241Y-40795363D01*
X94135363Y-40995241D01*
X93978320Y-41230273D01*
X93870147Y-41491426D01*
X93815000Y-41768665D01*
X93815000Y-42051335D01*
X93870147Y-42328574D01*
X93978320Y-42589727D01*
X94135363Y-42824759D01*
X94335241Y-43024637D01*
X94567759Y-43180000D01*
X94335241Y-43335363D01*
X94135363Y-43535241D01*
X93978320Y-43770273D01*
X93870147Y-44031426D01*
X93815000Y-44308665D01*
X93815000Y-44591335D01*
X93870147Y-44868574D01*
X93978320Y-45129727D01*
X94135363Y-45364759D01*
X94335241Y-45564637D01*
X94567759Y-45720000D01*
X94335241Y-45875363D01*
X94135363Y-46075241D01*
X93978320Y-46310273D01*
X93870147Y-46571426D01*
X93815000Y-46848665D01*
X93815000Y-47131335D01*
X93870147Y-47408574D01*
X93978320Y-47669727D01*
X94135363Y-47904759D01*
X94335241Y-48104637D01*
X94567759Y-48260000D01*
X94335241Y-48415363D01*
X94135363Y-48615241D01*
X93978320Y-48850273D01*
X93870147Y-49111426D01*
X93815000Y-49388665D01*
X93815000Y-49671335D01*
X93870147Y-49948574D01*
X93978320Y-50209727D01*
X94135363Y-50444759D01*
X94335241Y-50644637D01*
X94567759Y-50800000D01*
X94335241Y-50955363D01*
X94135363Y-51155241D01*
X94082070Y-51235000D01*
X91785868Y-51235000D01*
X91640000Y-51089132D01*
X91640000Y-39440512D01*
X93809783Y-39440512D01*
X93851213Y-39720130D01*
X93946397Y-39986292D01*
X94013329Y-40111514D01*
X94257298Y-40183097D01*
X95070395Y-39370000D01*
X95429605Y-39370000D01*
X96242702Y-40183097D01*
X96486671Y-40111514D01*
X96607571Y-39856004D01*
X96676300Y-39581816D01*
X96690217Y-39299488D01*
X96648787Y-39019870D01*
X96553603Y-38753708D01*
X96486671Y-38628486D01*
X96242702Y-38556903D01*
X95429605Y-39370000D01*
X95070395Y-39370000D01*
X94257298Y-38556903D01*
X94013329Y-38628486D01*
X93892429Y-38883996D01*
X93823700Y-39158184D01*
X93809783Y-39440512D01*
X91640000Y-39440512D01*
X91640000Y-39294409D01*
X93839568Y-37094843D01*
X93870147Y-37248574D01*
X93978320Y-37509727D01*
X94135363Y-37744759D01*
X94335241Y-37944637D01*
X94569128Y-38100915D01*
X94508486Y-38133329D01*
X94436903Y-38377298D01*
X95250000Y-39190395D01*
X96063097Y-38377298D01*
X95991514Y-38133329D01*
X95927008Y-38102806D01*
X95929727Y-38101680D01*
X96164759Y-37944637D01*
X96364637Y-37744759D01*
X96521680Y-37509727D01*
X96629853Y-37248574D01*
X96685000Y-36971335D01*
X96685000Y-36688665D01*
X96629853Y-36411426D01*
X96521680Y-36150273D01*
X96364637Y-35915241D01*
X96209396Y-35760000D01*
X105699133Y-35760000D01*
X106278585Y-36339453D01*
X106215000Y-36659117D01*
X106215000Y-37000883D01*
X106281675Y-37336081D01*
X106412463Y-37651831D01*
X106602337Y-37935998D01*
X106844002Y-38177663D01*
X107128169Y-38367537D01*
X107443919Y-38498325D01*
X107779117Y-38565000D01*
X108120883Y-38565000D01*
X108456081Y-38498325D01*
X108771831Y-38367537D01*
X109055998Y-38177663D01*
X109297663Y-37935998D01*
X109487537Y-37651831D01*
X109618325Y-37336081D01*
X109685000Y-37000883D01*
X109685000Y-36659117D01*
X109618325Y-36323919D01*
X109487537Y-36008169D01*
X109297663Y-35724002D01*
X109055998Y-35482337D01*
X108771831Y-35292463D01*
X108456081Y-35161675D01*
X108271703Y-35125000D01*
X124114133Y-35125000D01*
X125328585Y-36339453D01*
X125265000Y-36659117D01*
X125265000Y-37000883D01*
X125331675Y-37336081D01*
X125462463Y-37651831D01*
X125652337Y-37935998D01*
X125894002Y-38177663D01*
X126178169Y-38367537D01*
X126493919Y-38498325D01*
X126829117Y-38565000D01*
X127170883Y-38565000D01*
X127506081Y-38498325D01*
X127821831Y-38367537D01*
X128105998Y-38177663D01*
X128347663Y-37935998D01*
X128537537Y-37651831D01*
X128668325Y-37336081D01*
X128735000Y-37000883D01*
X128735000Y-36659117D01*
X128668325Y-36323919D01*
X128537537Y-36008169D01*
X128347663Y-35724002D01*
X128105998Y-35482337D01*
X127821831Y-35292463D01*
X127506081Y-35161675D01*
X127170883Y-35095000D01*
X126829117Y-35095000D01*
X126509453Y-35158585D01*
X125840867Y-34490000D01*
X142529133Y-34490000D01*
X144378585Y-36339453D01*
X144315000Y-36659117D01*
X144315000Y-37000883D01*
X144381675Y-37336081D01*
X144512463Y-37651831D01*
X144702337Y-37935998D01*
X144944002Y-38177663D01*
X145228169Y-38367537D01*
X145543919Y-38498325D01*
X145879117Y-38565000D01*
X146220883Y-38565000D01*
X146556081Y-38498325D01*
X146871831Y-38367537D01*
X147155998Y-38177663D01*
X147397663Y-37935998D01*
X147587537Y-37651831D01*
X147718325Y-37336081D01*
X147785000Y-37000883D01*
X147785000Y-36659117D01*
X147718325Y-36323919D01*
X147587537Y-36008169D01*
X147397663Y-35724002D01*
X147155998Y-35482337D01*
X146871831Y-35292463D01*
X146556081Y-35161675D01*
X146220883Y-35095000D01*
X145879117Y-35095000D01*
X145559453Y-35158585D01*
X144255867Y-33855000D01*
X160944133Y-33855000D01*
X163428585Y-36339453D01*
X163365000Y-36659117D01*
X163365000Y-37000883D01*
X163431675Y-37336081D01*
X163562463Y-37651831D01*
X163752337Y-37935998D01*
X163994002Y-38177663D01*
X164278169Y-38367537D01*
X164593919Y-38498325D01*
X164929117Y-38565000D01*
X165270883Y-38565000D01*
X165606081Y-38498325D01*
X165921831Y-38367537D01*
X166205998Y-38177663D01*
X166447663Y-37935998D01*
X166637537Y-37651831D01*
X166768325Y-37336081D01*
X166835000Y-37000883D01*
X166835000Y-36659117D01*
X166768325Y-36323919D01*
X166637537Y-36008169D01*
X166447663Y-35724002D01*
X166205998Y-35482337D01*
X165921831Y-35292463D01*
X165606081Y-35161675D01*
X165270883Y-35095000D01*
X164929117Y-35095000D01*
X164609453Y-35158585D01*
X162635877Y-33185010D01*
X179324143Y-33185010D01*
X182478585Y-36339454D01*
X182415000Y-36659117D01*
X182415000Y-37000883D01*
X182481675Y-37336081D01*
X182612463Y-37651831D01*
X182802337Y-37935998D01*
X183044002Y-38177663D01*
X183328169Y-38367537D01*
X183643919Y-38498325D01*
X183979117Y-38565000D01*
X184320883Y-38565000D01*
X184656081Y-38498325D01*
X184971831Y-38367537D01*
X185255998Y-38177663D01*
X185497663Y-37935998D01*
X185687537Y-37651831D01*
X185818325Y-37336081D01*
X185885000Y-37000883D01*
X185885000Y-36659117D01*
X185818325Y-36323919D01*
X185687537Y-36008169D01*
X185497663Y-35724002D01*
X185255998Y-35482337D01*
X184971831Y-35292463D01*
X184656081Y-35161675D01*
X184320883Y-35095000D01*
X183979117Y-35095000D01*
X183659454Y-35158585D01*
X181085867Y-32585000D01*
X197774133Y-32585000D01*
X201528585Y-36339454D01*
X201465000Y-36659117D01*
X201465000Y-37000883D01*
X201531675Y-37336081D01*
X201662463Y-37651831D01*
X201852337Y-37935998D01*
X202094002Y-38177663D01*
X202378169Y-38367537D01*
X202693919Y-38498325D01*
X203029117Y-38565000D01*
X203370883Y-38565000D01*
X203706081Y-38498325D01*
X204021831Y-38367537D01*
X204305998Y-38177663D01*
X204547663Y-37935998D01*
X204737537Y-37651831D01*
X204868325Y-37336081D01*
X204935000Y-37000883D01*
X204935000Y-36659117D01*
X204868325Y-36323919D01*
X204737537Y-36008169D01*
X204547663Y-35724002D01*
X204305998Y-35482337D01*
X204021831Y-35292463D01*
X203706081Y-35161675D01*
X203370883Y-35095000D01*
X203029117Y-35095000D01*
X202709454Y-35158585D01*
X198739446Y-31188579D01*
X198713291Y-31156709D01*
X198586146Y-31052364D01*
X198441087Y-30974828D01*
X198283689Y-30927082D01*
X198161019Y-30915000D01*
X198161018Y-30915000D01*
X198120000Y-30910960D01*
X198078982Y-30915000D01*
X97653380Y-30915000D01*
X100848508Y-27719872D01*
X103175000Y-27719872D01*
X103175000Y-28160128D01*
X103260890Y-28591925D01*
X103429369Y-28998669D01*
X103673962Y-29364729D01*
X103985271Y-29676038D01*
X104351331Y-29920631D01*
X104758075Y-30089110D01*
X105189872Y-30175000D01*
X105630128Y-30175000D01*
X106061925Y-30089110D01*
X106468669Y-29920631D01*
X106834729Y-29676038D01*
X107146038Y-29364729D01*
X107390631Y-28998669D01*
X107559110Y-28591925D01*
X107645000Y-28160128D01*
X107645000Y-27719872D01*
X200330000Y-27719872D01*
X200330000Y-28160128D01*
X200415890Y-28591925D01*
X200584369Y-28998669D01*
X200828962Y-29364729D01*
X201140271Y-29676038D01*
X201506331Y-29920631D01*
X201913075Y-30089110D01*
X202344872Y-30175000D01*
X202785128Y-30175000D01*
X203216925Y-30089110D01*
X203623669Y-29920631D01*
X203989729Y-29676038D01*
X204301038Y-29364729D01*
X204545631Y-28998669D01*
X204714110Y-28591925D01*
X204800000Y-28160128D01*
X204800000Y-27719872D01*
X204714110Y-27288075D01*
X204545631Y-26881331D01*
X204301038Y-26515271D01*
X203989729Y-26203962D01*
X203623669Y-25959369D01*
X203216925Y-25790890D01*
X202785128Y-25705000D01*
X202344872Y-25705000D01*
X201913075Y-25790890D01*
X201506331Y-25959369D01*
X201140271Y-26203962D01*
X200828962Y-26515271D01*
X200584369Y-26881331D01*
X200415890Y-27288075D01*
X200330000Y-27719872D01*
X107645000Y-27719872D01*
X107559110Y-27288075D01*
X107390631Y-26881331D01*
X107146038Y-26515271D01*
X106834729Y-26203962D01*
X106468669Y-25959369D01*
X106061925Y-25790890D01*
X105630128Y-25705000D01*
X105189872Y-25705000D01*
X104758075Y-25790890D01*
X104351331Y-25959369D01*
X103985271Y-26203962D01*
X103673962Y-26515271D01*
X103429369Y-26881331D01*
X103260890Y-27288075D01*
X103175000Y-27719872D01*
X100848508Y-27719872D01*
X102089614Y-26478767D01*
X102089618Y-26478762D01*
X103359614Y-25208767D01*
X103359618Y-25208762D01*
X103778381Y-24790000D01*
X203561620Y-24790000D01*
X205296233Y-26524614D01*
%TA.AperFunction,Conductor*%
D20*
G36*
X205296233Y-26524614D02*
G01*
X205296239Y-26524619D01*
X210330388Y-31558769D01*
X210351052Y-31583948D01*
X210376231Y-31604612D01*
X210376233Y-31604614D01*
X210399369Y-31623601D01*
X210451550Y-31666425D01*
X210566207Y-31727710D01*
X210690617Y-31765450D01*
X210787581Y-31775000D01*
X210787591Y-31775000D01*
X210820000Y-31778192D01*
X210852409Y-31775000D01*
X217932761Y-31775000D01*
X217730013Y-31977748D01*
X217551082Y-32245537D01*
X217427832Y-32543088D01*
X217365000Y-32858967D01*
X217365000Y-33181033D01*
X217427832Y-33496912D01*
X217551082Y-33794463D01*
X217730013Y-34062252D01*
X217957748Y-34289987D01*
X218225537Y-34468918D01*
X218523088Y-34592168D01*
X218838967Y-34655000D01*
X219161033Y-34655000D01*
X219476912Y-34592168D01*
X219774463Y-34468918D01*
X220042252Y-34289987D01*
X220269987Y-34062252D01*
X220334925Y-33965065D01*
X220364587Y-33975808D01*
X221320395Y-33020000D01*
X220364587Y-32064192D01*
X220334925Y-32074935D01*
X220269987Y-31977748D01*
X220067239Y-31775000D01*
X220583884Y-31775000D01*
X220544192Y-31884587D01*
X221500000Y-32840395D01*
X221514143Y-32826253D01*
X221693748Y-33005858D01*
X221679605Y-33020000D01*
X221693748Y-33034143D01*
X221514143Y-33213748D01*
X221500000Y-33199605D01*
X220544192Y-34155413D01*
X220639956Y-34419814D01*
X220929571Y-34560704D01*
X221241108Y-34642384D01*
X221562595Y-34661718D01*
X221881675Y-34617961D01*
X222186088Y-34512795D01*
X222360044Y-34419814D01*
X222414024Y-34270777D01*
X222469463Y-34374494D01*
X222548815Y-34471185D01*
X222645506Y-34550537D01*
X222755820Y-34609502D01*
X222875518Y-34645812D01*
X223000000Y-34658072D01*
X225000000Y-34658072D01*
X225124482Y-34645812D01*
X225244180Y-34609502D01*
X225354494Y-34550537D01*
X225451185Y-34471185D01*
X225530537Y-34374494D01*
X225589502Y-34264180D01*
X225625812Y-34144482D01*
X225638072Y-34020000D01*
X225638072Y-32020000D01*
X225625812Y-31895518D01*
X225589502Y-31775820D01*
X225589064Y-31775000D01*
X227297721Y-31775000D01*
X227694545Y-31813909D01*
X228045208Y-31919780D01*
X228368625Y-32091744D01*
X228652484Y-32323254D01*
X228885965Y-32605486D01*
X229060183Y-32927695D01*
X229168502Y-33277614D01*
X229210000Y-33672443D01*
X229210001Y-68547711D01*
X229171091Y-68944545D01*
X229065220Y-69295206D01*
X228893257Y-69618623D01*
X228661748Y-69902482D01*
X228379514Y-70135965D01*
X228057304Y-70310184D01*
X227707385Y-70418502D01*
X227312557Y-70460000D01*
X224239657Y-70460000D01*
X224434759Y-70329637D01*
X224634637Y-70129759D01*
X224791680Y-69894727D01*
X224899853Y-69633574D01*
X224955000Y-69356335D01*
X224955000Y-69073665D01*
X224899853Y-68796426D01*
X224791680Y-68535273D01*
X224634637Y-68300241D01*
X224434759Y-68100363D01*
X224199727Y-67943320D01*
X223938574Y-67835147D01*
X223661335Y-67780000D01*
X223378665Y-67780000D01*
X223101426Y-67835147D01*
X222840273Y-67943320D01*
X222605241Y-68100363D01*
X222405363Y-68300241D01*
X222248320Y-68535273D01*
X222140147Y-68796426D01*
X222085000Y-69073665D01*
X222085000Y-69356335D01*
X222103714Y-69450418D01*
X221974132Y-69580001D01*
X217338072Y-69580001D01*
X217338072Y-68415000D01*
X217325812Y-68290518D01*
X217289502Y-68170820D01*
X217230537Y-68060506D01*
X217151185Y-67963815D01*
X217054494Y-67884463D01*
X216944180Y-67825498D01*
X216824482Y-67789188D01*
X216735000Y-67780375D01*
X216735000Y-60700475D01*
X217075000Y-60700475D01*
X217075000Y-61219525D01*
X217176261Y-61728601D01*
X217374893Y-62208141D01*
X217663262Y-62639715D01*
X218030285Y-63006738D01*
X218461859Y-63295107D01*
X218941399Y-63493739D01*
X219450475Y-63595000D01*
X219969525Y-63595000D01*
X220478601Y-63493739D01*
X220958141Y-63295107D01*
X221389715Y-63006738D01*
X221756738Y-62639715D01*
X222045107Y-62208141D01*
X222243739Y-61728601D01*
X222345000Y-61219525D01*
X222345000Y-60813740D01*
X223305000Y-60813740D01*
X223305000Y-61106260D01*
X223362068Y-61393158D01*
X223474010Y-61663411D01*
X223636525Y-61906632D01*
X223843368Y-62113475D01*
X224086589Y-62275990D01*
X224356842Y-62387932D01*
X224643740Y-62445000D01*
X224936260Y-62445000D01*
X225223158Y-62387932D01*
X225493411Y-62275990D01*
X225736632Y-62113475D01*
X225943475Y-61906632D01*
X226105990Y-61663411D01*
X226217932Y-61393158D01*
X226275000Y-61106260D01*
X226275000Y-60813740D01*
X226217932Y-60526842D01*
X226105990Y-60256589D01*
X225943475Y-60013368D01*
X225736632Y-59806525D01*
X225493411Y-59644010D01*
X225223158Y-59532068D01*
X224936260Y-59475000D01*
X224643740Y-59475000D01*
X224356842Y-59532068D01*
X224086589Y-59644010D01*
X223843368Y-59806525D01*
X223636525Y-60013368D01*
X223474010Y-60256589D01*
X223362068Y-60526842D01*
X223305000Y-60813740D01*
X222345000Y-60813740D01*
X222345000Y-60700475D01*
X222243739Y-60191399D01*
X222045107Y-59711859D01*
X221756738Y-59280285D01*
X221389715Y-58913262D01*
X220958141Y-58624893D01*
X220478601Y-58426261D01*
X219969525Y-58325000D01*
X219450475Y-58325000D01*
X218941399Y-58426261D01*
X218461859Y-58624893D01*
X218030285Y-58913262D01*
X217663262Y-59280285D01*
X217374893Y-59711859D01*
X217176261Y-60191399D01*
X217075000Y-60700475D01*
X216735000Y-60700475D01*
X216735000Y-59948738D01*
X217005998Y-59767663D01*
X217247663Y-59525998D01*
X217437537Y-59241831D01*
X217568325Y-58926081D01*
X217635000Y-58590883D01*
X217635000Y-58249117D01*
X217568325Y-57913919D01*
X217437537Y-57598169D01*
X217247663Y-57314002D01*
X217005998Y-57072337D01*
X216721831Y-56882463D01*
X216406081Y-56751675D01*
X216070883Y-56685000D01*
X215729117Y-56685000D01*
X215393919Y-56751675D01*
X215078169Y-56882463D01*
X214794002Y-57072337D01*
X214552337Y-57314002D01*
X214362463Y-57598169D01*
X214231675Y-57913919D01*
X214165000Y-58249117D01*
X214165000Y-58590883D01*
X214231675Y-58926081D01*
X214362463Y-59241831D01*
X214518261Y-59475000D01*
X214483740Y-59475000D01*
X214196842Y-59532068D01*
X213926589Y-59644010D01*
X213683368Y-59806525D01*
X213476525Y-60013368D01*
X213314010Y-60256589D01*
X213202068Y-60526842D01*
X213145000Y-60813740D01*
X213145000Y-61106260D01*
X213202068Y-61393158D01*
X213314010Y-61663411D01*
X213476525Y-61906632D01*
X213683368Y-62113475D01*
X213926589Y-62275990D01*
X214196842Y-62387932D01*
X214483740Y-62445000D01*
X214776260Y-62445000D01*
X215063158Y-62387932D01*
X215065000Y-62387169D01*
X215065001Y-67780375D01*
X214975518Y-67789188D01*
X214855820Y-67825498D01*
X214745506Y-67884463D01*
X214648815Y-67963815D01*
X214569463Y-68060506D01*
X214510498Y-68170820D01*
X214474188Y-68290518D01*
X214461928Y-68415000D01*
X214461928Y-69580001D01*
X206015870Y-69580001D01*
X205886286Y-69450417D01*
X205905000Y-69356335D01*
X205905000Y-69073665D01*
X205849853Y-68796426D01*
X205741680Y-68535273D01*
X205584637Y-68300241D01*
X205384759Y-68100363D01*
X205149727Y-67943320D01*
X204888574Y-67835147D01*
X204611335Y-67780000D01*
X204328665Y-67780000D01*
X204051426Y-67835147D01*
X203790273Y-67943320D01*
X203555241Y-68100363D01*
X203355363Y-68300241D01*
X203198320Y-68535273D01*
X203090147Y-68796426D01*
X203035000Y-69073665D01*
X203035000Y-69356335D01*
X203053714Y-69450418D01*
X202924132Y-69580001D01*
X198288072Y-69580001D01*
X198288072Y-68415000D01*
X198275812Y-68290518D01*
X198239502Y-68170820D01*
X198180537Y-68060506D01*
X198101185Y-67963815D01*
X198004494Y-67884463D01*
X197894180Y-67825498D01*
X197774482Y-67789188D01*
X197685000Y-67780375D01*
X197685000Y-60700475D01*
X198025000Y-60700475D01*
X198025000Y-61219525D01*
X198126261Y-61728601D01*
X198324893Y-62208141D01*
X198613262Y-62639715D01*
X198980285Y-63006738D01*
X199411859Y-63295107D01*
X199891399Y-63493739D01*
X200400475Y-63595000D01*
X200919525Y-63595000D01*
X201428601Y-63493739D01*
X201908141Y-63295107D01*
X202339715Y-63006738D01*
X202706738Y-62639715D01*
X202995107Y-62208141D01*
X203193739Y-61728601D01*
X203295000Y-61219525D01*
X203295000Y-60813740D01*
X204255000Y-60813740D01*
X204255000Y-61106260D01*
X204312068Y-61393158D01*
X204424010Y-61663411D01*
X204586525Y-61906632D01*
X204793368Y-62113475D01*
X205036589Y-62275990D01*
X205306842Y-62387932D01*
X205593740Y-62445000D01*
X205886260Y-62445000D01*
X206173158Y-62387932D01*
X206443411Y-62275990D01*
X206686632Y-62113475D01*
X206893475Y-61906632D01*
X207055990Y-61663411D01*
X207167932Y-61393158D01*
X207225000Y-61106260D01*
X207225000Y-60813740D01*
X207167932Y-60526842D01*
X207055990Y-60256589D01*
X206893475Y-60013368D01*
X206686632Y-59806525D01*
X206443411Y-59644010D01*
X206173158Y-59532068D01*
X205886260Y-59475000D01*
X205593740Y-59475000D01*
X205306842Y-59532068D01*
X205036589Y-59644010D01*
X204793368Y-59806525D01*
X204586525Y-60013368D01*
X204424010Y-60256589D01*
X204312068Y-60526842D01*
X204255000Y-60813740D01*
X203295000Y-60813740D01*
X203295000Y-60700475D01*
X203193739Y-60191399D01*
X202995107Y-59711859D01*
X202706738Y-59280285D01*
X202339715Y-58913262D01*
X201908141Y-58624893D01*
X201428601Y-58426261D01*
X200919525Y-58325000D01*
X200400475Y-58325000D01*
X199891399Y-58426261D01*
X199411859Y-58624893D01*
X198980285Y-58913262D01*
X198613262Y-59280285D01*
X198324893Y-59711859D01*
X198126261Y-60191399D01*
X198025000Y-60700475D01*
X197685000Y-60700475D01*
X197685000Y-59948738D01*
X197955998Y-59767663D01*
X198197663Y-59525998D01*
X198387537Y-59241831D01*
X198518325Y-58926081D01*
X198585000Y-58590883D01*
X198585000Y-58249117D01*
X198518325Y-57913919D01*
X198387537Y-57598169D01*
X198197663Y-57314002D01*
X197955998Y-57072337D01*
X197671831Y-56882463D01*
X197356081Y-56751675D01*
X197020883Y-56685000D01*
X196679117Y-56685000D01*
X196343919Y-56751675D01*
X196028169Y-56882463D01*
X195744002Y-57072337D01*
X195502337Y-57314002D01*
X195312463Y-57598169D01*
X195181675Y-57913919D01*
X195115000Y-58249117D01*
X195115000Y-58590883D01*
X195181675Y-58926081D01*
X195312463Y-59241831D01*
X195468261Y-59475000D01*
X195433740Y-59475000D01*
X195146842Y-59532068D01*
X194876589Y-59644010D01*
X194633368Y-59806525D01*
X194426525Y-60013368D01*
X194264010Y-60256589D01*
X194152068Y-60526842D01*
X194095000Y-60813740D01*
X194095000Y-61106260D01*
X194152068Y-61393158D01*
X194264010Y-61663411D01*
X194426525Y-61906632D01*
X194633368Y-62113475D01*
X194876589Y-62275990D01*
X195146842Y-62387932D01*
X195433740Y-62445000D01*
X195726260Y-62445000D01*
X196013158Y-62387932D01*
X196015001Y-62387169D01*
X196015000Y-67780375D01*
X195925518Y-67789188D01*
X195805820Y-67825498D01*
X195695506Y-67884463D01*
X195598815Y-67963815D01*
X195519463Y-68060506D01*
X195460498Y-68170820D01*
X195424188Y-68290518D01*
X195411928Y-68415000D01*
X195411928Y-69580001D01*
X186965870Y-69580001D01*
X186836286Y-69450417D01*
X186855000Y-69356335D01*
X186855000Y-69073665D01*
X186799853Y-68796426D01*
X186691680Y-68535273D01*
X186534637Y-68300241D01*
X186334759Y-68100363D01*
X186099727Y-67943320D01*
X185838574Y-67835147D01*
X185561335Y-67780000D01*
X185278665Y-67780000D01*
X185001426Y-67835147D01*
X184740273Y-67943320D01*
X184505241Y-68100363D01*
X184305363Y-68300241D01*
X184148320Y-68535273D01*
X184040147Y-68796426D01*
X183985000Y-69073665D01*
X183985000Y-69356335D01*
X184003714Y-69450418D01*
X183874132Y-69580001D01*
X179238072Y-69580001D01*
X179238072Y-68415000D01*
X179225812Y-68290518D01*
X179189502Y-68170820D01*
X179130537Y-68060506D01*
X179051185Y-67963815D01*
X178954494Y-67884463D01*
X178844180Y-67825498D01*
X178724482Y-67789188D01*
X178635000Y-67780375D01*
X178635000Y-60700475D01*
X178975000Y-60700475D01*
X178975000Y-61219525D01*
X179076261Y-61728601D01*
X179274893Y-62208141D01*
X179563262Y-62639715D01*
X179930285Y-63006738D01*
X180361859Y-63295107D01*
X180841399Y-63493739D01*
X181350475Y-63595000D01*
X181869525Y-63595000D01*
X182378601Y-63493739D01*
X182858141Y-63295107D01*
X183289715Y-63006738D01*
X183656738Y-62639715D01*
X183945107Y-62208141D01*
X184143739Y-61728601D01*
X184245000Y-61219525D01*
X184245000Y-60813740D01*
X185205000Y-60813740D01*
X185205000Y-61106260D01*
X185262068Y-61393158D01*
X185374010Y-61663411D01*
X185536525Y-61906632D01*
X185743368Y-62113475D01*
X185986589Y-62275990D01*
X186256842Y-62387932D01*
X186543740Y-62445000D01*
X186836260Y-62445000D01*
X187123158Y-62387932D01*
X187393411Y-62275990D01*
X187636632Y-62113475D01*
X187843475Y-61906632D01*
X188005990Y-61663411D01*
X188117932Y-61393158D01*
X188175000Y-61106260D01*
X188175000Y-60813740D01*
X188117932Y-60526842D01*
X188005990Y-60256589D01*
X187843475Y-60013368D01*
X187636632Y-59806525D01*
X187393411Y-59644010D01*
X187123158Y-59532068D01*
X186836260Y-59475000D01*
X186543740Y-59475000D01*
X186256842Y-59532068D01*
X185986589Y-59644010D01*
X185743368Y-59806525D01*
X185536525Y-60013368D01*
X185374010Y-60256589D01*
X185262068Y-60526842D01*
X185205000Y-60813740D01*
X184245000Y-60813740D01*
X184245000Y-60700475D01*
X184143739Y-60191399D01*
X183945107Y-59711859D01*
X183656738Y-59280285D01*
X183289715Y-58913262D01*
X182858141Y-58624893D01*
X182378601Y-58426261D01*
X181869525Y-58325000D01*
X181350475Y-58325000D01*
X180841399Y-58426261D01*
X180361859Y-58624893D01*
X179930285Y-58913262D01*
X179563262Y-59280285D01*
X179274893Y-59711859D01*
X179076261Y-60191399D01*
X178975000Y-60700475D01*
X178635000Y-60700475D01*
X178635000Y-59948738D01*
X178905998Y-59767663D01*
X179147663Y-59525998D01*
X179337537Y-59241831D01*
X179468325Y-58926081D01*
X179535000Y-58590883D01*
X179535000Y-58249117D01*
X179468325Y-57913919D01*
X179337537Y-57598169D01*
X179147663Y-57314002D01*
X178905998Y-57072337D01*
X178621831Y-56882463D01*
X178306081Y-56751675D01*
X177970883Y-56685000D01*
X177629117Y-56685000D01*
X177293919Y-56751675D01*
X176978169Y-56882463D01*
X176694002Y-57072337D01*
X176452337Y-57314002D01*
X176262463Y-57598169D01*
X176131675Y-57913919D01*
X176065000Y-58249117D01*
X176065000Y-58590883D01*
X176131675Y-58926081D01*
X176262463Y-59241831D01*
X176418261Y-59475000D01*
X176383740Y-59475000D01*
X176096842Y-59532068D01*
X175826589Y-59644010D01*
X175583368Y-59806525D01*
X175376525Y-60013368D01*
X175214010Y-60256589D01*
X175102068Y-60526842D01*
X175045000Y-60813740D01*
X175045000Y-61106260D01*
X175102068Y-61393158D01*
X175214010Y-61663411D01*
X175376525Y-61906632D01*
X175583368Y-62113475D01*
X175826589Y-62275990D01*
X176096842Y-62387932D01*
X176383740Y-62445000D01*
X176676260Y-62445000D01*
X176963158Y-62387932D01*
X176965001Y-62387169D01*
X176965000Y-67780375D01*
X176875518Y-67789188D01*
X176755820Y-67825498D01*
X176645506Y-67884463D01*
X176548815Y-67963815D01*
X176469463Y-68060506D01*
X176410498Y-68170820D01*
X176374188Y-68290518D01*
X176361928Y-68415000D01*
X176361928Y-69580001D01*
X167915870Y-69580001D01*
X167786286Y-69450417D01*
X167805000Y-69356335D01*
X167805000Y-69073665D01*
X167749853Y-68796426D01*
X167641680Y-68535273D01*
X167484637Y-68300241D01*
X167284759Y-68100363D01*
X167049727Y-67943320D01*
X166788574Y-67835147D01*
X166511335Y-67780000D01*
X166228665Y-67780000D01*
X165951426Y-67835147D01*
X165690273Y-67943320D01*
X165455241Y-68100363D01*
X165255363Y-68300241D01*
X165098320Y-68535273D01*
X164990147Y-68796426D01*
X164935000Y-69073665D01*
X164935000Y-69356335D01*
X164953714Y-69450418D01*
X164824132Y-69580001D01*
X160188072Y-69580001D01*
X160188072Y-68415000D01*
X160175812Y-68290518D01*
X160139502Y-68170820D01*
X160080537Y-68060506D01*
X160001185Y-67963815D01*
X159904494Y-67884463D01*
X159794180Y-67825498D01*
X159674482Y-67789188D01*
X159585000Y-67780375D01*
X159585000Y-60700475D01*
X159925000Y-60700475D01*
X159925000Y-61219525D01*
X160026261Y-61728601D01*
X160224893Y-62208141D01*
X160513262Y-62639715D01*
X160880285Y-63006738D01*
X161311859Y-63295107D01*
X161791399Y-63493739D01*
X162300475Y-63595000D01*
X162819525Y-63595000D01*
X163328601Y-63493739D01*
X163808141Y-63295107D01*
X164239715Y-63006738D01*
X164606738Y-62639715D01*
X164895107Y-62208141D01*
X165093739Y-61728601D01*
X165195000Y-61219525D01*
X165195000Y-60813740D01*
X166155000Y-60813740D01*
X166155000Y-61106260D01*
X166212068Y-61393158D01*
X166324010Y-61663411D01*
X166486525Y-61906632D01*
X166693368Y-62113475D01*
X166936589Y-62275990D01*
X167206842Y-62387932D01*
X167493740Y-62445000D01*
X167786260Y-62445000D01*
X168073158Y-62387932D01*
X168343411Y-62275990D01*
X168586632Y-62113475D01*
X168793475Y-61906632D01*
X168955990Y-61663411D01*
X169067932Y-61393158D01*
X169125000Y-61106260D01*
X169125000Y-60813740D01*
X169067932Y-60526842D01*
X168955990Y-60256589D01*
X168793475Y-60013368D01*
X168586632Y-59806525D01*
X168343411Y-59644010D01*
X168073158Y-59532068D01*
X167786260Y-59475000D01*
X167493740Y-59475000D01*
X167206842Y-59532068D01*
X166936589Y-59644010D01*
X166693368Y-59806525D01*
X166486525Y-60013368D01*
X166324010Y-60256589D01*
X166212068Y-60526842D01*
X166155000Y-60813740D01*
X165195000Y-60813740D01*
X165195000Y-60700475D01*
X165093739Y-60191399D01*
X164895107Y-59711859D01*
X164606738Y-59280285D01*
X164239715Y-58913262D01*
X163808141Y-58624893D01*
X163328601Y-58426261D01*
X162819525Y-58325000D01*
X162300475Y-58325000D01*
X161791399Y-58426261D01*
X161311859Y-58624893D01*
X160880285Y-58913262D01*
X160513262Y-59280285D01*
X160224893Y-59711859D01*
X160026261Y-60191399D01*
X159925000Y-60700475D01*
X159585000Y-60700475D01*
X159585000Y-59948738D01*
X159855998Y-59767663D01*
X160097663Y-59525998D01*
X160287537Y-59241831D01*
X160418325Y-58926081D01*
X160485000Y-58590883D01*
X160485000Y-58249117D01*
X160418325Y-57913919D01*
X160287537Y-57598169D01*
X160097663Y-57314002D01*
X159855998Y-57072337D01*
X159571831Y-56882463D01*
X159256081Y-56751675D01*
X158920883Y-56685000D01*
X158579117Y-56685000D01*
X158243919Y-56751675D01*
X157928169Y-56882463D01*
X157644002Y-57072337D01*
X157402337Y-57314002D01*
X157212463Y-57598169D01*
X157081675Y-57913919D01*
X157015000Y-58249117D01*
X157015000Y-58590883D01*
X157081675Y-58926081D01*
X157212463Y-59241831D01*
X157368261Y-59475000D01*
X157333740Y-59475000D01*
X157046842Y-59532068D01*
X156776589Y-59644010D01*
X156533368Y-59806525D01*
X156326525Y-60013368D01*
X156164010Y-60256589D01*
X156052068Y-60526842D01*
X155995000Y-60813740D01*
X155995000Y-61106260D01*
X156052068Y-61393158D01*
X156164010Y-61663411D01*
X156326525Y-61906632D01*
X156533368Y-62113475D01*
X156776589Y-62275990D01*
X157046842Y-62387932D01*
X157333740Y-62445000D01*
X157626260Y-62445000D01*
X157913158Y-62387932D01*
X157915001Y-62387169D01*
X157915000Y-67780375D01*
X157825518Y-67789188D01*
X157705820Y-67825498D01*
X157595506Y-67884463D01*
X157498815Y-67963815D01*
X157419463Y-68060506D01*
X157360498Y-68170820D01*
X157324188Y-68290518D01*
X157311928Y-68415000D01*
X157311928Y-69580001D01*
X148865870Y-69580001D01*
X148736286Y-69450417D01*
X148755000Y-69356335D01*
X148755000Y-69073665D01*
X148699853Y-68796426D01*
X148591680Y-68535273D01*
X148434637Y-68300241D01*
X148234759Y-68100363D01*
X147999727Y-67943320D01*
X147738574Y-67835147D01*
X147461335Y-67780000D01*
X147178665Y-67780000D01*
X146901426Y-67835147D01*
X146640273Y-67943320D01*
X146405241Y-68100363D01*
X146205363Y-68300241D01*
X146048320Y-68535273D01*
X145940147Y-68796426D01*
X145885000Y-69073665D01*
X145885000Y-69356335D01*
X145903714Y-69450418D01*
X145774132Y-69580001D01*
X141138072Y-69580001D01*
X141138072Y-68415000D01*
X141125812Y-68290518D01*
X141089502Y-68170820D01*
X141030537Y-68060506D01*
X140951185Y-67963815D01*
X140854494Y-67884463D01*
X140744180Y-67825498D01*
X140624482Y-67789188D01*
X140535000Y-67780375D01*
X140535000Y-60700475D01*
X140875000Y-60700475D01*
X140875000Y-61219525D01*
X140976261Y-61728601D01*
X141174893Y-62208141D01*
X141463262Y-62639715D01*
X141830285Y-63006738D01*
X142261859Y-63295107D01*
X142741399Y-63493739D01*
X143250475Y-63595000D01*
X143769525Y-63595000D01*
X144278601Y-63493739D01*
X144758141Y-63295107D01*
X145189715Y-63006738D01*
X145556738Y-62639715D01*
X145845107Y-62208141D01*
X146043739Y-61728601D01*
X146145000Y-61219525D01*
X146145000Y-60813740D01*
X147105000Y-60813740D01*
X147105000Y-61106260D01*
X147162068Y-61393158D01*
X147274010Y-61663411D01*
X147436525Y-61906632D01*
X147643368Y-62113475D01*
X147886589Y-62275990D01*
X148156842Y-62387932D01*
X148443740Y-62445000D01*
X148736260Y-62445000D01*
X149023158Y-62387932D01*
X149293411Y-62275990D01*
X149536632Y-62113475D01*
X149743475Y-61906632D01*
X149905990Y-61663411D01*
X150017932Y-61393158D01*
X150075000Y-61106260D01*
X150075000Y-60813740D01*
X150017932Y-60526842D01*
X149905990Y-60256589D01*
X149743475Y-60013368D01*
X149536632Y-59806525D01*
X149293411Y-59644010D01*
X149023158Y-59532068D01*
X148736260Y-59475000D01*
X148443740Y-59475000D01*
X148156842Y-59532068D01*
X147886589Y-59644010D01*
X147643368Y-59806525D01*
X147436525Y-60013368D01*
X147274010Y-60256589D01*
X147162068Y-60526842D01*
X147105000Y-60813740D01*
X146145000Y-60813740D01*
X146145000Y-60700475D01*
X146043739Y-60191399D01*
X145845107Y-59711859D01*
X145556738Y-59280285D01*
X145189715Y-58913262D01*
X144758141Y-58624893D01*
X144278601Y-58426261D01*
X143769525Y-58325000D01*
X143250475Y-58325000D01*
X142741399Y-58426261D01*
X142261859Y-58624893D01*
X141830285Y-58913262D01*
X141463262Y-59280285D01*
X141174893Y-59711859D01*
X140976261Y-60191399D01*
X140875000Y-60700475D01*
X140535000Y-60700475D01*
X140535000Y-59948738D01*
X140805998Y-59767663D01*
X141047663Y-59525998D01*
X141237537Y-59241831D01*
X141368325Y-58926081D01*
X141435000Y-58590883D01*
X141435000Y-58249117D01*
X141368325Y-57913919D01*
X141237537Y-57598169D01*
X141047663Y-57314002D01*
X140805998Y-57072337D01*
X140521831Y-56882463D01*
X140206081Y-56751675D01*
X139870883Y-56685000D01*
X139529117Y-56685000D01*
X139193919Y-56751675D01*
X138878169Y-56882463D01*
X138594002Y-57072337D01*
X138352337Y-57314002D01*
X138162463Y-57598169D01*
X138031675Y-57913919D01*
X137965000Y-58249117D01*
X137965000Y-58590883D01*
X138031675Y-58926081D01*
X138162463Y-59241831D01*
X138318261Y-59475000D01*
X138283740Y-59475000D01*
X137996842Y-59532068D01*
X137726589Y-59644010D01*
X137483368Y-59806525D01*
X137276525Y-60013368D01*
X137114010Y-60256589D01*
X137002068Y-60526842D01*
X136945000Y-60813740D01*
X136945000Y-61106260D01*
X137002068Y-61393158D01*
X137114010Y-61663411D01*
X137276525Y-61906632D01*
X137483368Y-62113475D01*
X137726589Y-62275990D01*
X137996842Y-62387932D01*
X138283740Y-62445000D01*
X138576260Y-62445000D01*
X138863158Y-62387932D01*
X138865001Y-62387169D01*
X138865000Y-67780375D01*
X138775518Y-67789188D01*
X138655820Y-67825498D01*
X138545506Y-67884463D01*
X138448815Y-67963815D01*
X138369463Y-68060506D01*
X138310498Y-68170820D01*
X138274188Y-68290518D01*
X138261928Y-68415000D01*
X138261928Y-69580001D01*
X129815870Y-69580001D01*
X129686286Y-69450417D01*
X129705000Y-69356335D01*
X129705000Y-69073665D01*
X129649853Y-68796426D01*
X129541680Y-68535273D01*
X129384637Y-68300241D01*
X129184759Y-68100363D01*
X128949727Y-67943320D01*
X128688574Y-67835147D01*
X128411335Y-67780000D01*
X128128665Y-67780000D01*
X127851426Y-67835147D01*
X127590273Y-67943320D01*
X127355241Y-68100363D01*
X127155363Y-68300241D01*
X126998320Y-68535273D01*
X126890147Y-68796426D01*
X126835000Y-69073665D01*
X126835000Y-69356335D01*
X126853714Y-69450418D01*
X126724132Y-69580001D01*
X122088072Y-69580001D01*
X122088072Y-68415000D01*
X122075812Y-68290518D01*
X122039502Y-68170820D01*
X121980537Y-68060506D01*
X121901185Y-67963815D01*
X121804494Y-67884463D01*
X121694180Y-67825498D01*
X121574482Y-67789188D01*
X121485000Y-67780375D01*
X121485000Y-60700475D01*
X121825000Y-60700475D01*
X121825000Y-61219525D01*
X121926261Y-61728601D01*
X122124893Y-62208141D01*
X122413262Y-62639715D01*
X122780285Y-63006738D01*
X123211859Y-63295107D01*
X123691399Y-63493739D01*
X124200475Y-63595000D01*
X124719525Y-63595000D01*
X125228601Y-63493739D01*
X125708141Y-63295107D01*
X126139715Y-63006738D01*
X126506738Y-62639715D01*
X126795107Y-62208141D01*
X126993739Y-61728601D01*
X127095000Y-61219525D01*
X127095000Y-60813740D01*
X128055000Y-60813740D01*
X128055000Y-61106260D01*
X128112068Y-61393158D01*
X128224010Y-61663411D01*
X128386525Y-61906632D01*
X128593368Y-62113475D01*
X128836589Y-62275990D01*
X129106842Y-62387932D01*
X129393740Y-62445000D01*
X129686260Y-62445000D01*
X129973158Y-62387932D01*
X130243411Y-62275990D01*
X130486632Y-62113475D01*
X130693475Y-61906632D01*
X130855990Y-61663411D01*
X130967932Y-61393158D01*
X131025000Y-61106260D01*
X131025000Y-60813740D01*
X130967932Y-60526842D01*
X130855990Y-60256589D01*
X130693475Y-60013368D01*
X130486632Y-59806525D01*
X130243411Y-59644010D01*
X129973158Y-59532068D01*
X129686260Y-59475000D01*
X129393740Y-59475000D01*
X129106842Y-59532068D01*
X128836589Y-59644010D01*
X128593368Y-59806525D01*
X128386525Y-60013368D01*
X128224010Y-60256589D01*
X128112068Y-60526842D01*
X128055000Y-60813740D01*
X127095000Y-60813740D01*
X127095000Y-60700475D01*
X126993739Y-60191399D01*
X126795107Y-59711859D01*
X126506738Y-59280285D01*
X126139715Y-58913262D01*
X125708141Y-58624893D01*
X125228601Y-58426261D01*
X124719525Y-58325000D01*
X124200475Y-58325000D01*
X123691399Y-58426261D01*
X123211859Y-58624893D01*
X122780285Y-58913262D01*
X122413262Y-59280285D01*
X122124893Y-59711859D01*
X121926261Y-60191399D01*
X121825000Y-60700475D01*
X121485000Y-60700475D01*
X121485000Y-59948738D01*
X121755998Y-59767663D01*
X121997663Y-59525998D01*
X122187537Y-59241831D01*
X122318325Y-58926081D01*
X122385000Y-58590883D01*
X122385000Y-58249117D01*
X122318325Y-57913919D01*
X122187537Y-57598169D01*
X121997663Y-57314002D01*
X121755998Y-57072337D01*
X121471831Y-56882463D01*
X121156081Y-56751675D01*
X120820883Y-56685000D01*
X120479117Y-56685000D01*
X120143919Y-56751675D01*
X119828169Y-56882463D01*
X119544002Y-57072337D01*
X119302337Y-57314002D01*
X119112463Y-57598169D01*
X118981675Y-57913919D01*
X118915000Y-58249117D01*
X118915000Y-58590883D01*
X118981675Y-58926081D01*
X119112463Y-59241831D01*
X119268261Y-59475000D01*
X119233740Y-59475000D01*
X118946842Y-59532068D01*
X118676589Y-59644010D01*
X118433368Y-59806525D01*
X118226525Y-60013368D01*
X118064010Y-60256589D01*
X117952068Y-60526842D01*
X117895000Y-60813740D01*
X117895000Y-61106260D01*
X117952068Y-61393158D01*
X118064010Y-61663411D01*
X118226525Y-61906632D01*
X118433368Y-62113475D01*
X118676589Y-62275990D01*
X118946842Y-62387932D01*
X119233740Y-62445000D01*
X119526260Y-62445000D01*
X119813158Y-62387932D01*
X119815001Y-62387169D01*
X119815000Y-67780375D01*
X119725518Y-67789188D01*
X119605820Y-67825498D01*
X119495506Y-67884463D01*
X119398815Y-67963815D01*
X119319463Y-68060506D01*
X119260498Y-68170820D01*
X119224188Y-68290518D01*
X119211928Y-68415000D01*
X119211928Y-69580001D01*
X110765870Y-69580001D01*
X110636286Y-69450417D01*
X110655000Y-69356335D01*
X110655000Y-69073665D01*
X110599853Y-68796426D01*
X110491680Y-68535273D01*
X110334637Y-68300241D01*
X110134759Y-68100363D01*
X109899727Y-67943320D01*
X109638574Y-67835147D01*
X109361335Y-67780000D01*
X109078665Y-67780000D01*
X108801426Y-67835147D01*
X108540273Y-67943320D01*
X108305241Y-68100363D01*
X108105363Y-68300241D01*
X107948320Y-68535273D01*
X107840147Y-68796426D01*
X107785000Y-69073665D01*
X107785000Y-69356335D01*
X107803714Y-69450418D01*
X107529132Y-69725001D01*
X103038072Y-69725001D01*
X103038072Y-68415000D01*
X103025812Y-68290518D01*
X102989502Y-68170820D01*
X102930537Y-68060506D01*
X102851185Y-67963815D01*
X102754494Y-67884463D01*
X102644180Y-67825498D01*
X102524482Y-67789188D01*
X102435000Y-67780375D01*
X102435000Y-60700475D01*
X102775000Y-60700475D01*
X102775000Y-61219525D01*
X102876261Y-61728601D01*
X103074893Y-62208141D01*
X103363262Y-62639715D01*
X103730285Y-63006738D01*
X104161859Y-63295107D01*
X104641399Y-63493739D01*
X105150475Y-63595000D01*
X105669525Y-63595000D01*
X106178601Y-63493739D01*
X106658141Y-63295107D01*
X107089715Y-63006738D01*
X107456738Y-62639715D01*
X107745107Y-62208141D01*
X107943739Y-61728601D01*
X108045000Y-61219525D01*
X108045000Y-60813740D01*
X109005000Y-60813740D01*
X109005000Y-61106260D01*
X109062068Y-61393158D01*
X109174010Y-61663411D01*
X109336525Y-61906632D01*
X109543368Y-62113475D01*
X109786589Y-62275990D01*
X110056842Y-62387932D01*
X110343740Y-62445000D01*
X110636260Y-62445000D01*
X110923158Y-62387932D01*
X111193411Y-62275990D01*
X111436632Y-62113475D01*
X111643475Y-61906632D01*
X111805990Y-61663411D01*
X111917932Y-61393158D01*
X111975000Y-61106260D01*
X111975000Y-60813740D01*
X111917932Y-60526842D01*
X111805990Y-60256589D01*
X111643475Y-60013368D01*
X111436632Y-59806525D01*
X111193411Y-59644010D01*
X110923158Y-59532068D01*
X110636260Y-59475000D01*
X110343740Y-59475000D01*
X110056842Y-59532068D01*
X109786589Y-59644010D01*
X109543368Y-59806525D01*
X109336525Y-60013368D01*
X109174010Y-60256589D01*
X109062068Y-60526842D01*
X109005000Y-60813740D01*
X108045000Y-60813740D01*
X108045000Y-60700475D01*
X107943739Y-60191399D01*
X107745107Y-59711859D01*
X107456738Y-59280285D01*
X107089715Y-58913262D01*
X106658141Y-58624893D01*
X106178601Y-58426261D01*
X105669525Y-58325000D01*
X105150475Y-58325000D01*
X104641399Y-58426261D01*
X104161859Y-58624893D01*
X103730285Y-58913262D01*
X103363262Y-59280285D01*
X103074893Y-59711859D01*
X102876261Y-60191399D01*
X102775000Y-60700475D01*
X102435000Y-60700475D01*
X102435000Y-59948738D01*
X102705998Y-59767663D01*
X102947663Y-59525998D01*
X103137537Y-59241831D01*
X103268325Y-58926081D01*
X103335000Y-58590883D01*
X103335000Y-58249117D01*
X103268325Y-57913919D01*
X103137537Y-57598169D01*
X102947663Y-57314002D01*
X102705998Y-57072337D01*
X102421831Y-56882463D01*
X102106081Y-56751675D01*
X101921703Y-56715000D01*
X106421262Y-56715000D01*
X106602337Y-56985998D01*
X106844002Y-57227663D01*
X107128169Y-57417537D01*
X107443919Y-57548325D01*
X107779117Y-57615000D01*
X108120883Y-57615000D01*
X108456081Y-57548325D01*
X108771831Y-57417537D01*
X109055998Y-57227663D01*
X109297663Y-56985998D01*
X109487537Y-56701831D01*
X109618325Y-56386081D01*
X109685000Y-56050883D01*
X109685000Y-55709117D01*
X125265000Y-55709117D01*
X125265000Y-56050883D01*
X125331675Y-56386081D01*
X125462463Y-56701831D01*
X125652337Y-56985998D01*
X125894002Y-57227663D01*
X126178169Y-57417537D01*
X126493919Y-57548325D01*
X126829117Y-57615000D01*
X127170883Y-57615000D01*
X127506081Y-57548325D01*
X127821831Y-57417537D01*
X128105998Y-57227663D01*
X128347663Y-56985998D01*
X128537537Y-56701831D01*
X128668325Y-56386081D01*
X128735000Y-56050883D01*
X128735000Y-55709117D01*
X144315000Y-55709117D01*
X144315000Y-56050883D01*
X144381675Y-56386081D01*
X144512463Y-56701831D01*
X144702337Y-56985998D01*
X144944002Y-57227663D01*
X145228169Y-57417537D01*
X145543919Y-57548325D01*
X145879117Y-57615000D01*
X146220883Y-57615000D01*
X146556081Y-57548325D01*
X146871831Y-57417537D01*
X147155998Y-57227663D01*
X147397663Y-56985998D01*
X147587537Y-56701831D01*
X147718325Y-56386081D01*
X147785000Y-56050883D01*
X147785000Y-55709117D01*
X163365000Y-55709117D01*
X163365000Y-56050883D01*
X163431675Y-56386081D01*
X163562463Y-56701831D01*
X163752337Y-56985998D01*
X163994002Y-57227663D01*
X164278169Y-57417537D01*
X164593919Y-57548325D01*
X164929117Y-57615000D01*
X165270883Y-57615000D01*
X165606081Y-57548325D01*
X165921831Y-57417537D01*
X166205998Y-57227663D01*
X166447663Y-56985998D01*
X166637537Y-56701831D01*
X166768325Y-56386081D01*
X166835000Y-56050883D01*
X166835000Y-55709117D01*
X182415000Y-55709117D01*
X182415000Y-56050883D01*
X182481675Y-56386081D01*
X182612463Y-56701831D01*
X182802337Y-56985998D01*
X183044002Y-57227663D01*
X183328169Y-57417537D01*
X183643919Y-57548325D01*
X183979117Y-57615000D01*
X184320883Y-57615000D01*
X184656081Y-57548325D01*
X184971831Y-57417537D01*
X185255998Y-57227663D01*
X185497663Y-56985998D01*
X185687537Y-56701831D01*
X185818325Y-56386081D01*
X185885000Y-56050883D01*
X185885000Y-55709117D01*
X201465000Y-55709117D01*
X201465000Y-56050883D01*
X201531675Y-56386081D01*
X201662463Y-56701831D01*
X201852337Y-56985998D01*
X202094002Y-57227663D01*
X202378169Y-57417537D01*
X202693919Y-57548325D01*
X203029117Y-57615000D01*
X203370883Y-57615000D01*
X203706081Y-57548325D01*
X204021831Y-57417537D01*
X204305998Y-57227663D01*
X204547663Y-56985998D01*
X204737537Y-56701831D01*
X204868325Y-56386081D01*
X204935000Y-56050883D01*
X204935000Y-55709117D01*
X220515000Y-55709117D01*
X220515000Y-56050883D01*
X220581675Y-56386081D01*
X220712463Y-56701831D01*
X220902337Y-56985998D01*
X221144002Y-57227663D01*
X221428169Y-57417537D01*
X221743919Y-57548325D01*
X222079117Y-57615000D01*
X222420883Y-57615000D01*
X222756081Y-57548325D01*
X223071831Y-57417537D01*
X223355998Y-57227663D01*
X223597663Y-56985998D01*
X223787537Y-56701831D01*
X223918325Y-56386081D01*
X223985000Y-56050883D01*
X223985000Y-55709117D01*
X223918325Y-55373919D01*
X223787537Y-55058169D01*
X223597663Y-54774002D01*
X223355998Y-54532337D01*
X223071831Y-54342463D01*
X222756081Y-54211675D01*
X222420883Y-54145000D01*
X222079117Y-54145000D01*
X221743919Y-54211675D01*
X221428169Y-54342463D01*
X221144002Y-54532337D01*
X220902337Y-54774002D01*
X220712463Y-55058169D01*
X220581675Y-55373919D01*
X220515000Y-55709117D01*
X204935000Y-55709117D01*
X204868325Y-55373919D01*
X204737537Y-55058169D01*
X204547663Y-54774002D01*
X204305998Y-54532337D01*
X204021831Y-54342463D01*
X203706081Y-54211675D01*
X203370883Y-54145000D01*
X203029117Y-54145000D01*
X202693919Y-54211675D01*
X202378169Y-54342463D01*
X202094002Y-54532337D01*
X201852337Y-54774002D01*
X201662463Y-55058169D01*
X201531675Y-55373919D01*
X201465000Y-55709117D01*
X185885000Y-55709117D01*
X185818325Y-55373919D01*
X185687537Y-55058169D01*
X185497663Y-54774002D01*
X185255998Y-54532337D01*
X184971831Y-54342463D01*
X184656081Y-54211675D01*
X184320883Y-54145000D01*
X183979117Y-54145000D01*
X183643919Y-54211675D01*
X183328169Y-54342463D01*
X183044002Y-54532337D01*
X182802337Y-54774002D01*
X182612463Y-55058169D01*
X182481675Y-55373919D01*
X182415000Y-55709117D01*
X166835000Y-55709117D01*
X166768325Y-55373919D01*
X166637537Y-55058169D01*
X166447663Y-54774002D01*
X166205998Y-54532337D01*
X165921831Y-54342463D01*
X165606081Y-54211675D01*
X165270883Y-54145000D01*
X164929117Y-54145000D01*
X164593919Y-54211675D01*
X164278169Y-54342463D01*
X163994002Y-54532337D01*
X163752337Y-54774002D01*
X163562463Y-55058169D01*
X163431675Y-55373919D01*
X163365000Y-55709117D01*
X147785000Y-55709117D01*
X147718325Y-55373919D01*
X147587537Y-55058169D01*
X147397663Y-54774002D01*
X147155998Y-54532337D01*
X146871831Y-54342463D01*
X146556081Y-54211675D01*
X146220883Y-54145000D01*
X145879117Y-54145000D01*
X145543919Y-54211675D01*
X145228169Y-54342463D01*
X144944002Y-54532337D01*
X144702337Y-54774002D01*
X144512463Y-55058169D01*
X144381675Y-55373919D01*
X144315000Y-55709117D01*
X128735000Y-55709117D01*
X128668325Y-55373919D01*
X128537537Y-55058169D01*
X128347663Y-54774002D01*
X128105998Y-54532337D01*
X127821831Y-54342463D01*
X127506081Y-54211675D01*
X127170883Y-54145000D01*
X126829117Y-54145000D01*
X126493919Y-54211675D01*
X126178169Y-54342463D01*
X125894002Y-54532337D01*
X125652337Y-54774002D01*
X125462463Y-55058169D01*
X125331675Y-55373919D01*
X125265000Y-55709117D01*
X109685000Y-55709117D01*
X109621415Y-55389453D01*
X112210858Y-52800011D01*
X209613971Y-52800011D01*
X209654989Y-52804051D01*
X209696007Y-52800011D01*
X209696008Y-52800011D01*
X209818678Y-52787929D01*
X209976076Y-52740183D01*
X210121135Y-52662647D01*
X210248280Y-52558302D01*
X210274435Y-52526432D01*
X211197796Y-51603072D01*
X212255000Y-51603072D01*
X212379482Y-51590812D01*
X212499180Y-51554502D01*
X212609494Y-51495537D01*
X212706185Y-51416185D01*
X212785537Y-51319494D01*
X212844502Y-51209180D01*
X212880812Y-51089482D01*
X212893072Y-50965000D01*
X212893072Y-49365000D01*
X212880812Y-49240518D01*
X212844502Y-49120820D01*
X212785537Y-49010506D01*
X212706185Y-48913815D01*
X212609494Y-48834463D01*
X212499180Y-48775498D01*
X212379482Y-48739188D01*
X212255000Y-48726928D01*
X210655000Y-48726928D01*
X210530518Y-48739188D01*
X210410820Y-48775498D01*
X210300506Y-48834463D01*
X210203815Y-48913815D01*
X210124463Y-49010506D01*
X210065498Y-49120820D01*
X210029188Y-49240518D01*
X210016928Y-49365000D01*
X210016928Y-50422204D01*
X209309122Y-51130011D01*
X205534385Y-51130011D01*
X205584637Y-51079759D01*
X205741680Y-50844727D01*
X205849853Y-50583574D01*
X205905000Y-50306335D01*
X205905000Y-50023665D01*
X205886285Y-49929582D01*
X208860869Y-46954999D01*
X217464320Y-46954999D01*
X217427832Y-47043088D01*
X217365000Y-47358967D01*
X217365000Y-47681033D01*
X217427832Y-47996912D01*
X217551082Y-48294463D01*
X217730013Y-48562252D01*
X217957748Y-48789987D01*
X218165001Y-48928469D01*
X218165001Y-49047183D01*
X218160241Y-49050363D01*
X217960363Y-49250241D01*
X217803320Y-49485273D01*
X217695147Y-49746426D01*
X217640000Y-50023665D01*
X217640000Y-50306335D01*
X217695147Y-50583574D01*
X217803320Y-50844727D01*
X217960363Y-51079759D01*
X218160241Y-51279637D01*
X218395273Y-51436680D01*
X218656426Y-51544853D01*
X218933665Y-51600000D01*
X219216335Y-51600000D01*
X219493574Y-51544853D01*
X219754727Y-51436680D01*
X219989759Y-51279637D01*
X220189637Y-51079759D01*
X220346680Y-50844727D01*
X220454853Y-50583574D01*
X220510000Y-50306335D01*
X220510000Y-50023665D01*
X220454853Y-49746426D01*
X220346680Y-49485273D01*
X220189637Y-49250241D01*
X219989759Y-49050363D01*
X219835000Y-48946957D01*
X219835000Y-48928468D01*
X220042252Y-48789987D01*
X220269987Y-48562252D01*
X220448918Y-48294463D01*
X220572168Y-47996912D01*
X220635000Y-47681033D01*
X220635000Y-47358967D01*
X220572168Y-47043088D01*
X220535680Y-46954999D01*
X222254132Y-46954999D01*
X222413628Y-47114496D01*
X222365000Y-47358967D01*
X222365000Y-47681033D01*
X222427832Y-47996912D01*
X222551082Y-48294463D01*
X222730013Y-48562252D01*
X222957748Y-48789987D01*
X223225537Y-48968918D01*
X223523088Y-49092168D01*
X223838967Y-49155000D01*
X224161033Y-49155000D01*
X224476912Y-49092168D01*
X224774463Y-48968918D01*
X225042252Y-48789987D01*
X225269987Y-48562252D01*
X225448918Y-48294463D01*
X225572168Y-47996912D01*
X225635000Y-47681033D01*
X225635000Y-47358967D01*
X225572168Y-47043088D01*
X225448918Y-46745537D01*
X225269987Y-46477748D01*
X225042252Y-46250013D01*
X224774463Y-46071082D01*
X224476912Y-45947832D01*
X224161033Y-45885000D01*
X223838967Y-45885000D01*
X223594496Y-45933628D01*
X223219445Y-45558578D01*
X223193290Y-45526708D01*
X223066145Y-45422363D01*
X222921086Y-45344827D01*
X222763688Y-45297081D01*
X222641018Y-45284999D01*
X222641017Y-45284999D01*
X222599999Y-45280959D01*
X222558981Y-45284999D01*
X208556008Y-45284999D01*
X208515000Y-45280960D01*
X208473992Y-45284999D01*
X208473982Y-45284999D01*
X208351312Y-45297081D01*
X208193914Y-45344827D01*
X208048855Y-45422363D01*
X207921710Y-45526708D01*
X207895560Y-45558572D01*
X204705418Y-48748715D01*
X204611335Y-48730000D01*
X204328665Y-48730000D01*
X204051426Y-48785147D01*
X203790273Y-48893320D01*
X203555241Y-49050363D01*
X203355363Y-49250241D01*
X203198320Y-49485273D01*
X203090147Y-49746426D01*
X203035000Y-50023665D01*
X203035000Y-50306335D01*
X203053714Y-50400418D01*
X202924132Y-50530001D01*
X198288072Y-50530001D01*
X198288072Y-49365000D01*
X198275812Y-49240518D01*
X198239502Y-49120820D01*
X198180537Y-49010506D01*
X198101185Y-48913815D01*
X198004494Y-48834463D01*
X197894180Y-48775498D01*
X197774482Y-48739188D01*
X197685000Y-48730375D01*
X197685000Y-41650475D01*
X198025000Y-41650475D01*
X198025000Y-42169525D01*
X198126261Y-42678601D01*
X198324893Y-43158141D01*
X198613262Y-43589715D01*
X198980285Y-43956738D01*
X199411859Y-44245107D01*
X199891399Y-44443739D01*
X200400475Y-44545000D01*
X200919525Y-44545000D01*
X201428601Y-44443739D01*
X201908141Y-44245107D01*
X202339715Y-43956738D01*
X202706738Y-43589715D01*
X202995107Y-43158141D01*
X203193739Y-42678601D01*
X203295000Y-42169525D01*
X203295000Y-41763740D01*
X204255000Y-41763740D01*
X204255000Y-42056260D01*
X204312068Y-42343158D01*
X204424010Y-42613411D01*
X204586525Y-42856632D01*
X204793368Y-43063475D01*
X205036589Y-43225990D01*
X205306842Y-43337932D01*
X205593740Y-43395000D01*
X205886260Y-43395000D01*
X206173158Y-43337932D01*
X206443411Y-43225990D01*
X206686632Y-43063475D01*
X206893475Y-42856632D01*
X207055990Y-42613411D01*
X207167932Y-42343158D01*
X207225000Y-42056260D01*
X207225000Y-41763740D01*
X207167932Y-41476842D01*
X207055990Y-41206589D01*
X206893475Y-40963368D01*
X206686632Y-40756525D01*
X206443411Y-40594010D01*
X206173158Y-40482068D01*
X205886260Y-40425000D01*
X205593740Y-40425000D01*
X205306842Y-40482068D01*
X205036589Y-40594010D01*
X204793368Y-40756525D01*
X204586525Y-40963368D01*
X204424010Y-41206589D01*
X204312068Y-41476842D01*
X204255000Y-41763740D01*
X203295000Y-41763740D01*
X203295000Y-41650475D01*
X203193739Y-41141399D01*
X202995107Y-40661859D01*
X202706738Y-40230285D01*
X202339715Y-39863262D01*
X201908141Y-39574893D01*
X201428601Y-39376261D01*
X200919525Y-39275000D01*
X200400475Y-39275000D01*
X199891399Y-39376261D01*
X199411859Y-39574893D01*
X198980285Y-39863262D01*
X198613262Y-40230285D01*
X198324893Y-40661859D01*
X198126261Y-41141399D01*
X198025000Y-41650475D01*
X197685000Y-41650475D01*
X197685000Y-40898738D01*
X197955998Y-40717663D01*
X198197663Y-40475998D01*
X198387537Y-40191831D01*
X198518325Y-39876081D01*
X198585000Y-39540883D01*
X198585000Y-39199117D01*
X198549372Y-39020000D01*
X214011928Y-39020000D01*
X214011928Y-42020000D01*
X214024188Y-42144482D01*
X214060498Y-42264180D01*
X214119463Y-42374494D01*
X214198815Y-42471185D01*
X214295506Y-42550537D01*
X214405820Y-42609502D01*
X214525518Y-42645812D01*
X214650000Y-42658072D01*
X217150000Y-42658072D01*
X217274482Y-42645812D01*
X217394180Y-42609502D01*
X217504494Y-42550537D01*
X217601185Y-42471185D01*
X217680537Y-42374494D01*
X217739502Y-42264180D01*
X217775812Y-42144482D01*
X217788072Y-42020000D01*
X217788072Y-39020000D01*
X225211928Y-39020000D01*
X225211928Y-42020000D01*
X225224188Y-42144482D01*
X225260498Y-42264180D01*
X225319463Y-42374494D01*
X225398815Y-42471185D01*
X225495506Y-42550537D01*
X225605820Y-42609502D01*
X225725518Y-42645812D01*
X225850000Y-42658072D01*
X228350000Y-42658072D01*
X228474482Y-42645812D01*
X228594180Y-42609502D01*
X228704494Y-42550537D01*
X228801185Y-42471185D01*
X228880537Y-42374494D01*
X228939502Y-42264180D01*
X228975812Y-42144482D01*
X228988072Y-42020000D01*
X228988072Y-39020000D01*
X228975812Y-38895518D01*
X228939502Y-38775820D01*
X228880537Y-38665506D01*
X228801185Y-38568815D01*
X228704494Y-38489463D01*
X228594180Y-38430498D01*
X228474482Y-38394188D01*
X228350000Y-38381928D01*
X225850000Y-38381928D01*
X225725518Y-38394188D01*
X225605820Y-38430498D01*
X225495506Y-38489463D01*
X225398815Y-38568815D01*
X225319463Y-38665506D01*
X225260498Y-38775820D01*
X225224188Y-38895518D01*
X225211928Y-39020000D01*
X217788072Y-39020000D01*
X217775812Y-38895518D01*
X217739502Y-38775820D01*
X217680537Y-38665506D01*
X217601185Y-38568815D01*
X217504494Y-38489463D01*
X217394180Y-38430498D01*
X217274482Y-38394188D01*
X217150000Y-38381928D01*
X214650000Y-38381928D01*
X214525518Y-38394188D01*
X214405820Y-38430498D01*
X214295506Y-38489463D01*
X214198815Y-38568815D01*
X214119463Y-38665506D01*
X214060498Y-38775820D01*
X214024188Y-38895518D01*
X214011928Y-39020000D01*
X198549372Y-39020000D01*
X198518325Y-38863919D01*
X198387537Y-38548169D01*
X198197663Y-38264002D01*
X197955998Y-38022337D01*
X197671831Y-37832463D01*
X197356081Y-37701675D01*
X197020883Y-37635000D01*
X196679117Y-37635000D01*
X196343919Y-37701675D01*
X196028169Y-37832463D01*
X195744002Y-38022337D01*
X195502337Y-38264002D01*
X195312463Y-38548169D01*
X195181675Y-38863919D01*
X195115000Y-39199117D01*
X195115000Y-39540883D01*
X195181675Y-39876081D01*
X195312463Y-40191831D01*
X195468261Y-40425000D01*
X195433740Y-40425000D01*
X195146842Y-40482068D01*
X194876589Y-40594010D01*
X194633368Y-40756525D01*
X194426525Y-40963368D01*
X194264010Y-41206589D01*
X194152068Y-41476842D01*
X194095000Y-41763740D01*
X194095000Y-42056260D01*
X194152068Y-42343158D01*
X194264010Y-42613411D01*
X194426525Y-42856632D01*
X194633368Y-43063475D01*
X194876589Y-43225990D01*
X195146842Y-43337932D01*
X195433740Y-43395000D01*
X195726260Y-43395000D01*
X196013158Y-43337932D01*
X196015001Y-43337169D01*
X196015000Y-48730375D01*
X195925518Y-48739188D01*
X195805820Y-48775498D01*
X195695506Y-48834463D01*
X195598815Y-48913815D01*
X195519463Y-49010506D01*
X195460498Y-49120820D01*
X195424188Y-49240518D01*
X195411928Y-49365000D01*
X195411928Y-50530001D01*
X186965870Y-50530001D01*
X186836286Y-50400417D01*
X186855000Y-50306335D01*
X186855000Y-50023665D01*
X186799853Y-49746426D01*
X186691680Y-49485273D01*
X186534637Y-49250241D01*
X186334759Y-49050363D01*
X186099727Y-48893320D01*
X185838574Y-48785147D01*
X185561335Y-48730000D01*
X185278665Y-48730000D01*
X185001426Y-48785147D01*
X184740273Y-48893320D01*
X184505241Y-49050363D01*
X184305363Y-49250241D01*
X184148320Y-49485273D01*
X184040147Y-49746426D01*
X183985000Y-50023665D01*
X183985000Y-50306335D01*
X184003714Y-50400418D01*
X183874132Y-50530001D01*
X179238072Y-50530001D01*
X179238072Y-49365000D01*
X179225812Y-49240518D01*
X179189502Y-49120820D01*
X179130537Y-49010506D01*
X179051185Y-48913815D01*
X178954494Y-48834463D01*
X178844180Y-48775498D01*
X178724482Y-48739188D01*
X178635000Y-48730375D01*
X178635000Y-41650475D01*
X178975000Y-41650475D01*
X178975000Y-42169525D01*
X179076261Y-42678601D01*
X179274893Y-43158141D01*
X179563262Y-43589715D01*
X179930285Y-43956738D01*
X180361859Y-44245107D01*
X180841399Y-44443739D01*
X181350475Y-44545000D01*
X181869525Y-44545000D01*
X182378601Y-44443739D01*
X182858141Y-44245107D01*
X183289715Y-43956738D01*
X183656738Y-43589715D01*
X183945107Y-43158141D01*
X184143739Y-42678601D01*
X184245000Y-42169525D01*
X184245000Y-41763740D01*
X185205000Y-41763740D01*
X185205000Y-42056260D01*
X185262068Y-42343158D01*
X185374010Y-42613411D01*
X185536525Y-42856632D01*
X185743368Y-43063475D01*
X185986589Y-43225990D01*
X186256842Y-43337932D01*
X186543740Y-43395000D01*
X186836260Y-43395000D01*
X187123158Y-43337932D01*
X187393411Y-43225990D01*
X187636632Y-43063475D01*
X187843475Y-42856632D01*
X188005990Y-42613411D01*
X188117932Y-42343158D01*
X188175000Y-42056260D01*
X188175000Y-41763740D01*
X188117932Y-41476842D01*
X188005990Y-41206589D01*
X187843475Y-40963368D01*
X187636632Y-40756525D01*
X187393411Y-40594010D01*
X187123158Y-40482068D01*
X186836260Y-40425000D01*
X186543740Y-40425000D01*
X186256842Y-40482068D01*
X185986589Y-40594010D01*
X185743368Y-40756525D01*
X185536525Y-40963368D01*
X185374010Y-41206589D01*
X185262068Y-41476842D01*
X185205000Y-41763740D01*
X184245000Y-41763740D01*
X184245000Y-41650475D01*
X184143739Y-41141399D01*
X183945107Y-40661859D01*
X183656738Y-40230285D01*
X183289715Y-39863262D01*
X182858141Y-39574893D01*
X182378601Y-39376261D01*
X181869525Y-39275000D01*
X181350475Y-39275000D01*
X180841399Y-39376261D01*
X180361859Y-39574893D01*
X179930285Y-39863262D01*
X179563262Y-40230285D01*
X179274893Y-40661859D01*
X179076261Y-41141399D01*
X178975000Y-41650475D01*
X178635000Y-41650475D01*
X178635000Y-40898738D01*
X178905998Y-40717663D01*
X179147663Y-40475998D01*
X179337537Y-40191831D01*
X179468325Y-39876081D01*
X179535000Y-39540883D01*
X179535000Y-39199117D01*
X179468325Y-38863919D01*
X179337537Y-38548169D01*
X179147663Y-38264002D01*
X178905998Y-38022337D01*
X178621831Y-37832463D01*
X178306081Y-37701675D01*
X177970883Y-37635000D01*
X177629117Y-37635000D01*
X177293919Y-37701675D01*
X176978169Y-37832463D01*
X176694002Y-38022337D01*
X176452337Y-38264002D01*
X176262463Y-38548169D01*
X176131675Y-38863919D01*
X176065000Y-39199117D01*
X176065000Y-39540883D01*
X176131675Y-39876081D01*
X176262463Y-40191831D01*
X176418261Y-40425000D01*
X176383740Y-40425000D01*
X176096842Y-40482068D01*
X175826589Y-40594010D01*
X175583368Y-40756525D01*
X175376525Y-40963368D01*
X175214010Y-41206589D01*
X175102068Y-41476842D01*
X175045000Y-41763740D01*
X175045000Y-42056260D01*
X175102068Y-42343158D01*
X175214010Y-42613411D01*
X175376525Y-42856632D01*
X175583368Y-43063475D01*
X175826589Y-43225990D01*
X176096842Y-43337932D01*
X176383740Y-43395000D01*
X176676260Y-43395000D01*
X176963158Y-43337932D01*
X176965001Y-43337169D01*
X176965000Y-48730375D01*
X176875518Y-48739188D01*
X176755820Y-48775498D01*
X176645506Y-48834463D01*
X176548815Y-48913815D01*
X176469463Y-49010506D01*
X176410498Y-49120820D01*
X176374188Y-49240518D01*
X176361928Y-49365000D01*
X176361928Y-50530001D01*
X167915870Y-50530001D01*
X167786286Y-50400417D01*
X167805000Y-50306335D01*
X167805000Y-50023665D01*
X167749853Y-49746426D01*
X167641680Y-49485273D01*
X167484637Y-49250241D01*
X167284759Y-49050363D01*
X167049727Y-48893320D01*
X166788574Y-48785147D01*
X166511335Y-48730000D01*
X166228665Y-48730000D01*
X165951426Y-48785147D01*
X165690273Y-48893320D01*
X165455241Y-49050363D01*
X165255363Y-49250241D01*
X165098320Y-49485273D01*
X164990147Y-49746426D01*
X164935000Y-50023665D01*
X164935000Y-50306335D01*
X164953714Y-50400418D01*
X164824132Y-50530001D01*
X160188072Y-50530001D01*
X160188072Y-49365000D01*
X160175812Y-49240518D01*
X160139502Y-49120820D01*
X160080537Y-49010506D01*
X160001185Y-48913815D01*
X159904494Y-48834463D01*
X159794180Y-48775498D01*
X159674482Y-48739188D01*
X159585000Y-48730375D01*
X159585000Y-41650475D01*
X159925000Y-41650475D01*
X159925000Y-42169525D01*
X160026261Y-42678601D01*
X160224893Y-43158141D01*
X160513262Y-43589715D01*
X160880285Y-43956738D01*
X161311859Y-44245107D01*
X161791399Y-44443739D01*
X162300475Y-44545000D01*
X162819525Y-44545000D01*
X163328601Y-44443739D01*
X163808141Y-44245107D01*
X164239715Y-43956738D01*
X164606738Y-43589715D01*
X164895107Y-43158141D01*
X165093739Y-42678601D01*
X165195000Y-42169525D01*
X165195000Y-41763740D01*
X166155000Y-41763740D01*
X166155000Y-42056260D01*
X166212068Y-42343158D01*
X166324010Y-42613411D01*
X166486525Y-42856632D01*
X166693368Y-43063475D01*
X166936589Y-43225990D01*
X167206842Y-43337932D01*
X167493740Y-43395000D01*
X167786260Y-43395000D01*
X168073158Y-43337932D01*
X168343411Y-43225990D01*
X168586632Y-43063475D01*
X168793475Y-42856632D01*
X168955990Y-42613411D01*
X169067932Y-42343158D01*
X169125000Y-42056260D01*
X169125000Y-41763740D01*
X169067932Y-41476842D01*
X168955990Y-41206589D01*
X168793475Y-40963368D01*
X168586632Y-40756525D01*
X168343411Y-40594010D01*
X168073158Y-40482068D01*
X167786260Y-40425000D01*
X167493740Y-40425000D01*
X167206842Y-40482068D01*
X166936589Y-40594010D01*
X166693368Y-40756525D01*
X166486525Y-40963368D01*
X166324010Y-41206589D01*
X166212068Y-41476842D01*
X166155000Y-41763740D01*
X165195000Y-41763740D01*
X165195000Y-41650475D01*
X165093739Y-41141399D01*
X164895107Y-40661859D01*
X164606738Y-40230285D01*
X164239715Y-39863262D01*
X163808141Y-39574893D01*
X163328601Y-39376261D01*
X162819525Y-39275000D01*
X162300475Y-39275000D01*
X161791399Y-39376261D01*
X161311859Y-39574893D01*
X160880285Y-39863262D01*
X160513262Y-40230285D01*
X160224893Y-40661859D01*
X160026261Y-41141399D01*
X159925000Y-41650475D01*
X159585000Y-41650475D01*
X159585000Y-40898738D01*
X159855998Y-40717663D01*
X160097663Y-40475998D01*
X160287537Y-40191831D01*
X160418325Y-39876081D01*
X160485000Y-39540883D01*
X160485000Y-39199117D01*
X160418325Y-38863919D01*
X160287537Y-38548169D01*
X160097663Y-38264002D01*
X159855998Y-38022337D01*
X159571831Y-37832463D01*
X159256081Y-37701675D01*
X158920883Y-37635000D01*
X158579117Y-37635000D01*
X158243919Y-37701675D01*
X157928169Y-37832463D01*
X157644002Y-38022337D01*
X157402337Y-38264002D01*
X157212463Y-38548169D01*
X157081675Y-38863919D01*
X157015000Y-39199117D01*
X157015000Y-39540883D01*
X157081675Y-39876081D01*
X157212463Y-40191831D01*
X157368261Y-40425000D01*
X157333740Y-40425000D01*
X157046842Y-40482068D01*
X156776589Y-40594010D01*
X156533368Y-40756525D01*
X156326525Y-40963368D01*
X156164010Y-41206589D01*
X156052068Y-41476842D01*
X155995000Y-41763740D01*
X155995000Y-42056260D01*
X156052068Y-42343158D01*
X156164010Y-42613411D01*
X156326525Y-42856632D01*
X156533368Y-43063475D01*
X156776589Y-43225990D01*
X157046842Y-43337932D01*
X157333740Y-43395000D01*
X157626260Y-43395000D01*
X157913158Y-43337932D01*
X157915000Y-43337169D01*
X157915001Y-48730375D01*
X157825518Y-48739188D01*
X157705820Y-48775498D01*
X157595506Y-48834463D01*
X157498815Y-48913815D01*
X157419463Y-49010506D01*
X157360498Y-49120820D01*
X157324188Y-49240518D01*
X157311928Y-49365000D01*
X157311928Y-50530001D01*
X148865870Y-50530001D01*
X148736286Y-50400417D01*
X148755000Y-50306335D01*
X148755000Y-50023665D01*
X148699853Y-49746426D01*
X148591680Y-49485273D01*
X148434637Y-49250241D01*
X148234759Y-49050363D01*
X147999727Y-48893320D01*
X147738574Y-48785147D01*
X147461335Y-48730000D01*
X147178665Y-48730000D01*
X146901426Y-48785147D01*
X146640273Y-48893320D01*
X146405241Y-49050363D01*
X146205363Y-49250241D01*
X146048320Y-49485273D01*
X145940147Y-49746426D01*
X145885000Y-50023665D01*
X145885000Y-50306335D01*
X145903714Y-50400418D01*
X145774132Y-50530001D01*
X141138072Y-50530001D01*
X141138072Y-49365000D01*
X141125812Y-49240518D01*
X141089502Y-49120820D01*
X141030537Y-49010506D01*
X140951185Y-48913815D01*
X140854494Y-48834463D01*
X140744180Y-48775498D01*
X140624482Y-48739188D01*
X140535000Y-48730375D01*
X140535000Y-41650475D01*
X140875000Y-41650475D01*
X140875000Y-42169525D01*
X140976261Y-42678601D01*
X141174893Y-43158141D01*
X141463262Y-43589715D01*
X141830285Y-43956738D01*
X142261859Y-44245107D01*
X142741399Y-44443739D01*
X143250475Y-44545000D01*
X143769525Y-44545000D01*
X144278601Y-44443739D01*
X144758141Y-44245107D01*
X145189715Y-43956738D01*
X145556738Y-43589715D01*
X145845107Y-43158141D01*
X146043739Y-42678601D01*
X146145000Y-42169525D01*
X146145000Y-41763740D01*
X147105000Y-41763740D01*
X147105000Y-42056260D01*
X147162068Y-42343158D01*
X147274010Y-42613411D01*
X147436525Y-42856632D01*
X147643368Y-43063475D01*
X147886589Y-43225990D01*
X148156842Y-43337932D01*
X148443740Y-43395000D01*
X148736260Y-43395000D01*
X149023158Y-43337932D01*
X149293411Y-43225990D01*
X149536632Y-43063475D01*
X149743475Y-42856632D01*
X149905990Y-42613411D01*
X150017932Y-42343158D01*
X150075000Y-42056260D01*
X150075000Y-41763740D01*
X150017932Y-41476842D01*
X149905990Y-41206589D01*
X149743475Y-40963368D01*
X149536632Y-40756525D01*
X149293411Y-40594010D01*
X149023158Y-40482068D01*
X148736260Y-40425000D01*
X148443740Y-40425000D01*
X148156842Y-40482068D01*
X147886589Y-40594010D01*
X147643368Y-40756525D01*
X147436525Y-40963368D01*
X147274010Y-41206589D01*
X147162068Y-41476842D01*
X147105000Y-41763740D01*
X146145000Y-41763740D01*
X146145000Y-41650475D01*
X146043739Y-41141399D01*
X145845107Y-40661859D01*
X145556738Y-40230285D01*
X145189715Y-39863262D01*
X144758141Y-39574893D01*
X144278601Y-39376261D01*
X143769525Y-39275000D01*
X143250475Y-39275000D01*
X142741399Y-39376261D01*
X142261859Y-39574893D01*
X141830285Y-39863262D01*
X141463262Y-40230285D01*
X141174893Y-40661859D01*
X140976261Y-41141399D01*
X140875000Y-41650475D01*
X140535000Y-41650475D01*
X140535000Y-40898738D01*
X140805998Y-40717663D01*
X141047663Y-40475998D01*
X141237537Y-40191831D01*
X141368325Y-39876081D01*
X141435000Y-39540883D01*
X141435000Y-39199117D01*
X141368325Y-38863919D01*
X141237537Y-38548169D01*
X141047663Y-38264002D01*
X140805998Y-38022337D01*
X140521831Y-37832463D01*
X140206081Y-37701675D01*
X139870883Y-37635000D01*
X139529117Y-37635000D01*
X139193919Y-37701675D01*
X138878169Y-37832463D01*
X138594002Y-38022337D01*
X138352337Y-38264002D01*
X138162463Y-38548169D01*
X138031675Y-38863919D01*
X137965000Y-39199117D01*
X137965000Y-39540883D01*
X138031675Y-39876081D01*
X138162463Y-40191831D01*
X138318261Y-40425000D01*
X138283740Y-40425000D01*
X137996842Y-40482068D01*
X137726589Y-40594010D01*
X137483368Y-40756525D01*
X137276525Y-40963368D01*
X137114010Y-41206589D01*
X137002068Y-41476842D01*
X136945000Y-41763740D01*
X136945000Y-42056260D01*
X137002068Y-42343158D01*
X137114010Y-42613411D01*
X137276525Y-42856632D01*
X137483368Y-43063475D01*
X137726589Y-43225990D01*
X137996842Y-43337932D01*
X138283740Y-43395000D01*
X138576260Y-43395000D01*
X138863158Y-43337932D01*
X138865000Y-43337169D01*
X138865001Y-48730375D01*
X138775518Y-48739188D01*
X138655820Y-48775498D01*
X138545506Y-48834463D01*
X138448815Y-48913815D01*
X138369463Y-49010506D01*
X138310498Y-49120820D01*
X138274188Y-49240518D01*
X138261928Y-49365000D01*
X138261928Y-50530001D01*
X129815870Y-50530001D01*
X129686286Y-50400417D01*
X129705000Y-50306335D01*
X129705000Y-50023665D01*
X129649853Y-49746426D01*
X129541680Y-49485273D01*
X129384637Y-49250241D01*
X129184759Y-49050363D01*
X128949727Y-48893320D01*
X128688574Y-48785147D01*
X128411335Y-48730000D01*
X128128665Y-48730000D01*
X127851426Y-48785147D01*
X127590273Y-48893320D01*
X127355241Y-49050363D01*
X127155363Y-49250241D01*
X126998320Y-49485273D01*
X126890147Y-49746426D01*
X126835000Y-50023665D01*
X126835000Y-50306335D01*
X126853714Y-50400418D01*
X126724132Y-50530001D01*
X122088072Y-50530001D01*
X122088072Y-49365000D01*
X122075812Y-49240518D01*
X122039502Y-49120820D01*
X121980537Y-49010506D01*
X121901185Y-48913815D01*
X121804494Y-48834463D01*
X121694180Y-48775498D01*
X121574482Y-48739188D01*
X121485000Y-48730375D01*
X121485000Y-41650475D01*
X121825000Y-41650475D01*
X121825000Y-42169525D01*
X121926261Y-42678601D01*
X122124893Y-43158141D01*
X122413262Y-43589715D01*
X122780285Y-43956738D01*
X123211859Y-44245107D01*
X123691399Y-44443739D01*
X124200475Y-44545000D01*
X124719525Y-44545000D01*
X125228601Y-44443739D01*
X125708141Y-44245107D01*
X126139715Y-43956738D01*
X126506738Y-43589715D01*
X126795107Y-43158141D01*
X126993739Y-42678601D01*
X127095000Y-42169525D01*
X127095000Y-41763740D01*
X128055000Y-41763740D01*
X128055000Y-42056260D01*
X128112068Y-42343158D01*
X128224010Y-42613411D01*
X128386525Y-42856632D01*
X128593368Y-43063475D01*
X128836589Y-43225990D01*
X129106842Y-43337932D01*
X129393740Y-43395000D01*
X129686260Y-43395000D01*
X129973158Y-43337932D01*
X130243411Y-43225990D01*
X130486632Y-43063475D01*
X130693475Y-42856632D01*
X130855990Y-42613411D01*
X130967932Y-42343158D01*
X131025000Y-42056260D01*
X131025000Y-41763740D01*
X130967932Y-41476842D01*
X130855990Y-41206589D01*
X130693475Y-40963368D01*
X130486632Y-40756525D01*
X130243411Y-40594010D01*
X129973158Y-40482068D01*
X129686260Y-40425000D01*
X129393740Y-40425000D01*
X129106842Y-40482068D01*
X128836589Y-40594010D01*
X128593368Y-40756525D01*
X128386525Y-40963368D01*
X128224010Y-41206589D01*
X128112068Y-41476842D01*
X128055000Y-41763740D01*
X127095000Y-41763740D01*
X127095000Y-41650475D01*
X126993739Y-41141399D01*
X126795107Y-40661859D01*
X126506738Y-40230285D01*
X126139715Y-39863262D01*
X125708141Y-39574893D01*
X125228601Y-39376261D01*
X124719525Y-39275000D01*
X124200475Y-39275000D01*
X123691399Y-39376261D01*
X123211859Y-39574893D01*
X122780285Y-39863262D01*
X122413262Y-40230285D01*
X122124893Y-40661859D01*
X121926261Y-41141399D01*
X121825000Y-41650475D01*
X121485000Y-41650475D01*
X121485000Y-40898738D01*
X121755998Y-40717663D01*
X121997663Y-40475998D01*
X122187537Y-40191831D01*
X122318325Y-39876081D01*
X122385000Y-39540883D01*
X122385000Y-39199117D01*
X122318325Y-38863919D01*
X122187537Y-38548169D01*
X121997663Y-38264002D01*
X121755998Y-38022337D01*
X121471831Y-37832463D01*
X121156081Y-37701675D01*
X120820883Y-37635000D01*
X120479117Y-37635000D01*
X120143919Y-37701675D01*
X119828169Y-37832463D01*
X119544002Y-38022337D01*
X119302337Y-38264002D01*
X119112463Y-38548169D01*
X118981675Y-38863919D01*
X118915000Y-39199117D01*
X118915000Y-39540883D01*
X118981675Y-39876081D01*
X119112463Y-40191831D01*
X119268261Y-40425000D01*
X119233740Y-40425000D01*
X118946842Y-40482068D01*
X118676589Y-40594010D01*
X118433368Y-40756525D01*
X118226525Y-40963368D01*
X118064010Y-41206589D01*
X117952068Y-41476842D01*
X117895000Y-41763740D01*
X117895000Y-42056260D01*
X117952068Y-42343158D01*
X118064010Y-42613411D01*
X118226525Y-42856632D01*
X118433368Y-43063475D01*
X118676589Y-43225990D01*
X118946842Y-43337932D01*
X119233740Y-43395000D01*
X119526260Y-43395000D01*
X119813158Y-43337932D01*
X119815000Y-43337169D01*
X119815001Y-48730375D01*
X119725518Y-48739188D01*
X119605820Y-48775498D01*
X119495506Y-48834463D01*
X119398815Y-48913815D01*
X119319463Y-49010506D01*
X119260498Y-49120820D01*
X119224188Y-49240518D01*
X119211928Y-49365000D01*
X119211928Y-50530001D01*
X110765870Y-50530001D01*
X110636286Y-50400417D01*
X110655000Y-50306335D01*
X110655000Y-50023665D01*
X110599853Y-49746426D01*
X110491680Y-49485273D01*
X110334637Y-49250241D01*
X110134759Y-49050363D01*
X109899727Y-48893320D01*
X109638574Y-48785147D01*
X109361335Y-48730000D01*
X109078665Y-48730000D01*
X108801426Y-48785147D01*
X108540273Y-48893320D01*
X108305241Y-49050363D01*
X108105363Y-49250241D01*
X107948320Y-49485273D01*
X107840147Y-49746426D01*
X107785000Y-50023665D01*
X107785000Y-50306335D01*
X107840147Y-50583574D01*
X107948320Y-50844727D01*
X108105363Y-51079759D01*
X108305241Y-51279637D01*
X108540273Y-51436680D01*
X108801426Y-51544853D01*
X109078665Y-51600000D01*
X109361335Y-51600000D01*
X109455417Y-51581286D01*
X109800564Y-51926433D01*
X109826710Y-51958292D01*
X109953855Y-52062637D01*
X110098914Y-52140173D01*
X110256312Y-52187919D01*
X110378982Y-52200001D01*
X110378983Y-52200001D01*
X110420001Y-52204041D01*
X110447832Y-52201300D01*
X108440547Y-54208585D01*
X108120883Y-54145000D01*
X107779117Y-54145000D01*
X107443919Y-54211675D01*
X107128169Y-54342463D01*
X106844002Y-54532337D01*
X106602337Y-54774002D01*
X106421262Y-55045000D01*
X101181871Y-55045000D01*
X96451551Y-50314682D01*
X96521680Y-50209727D01*
X96629853Y-49948574D01*
X96685000Y-49671335D01*
X96685000Y-49388665D01*
X96629853Y-49111426D01*
X96521680Y-48850273D01*
X96364637Y-48615241D01*
X96164759Y-48415363D01*
X95932241Y-48260000D01*
X96164759Y-48104637D01*
X96364637Y-47904759D01*
X96521680Y-47669727D01*
X96629853Y-47408574D01*
X96685000Y-47131335D01*
X96685000Y-46848665D01*
X96629853Y-46571426D01*
X96521680Y-46310273D01*
X96364637Y-46075241D01*
X96164759Y-45875363D01*
X95932241Y-45720000D01*
X96164759Y-45564637D01*
X96364637Y-45364759D01*
X96521680Y-45129727D01*
X96629853Y-44868574D01*
X96685000Y-44591335D01*
X96685000Y-44308665D01*
X96629853Y-44031426D01*
X96521680Y-43770273D01*
X96364637Y-43535241D01*
X96164759Y-43335363D01*
X95932241Y-43180000D01*
X96164759Y-43024637D01*
X96364637Y-42824759D01*
X96521680Y-42589727D01*
X96629853Y-42328574D01*
X96685000Y-42051335D01*
X96685000Y-41768665D01*
X96684021Y-41763740D01*
X98845000Y-41763740D01*
X98845000Y-42056260D01*
X98902068Y-42343158D01*
X99014010Y-42613411D01*
X99176525Y-42856632D01*
X99383368Y-43063475D01*
X99626589Y-43225990D01*
X99896842Y-43337932D01*
X100183740Y-43395000D01*
X100476260Y-43395000D01*
X100763158Y-43337932D01*
X100765000Y-43337169D01*
X100765001Y-48730375D01*
X100675518Y-48739188D01*
X100555820Y-48775498D01*
X100445506Y-48834463D01*
X100348815Y-48913815D01*
X100269463Y-49010506D01*
X100210498Y-49120820D01*
X100174188Y-49240518D01*
X100161928Y-49365000D01*
X100161928Y-50965000D01*
X100174188Y-51089482D01*
X100210498Y-51209180D01*
X100269463Y-51319494D01*
X100348815Y-51416185D01*
X100445506Y-51495537D01*
X100555820Y-51554502D01*
X100675518Y-51590812D01*
X100800000Y-51603072D01*
X102400000Y-51603072D01*
X102524482Y-51590812D01*
X102644180Y-51554502D01*
X102754494Y-51495537D01*
X102851185Y-51416185D01*
X102930537Y-51319494D01*
X102989502Y-51209180D01*
X103025812Y-51089482D01*
X103038072Y-50965000D01*
X103038072Y-49365000D01*
X103025812Y-49240518D01*
X102989502Y-49120820D01*
X102930537Y-49010506D01*
X102851185Y-48913815D01*
X102754494Y-48834463D01*
X102644180Y-48775498D01*
X102524482Y-48739188D01*
X102435000Y-48730375D01*
X102435000Y-41650475D01*
X102775000Y-41650475D01*
X102775000Y-42169525D01*
X102876261Y-42678601D01*
X103074893Y-43158141D01*
X103363262Y-43589715D01*
X103730285Y-43956738D01*
X104161859Y-44245107D01*
X104641399Y-44443739D01*
X105150475Y-44545000D01*
X105669525Y-44545000D01*
X106178601Y-44443739D01*
X106658141Y-44245107D01*
X107089715Y-43956738D01*
X107456738Y-43589715D01*
X107745107Y-43158141D01*
X107943739Y-42678601D01*
X108045000Y-42169525D01*
X108045000Y-41763740D01*
X109005000Y-41763740D01*
X109005000Y-42056260D01*
X109062068Y-42343158D01*
X109174010Y-42613411D01*
X109336525Y-42856632D01*
X109543368Y-43063475D01*
X109786589Y-43225990D01*
X110056842Y-43337932D01*
X110343740Y-43395000D01*
X110636260Y-43395000D01*
X110923158Y-43337932D01*
X111193411Y-43225990D01*
X111436632Y-43063475D01*
X111643475Y-42856632D01*
X111805990Y-42613411D01*
X111917932Y-42343158D01*
X111975000Y-42056260D01*
X111975000Y-41763740D01*
X111917932Y-41476842D01*
X111805990Y-41206589D01*
X111643475Y-40963368D01*
X111436632Y-40756525D01*
X111193411Y-40594010D01*
X110923158Y-40482068D01*
X110636260Y-40425000D01*
X110343740Y-40425000D01*
X110056842Y-40482068D01*
X109786589Y-40594010D01*
X109543368Y-40756525D01*
X109336525Y-40963368D01*
X109174010Y-41206589D01*
X109062068Y-41476842D01*
X109005000Y-41763740D01*
X108045000Y-41763740D01*
X108045000Y-41650475D01*
X107943739Y-41141399D01*
X107745107Y-40661859D01*
X107456738Y-40230285D01*
X107089715Y-39863262D01*
X106658141Y-39574893D01*
X106178601Y-39376261D01*
X105669525Y-39275000D01*
X105150475Y-39275000D01*
X104641399Y-39376261D01*
X104161859Y-39574893D01*
X103730285Y-39863262D01*
X103363262Y-40230285D01*
X103074893Y-40661859D01*
X102876261Y-41141399D01*
X102775000Y-41650475D01*
X102435000Y-41650475D01*
X102435000Y-40898738D01*
X102705998Y-40717663D01*
X102947663Y-40475998D01*
X103137537Y-40191831D01*
X103268325Y-39876081D01*
X103335000Y-39540883D01*
X103335000Y-39199117D01*
X103268325Y-38863919D01*
X103137537Y-38548169D01*
X102947663Y-38264002D01*
X102705998Y-38022337D01*
X102421831Y-37832463D01*
X102106081Y-37701675D01*
X101770883Y-37635000D01*
X101429117Y-37635000D01*
X101093919Y-37701675D01*
X100778169Y-37832463D01*
X100494002Y-38022337D01*
X100252337Y-38264002D01*
X100062463Y-38548169D01*
X99931675Y-38863919D01*
X99865000Y-39199117D01*
X99865000Y-39540883D01*
X99931675Y-39876081D01*
X100062463Y-40191831D01*
X100218261Y-40425000D01*
X100183740Y-40425000D01*
X99896842Y-40482068D01*
X99626589Y-40594010D01*
X99383368Y-40756525D01*
X99176525Y-40963368D01*
X99014010Y-41206589D01*
X98902068Y-41476842D01*
X98845000Y-41763740D01*
X96684021Y-41763740D01*
X96629853Y-41491426D01*
X96521680Y-41230273D01*
X96364637Y-40995241D01*
X96164759Y-40795363D01*
X95930872Y-40639085D01*
X95991514Y-40606671D01*
X96063097Y-40362702D01*
X95250000Y-39549605D01*
X94436903Y-40362702D01*
X94508486Y-40606671D01*
X94572992Y-40637194D01*
X94570273Y-40638320D01*
X94335241Y-40795363D01*
X94135363Y-40995241D01*
X93978320Y-41230273D01*
X93870147Y-41491426D01*
X93815000Y-41768665D01*
X93815000Y-42051335D01*
X93870147Y-42328574D01*
X93978320Y-42589727D01*
X94135363Y-42824759D01*
X94335241Y-43024637D01*
X94567759Y-43180000D01*
X94335241Y-43335363D01*
X94135363Y-43535241D01*
X93978320Y-43770273D01*
X93870147Y-44031426D01*
X93815000Y-44308665D01*
X93815000Y-44591335D01*
X93870147Y-44868574D01*
X93978320Y-45129727D01*
X94135363Y-45364759D01*
X94335241Y-45564637D01*
X94567759Y-45720000D01*
X94335241Y-45875363D01*
X94135363Y-46075241D01*
X93978320Y-46310273D01*
X93870147Y-46571426D01*
X93815000Y-46848665D01*
X93815000Y-47131335D01*
X93870147Y-47408574D01*
X93978320Y-47669727D01*
X94135363Y-47904759D01*
X94335241Y-48104637D01*
X94567759Y-48260000D01*
X94335241Y-48415363D01*
X94135363Y-48615241D01*
X93978320Y-48850273D01*
X93870147Y-49111426D01*
X93815000Y-49388665D01*
X93815000Y-49671335D01*
X93870147Y-49948574D01*
X93978320Y-50209727D01*
X94135363Y-50444759D01*
X94335241Y-50644637D01*
X94567759Y-50800000D01*
X94335241Y-50955363D01*
X94135363Y-51155241D01*
X94082070Y-51235000D01*
X91785868Y-51235000D01*
X91640000Y-51089132D01*
X91640000Y-39440512D01*
X93809783Y-39440512D01*
X93851213Y-39720130D01*
X93946397Y-39986292D01*
X94013329Y-40111514D01*
X94257298Y-40183097D01*
X95070395Y-39370000D01*
X95429605Y-39370000D01*
X96242702Y-40183097D01*
X96486671Y-40111514D01*
X96607571Y-39856004D01*
X96676300Y-39581816D01*
X96690217Y-39299488D01*
X96648787Y-39019870D01*
X96553603Y-38753708D01*
X96486671Y-38628486D01*
X96242702Y-38556903D01*
X95429605Y-39370000D01*
X95070395Y-39370000D01*
X94257298Y-38556903D01*
X94013329Y-38628486D01*
X93892429Y-38883996D01*
X93823700Y-39158184D01*
X93809783Y-39440512D01*
X91640000Y-39440512D01*
X91640000Y-39294409D01*
X93839568Y-37094843D01*
X93870147Y-37248574D01*
X93978320Y-37509727D01*
X94135363Y-37744759D01*
X94335241Y-37944637D01*
X94569128Y-38100915D01*
X94508486Y-38133329D01*
X94436903Y-38377298D01*
X95250000Y-39190395D01*
X96063097Y-38377298D01*
X95991514Y-38133329D01*
X95927008Y-38102806D01*
X95929727Y-38101680D01*
X96164759Y-37944637D01*
X96364637Y-37744759D01*
X96521680Y-37509727D01*
X96629853Y-37248574D01*
X96685000Y-36971335D01*
X96685000Y-36688665D01*
X96629853Y-36411426D01*
X96521680Y-36150273D01*
X96364637Y-35915241D01*
X96209396Y-35760000D01*
X105699133Y-35760000D01*
X106278585Y-36339453D01*
X106215000Y-36659117D01*
X106215000Y-37000883D01*
X106281675Y-37336081D01*
X106412463Y-37651831D01*
X106602337Y-37935998D01*
X106844002Y-38177663D01*
X107128169Y-38367537D01*
X107443919Y-38498325D01*
X107779117Y-38565000D01*
X108120883Y-38565000D01*
X108456081Y-38498325D01*
X108771831Y-38367537D01*
X109055998Y-38177663D01*
X109297663Y-37935998D01*
X109487537Y-37651831D01*
X109618325Y-37336081D01*
X109685000Y-37000883D01*
X109685000Y-36659117D01*
X109618325Y-36323919D01*
X109487537Y-36008169D01*
X109297663Y-35724002D01*
X109055998Y-35482337D01*
X108771831Y-35292463D01*
X108456081Y-35161675D01*
X108271703Y-35125000D01*
X124114133Y-35125000D01*
X125328585Y-36339453D01*
X125265000Y-36659117D01*
X125265000Y-37000883D01*
X125331675Y-37336081D01*
X125462463Y-37651831D01*
X125652337Y-37935998D01*
X125894002Y-38177663D01*
X126178169Y-38367537D01*
X126493919Y-38498325D01*
X126829117Y-38565000D01*
X127170883Y-38565000D01*
X127506081Y-38498325D01*
X127821831Y-38367537D01*
X128105998Y-38177663D01*
X128347663Y-37935998D01*
X128537537Y-37651831D01*
X128668325Y-37336081D01*
X128735000Y-37000883D01*
X128735000Y-36659117D01*
X128668325Y-36323919D01*
X128537537Y-36008169D01*
X128347663Y-35724002D01*
X128105998Y-35482337D01*
X127821831Y-35292463D01*
X127506081Y-35161675D01*
X127170883Y-35095000D01*
X126829117Y-35095000D01*
X126509453Y-35158585D01*
X125840867Y-34490000D01*
X142529133Y-34490000D01*
X144378585Y-36339453D01*
X144315000Y-36659117D01*
X144315000Y-37000883D01*
X144381675Y-37336081D01*
X144512463Y-37651831D01*
X144702337Y-37935998D01*
X144944002Y-38177663D01*
X145228169Y-38367537D01*
X145543919Y-38498325D01*
X145879117Y-38565000D01*
X146220883Y-38565000D01*
X146556081Y-38498325D01*
X146871831Y-38367537D01*
X147155998Y-38177663D01*
X147397663Y-37935998D01*
X147587537Y-37651831D01*
X147718325Y-37336081D01*
X147785000Y-37000883D01*
X147785000Y-36659117D01*
X147718325Y-36323919D01*
X147587537Y-36008169D01*
X147397663Y-35724002D01*
X147155998Y-35482337D01*
X146871831Y-35292463D01*
X146556081Y-35161675D01*
X146220883Y-35095000D01*
X145879117Y-35095000D01*
X145559453Y-35158585D01*
X144255867Y-33855000D01*
X160944133Y-33855000D01*
X163428585Y-36339453D01*
X163365000Y-36659117D01*
X163365000Y-37000883D01*
X163431675Y-37336081D01*
X163562463Y-37651831D01*
X163752337Y-37935998D01*
X163994002Y-38177663D01*
X164278169Y-38367537D01*
X164593919Y-38498325D01*
X164929117Y-38565000D01*
X165270883Y-38565000D01*
X165606081Y-38498325D01*
X165921831Y-38367537D01*
X166205998Y-38177663D01*
X166447663Y-37935998D01*
X166637537Y-37651831D01*
X166768325Y-37336081D01*
X166835000Y-37000883D01*
X166835000Y-36659117D01*
X166768325Y-36323919D01*
X166637537Y-36008169D01*
X166447663Y-35724002D01*
X166205998Y-35482337D01*
X165921831Y-35292463D01*
X165606081Y-35161675D01*
X165270883Y-35095000D01*
X164929117Y-35095000D01*
X164609453Y-35158585D01*
X162635877Y-33185010D01*
X179324143Y-33185010D01*
X182478585Y-36339454D01*
X182415000Y-36659117D01*
X182415000Y-37000883D01*
X182481675Y-37336081D01*
X182612463Y-37651831D01*
X182802337Y-37935998D01*
X183044002Y-38177663D01*
X183328169Y-38367537D01*
X183643919Y-38498325D01*
X183979117Y-38565000D01*
X184320883Y-38565000D01*
X184656081Y-38498325D01*
X184971831Y-38367537D01*
X185255998Y-38177663D01*
X185497663Y-37935998D01*
X185687537Y-37651831D01*
X185818325Y-37336081D01*
X185885000Y-37000883D01*
X185885000Y-36659117D01*
X185818325Y-36323919D01*
X185687537Y-36008169D01*
X185497663Y-35724002D01*
X185255998Y-35482337D01*
X184971831Y-35292463D01*
X184656081Y-35161675D01*
X184320883Y-35095000D01*
X183979117Y-35095000D01*
X183659454Y-35158585D01*
X181085867Y-32585000D01*
X197774133Y-32585000D01*
X201528585Y-36339454D01*
X201465000Y-36659117D01*
X201465000Y-37000883D01*
X201531675Y-37336081D01*
X201662463Y-37651831D01*
X201852337Y-37935998D01*
X202094002Y-38177663D01*
X202378169Y-38367537D01*
X202693919Y-38498325D01*
X203029117Y-38565000D01*
X203370883Y-38565000D01*
X203706081Y-38498325D01*
X204021831Y-38367537D01*
X204305998Y-38177663D01*
X204547663Y-37935998D01*
X204737537Y-37651831D01*
X204868325Y-37336081D01*
X204935000Y-37000883D01*
X204935000Y-36659117D01*
X204868325Y-36323919D01*
X204737537Y-36008169D01*
X204547663Y-35724002D01*
X204305998Y-35482337D01*
X204021831Y-35292463D01*
X203706081Y-35161675D01*
X203370883Y-35095000D01*
X203029117Y-35095000D01*
X202709454Y-35158585D01*
X198739446Y-31188579D01*
X198713291Y-31156709D01*
X198586146Y-31052364D01*
X198441087Y-30974828D01*
X198283689Y-30927082D01*
X198161019Y-30915000D01*
X198161018Y-30915000D01*
X198120000Y-30910960D01*
X198078982Y-30915000D01*
X97653380Y-30915000D01*
X100848508Y-27719872D01*
X103175000Y-27719872D01*
X103175000Y-28160128D01*
X103260890Y-28591925D01*
X103429369Y-28998669D01*
X103673962Y-29364729D01*
X103985271Y-29676038D01*
X104351331Y-29920631D01*
X104758075Y-30089110D01*
X105189872Y-30175000D01*
X105630128Y-30175000D01*
X106061925Y-30089110D01*
X106468669Y-29920631D01*
X106834729Y-29676038D01*
X107146038Y-29364729D01*
X107390631Y-28998669D01*
X107559110Y-28591925D01*
X107645000Y-28160128D01*
X107645000Y-27719872D01*
X200330000Y-27719872D01*
X200330000Y-28160128D01*
X200415890Y-28591925D01*
X200584369Y-28998669D01*
X200828962Y-29364729D01*
X201140271Y-29676038D01*
X201506331Y-29920631D01*
X201913075Y-30089110D01*
X202344872Y-30175000D01*
X202785128Y-30175000D01*
X203216925Y-30089110D01*
X203623669Y-29920631D01*
X203989729Y-29676038D01*
X204301038Y-29364729D01*
X204545631Y-28998669D01*
X204714110Y-28591925D01*
X204800000Y-28160128D01*
X204800000Y-27719872D01*
X204714110Y-27288075D01*
X204545631Y-26881331D01*
X204301038Y-26515271D01*
X203989729Y-26203962D01*
X203623669Y-25959369D01*
X203216925Y-25790890D01*
X202785128Y-25705000D01*
X202344872Y-25705000D01*
X201913075Y-25790890D01*
X201506331Y-25959369D01*
X201140271Y-26203962D01*
X200828962Y-26515271D01*
X200584369Y-26881331D01*
X200415890Y-27288075D01*
X200330000Y-27719872D01*
X107645000Y-27719872D01*
X107559110Y-27288075D01*
X107390631Y-26881331D01*
X107146038Y-26515271D01*
X106834729Y-26203962D01*
X106468669Y-25959369D01*
X106061925Y-25790890D01*
X105630128Y-25705000D01*
X105189872Y-25705000D01*
X104758075Y-25790890D01*
X104351331Y-25959369D01*
X103985271Y-26203962D01*
X103673962Y-26515271D01*
X103429369Y-26881331D01*
X103260890Y-27288075D01*
X103175000Y-27719872D01*
X100848508Y-27719872D01*
X102089614Y-26478767D01*
X102089618Y-26478762D01*
X103359614Y-25208767D01*
X103359618Y-25208762D01*
X103778381Y-24790000D01*
X203561620Y-24790000D01*
X205296233Y-26524614D01*
G37*
%TD.AperFunction*%
D19*
X83191040Y-33220226D02*
X83207290Y-33273793D01*
X83226888Y-33310458D01*
X83243843Y-33348433D01*
X83257466Y-33367666D01*
X83268575Y-33388450D01*
X83294956Y-33420595D01*
X83318988Y-33454524D01*
X83336099Y-33470728D01*
X83351052Y-33488948D01*
X83383199Y-33515330D01*
X83413386Y-33543917D01*
X83433327Y-33556470D01*
X83451550Y-33571425D01*
X83488229Y-33591030D01*
X83523411Y-33613177D01*
X83545419Y-33621599D01*
X83566207Y-33632710D01*
X83606004Y-33644783D01*
X83644833Y-33659641D01*
X83668058Y-33663607D01*
X83690617Y-33670450D01*
X83732016Y-33674527D01*
X83772986Y-33681523D01*
X83828930Y-33680000D01*
X90234132Y-33680000D01*
X87068579Y-36845554D01*
X87036709Y-36871709D01*
X86954949Y-36971335D01*
X86932364Y-36998855D01*
X86854828Y-37143914D01*
X86807082Y-37301312D01*
X86790960Y-37465000D01*
X86795000Y-37506018D01*
X86795000Y-42874907D01*
X86661898Y-42819774D01*
X86461939Y-42780000D01*
X86258061Y-42780000D01*
X86058102Y-42819774D01*
X85869744Y-42897795D01*
X85700226Y-43011063D01*
X85556063Y-43155226D01*
X85442795Y-43324744D01*
X85364774Y-43513102D01*
X85325000Y-43713061D01*
X85325000Y-43916939D01*
X85364774Y-44116898D01*
X85442795Y-44305256D01*
X85525001Y-44428286D01*
X85525000Y-55534132D01*
X81445000Y-59614133D01*
X81445000Y-59548665D01*
X81389853Y-59271426D01*
X81281680Y-59010273D01*
X81124637Y-58775241D01*
X80924759Y-58575363D01*
X80692241Y-58420000D01*
X80924759Y-58264637D01*
X81124637Y-58064759D01*
X81281680Y-57829727D01*
X81389853Y-57568574D01*
X81445000Y-57291335D01*
X81445000Y-57008665D01*
X81389853Y-56731426D01*
X81281680Y-56470273D01*
X81124637Y-56235241D01*
X80924759Y-56035363D01*
X80692241Y-55880000D01*
X80924759Y-55724637D01*
X81124637Y-55524759D01*
X81281680Y-55289727D01*
X81389853Y-55028574D01*
X81445000Y-54751335D01*
X81445000Y-54468665D01*
X81426285Y-54374582D01*
X84146426Y-51654442D01*
X84178290Y-51628292D01*
X84282635Y-51501147D01*
X84360171Y-51356088D01*
X84407917Y-51198690D01*
X84419999Y-51076020D01*
X84424039Y-51035002D01*
X84419999Y-50993983D01*
X84419999Y-41716017D01*
X84424039Y-41674998D01*
X84407917Y-41511310D01*
X84360171Y-41353912D01*
X84294084Y-41230273D01*
X84282635Y-41208853D01*
X84209359Y-41119566D01*
X84180226Y-40973102D01*
X84102205Y-40784744D01*
X83988937Y-40615226D01*
X83844774Y-40471063D01*
X83675256Y-40357795D01*
X83486898Y-40279774D01*
X83286939Y-40240000D01*
X83083061Y-40240000D01*
X82883102Y-40279774D01*
X82694744Y-40357795D01*
X82525226Y-40471063D01*
X82381063Y-40615226D01*
X82267795Y-40784744D01*
X82189774Y-40973102D01*
X82150000Y-41173061D01*
X82150000Y-41376939D01*
X82189774Y-41576898D01*
X82267795Y-41765256D01*
X82381063Y-41934774D01*
X82525226Y-42078937D01*
X82624097Y-42145000D01*
X82448061Y-42145000D01*
X82248102Y-42184774D01*
X82059744Y-42262795D01*
X81890226Y-42376063D01*
X81746063Y-42520226D01*
X81632795Y-42689744D01*
X81554774Y-42878102D01*
X81515000Y-43078061D01*
X81515000Y-43281939D01*
X81554774Y-43481898D01*
X81632795Y-43670256D01*
X81715000Y-43793285D01*
X81715001Y-49184131D01*
X81445000Y-49454132D01*
X81445000Y-49388665D01*
X81389853Y-49111426D01*
X81281680Y-48850273D01*
X81124637Y-48615241D01*
X80924759Y-48415363D01*
X80692241Y-48260000D01*
X80924759Y-48104637D01*
X81124637Y-47904759D01*
X81281680Y-47669727D01*
X81389853Y-47408574D01*
X81445000Y-47131335D01*
X81445000Y-46848665D01*
X81389853Y-46571426D01*
X81281680Y-46310273D01*
X81124637Y-46075241D01*
X80924759Y-45875363D01*
X80690872Y-45719085D01*
X80751514Y-45686671D01*
X80823097Y-45442702D01*
X80010000Y-44629605D01*
X79196903Y-45442702D01*
X79268486Y-45686671D01*
X79332992Y-45717194D01*
X79330273Y-45718320D01*
X79095241Y-45875363D01*
X78895363Y-46075241D01*
X78738320Y-46310273D01*
X78630147Y-46571426D01*
X78575000Y-46848665D01*
X78575000Y-47131335D01*
X78630147Y-47408574D01*
X78738320Y-47669727D01*
X78895363Y-47904759D01*
X79095241Y-48104637D01*
X79327759Y-48260000D01*
X79095241Y-48415363D01*
X78895363Y-48615241D01*
X78738320Y-48850273D01*
X78630147Y-49111426D01*
X78575000Y-49388665D01*
X78575000Y-49671335D01*
X78630147Y-49948574D01*
X78738320Y-50209727D01*
X78895363Y-50444759D01*
X79095241Y-50644637D01*
X79327759Y-50800000D01*
X79095241Y-50955363D01*
X78895363Y-51155241D01*
X78738320Y-51390273D01*
X78630147Y-51651426D01*
X78575000Y-51928665D01*
X78575000Y-52211335D01*
X78630147Y-52488574D01*
X78738320Y-52749727D01*
X78895363Y-52984759D01*
X79095241Y-53184637D01*
X79327759Y-53340000D01*
X79095241Y-53495363D01*
X78895363Y-53695241D01*
X78738320Y-53930273D01*
X78630147Y-54191426D01*
X78575000Y-54468665D01*
X78575000Y-54751335D01*
X78630147Y-55028574D01*
X78738320Y-55289727D01*
X78895363Y-55524759D01*
X79095241Y-55724637D01*
X79327759Y-55880000D01*
X79095241Y-56035363D01*
X78895363Y-56235241D01*
X78738320Y-56470273D01*
X78630147Y-56731426D01*
X78575000Y-57008665D01*
X78575000Y-57291335D01*
X78630147Y-57568574D01*
X78738320Y-57829727D01*
X78895363Y-58064759D01*
X79095241Y-58264637D01*
X79327759Y-58420000D01*
X79095241Y-58575363D01*
X78895363Y-58775241D01*
X78738320Y-59010273D01*
X78630147Y-59271426D01*
X78575000Y-59548665D01*
X78575000Y-59831335D01*
X78630147Y-60108574D01*
X78738320Y-60369727D01*
X78895363Y-60604759D01*
X79095241Y-60804637D01*
X79327759Y-60960000D01*
X79095241Y-61115363D01*
X78895363Y-61315241D01*
X78738320Y-61550273D01*
X78630147Y-61811426D01*
X78575000Y-62088665D01*
X78575000Y-62371335D01*
X78630147Y-62648574D01*
X78738320Y-62909727D01*
X78895363Y-63144759D01*
X79095241Y-63344637D01*
X79327759Y-63500000D01*
X79095241Y-63655363D01*
X78895363Y-63855241D01*
X78738320Y-64090273D01*
X78630147Y-64351426D01*
X78575000Y-64628665D01*
X78575000Y-64911335D01*
X78593604Y-65004863D01*
X78522843Y-65091086D01*
X78512365Y-65103854D01*
X78434829Y-65248913D01*
X78387083Y-65406311D01*
X78370961Y-65569999D01*
X78375001Y-65611018D01*
X78375002Y-69270975D01*
X78370961Y-69312003D01*
X78387083Y-69475691D01*
X78407814Y-69544031D01*
X78279816Y-69307304D01*
X78171498Y-68957385D01*
X78130000Y-68562557D01*
X78130000Y-44520512D01*
X78569783Y-44520512D01*
X78611213Y-44800130D01*
X78706397Y-45066292D01*
X78773329Y-45191514D01*
X79017298Y-45263097D01*
X79830395Y-44450000D01*
X80189605Y-44450000D01*
X81002702Y-45263097D01*
X81246671Y-45191514D01*
X81367571Y-44936004D01*
X81436300Y-44661816D01*
X81450217Y-44379488D01*
X81408787Y-44099870D01*
X81313603Y-43833708D01*
X81246671Y-43708486D01*
X81002702Y-43636903D01*
X80189605Y-44450000D01*
X79830395Y-44450000D01*
X79017298Y-43636903D01*
X78773329Y-43708486D01*
X78652429Y-43963996D01*
X78583700Y-44238184D01*
X78569783Y-44520512D01*
X78130000Y-44520512D01*
X78130000Y-42902702D01*
X79196903Y-42902702D01*
X79268486Y-43146671D01*
X79334636Y-43177971D01*
X79268486Y-43213329D01*
X79196903Y-43457298D01*
X80010000Y-44270395D01*
X80823097Y-43457298D01*
X80751514Y-43213329D01*
X80685364Y-43182029D01*
X80751514Y-43146671D01*
X80823097Y-42902702D01*
X80010000Y-42089605D01*
X79196903Y-42902702D01*
X78130000Y-42902702D01*
X78130000Y-41980512D01*
X78569783Y-41980512D01*
X78611213Y-42260130D01*
X78706397Y-42526292D01*
X78773329Y-42651514D01*
X79017298Y-42723097D01*
X79830395Y-41910000D01*
X80189605Y-41910000D01*
X81002702Y-42723097D01*
X81246671Y-42651514D01*
X81367571Y-42396004D01*
X81436300Y-42121816D01*
X81450217Y-41839488D01*
X81408787Y-41559870D01*
X81313603Y-41293708D01*
X81246671Y-41168486D01*
X81002702Y-41096903D01*
X80189605Y-41910000D01*
X79830395Y-41910000D01*
X79017298Y-41096903D01*
X78773329Y-41168486D01*
X78652429Y-41423996D01*
X78583700Y-41698184D01*
X78569783Y-41980512D01*
X78130000Y-41980512D01*
X78130000Y-36030000D01*
X78571928Y-36030000D01*
X78571928Y-37630000D01*
X78584188Y-37754482D01*
X78620498Y-37874180D01*
X78679463Y-37984494D01*
X78758815Y-38081185D01*
X78855506Y-38160537D01*
X78965820Y-38219502D01*
X79085518Y-38255812D01*
X79093961Y-38256643D01*
X78895363Y-38455241D01*
X78738320Y-38690273D01*
X78630147Y-38951426D01*
X78575000Y-39228665D01*
X78575000Y-39511335D01*
X78630147Y-39788574D01*
X78738320Y-40049727D01*
X78895363Y-40284759D01*
X79095241Y-40484637D01*
X79329128Y-40640915D01*
X79268486Y-40673329D01*
X79196903Y-40917298D01*
X80010000Y-41730395D01*
X80823097Y-40917298D01*
X80751514Y-40673329D01*
X80687008Y-40642806D01*
X80689727Y-40641680D01*
X80924759Y-40484637D01*
X81124637Y-40284759D01*
X81281680Y-40049727D01*
X81389853Y-39788574D01*
X81445000Y-39511335D01*
X81445000Y-39228665D01*
X81389853Y-38951426D01*
X81281680Y-38690273D01*
X81124637Y-38455241D01*
X80926039Y-38256643D01*
X80934482Y-38255812D01*
X81054180Y-38219502D01*
X81164494Y-38160537D01*
X81261185Y-38081185D01*
X81340537Y-37984494D01*
X81399502Y-37874180D01*
X81435812Y-37754482D01*
X81448072Y-37630000D01*
X81448072Y-36030000D01*
X81435812Y-35905518D01*
X81399502Y-35785820D01*
X81340537Y-35675506D01*
X81261185Y-35578815D01*
X81164494Y-35499463D01*
X81054180Y-35440498D01*
X80934482Y-35404188D01*
X80810000Y-35391928D01*
X79210000Y-35391928D01*
X79085518Y-35404188D01*
X78965820Y-35440498D01*
X78855506Y-35499463D01*
X78758815Y-35578815D01*
X78679463Y-35675506D01*
X78620498Y-35785820D01*
X78584188Y-35905518D01*
X78571928Y-36030000D01*
X78130000Y-36030000D01*
X78130000Y-33687279D01*
X78168909Y-33290455D01*
X78274780Y-32939792D01*
X78446744Y-32616375D01*
X78678254Y-32332516D01*
X78960486Y-32099035D01*
X79282695Y-31924817D01*
X79632614Y-31816498D01*
X80027443Y-31775000D01*
X82709300Y-31775000D01*
X83191040Y-33220226D01*
%TA.AperFunction,Conductor*%
D20*
G36*
X83191040Y-33220226D02*
G01*
X83207290Y-33273793D01*
X83226888Y-33310458D01*
X83243843Y-33348433D01*
X83257466Y-33367666D01*
X83268575Y-33388450D01*
X83294956Y-33420595D01*
X83318988Y-33454524D01*
X83336099Y-33470728D01*
X83351052Y-33488948D01*
X83383199Y-33515330D01*
X83413386Y-33543917D01*
X83433327Y-33556470D01*
X83451550Y-33571425D01*
X83488229Y-33591030D01*
X83523411Y-33613177D01*
X83545419Y-33621599D01*
X83566207Y-33632710D01*
X83606004Y-33644783D01*
X83644833Y-33659641D01*
X83668058Y-33663607D01*
X83690617Y-33670450D01*
X83732016Y-33674527D01*
X83772986Y-33681523D01*
X83828930Y-33680000D01*
X90234132Y-33680000D01*
X87068579Y-36845554D01*
X87036709Y-36871709D01*
X86954949Y-36971335D01*
X86932364Y-36998855D01*
X86854828Y-37143914D01*
X86807082Y-37301312D01*
X86790960Y-37465000D01*
X86795000Y-37506018D01*
X86795000Y-42874907D01*
X86661898Y-42819774D01*
X86461939Y-42780000D01*
X86258061Y-42780000D01*
X86058102Y-42819774D01*
X85869744Y-42897795D01*
X85700226Y-43011063D01*
X85556063Y-43155226D01*
X85442795Y-43324744D01*
X85364774Y-43513102D01*
X85325000Y-43713061D01*
X85325000Y-43916939D01*
X85364774Y-44116898D01*
X85442795Y-44305256D01*
X85525001Y-44428286D01*
X85525000Y-55534132D01*
X81445000Y-59614133D01*
X81445000Y-59548665D01*
X81389853Y-59271426D01*
X81281680Y-59010273D01*
X81124637Y-58775241D01*
X80924759Y-58575363D01*
X80692241Y-58420000D01*
X80924759Y-58264637D01*
X81124637Y-58064759D01*
X81281680Y-57829727D01*
X81389853Y-57568574D01*
X81445000Y-57291335D01*
X81445000Y-57008665D01*
X81389853Y-56731426D01*
X81281680Y-56470273D01*
X81124637Y-56235241D01*
X80924759Y-56035363D01*
X80692241Y-55880000D01*
X80924759Y-55724637D01*
X81124637Y-55524759D01*
X81281680Y-55289727D01*
X81389853Y-55028574D01*
X81445000Y-54751335D01*
X81445000Y-54468665D01*
X81426285Y-54374582D01*
X84146426Y-51654442D01*
X84178290Y-51628292D01*
X84282635Y-51501147D01*
X84360171Y-51356088D01*
X84407917Y-51198690D01*
X84419999Y-51076020D01*
X84424039Y-51035002D01*
X84419999Y-50993983D01*
X84419999Y-41716017D01*
X84424039Y-41674998D01*
X84407917Y-41511310D01*
X84360171Y-41353912D01*
X84294084Y-41230273D01*
X84282635Y-41208853D01*
X84209359Y-41119566D01*
X84180226Y-40973102D01*
X84102205Y-40784744D01*
X83988937Y-40615226D01*
X83844774Y-40471063D01*
X83675256Y-40357795D01*
X83486898Y-40279774D01*
X83286939Y-40240000D01*
X83083061Y-40240000D01*
X82883102Y-40279774D01*
X82694744Y-40357795D01*
X82525226Y-40471063D01*
X82381063Y-40615226D01*
X82267795Y-40784744D01*
X82189774Y-40973102D01*
X82150000Y-41173061D01*
X82150000Y-41376939D01*
X82189774Y-41576898D01*
X82267795Y-41765256D01*
X82381063Y-41934774D01*
X82525226Y-42078937D01*
X82624097Y-42145000D01*
X82448061Y-42145000D01*
X82248102Y-42184774D01*
X82059744Y-42262795D01*
X81890226Y-42376063D01*
X81746063Y-42520226D01*
X81632795Y-42689744D01*
X81554774Y-42878102D01*
X81515000Y-43078061D01*
X81515000Y-43281939D01*
X81554774Y-43481898D01*
X81632795Y-43670256D01*
X81715000Y-43793285D01*
X81715001Y-49184131D01*
X81445000Y-49454132D01*
X81445000Y-49388665D01*
X81389853Y-49111426D01*
X81281680Y-48850273D01*
X81124637Y-48615241D01*
X80924759Y-48415363D01*
X80692241Y-48260000D01*
X80924759Y-48104637D01*
X81124637Y-47904759D01*
X81281680Y-47669727D01*
X81389853Y-47408574D01*
X81445000Y-47131335D01*
X81445000Y-46848665D01*
X81389853Y-46571426D01*
X81281680Y-46310273D01*
X81124637Y-46075241D01*
X80924759Y-45875363D01*
X80690872Y-45719085D01*
X80751514Y-45686671D01*
X80823097Y-45442702D01*
X80010000Y-44629605D01*
X79196903Y-45442702D01*
X79268486Y-45686671D01*
X79332992Y-45717194D01*
X79330273Y-45718320D01*
X79095241Y-45875363D01*
X78895363Y-46075241D01*
X78738320Y-46310273D01*
X78630147Y-46571426D01*
X78575000Y-46848665D01*
X78575000Y-47131335D01*
X78630147Y-47408574D01*
X78738320Y-47669727D01*
X78895363Y-47904759D01*
X79095241Y-48104637D01*
X79327759Y-48260000D01*
X79095241Y-48415363D01*
X78895363Y-48615241D01*
X78738320Y-48850273D01*
X78630147Y-49111426D01*
X78575000Y-49388665D01*
X78575000Y-49671335D01*
X78630147Y-49948574D01*
X78738320Y-50209727D01*
X78895363Y-50444759D01*
X79095241Y-50644637D01*
X79327759Y-50800000D01*
X79095241Y-50955363D01*
X78895363Y-51155241D01*
X78738320Y-51390273D01*
X78630147Y-51651426D01*
X78575000Y-51928665D01*
X78575000Y-52211335D01*
X78630147Y-52488574D01*
X78738320Y-52749727D01*
X78895363Y-52984759D01*
X79095241Y-53184637D01*
X79327759Y-53340000D01*
X79095241Y-53495363D01*
X78895363Y-53695241D01*
X78738320Y-53930273D01*
X78630147Y-54191426D01*
X78575000Y-54468665D01*
X78575000Y-54751335D01*
X78630147Y-55028574D01*
X78738320Y-55289727D01*
X78895363Y-55524759D01*
X79095241Y-55724637D01*
X79327759Y-55880000D01*
X79095241Y-56035363D01*
X78895363Y-56235241D01*
X78738320Y-56470273D01*
X78630147Y-56731426D01*
X78575000Y-57008665D01*
X78575000Y-57291335D01*
X78630147Y-57568574D01*
X78738320Y-57829727D01*
X78895363Y-58064759D01*
X79095241Y-58264637D01*
X79327759Y-58420000D01*
X79095241Y-58575363D01*
X78895363Y-58775241D01*
X78738320Y-59010273D01*
X78630147Y-59271426D01*
X78575000Y-59548665D01*
X78575000Y-59831335D01*
X78630147Y-60108574D01*
X78738320Y-60369727D01*
X78895363Y-60604759D01*
X79095241Y-60804637D01*
X79327759Y-60960000D01*
X79095241Y-61115363D01*
X78895363Y-61315241D01*
X78738320Y-61550273D01*
X78630147Y-61811426D01*
X78575000Y-62088665D01*
X78575000Y-62371335D01*
X78630147Y-62648574D01*
X78738320Y-62909727D01*
X78895363Y-63144759D01*
X79095241Y-63344637D01*
X79327759Y-63500000D01*
X79095241Y-63655363D01*
X78895363Y-63855241D01*
X78738320Y-64090273D01*
X78630147Y-64351426D01*
X78575000Y-64628665D01*
X78575000Y-64911335D01*
X78593604Y-65004863D01*
X78522843Y-65091086D01*
X78512365Y-65103854D01*
X78434829Y-65248913D01*
X78387083Y-65406311D01*
X78370961Y-65569999D01*
X78375001Y-65611018D01*
X78375002Y-69270975D01*
X78370961Y-69312003D01*
X78387083Y-69475691D01*
X78407814Y-69544031D01*
X78279816Y-69307304D01*
X78171498Y-68957385D01*
X78130000Y-68562557D01*
X78130000Y-44520512D01*
X78569783Y-44520512D01*
X78611213Y-44800130D01*
X78706397Y-45066292D01*
X78773329Y-45191514D01*
X79017298Y-45263097D01*
X79830395Y-44450000D01*
X80189605Y-44450000D01*
X81002702Y-45263097D01*
X81246671Y-45191514D01*
X81367571Y-44936004D01*
X81436300Y-44661816D01*
X81450217Y-44379488D01*
X81408787Y-44099870D01*
X81313603Y-43833708D01*
X81246671Y-43708486D01*
X81002702Y-43636903D01*
X80189605Y-44450000D01*
X79830395Y-44450000D01*
X79017298Y-43636903D01*
X78773329Y-43708486D01*
X78652429Y-43963996D01*
X78583700Y-44238184D01*
X78569783Y-44520512D01*
X78130000Y-44520512D01*
X78130000Y-42902702D01*
X79196903Y-42902702D01*
X79268486Y-43146671D01*
X79334636Y-43177971D01*
X79268486Y-43213329D01*
X79196903Y-43457298D01*
X80010000Y-44270395D01*
X80823097Y-43457298D01*
X80751514Y-43213329D01*
X80685364Y-43182029D01*
X80751514Y-43146671D01*
X80823097Y-42902702D01*
X80010000Y-42089605D01*
X79196903Y-42902702D01*
X78130000Y-42902702D01*
X78130000Y-41980512D01*
X78569783Y-41980512D01*
X78611213Y-42260130D01*
X78706397Y-42526292D01*
X78773329Y-42651514D01*
X79017298Y-42723097D01*
X79830395Y-41910000D01*
X80189605Y-41910000D01*
X81002702Y-42723097D01*
X81246671Y-42651514D01*
X81367571Y-42396004D01*
X81436300Y-42121816D01*
X81450217Y-41839488D01*
X81408787Y-41559870D01*
X81313603Y-41293708D01*
X81246671Y-41168486D01*
X81002702Y-41096903D01*
X80189605Y-41910000D01*
X79830395Y-41910000D01*
X79017298Y-41096903D01*
X78773329Y-41168486D01*
X78652429Y-41423996D01*
X78583700Y-41698184D01*
X78569783Y-41980512D01*
X78130000Y-41980512D01*
X78130000Y-36030000D01*
X78571928Y-36030000D01*
X78571928Y-37630000D01*
X78584188Y-37754482D01*
X78620498Y-37874180D01*
X78679463Y-37984494D01*
X78758815Y-38081185D01*
X78855506Y-38160537D01*
X78965820Y-38219502D01*
X79085518Y-38255812D01*
X79093961Y-38256643D01*
X78895363Y-38455241D01*
X78738320Y-38690273D01*
X78630147Y-38951426D01*
X78575000Y-39228665D01*
X78575000Y-39511335D01*
X78630147Y-39788574D01*
X78738320Y-40049727D01*
X78895363Y-40284759D01*
X79095241Y-40484637D01*
X79329128Y-40640915D01*
X79268486Y-40673329D01*
X79196903Y-40917298D01*
X80010000Y-41730395D01*
X80823097Y-40917298D01*
X80751514Y-40673329D01*
X80687008Y-40642806D01*
X80689727Y-40641680D01*
X80924759Y-40484637D01*
X81124637Y-40284759D01*
X81281680Y-40049727D01*
X81389853Y-39788574D01*
X81445000Y-39511335D01*
X81445000Y-39228665D01*
X81389853Y-38951426D01*
X81281680Y-38690273D01*
X81124637Y-38455241D01*
X80926039Y-38256643D01*
X80934482Y-38255812D01*
X81054180Y-38219502D01*
X81164494Y-38160537D01*
X81261185Y-38081185D01*
X81340537Y-37984494D01*
X81399502Y-37874180D01*
X81435812Y-37754482D01*
X81448072Y-37630000D01*
X81448072Y-36030000D01*
X81435812Y-35905518D01*
X81399502Y-35785820D01*
X81340537Y-35675506D01*
X81261185Y-35578815D01*
X81164494Y-35499463D01*
X81054180Y-35440498D01*
X80934482Y-35404188D01*
X80810000Y-35391928D01*
X79210000Y-35391928D01*
X79085518Y-35404188D01*
X78965820Y-35440498D01*
X78855506Y-35499463D01*
X78758815Y-35578815D01*
X78679463Y-35675506D01*
X78620498Y-35785820D01*
X78584188Y-35905518D01*
X78571928Y-36030000D01*
X78130000Y-36030000D01*
X78130000Y-33687279D01*
X78168909Y-33290455D01*
X78274780Y-32939792D01*
X78446744Y-32616375D01*
X78678254Y-32332516D01*
X78960486Y-32099035D01*
X79282695Y-31924817D01*
X79632614Y-31816498D01*
X80027443Y-31775000D01*
X82709300Y-31775000D01*
X83191040Y-33220226D01*
G37*
%TD.AperFunction*%
%TD*%
M02*
