%TF.GenerationSoftware,KiCad,Pcbnew,(5.1.10)-1*%
%TF.CreationDate,2021-12-19T12:17:38+01:00*%
%TF.ProjectId,KiCadPCB,4b694361-6450-4434-922e-6b696361645f,rev?*%
%TF.SameCoordinates,Original*%
%TF.FileFunction,Other,Fab,Top*%
%FSLAX46Y46*%
G04 Gerber Fmt 4.6, Leading zero omitted, Abs format (unit mm)*
G04 Created by KiCad (PCBNEW (5.1.10)-1) date 2021-12-19 12:17:38*
%MOMM*%
%LPD*%
G01*
G04 APERTURE LIST*
%ADD10C,0.100000*%
%ADD11C,0.120000*%
%ADD12C,0.150000*%
G04 APERTURE END LIST*
D10*
%TO.C,D14*%
X213765000Y-49165000D02*
X213765000Y-51165000D01*
X213965000Y-49165000D02*
X213965000Y-51165000D01*
X213865000Y-49165000D02*
X213865000Y-51165000D01*
X219075000Y-50165000D02*
X217265000Y-50165000D01*
X211455000Y-50165000D02*
X213265000Y-50165000D01*
X217265000Y-49165000D02*
X213265000Y-49165000D01*
X217265000Y-51165000D02*
X217265000Y-49165000D01*
X213265000Y-51165000D02*
X217265000Y-51165000D01*
X213265000Y-49165000D02*
X213265000Y-51165000D01*
%TO.C,D13*%
X218210000Y-68215000D02*
X218210000Y-70215000D01*
X218410000Y-68215000D02*
X218410000Y-70215000D01*
X218310000Y-68215000D02*
X218310000Y-70215000D01*
X223520000Y-69215000D02*
X221710000Y-69215000D01*
X215900000Y-69215000D02*
X217710000Y-69215000D01*
X221710000Y-68215000D02*
X217710000Y-68215000D01*
X221710000Y-70215000D02*
X221710000Y-68215000D01*
X217710000Y-70215000D02*
X221710000Y-70215000D01*
X217710000Y-68215000D02*
X217710000Y-70215000D01*
%TO.C,D12*%
X199160000Y-68215000D02*
X199160000Y-70215000D01*
X199360000Y-68215000D02*
X199360000Y-70215000D01*
X199260000Y-68215000D02*
X199260000Y-70215000D01*
X204470000Y-69215000D02*
X202660000Y-69215000D01*
X196850000Y-69215000D02*
X198660000Y-69215000D01*
X202660000Y-68215000D02*
X198660000Y-68215000D01*
X202660000Y-70215000D02*
X202660000Y-68215000D01*
X198660000Y-70215000D02*
X202660000Y-70215000D01*
X198660000Y-68215000D02*
X198660000Y-70215000D01*
%TO.C,D11*%
X180110000Y-68215000D02*
X180110000Y-70215000D01*
X180310000Y-68215000D02*
X180310000Y-70215000D01*
X180210000Y-68215000D02*
X180210000Y-70215000D01*
X185420000Y-69215000D02*
X183610000Y-69215000D01*
X177800000Y-69215000D02*
X179610000Y-69215000D01*
X183610000Y-68215000D02*
X179610000Y-68215000D01*
X183610000Y-70215000D02*
X183610000Y-68215000D01*
X179610000Y-70215000D02*
X183610000Y-70215000D01*
X179610000Y-68215000D02*
X179610000Y-70215000D01*
%TO.C,D10*%
X161060000Y-68215000D02*
X161060000Y-70215000D01*
X161260000Y-68215000D02*
X161260000Y-70215000D01*
X161160000Y-68215000D02*
X161160000Y-70215000D01*
X166370000Y-69215000D02*
X164560000Y-69215000D01*
X158750000Y-69215000D02*
X160560000Y-69215000D01*
X164560000Y-68215000D02*
X160560000Y-68215000D01*
X164560000Y-70215000D02*
X164560000Y-68215000D01*
X160560000Y-70215000D02*
X164560000Y-70215000D01*
X160560000Y-68215000D02*
X160560000Y-70215000D01*
%TO.C,D9*%
X142010000Y-68215000D02*
X142010000Y-70215000D01*
X142210000Y-68215000D02*
X142210000Y-70215000D01*
X142110000Y-68215000D02*
X142110000Y-70215000D01*
X147320000Y-69215000D02*
X145510000Y-69215000D01*
X139700000Y-69215000D02*
X141510000Y-69215000D01*
X145510000Y-68215000D02*
X141510000Y-68215000D01*
X145510000Y-70215000D02*
X145510000Y-68215000D01*
X141510000Y-70215000D02*
X145510000Y-70215000D01*
X141510000Y-68215000D02*
X141510000Y-70215000D01*
%TO.C,D8*%
X122960000Y-68215000D02*
X122960000Y-70215000D01*
X123160000Y-68215000D02*
X123160000Y-70215000D01*
X123060000Y-68215000D02*
X123060000Y-70215000D01*
X128270000Y-69215000D02*
X126460000Y-69215000D01*
X120650000Y-69215000D02*
X122460000Y-69215000D01*
X126460000Y-68215000D02*
X122460000Y-68215000D01*
X126460000Y-70215000D02*
X126460000Y-68215000D01*
X122460000Y-70215000D02*
X126460000Y-70215000D01*
X122460000Y-68215000D02*
X122460000Y-70215000D01*
%TO.C,D7*%
X103910000Y-68215000D02*
X103910000Y-70215000D01*
X104110000Y-68215000D02*
X104110000Y-70215000D01*
X104010000Y-68215000D02*
X104010000Y-70215000D01*
X109220000Y-69215000D02*
X107410000Y-69215000D01*
X101600000Y-69215000D02*
X103410000Y-69215000D01*
X107410000Y-68215000D02*
X103410000Y-68215000D01*
X107410000Y-70215000D02*
X107410000Y-68215000D01*
X103410000Y-70215000D02*
X107410000Y-70215000D01*
X103410000Y-68215000D02*
X103410000Y-70215000D01*
%TO.C,D6*%
X199160000Y-49165000D02*
X199160000Y-51165000D01*
X199360000Y-49165000D02*
X199360000Y-51165000D01*
X199260000Y-49165000D02*
X199260000Y-51165000D01*
X204470000Y-50165000D02*
X202660000Y-50165000D01*
X196850000Y-50165000D02*
X198660000Y-50165000D01*
X202660000Y-49165000D02*
X198660000Y-49165000D01*
X202660000Y-51165000D02*
X202660000Y-49165000D01*
X198660000Y-51165000D02*
X202660000Y-51165000D01*
X198660000Y-49165000D02*
X198660000Y-51165000D01*
%TO.C,D5*%
X180110000Y-49165000D02*
X180110000Y-51165000D01*
X180310000Y-49165000D02*
X180310000Y-51165000D01*
X180210000Y-49165000D02*
X180210000Y-51165000D01*
X185420000Y-50165000D02*
X183610000Y-50165000D01*
X177800000Y-50165000D02*
X179610000Y-50165000D01*
X183610000Y-49165000D02*
X179610000Y-49165000D01*
X183610000Y-51165000D02*
X183610000Y-49165000D01*
X179610000Y-51165000D02*
X183610000Y-51165000D01*
X179610000Y-49165000D02*
X179610000Y-51165000D01*
%TO.C,D4*%
X161060000Y-49165000D02*
X161060000Y-51165000D01*
X161260000Y-49165000D02*
X161260000Y-51165000D01*
X161160000Y-49165000D02*
X161160000Y-51165000D01*
X166370000Y-50165000D02*
X164560000Y-50165000D01*
X158750000Y-50165000D02*
X160560000Y-50165000D01*
X164560000Y-49165000D02*
X160560000Y-49165000D01*
X164560000Y-51165000D02*
X164560000Y-49165000D01*
X160560000Y-51165000D02*
X164560000Y-51165000D01*
X160560000Y-49165000D02*
X160560000Y-51165000D01*
%TO.C,D3*%
X142010000Y-49165000D02*
X142010000Y-51165000D01*
X142210000Y-49165000D02*
X142210000Y-51165000D01*
X142110000Y-49165000D02*
X142110000Y-51165000D01*
X147320000Y-50165000D02*
X145510000Y-50165000D01*
X139700000Y-50165000D02*
X141510000Y-50165000D01*
X145510000Y-49165000D02*
X141510000Y-49165000D01*
X145510000Y-51165000D02*
X145510000Y-49165000D01*
X141510000Y-51165000D02*
X145510000Y-51165000D01*
X141510000Y-49165000D02*
X141510000Y-51165000D01*
%TO.C,D2*%
X122960000Y-49165000D02*
X122960000Y-51165000D01*
X123160000Y-49165000D02*
X123160000Y-51165000D01*
X123060000Y-49165000D02*
X123060000Y-51165000D01*
X128270000Y-50165000D02*
X126460000Y-50165000D01*
X120650000Y-50165000D02*
X122460000Y-50165000D01*
X126460000Y-49165000D02*
X122460000Y-49165000D01*
X126460000Y-51165000D02*
X126460000Y-49165000D01*
X122460000Y-51165000D02*
X126460000Y-51165000D01*
X122460000Y-49165000D02*
X122460000Y-51165000D01*
%TO.C,D1*%
X103910000Y-49165000D02*
X103910000Y-51165000D01*
X104110000Y-49165000D02*
X104110000Y-51165000D01*
X104010000Y-49165000D02*
X104010000Y-51165000D01*
X109220000Y-50165000D02*
X107410000Y-50165000D01*
X101600000Y-50165000D02*
X103410000Y-50165000D01*
X107410000Y-49165000D02*
X103410000Y-49165000D01*
X107410000Y-51165000D02*
X107410000Y-49165000D01*
X103410000Y-51165000D02*
X107410000Y-51165000D01*
X103410000Y-49165000D02*
X103410000Y-51165000D01*
%TO.C,SW13*%
X213360000Y-67310000D02*
X213360000Y-54610000D01*
X226060000Y-67310000D02*
X213360000Y-67310000D01*
X226060000Y-54610000D02*
X226060000Y-67310000D01*
X213360000Y-54610000D02*
X226060000Y-54610000D01*
%TO.C,SW12*%
X194310000Y-67310000D02*
X194310000Y-54610000D01*
X207010000Y-67310000D02*
X194310000Y-67310000D01*
X207010000Y-54610000D02*
X207010000Y-67310000D01*
X194310000Y-54610000D02*
X207010000Y-54610000D01*
%TO.C,SW11*%
X175260000Y-67310000D02*
X175260000Y-54610000D01*
X187960000Y-67310000D02*
X175260000Y-67310000D01*
X187960000Y-54610000D02*
X187960000Y-67310000D01*
X175260000Y-54610000D02*
X187960000Y-54610000D01*
%TO.C,SW10*%
X156210000Y-67310000D02*
X156210000Y-54610000D01*
X168910000Y-67310000D02*
X156210000Y-67310000D01*
X168910000Y-54610000D02*
X168910000Y-67310000D01*
X156210000Y-54610000D02*
X168910000Y-54610000D01*
%TO.C,SW9*%
X137160000Y-67310000D02*
X137160000Y-54610000D01*
X149860000Y-67310000D02*
X137160000Y-67310000D01*
X149860000Y-54610000D02*
X149860000Y-67310000D01*
X137160000Y-54610000D02*
X149860000Y-54610000D01*
%TO.C,SW8*%
X118110000Y-67310000D02*
X118110000Y-54610000D01*
X130810000Y-67310000D02*
X118110000Y-67310000D01*
X130810000Y-54610000D02*
X130810000Y-67310000D01*
X118110000Y-54610000D02*
X130810000Y-54610000D01*
%TO.C,SW7*%
X99060000Y-67310000D02*
X99060000Y-54610000D01*
X111760000Y-67310000D02*
X99060000Y-67310000D01*
X111760000Y-54610000D02*
X111760000Y-67310000D01*
X99060000Y-54610000D02*
X111760000Y-54610000D01*
%TO.C,SW6*%
X194310000Y-48260000D02*
X194310000Y-35560000D01*
X207010000Y-48260000D02*
X194310000Y-48260000D01*
X207010000Y-35560000D02*
X207010000Y-48260000D01*
X194310000Y-35560000D02*
X207010000Y-35560000D01*
%TO.C,SW5*%
X175260000Y-48260000D02*
X175260000Y-35560000D01*
X187960000Y-48260000D02*
X175260000Y-48260000D01*
X187960000Y-35560000D02*
X187960000Y-48260000D01*
X175260000Y-35560000D02*
X187960000Y-35560000D01*
%TO.C,SW4*%
X156210000Y-48260000D02*
X156210000Y-35560000D01*
X168910000Y-48260000D02*
X156210000Y-48260000D01*
X168910000Y-35560000D02*
X168910000Y-48260000D01*
X156210000Y-35560000D02*
X168910000Y-35560000D01*
%TO.C,SW3*%
X137160000Y-48260000D02*
X137160000Y-35560000D01*
X149860000Y-48260000D02*
X137160000Y-48260000D01*
X149860000Y-35560000D02*
X149860000Y-48260000D01*
X137160000Y-35560000D02*
X149860000Y-35560000D01*
%TO.C,SW2*%
X118110000Y-48260000D02*
X118110000Y-35560000D01*
X130810000Y-48260000D02*
X118110000Y-48260000D01*
X130810000Y-35560000D02*
X130810000Y-48260000D01*
X118110000Y-35560000D02*
X130810000Y-35560000D01*
%TO.C,SW1*%
X99060000Y-48260000D02*
X99060000Y-35560000D01*
X111760000Y-48260000D02*
X99060000Y-48260000D01*
X111760000Y-35560000D02*
X111760000Y-48260000D01*
X99060000Y-35560000D02*
X111760000Y-35560000D01*
D11*
%TO.C,SW14*%
X224500000Y-40520000D02*
G75*
G03*
X224500000Y-40520000I-3000000J0D01*
G01*
X227700000Y-34920000D02*
X227700000Y-47120000D01*
X227700000Y-47120000D02*
X215300000Y-47120000D01*
X215300000Y-47120000D02*
X215300000Y-33920000D01*
X215300000Y-33920000D02*
X226600000Y-33920000D01*
X226600000Y-33920000D02*
X227700000Y-34920000D01*
X224500000Y-40520000D02*
X218500000Y-40520000D01*
X221500000Y-37520000D02*
X221500000Y-43520000D01*
%TD*%
%TO.C,H2*%
D12*
X197779285Y-32592380D02*
X197779285Y-31592380D01*
X198112619Y-32306666D01*
X198445952Y-31592380D01*
X198445952Y-32592380D01*
X199065000Y-32592380D02*
X198969761Y-32544761D01*
X198922142Y-32497142D01*
X198874523Y-32401904D01*
X198874523Y-32116190D01*
X198922142Y-32020952D01*
X198969761Y-31973333D01*
X199065000Y-31925714D01*
X199207857Y-31925714D01*
X199303095Y-31973333D01*
X199350714Y-32020952D01*
X199398333Y-32116190D01*
X199398333Y-32401904D01*
X199350714Y-32497142D01*
X199303095Y-32544761D01*
X199207857Y-32592380D01*
X199065000Y-32592380D01*
X200255476Y-31925714D02*
X200255476Y-32592380D01*
X199826904Y-31925714D02*
X199826904Y-32449523D01*
X199874523Y-32544761D01*
X199969761Y-32592380D01*
X200112619Y-32592380D01*
X200207857Y-32544761D01*
X200255476Y-32497142D01*
X200731666Y-31925714D02*
X200731666Y-32592380D01*
X200731666Y-32020952D02*
X200779285Y-31973333D01*
X200874523Y-31925714D01*
X201017380Y-31925714D01*
X201112619Y-31973333D01*
X201160238Y-32068571D01*
X201160238Y-32592380D01*
X201493571Y-31925714D02*
X201874523Y-31925714D01*
X201636428Y-31592380D02*
X201636428Y-32449523D01*
X201684047Y-32544761D01*
X201779285Y-32592380D01*
X201874523Y-32592380D01*
X202207857Y-32592380D02*
X202207857Y-31925714D01*
X202207857Y-31592380D02*
X202160238Y-31640000D01*
X202207857Y-31687619D01*
X202255476Y-31640000D01*
X202207857Y-31592380D01*
X202207857Y-31687619D01*
X202684047Y-31925714D02*
X202684047Y-32592380D01*
X202684047Y-32020952D02*
X202731666Y-31973333D01*
X202826904Y-31925714D01*
X202969761Y-31925714D01*
X203065000Y-31973333D01*
X203112619Y-32068571D01*
X203112619Y-32592380D01*
X204017380Y-31925714D02*
X204017380Y-32735238D01*
X203969761Y-32830476D01*
X203922142Y-32878095D01*
X203826904Y-32925714D01*
X203684047Y-32925714D01*
X203588809Y-32878095D01*
X204017380Y-32544761D02*
X203922142Y-32592380D01*
X203731666Y-32592380D01*
X203636428Y-32544761D01*
X203588809Y-32497142D01*
X203541190Y-32401904D01*
X203541190Y-32116190D01*
X203588809Y-32020952D01*
X203636428Y-31973333D01*
X203731666Y-31925714D01*
X203922142Y-31925714D01*
X204017380Y-31973333D01*
X204493571Y-32592380D02*
X204493571Y-31592380D01*
X204493571Y-32068571D02*
X205065000Y-32068571D01*
X205065000Y-32592380D02*
X205065000Y-31592380D01*
X205684047Y-32592380D02*
X205588809Y-32544761D01*
X205541190Y-32497142D01*
X205493571Y-32401904D01*
X205493571Y-32116190D01*
X205541190Y-32020952D01*
X205588809Y-31973333D01*
X205684047Y-31925714D01*
X205826904Y-31925714D01*
X205922142Y-31973333D01*
X205969761Y-32020952D01*
X206017380Y-32116190D01*
X206017380Y-32401904D01*
X205969761Y-32497142D01*
X205922142Y-32544761D01*
X205826904Y-32592380D01*
X205684047Y-32592380D01*
X206588809Y-32592380D02*
X206493571Y-32544761D01*
X206445952Y-32449523D01*
X206445952Y-31592380D01*
X207350714Y-32544761D02*
X207255476Y-32592380D01*
X207065000Y-32592380D01*
X206969761Y-32544761D01*
X206922142Y-32449523D01*
X206922142Y-32068571D01*
X206969761Y-31973333D01*
X207065000Y-31925714D01*
X207255476Y-31925714D01*
X207350714Y-31973333D01*
X207398333Y-32068571D01*
X207398333Y-32163809D01*
X206922142Y-32259047D01*
X202103095Y-28392380D02*
X202103095Y-27392380D01*
X202103095Y-27868571D02*
X202674523Y-27868571D01*
X202674523Y-28392380D02*
X202674523Y-27392380D01*
X203103095Y-27487619D02*
X203150714Y-27440000D01*
X203245952Y-27392380D01*
X203484047Y-27392380D01*
X203579285Y-27440000D01*
X203626904Y-27487619D01*
X203674523Y-27582857D01*
X203674523Y-27678095D01*
X203626904Y-27820952D01*
X203055476Y-28392380D01*
X203674523Y-28392380D01*
%TO.C,H1*%
X100624285Y-32592380D02*
X100624285Y-31592380D01*
X100957619Y-32306666D01*
X101290952Y-31592380D01*
X101290952Y-32592380D01*
X101910000Y-32592380D02*
X101814761Y-32544761D01*
X101767142Y-32497142D01*
X101719523Y-32401904D01*
X101719523Y-32116190D01*
X101767142Y-32020952D01*
X101814761Y-31973333D01*
X101910000Y-31925714D01*
X102052857Y-31925714D01*
X102148095Y-31973333D01*
X102195714Y-32020952D01*
X102243333Y-32116190D01*
X102243333Y-32401904D01*
X102195714Y-32497142D01*
X102148095Y-32544761D01*
X102052857Y-32592380D01*
X101910000Y-32592380D01*
X103100476Y-31925714D02*
X103100476Y-32592380D01*
X102671904Y-31925714D02*
X102671904Y-32449523D01*
X102719523Y-32544761D01*
X102814761Y-32592380D01*
X102957619Y-32592380D01*
X103052857Y-32544761D01*
X103100476Y-32497142D01*
X103576666Y-31925714D02*
X103576666Y-32592380D01*
X103576666Y-32020952D02*
X103624285Y-31973333D01*
X103719523Y-31925714D01*
X103862380Y-31925714D01*
X103957619Y-31973333D01*
X104005238Y-32068571D01*
X104005238Y-32592380D01*
X104338571Y-31925714D02*
X104719523Y-31925714D01*
X104481428Y-31592380D02*
X104481428Y-32449523D01*
X104529047Y-32544761D01*
X104624285Y-32592380D01*
X104719523Y-32592380D01*
X105052857Y-32592380D02*
X105052857Y-31925714D01*
X105052857Y-31592380D02*
X105005238Y-31640000D01*
X105052857Y-31687619D01*
X105100476Y-31640000D01*
X105052857Y-31592380D01*
X105052857Y-31687619D01*
X105529047Y-31925714D02*
X105529047Y-32592380D01*
X105529047Y-32020952D02*
X105576666Y-31973333D01*
X105671904Y-31925714D01*
X105814761Y-31925714D01*
X105910000Y-31973333D01*
X105957619Y-32068571D01*
X105957619Y-32592380D01*
X106862380Y-31925714D02*
X106862380Y-32735238D01*
X106814761Y-32830476D01*
X106767142Y-32878095D01*
X106671904Y-32925714D01*
X106529047Y-32925714D01*
X106433809Y-32878095D01*
X106862380Y-32544761D02*
X106767142Y-32592380D01*
X106576666Y-32592380D01*
X106481428Y-32544761D01*
X106433809Y-32497142D01*
X106386190Y-32401904D01*
X106386190Y-32116190D01*
X106433809Y-32020952D01*
X106481428Y-31973333D01*
X106576666Y-31925714D01*
X106767142Y-31925714D01*
X106862380Y-31973333D01*
X107338571Y-32592380D02*
X107338571Y-31592380D01*
X107338571Y-32068571D02*
X107910000Y-32068571D01*
X107910000Y-32592380D02*
X107910000Y-31592380D01*
X108529047Y-32592380D02*
X108433809Y-32544761D01*
X108386190Y-32497142D01*
X108338571Y-32401904D01*
X108338571Y-32116190D01*
X108386190Y-32020952D01*
X108433809Y-31973333D01*
X108529047Y-31925714D01*
X108671904Y-31925714D01*
X108767142Y-31973333D01*
X108814761Y-32020952D01*
X108862380Y-32116190D01*
X108862380Y-32401904D01*
X108814761Y-32497142D01*
X108767142Y-32544761D01*
X108671904Y-32592380D01*
X108529047Y-32592380D01*
X109433809Y-32592380D02*
X109338571Y-32544761D01*
X109290952Y-32449523D01*
X109290952Y-31592380D01*
X110195714Y-32544761D02*
X110100476Y-32592380D01*
X109910000Y-32592380D01*
X109814761Y-32544761D01*
X109767142Y-32449523D01*
X109767142Y-32068571D01*
X109814761Y-31973333D01*
X109910000Y-31925714D01*
X110100476Y-31925714D01*
X110195714Y-31973333D01*
X110243333Y-32068571D01*
X110243333Y-32163809D01*
X109767142Y-32259047D01*
X104948095Y-28392380D02*
X104948095Y-27392380D01*
X104948095Y-27868571D02*
X105519523Y-27868571D01*
X105519523Y-28392380D02*
X105519523Y-27392380D01*
X106519523Y-28392380D02*
X105948095Y-28392380D01*
X106233809Y-28392380D02*
X106233809Y-27392380D01*
X106138571Y-27535238D01*
X106043333Y-27630476D01*
X105948095Y-27678095D01*
%TO.C,D14*%
X213122142Y-52737380D02*
X212550714Y-52737380D01*
X212836428Y-52737380D02*
X212836428Y-51737380D01*
X212741190Y-51880238D01*
X212645952Y-51975476D01*
X212550714Y-52023095D01*
X213550714Y-52737380D02*
X213550714Y-51737380D01*
X214122142Y-52737380D01*
X214122142Y-51737380D01*
X215026904Y-52070714D02*
X215026904Y-52737380D01*
X214788809Y-51689761D02*
X214550714Y-52404047D01*
X215169761Y-52404047D01*
X216074523Y-52737380D02*
X215503095Y-52737380D01*
X215788809Y-52737380D02*
X215788809Y-51737380D01*
X215693571Y-51880238D01*
X215598333Y-51975476D01*
X215503095Y-52023095D01*
X216931666Y-52070714D02*
X216931666Y-52737380D01*
X216693571Y-51689761D02*
X216455476Y-52404047D01*
X217074523Y-52404047D01*
X217598333Y-52165952D02*
X217503095Y-52118333D01*
X217455476Y-52070714D01*
X217407857Y-51975476D01*
X217407857Y-51927857D01*
X217455476Y-51832619D01*
X217503095Y-51785000D01*
X217598333Y-51737380D01*
X217788809Y-51737380D01*
X217884047Y-51785000D01*
X217931666Y-51832619D01*
X217979285Y-51927857D01*
X217979285Y-51975476D01*
X217931666Y-52070714D01*
X217884047Y-52118333D01*
X217788809Y-52165952D01*
X217598333Y-52165952D01*
X217503095Y-52213571D01*
X217455476Y-52261190D01*
X217407857Y-52356428D01*
X217407857Y-52546904D01*
X217455476Y-52642142D01*
X217503095Y-52689761D01*
X217598333Y-52737380D01*
X217788809Y-52737380D01*
X217884047Y-52689761D01*
X217931666Y-52642142D01*
X217979285Y-52546904D01*
X217979285Y-52356428D01*
X217931666Y-52261190D01*
X217884047Y-52213571D01*
X217788809Y-52165952D01*
X211193095Y-48817380D02*
X211193095Y-47817380D01*
X211764523Y-48817380D02*
X211335952Y-48245952D01*
X211764523Y-47817380D02*
X211193095Y-48388809D01*
D11*
X214593571Y-50526904D02*
X214593571Y-49726904D01*
X214784047Y-49726904D01*
X214898333Y-49765000D01*
X214974523Y-49841190D01*
X215012619Y-49917380D01*
X215050714Y-50069761D01*
X215050714Y-50184047D01*
X215012619Y-50336428D01*
X214974523Y-50412619D01*
X214898333Y-50488809D01*
X214784047Y-50526904D01*
X214593571Y-50526904D01*
X215812619Y-50526904D02*
X215355476Y-50526904D01*
X215584047Y-50526904D02*
X215584047Y-49726904D01*
X215507857Y-49841190D01*
X215431666Y-49917380D01*
X215355476Y-49955476D01*
X216498333Y-49993571D02*
X216498333Y-50526904D01*
X216307857Y-49688809D02*
X216117380Y-50260238D01*
X216612619Y-50260238D01*
%TO.C,D13*%
D12*
X217567142Y-71787380D02*
X216995714Y-71787380D01*
X217281428Y-71787380D02*
X217281428Y-70787380D01*
X217186190Y-70930238D01*
X217090952Y-71025476D01*
X216995714Y-71073095D01*
X217995714Y-71787380D02*
X217995714Y-70787380D01*
X218567142Y-71787380D01*
X218567142Y-70787380D01*
X219471904Y-71120714D02*
X219471904Y-71787380D01*
X219233809Y-70739761D02*
X218995714Y-71454047D01*
X219614761Y-71454047D01*
X220519523Y-71787380D02*
X219948095Y-71787380D01*
X220233809Y-71787380D02*
X220233809Y-70787380D01*
X220138571Y-70930238D01*
X220043333Y-71025476D01*
X219948095Y-71073095D01*
X221376666Y-71120714D02*
X221376666Y-71787380D01*
X221138571Y-70739761D02*
X220900476Y-71454047D01*
X221519523Y-71454047D01*
X222043333Y-71215952D02*
X221948095Y-71168333D01*
X221900476Y-71120714D01*
X221852857Y-71025476D01*
X221852857Y-70977857D01*
X221900476Y-70882619D01*
X221948095Y-70835000D01*
X222043333Y-70787380D01*
X222233809Y-70787380D01*
X222329047Y-70835000D01*
X222376666Y-70882619D01*
X222424285Y-70977857D01*
X222424285Y-71025476D01*
X222376666Y-71120714D01*
X222329047Y-71168333D01*
X222233809Y-71215952D01*
X222043333Y-71215952D01*
X221948095Y-71263571D01*
X221900476Y-71311190D01*
X221852857Y-71406428D01*
X221852857Y-71596904D01*
X221900476Y-71692142D01*
X221948095Y-71739761D01*
X222043333Y-71787380D01*
X222233809Y-71787380D01*
X222329047Y-71739761D01*
X222376666Y-71692142D01*
X222424285Y-71596904D01*
X222424285Y-71406428D01*
X222376666Y-71311190D01*
X222329047Y-71263571D01*
X222233809Y-71215952D01*
X215638095Y-67867380D02*
X215638095Y-66867380D01*
X216209523Y-67867380D02*
X215780952Y-67295952D01*
X216209523Y-66867380D02*
X215638095Y-67438809D01*
D11*
X219038571Y-69576904D02*
X219038571Y-68776904D01*
X219229047Y-68776904D01*
X219343333Y-68815000D01*
X219419523Y-68891190D01*
X219457619Y-68967380D01*
X219495714Y-69119761D01*
X219495714Y-69234047D01*
X219457619Y-69386428D01*
X219419523Y-69462619D01*
X219343333Y-69538809D01*
X219229047Y-69576904D01*
X219038571Y-69576904D01*
X220257619Y-69576904D02*
X219800476Y-69576904D01*
X220029047Y-69576904D02*
X220029047Y-68776904D01*
X219952857Y-68891190D01*
X219876666Y-68967380D01*
X219800476Y-69005476D01*
X220524285Y-68776904D02*
X221019523Y-68776904D01*
X220752857Y-69081666D01*
X220867142Y-69081666D01*
X220943333Y-69119761D01*
X220981428Y-69157857D01*
X221019523Y-69234047D01*
X221019523Y-69424523D01*
X220981428Y-69500714D01*
X220943333Y-69538809D01*
X220867142Y-69576904D01*
X220638571Y-69576904D01*
X220562380Y-69538809D01*
X220524285Y-69500714D01*
%TO.C,D12*%
D12*
X198517142Y-71787380D02*
X197945714Y-71787380D01*
X198231428Y-71787380D02*
X198231428Y-70787380D01*
X198136190Y-70930238D01*
X198040952Y-71025476D01*
X197945714Y-71073095D01*
X198945714Y-71787380D02*
X198945714Y-70787380D01*
X199517142Y-71787380D01*
X199517142Y-70787380D01*
X200421904Y-71120714D02*
X200421904Y-71787380D01*
X200183809Y-70739761D02*
X199945714Y-71454047D01*
X200564761Y-71454047D01*
X201469523Y-71787380D02*
X200898095Y-71787380D01*
X201183809Y-71787380D02*
X201183809Y-70787380D01*
X201088571Y-70930238D01*
X200993333Y-71025476D01*
X200898095Y-71073095D01*
X202326666Y-71120714D02*
X202326666Y-71787380D01*
X202088571Y-70739761D02*
X201850476Y-71454047D01*
X202469523Y-71454047D01*
X202993333Y-71215952D02*
X202898095Y-71168333D01*
X202850476Y-71120714D01*
X202802857Y-71025476D01*
X202802857Y-70977857D01*
X202850476Y-70882619D01*
X202898095Y-70835000D01*
X202993333Y-70787380D01*
X203183809Y-70787380D01*
X203279047Y-70835000D01*
X203326666Y-70882619D01*
X203374285Y-70977857D01*
X203374285Y-71025476D01*
X203326666Y-71120714D01*
X203279047Y-71168333D01*
X203183809Y-71215952D01*
X202993333Y-71215952D01*
X202898095Y-71263571D01*
X202850476Y-71311190D01*
X202802857Y-71406428D01*
X202802857Y-71596904D01*
X202850476Y-71692142D01*
X202898095Y-71739761D01*
X202993333Y-71787380D01*
X203183809Y-71787380D01*
X203279047Y-71739761D01*
X203326666Y-71692142D01*
X203374285Y-71596904D01*
X203374285Y-71406428D01*
X203326666Y-71311190D01*
X203279047Y-71263571D01*
X203183809Y-71215952D01*
X196588095Y-67867380D02*
X196588095Y-66867380D01*
X197159523Y-67867380D02*
X196730952Y-67295952D01*
X197159523Y-66867380D02*
X196588095Y-67438809D01*
D11*
X199988571Y-69576904D02*
X199988571Y-68776904D01*
X200179047Y-68776904D01*
X200293333Y-68815000D01*
X200369523Y-68891190D01*
X200407619Y-68967380D01*
X200445714Y-69119761D01*
X200445714Y-69234047D01*
X200407619Y-69386428D01*
X200369523Y-69462619D01*
X200293333Y-69538809D01*
X200179047Y-69576904D01*
X199988571Y-69576904D01*
X201207619Y-69576904D02*
X200750476Y-69576904D01*
X200979047Y-69576904D02*
X200979047Y-68776904D01*
X200902857Y-68891190D01*
X200826666Y-68967380D01*
X200750476Y-69005476D01*
X201512380Y-68853095D02*
X201550476Y-68815000D01*
X201626666Y-68776904D01*
X201817142Y-68776904D01*
X201893333Y-68815000D01*
X201931428Y-68853095D01*
X201969523Y-68929285D01*
X201969523Y-69005476D01*
X201931428Y-69119761D01*
X201474285Y-69576904D01*
X201969523Y-69576904D01*
%TO.C,D11*%
D12*
X179467142Y-71787380D02*
X178895714Y-71787380D01*
X179181428Y-71787380D02*
X179181428Y-70787380D01*
X179086190Y-70930238D01*
X178990952Y-71025476D01*
X178895714Y-71073095D01*
X179895714Y-71787380D02*
X179895714Y-70787380D01*
X180467142Y-71787380D01*
X180467142Y-70787380D01*
X181371904Y-71120714D02*
X181371904Y-71787380D01*
X181133809Y-70739761D02*
X180895714Y-71454047D01*
X181514761Y-71454047D01*
X182419523Y-71787380D02*
X181848095Y-71787380D01*
X182133809Y-71787380D02*
X182133809Y-70787380D01*
X182038571Y-70930238D01*
X181943333Y-71025476D01*
X181848095Y-71073095D01*
X183276666Y-71120714D02*
X183276666Y-71787380D01*
X183038571Y-70739761D02*
X182800476Y-71454047D01*
X183419523Y-71454047D01*
X183943333Y-71215952D02*
X183848095Y-71168333D01*
X183800476Y-71120714D01*
X183752857Y-71025476D01*
X183752857Y-70977857D01*
X183800476Y-70882619D01*
X183848095Y-70835000D01*
X183943333Y-70787380D01*
X184133809Y-70787380D01*
X184229047Y-70835000D01*
X184276666Y-70882619D01*
X184324285Y-70977857D01*
X184324285Y-71025476D01*
X184276666Y-71120714D01*
X184229047Y-71168333D01*
X184133809Y-71215952D01*
X183943333Y-71215952D01*
X183848095Y-71263571D01*
X183800476Y-71311190D01*
X183752857Y-71406428D01*
X183752857Y-71596904D01*
X183800476Y-71692142D01*
X183848095Y-71739761D01*
X183943333Y-71787380D01*
X184133809Y-71787380D01*
X184229047Y-71739761D01*
X184276666Y-71692142D01*
X184324285Y-71596904D01*
X184324285Y-71406428D01*
X184276666Y-71311190D01*
X184229047Y-71263571D01*
X184133809Y-71215952D01*
X177538095Y-67867380D02*
X177538095Y-66867380D01*
X178109523Y-67867380D02*
X177680952Y-67295952D01*
X178109523Y-66867380D02*
X177538095Y-67438809D01*
D11*
X180938571Y-69576904D02*
X180938571Y-68776904D01*
X181129047Y-68776904D01*
X181243333Y-68815000D01*
X181319523Y-68891190D01*
X181357619Y-68967380D01*
X181395714Y-69119761D01*
X181395714Y-69234047D01*
X181357619Y-69386428D01*
X181319523Y-69462619D01*
X181243333Y-69538809D01*
X181129047Y-69576904D01*
X180938571Y-69576904D01*
X182157619Y-69576904D02*
X181700476Y-69576904D01*
X181929047Y-69576904D02*
X181929047Y-68776904D01*
X181852857Y-68891190D01*
X181776666Y-68967380D01*
X181700476Y-69005476D01*
X182919523Y-69576904D02*
X182462380Y-69576904D01*
X182690952Y-69576904D02*
X182690952Y-68776904D01*
X182614761Y-68891190D01*
X182538571Y-68967380D01*
X182462380Y-69005476D01*
%TO.C,D10*%
D12*
X160417142Y-71787380D02*
X159845714Y-71787380D01*
X160131428Y-71787380D02*
X160131428Y-70787380D01*
X160036190Y-70930238D01*
X159940952Y-71025476D01*
X159845714Y-71073095D01*
X160845714Y-71787380D02*
X160845714Y-70787380D01*
X161417142Y-71787380D01*
X161417142Y-70787380D01*
X162321904Y-71120714D02*
X162321904Y-71787380D01*
X162083809Y-70739761D02*
X161845714Y-71454047D01*
X162464761Y-71454047D01*
X163369523Y-71787380D02*
X162798095Y-71787380D01*
X163083809Y-71787380D02*
X163083809Y-70787380D01*
X162988571Y-70930238D01*
X162893333Y-71025476D01*
X162798095Y-71073095D01*
X164226666Y-71120714D02*
X164226666Y-71787380D01*
X163988571Y-70739761D02*
X163750476Y-71454047D01*
X164369523Y-71454047D01*
X164893333Y-71215952D02*
X164798095Y-71168333D01*
X164750476Y-71120714D01*
X164702857Y-71025476D01*
X164702857Y-70977857D01*
X164750476Y-70882619D01*
X164798095Y-70835000D01*
X164893333Y-70787380D01*
X165083809Y-70787380D01*
X165179047Y-70835000D01*
X165226666Y-70882619D01*
X165274285Y-70977857D01*
X165274285Y-71025476D01*
X165226666Y-71120714D01*
X165179047Y-71168333D01*
X165083809Y-71215952D01*
X164893333Y-71215952D01*
X164798095Y-71263571D01*
X164750476Y-71311190D01*
X164702857Y-71406428D01*
X164702857Y-71596904D01*
X164750476Y-71692142D01*
X164798095Y-71739761D01*
X164893333Y-71787380D01*
X165083809Y-71787380D01*
X165179047Y-71739761D01*
X165226666Y-71692142D01*
X165274285Y-71596904D01*
X165274285Y-71406428D01*
X165226666Y-71311190D01*
X165179047Y-71263571D01*
X165083809Y-71215952D01*
X158488095Y-67867380D02*
X158488095Y-66867380D01*
X159059523Y-67867380D02*
X158630952Y-67295952D01*
X159059523Y-66867380D02*
X158488095Y-67438809D01*
D11*
X161888571Y-69576904D02*
X161888571Y-68776904D01*
X162079047Y-68776904D01*
X162193333Y-68815000D01*
X162269523Y-68891190D01*
X162307619Y-68967380D01*
X162345714Y-69119761D01*
X162345714Y-69234047D01*
X162307619Y-69386428D01*
X162269523Y-69462619D01*
X162193333Y-69538809D01*
X162079047Y-69576904D01*
X161888571Y-69576904D01*
X163107619Y-69576904D02*
X162650476Y-69576904D01*
X162879047Y-69576904D02*
X162879047Y-68776904D01*
X162802857Y-68891190D01*
X162726666Y-68967380D01*
X162650476Y-69005476D01*
X163602857Y-68776904D02*
X163679047Y-68776904D01*
X163755238Y-68815000D01*
X163793333Y-68853095D01*
X163831428Y-68929285D01*
X163869523Y-69081666D01*
X163869523Y-69272142D01*
X163831428Y-69424523D01*
X163793333Y-69500714D01*
X163755238Y-69538809D01*
X163679047Y-69576904D01*
X163602857Y-69576904D01*
X163526666Y-69538809D01*
X163488571Y-69500714D01*
X163450476Y-69424523D01*
X163412380Y-69272142D01*
X163412380Y-69081666D01*
X163450476Y-68929285D01*
X163488571Y-68853095D01*
X163526666Y-68815000D01*
X163602857Y-68776904D01*
%TO.C,D9*%
D12*
X141367142Y-71787380D02*
X140795714Y-71787380D01*
X141081428Y-71787380D02*
X141081428Y-70787380D01*
X140986190Y-70930238D01*
X140890952Y-71025476D01*
X140795714Y-71073095D01*
X141795714Y-71787380D02*
X141795714Y-70787380D01*
X142367142Y-71787380D01*
X142367142Y-70787380D01*
X143271904Y-71120714D02*
X143271904Y-71787380D01*
X143033809Y-70739761D02*
X142795714Y-71454047D01*
X143414761Y-71454047D01*
X144319523Y-71787380D02*
X143748095Y-71787380D01*
X144033809Y-71787380D02*
X144033809Y-70787380D01*
X143938571Y-70930238D01*
X143843333Y-71025476D01*
X143748095Y-71073095D01*
X145176666Y-71120714D02*
X145176666Y-71787380D01*
X144938571Y-70739761D02*
X144700476Y-71454047D01*
X145319523Y-71454047D01*
X145843333Y-71215952D02*
X145748095Y-71168333D01*
X145700476Y-71120714D01*
X145652857Y-71025476D01*
X145652857Y-70977857D01*
X145700476Y-70882619D01*
X145748095Y-70835000D01*
X145843333Y-70787380D01*
X146033809Y-70787380D01*
X146129047Y-70835000D01*
X146176666Y-70882619D01*
X146224285Y-70977857D01*
X146224285Y-71025476D01*
X146176666Y-71120714D01*
X146129047Y-71168333D01*
X146033809Y-71215952D01*
X145843333Y-71215952D01*
X145748095Y-71263571D01*
X145700476Y-71311190D01*
X145652857Y-71406428D01*
X145652857Y-71596904D01*
X145700476Y-71692142D01*
X145748095Y-71739761D01*
X145843333Y-71787380D01*
X146033809Y-71787380D01*
X146129047Y-71739761D01*
X146176666Y-71692142D01*
X146224285Y-71596904D01*
X146224285Y-71406428D01*
X146176666Y-71311190D01*
X146129047Y-71263571D01*
X146033809Y-71215952D01*
X139438095Y-67867380D02*
X139438095Y-66867380D01*
X140009523Y-67867380D02*
X139580952Y-67295952D01*
X140009523Y-66867380D02*
X139438095Y-67438809D01*
D11*
X143219523Y-69576904D02*
X143219523Y-68776904D01*
X143410000Y-68776904D01*
X143524285Y-68815000D01*
X143600476Y-68891190D01*
X143638571Y-68967380D01*
X143676666Y-69119761D01*
X143676666Y-69234047D01*
X143638571Y-69386428D01*
X143600476Y-69462619D01*
X143524285Y-69538809D01*
X143410000Y-69576904D01*
X143219523Y-69576904D01*
X144057619Y-69576904D02*
X144210000Y-69576904D01*
X144286190Y-69538809D01*
X144324285Y-69500714D01*
X144400476Y-69386428D01*
X144438571Y-69234047D01*
X144438571Y-68929285D01*
X144400476Y-68853095D01*
X144362380Y-68815000D01*
X144286190Y-68776904D01*
X144133809Y-68776904D01*
X144057619Y-68815000D01*
X144019523Y-68853095D01*
X143981428Y-68929285D01*
X143981428Y-69119761D01*
X144019523Y-69195952D01*
X144057619Y-69234047D01*
X144133809Y-69272142D01*
X144286190Y-69272142D01*
X144362380Y-69234047D01*
X144400476Y-69195952D01*
X144438571Y-69119761D01*
%TO.C,D8*%
D12*
X122317142Y-71787380D02*
X121745714Y-71787380D01*
X122031428Y-71787380D02*
X122031428Y-70787380D01*
X121936190Y-70930238D01*
X121840952Y-71025476D01*
X121745714Y-71073095D01*
X122745714Y-71787380D02*
X122745714Y-70787380D01*
X123317142Y-71787380D01*
X123317142Y-70787380D01*
X124221904Y-71120714D02*
X124221904Y-71787380D01*
X123983809Y-70739761D02*
X123745714Y-71454047D01*
X124364761Y-71454047D01*
X125269523Y-71787380D02*
X124698095Y-71787380D01*
X124983809Y-71787380D02*
X124983809Y-70787380D01*
X124888571Y-70930238D01*
X124793333Y-71025476D01*
X124698095Y-71073095D01*
X126126666Y-71120714D02*
X126126666Y-71787380D01*
X125888571Y-70739761D02*
X125650476Y-71454047D01*
X126269523Y-71454047D01*
X126793333Y-71215952D02*
X126698095Y-71168333D01*
X126650476Y-71120714D01*
X126602857Y-71025476D01*
X126602857Y-70977857D01*
X126650476Y-70882619D01*
X126698095Y-70835000D01*
X126793333Y-70787380D01*
X126983809Y-70787380D01*
X127079047Y-70835000D01*
X127126666Y-70882619D01*
X127174285Y-70977857D01*
X127174285Y-71025476D01*
X127126666Y-71120714D01*
X127079047Y-71168333D01*
X126983809Y-71215952D01*
X126793333Y-71215952D01*
X126698095Y-71263571D01*
X126650476Y-71311190D01*
X126602857Y-71406428D01*
X126602857Y-71596904D01*
X126650476Y-71692142D01*
X126698095Y-71739761D01*
X126793333Y-71787380D01*
X126983809Y-71787380D01*
X127079047Y-71739761D01*
X127126666Y-71692142D01*
X127174285Y-71596904D01*
X127174285Y-71406428D01*
X127126666Y-71311190D01*
X127079047Y-71263571D01*
X126983809Y-71215952D01*
X120388095Y-67867380D02*
X120388095Y-66867380D01*
X120959523Y-67867380D02*
X120530952Y-67295952D01*
X120959523Y-66867380D02*
X120388095Y-67438809D01*
D11*
X124169523Y-69576904D02*
X124169523Y-68776904D01*
X124360000Y-68776904D01*
X124474285Y-68815000D01*
X124550476Y-68891190D01*
X124588571Y-68967380D01*
X124626666Y-69119761D01*
X124626666Y-69234047D01*
X124588571Y-69386428D01*
X124550476Y-69462619D01*
X124474285Y-69538809D01*
X124360000Y-69576904D01*
X124169523Y-69576904D01*
X125083809Y-69119761D02*
X125007619Y-69081666D01*
X124969523Y-69043571D01*
X124931428Y-68967380D01*
X124931428Y-68929285D01*
X124969523Y-68853095D01*
X125007619Y-68815000D01*
X125083809Y-68776904D01*
X125236190Y-68776904D01*
X125312380Y-68815000D01*
X125350476Y-68853095D01*
X125388571Y-68929285D01*
X125388571Y-68967380D01*
X125350476Y-69043571D01*
X125312380Y-69081666D01*
X125236190Y-69119761D01*
X125083809Y-69119761D01*
X125007619Y-69157857D01*
X124969523Y-69195952D01*
X124931428Y-69272142D01*
X124931428Y-69424523D01*
X124969523Y-69500714D01*
X125007619Y-69538809D01*
X125083809Y-69576904D01*
X125236190Y-69576904D01*
X125312380Y-69538809D01*
X125350476Y-69500714D01*
X125388571Y-69424523D01*
X125388571Y-69272142D01*
X125350476Y-69195952D01*
X125312380Y-69157857D01*
X125236190Y-69119761D01*
%TO.C,D7*%
D12*
X103267142Y-71787380D02*
X102695714Y-71787380D01*
X102981428Y-71787380D02*
X102981428Y-70787380D01*
X102886190Y-70930238D01*
X102790952Y-71025476D01*
X102695714Y-71073095D01*
X103695714Y-71787380D02*
X103695714Y-70787380D01*
X104267142Y-71787380D01*
X104267142Y-70787380D01*
X105171904Y-71120714D02*
X105171904Y-71787380D01*
X104933809Y-70739761D02*
X104695714Y-71454047D01*
X105314761Y-71454047D01*
X106219523Y-71787380D02*
X105648095Y-71787380D01*
X105933809Y-71787380D02*
X105933809Y-70787380D01*
X105838571Y-70930238D01*
X105743333Y-71025476D01*
X105648095Y-71073095D01*
X107076666Y-71120714D02*
X107076666Y-71787380D01*
X106838571Y-70739761D02*
X106600476Y-71454047D01*
X107219523Y-71454047D01*
X107743333Y-71215952D02*
X107648095Y-71168333D01*
X107600476Y-71120714D01*
X107552857Y-71025476D01*
X107552857Y-70977857D01*
X107600476Y-70882619D01*
X107648095Y-70835000D01*
X107743333Y-70787380D01*
X107933809Y-70787380D01*
X108029047Y-70835000D01*
X108076666Y-70882619D01*
X108124285Y-70977857D01*
X108124285Y-71025476D01*
X108076666Y-71120714D01*
X108029047Y-71168333D01*
X107933809Y-71215952D01*
X107743333Y-71215952D01*
X107648095Y-71263571D01*
X107600476Y-71311190D01*
X107552857Y-71406428D01*
X107552857Y-71596904D01*
X107600476Y-71692142D01*
X107648095Y-71739761D01*
X107743333Y-71787380D01*
X107933809Y-71787380D01*
X108029047Y-71739761D01*
X108076666Y-71692142D01*
X108124285Y-71596904D01*
X108124285Y-71406428D01*
X108076666Y-71311190D01*
X108029047Y-71263571D01*
X107933809Y-71215952D01*
X101338095Y-67867380D02*
X101338095Y-66867380D01*
X101909523Y-67867380D02*
X101480952Y-67295952D01*
X101909523Y-66867380D02*
X101338095Y-67438809D01*
D11*
X105119523Y-69576904D02*
X105119523Y-68776904D01*
X105310000Y-68776904D01*
X105424285Y-68815000D01*
X105500476Y-68891190D01*
X105538571Y-68967380D01*
X105576666Y-69119761D01*
X105576666Y-69234047D01*
X105538571Y-69386428D01*
X105500476Y-69462619D01*
X105424285Y-69538809D01*
X105310000Y-69576904D01*
X105119523Y-69576904D01*
X105843333Y-68776904D02*
X106376666Y-68776904D01*
X106033809Y-69576904D01*
%TO.C,D6*%
D12*
X198517142Y-52737380D02*
X197945714Y-52737380D01*
X198231428Y-52737380D02*
X198231428Y-51737380D01*
X198136190Y-51880238D01*
X198040952Y-51975476D01*
X197945714Y-52023095D01*
X198945714Y-52737380D02*
X198945714Y-51737380D01*
X199517142Y-52737380D01*
X199517142Y-51737380D01*
X200421904Y-52070714D02*
X200421904Y-52737380D01*
X200183809Y-51689761D02*
X199945714Y-52404047D01*
X200564761Y-52404047D01*
X201469523Y-52737380D02*
X200898095Y-52737380D01*
X201183809Y-52737380D02*
X201183809Y-51737380D01*
X201088571Y-51880238D01*
X200993333Y-51975476D01*
X200898095Y-52023095D01*
X202326666Y-52070714D02*
X202326666Y-52737380D01*
X202088571Y-51689761D02*
X201850476Y-52404047D01*
X202469523Y-52404047D01*
X202993333Y-52165952D02*
X202898095Y-52118333D01*
X202850476Y-52070714D01*
X202802857Y-51975476D01*
X202802857Y-51927857D01*
X202850476Y-51832619D01*
X202898095Y-51785000D01*
X202993333Y-51737380D01*
X203183809Y-51737380D01*
X203279047Y-51785000D01*
X203326666Y-51832619D01*
X203374285Y-51927857D01*
X203374285Y-51975476D01*
X203326666Y-52070714D01*
X203279047Y-52118333D01*
X203183809Y-52165952D01*
X202993333Y-52165952D01*
X202898095Y-52213571D01*
X202850476Y-52261190D01*
X202802857Y-52356428D01*
X202802857Y-52546904D01*
X202850476Y-52642142D01*
X202898095Y-52689761D01*
X202993333Y-52737380D01*
X203183809Y-52737380D01*
X203279047Y-52689761D01*
X203326666Y-52642142D01*
X203374285Y-52546904D01*
X203374285Y-52356428D01*
X203326666Y-52261190D01*
X203279047Y-52213571D01*
X203183809Y-52165952D01*
X196588095Y-48817380D02*
X196588095Y-47817380D01*
X197159523Y-48817380D02*
X196730952Y-48245952D01*
X197159523Y-47817380D02*
X196588095Y-48388809D01*
D11*
X200369523Y-50526904D02*
X200369523Y-49726904D01*
X200560000Y-49726904D01*
X200674285Y-49765000D01*
X200750476Y-49841190D01*
X200788571Y-49917380D01*
X200826666Y-50069761D01*
X200826666Y-50184047D01*
X200788571Y-50336428D01*
X200750476Y-50412619D01*
X200674285Y-50488809D01*
X200560000Y-50526904D01*
X200369523Y-50526904D01*
X201512380Y-49726904D02*
X201360000Y-49726904D01*
X201283809Y-49765000D01*
X201245714Y-49803095D01*
X201169523Y-49917380D01*
X201131428Y-50069761D01*
X201131428Y-50374523D01*
X201169523Y-50450714D01*
X201207619Y-50488809D01*
X201283809Y-50526904D01*
X201436190Y-50526904D01*
X201512380Y-50488809D01*
X201550476Y-50450714D01*
X201588571Y-50374523D01*
X201588571Y-50184047D01*
X201550476Y-50107857D01*
X201512380Y-50069761D01*
X201436190Y-50031666D01*
X201283809Y-50031666D01*
X201207619Y-50069761D01*
X201169523Y-50107857D01*
X201131428Y-50184047D01*
%TO.C,D5*%
D12*
X179467142Y-52737380D02*
X178895714Y-52737380D01*
X179181428Y-52737380D02*
X179181428Y-51737380D01*
X179086190Y-51880238D01*
X178990952Y-51975476D01*
X178895714Y-52023095D01*
X179895714Y-52737380D02*
X179895714Y-51737380D01*
X180467142Y-52737380D01*
X180467142Y-51737380D01*
X181371904Y-52070714D02*
X181371904Y-52737380D01*
X181133809Y-51689761D02*
X180895714Y-52404047D01*
X181514761Y-52404047D01*
X182419523Y-52737380D02*
X181848095Y-52737380D01*
X182133809Y-52737380D02*
X182133809Y-51737380D01*
X182038571Y-51880238D01*
X181943333Y-51975476D01*
X181848095Y-52023095D01*
X183276666Y-52070714D02*
X183276666Y-52737380D01*
X183038571Y-51689761D02*
X182800476Y-52404047D01*
X183419523Y-52404047D01*
X183943333Y-52165952D02*
X183848095Y-52118333D01*
X183800476Y-52070714D01*
X183752857Y-51975476D01*
X183752857Y-51927857D01*
X183800476Y-51832619D01*
X183848095Y-51785000D01*
X183943333Y-51737380D01*
X184133809Y-51737380D01*
X184229047Y-51785000D01*
X184276666Y-51832619D01*
X184324285Y-51927857D01*
X184324285Y-51975476D01*
X184276666Y-52070714D01*
X184229047Y-52118333D01*
X184133809Y-52165952D01*
X183943333Y-52165952D01*
X183848095Y-52213571D01*
X183800476Y-52261190D01*
X183752857Y-52356428D01*
X183752857Y-52546904D01*
X183800476Y-52642142D01*
X183848095Y-52689761D01*
X183943333Y-52737380D01*
X184133809Y-52737380D01*
X184229047Y-52689761D01*
X184276666Y-52642142D01*
X184324285Y-52546904D01*
X184324285Y-52356428D01*
X184276666Y-52261190D01*
X184229047Y-52213571D01*
X184133809Y-52165952D01*
X177538095Y-48817380D02*
X177538095Y-47817380D01*
X178109523Y-48817380D02*
X177680952Y-48245952D01*
X178109523Y-47817380D02*
X177538095Y-48388809D01*
D11*
X181319523Y-50526904D02*
X181319523Y-49726904D01*
X181510000Y-49726904D01*
X181624285Y-49765000D01*
X181700476Y-49841190D01*
X181738571Y-49917380D01*
X181776666Y-50069761D01*
X181776666Y-50184047D01*
X181738571Y-50336428D01*
X181700476Y-50412619D01*
X181624285Y-50488809D01*
X181510000Y-50526904D01*
X181319523Y-50526904D01*
X182500476Y-49726904D02*
X182119523Y-49726904D01*
X182081428Y-50107857D01*
X182119523Y-50069761D01*
X182195714Y-50031666D01*
X182386190Y-50031666D01*
X182462380Y-50069761D01*
X182500476Y-50107857D01*
X182538571Y-50184047D01*
X182538571Y-50374523D01*
X182500476Y-50450714D01*
X182462380Y-50488809D01*
X182386190Y-50526904D01*
X182195714Y-50526904D01*
X182119523Y-50488809D01*
X182081428Y-50450714D01*
%TO.C,D4*%
D12*
X160417142Y-52737380D02*
X159845714Y-52737380D01*
X160131428Y-52737380D02*
X160131428Y-51737380D01*
X160036190Y-51880238D01*
X159940952Y-51975476D01*
X159845714Y-52023095D01*
X160845714Y-52737380D02*
X160845714Y-51737380D01*
X161417142Y-52737380D01*
X161417142Y-51737380D01*
X162321904Y-52070714D02*
X162321904Y-52737380D01*
X162083809Y-51689761D02*
X161845714Y-52404047D01*
X162464761Y-52404047D01*
X163369523Y-52737380D02*
X162798095Y-52737380D01*
X163083809Y-52737380D02*
X163083809Y-51737380D01*
X162988571Y-51880238D01*
X162893333Y-51975476D01*
X162798095Y-52023095D01*
X164226666Y-52070714D02*
X164226666Y-52737380D01*
X163988571Y-51689761D02*
X163750476Y-52404047D01*
X164369523Y-52404047D01*
X164893333Y-52165952D02*
X164798095Y-52118333D01*
X164750476Y-52070714D01*
X164702857Y-51975476D01*
X164702857Y-51927857D01*
X164750476Y-51832619D01*
X164798095Y-51785000D01*
X164893333Y-51737380D01*
X165083809Y-51737380D01*
X165179047Y-51785000D01*
X165226666Y-51832619D01*
X165274285Y-51927857D01*
X165274285Y-51975476D01*
X165226666Y-52070714D01*
X165179047Y-52118333D01*
X165083809Y-52165952D01*
X164893333Y-52165952D01*
X164798095Y-52213571D01*
X164750476Y-52261190D01*
X164702857Y-52356428D01*
X164702857Y-52546904D01*
X164750476Y-52642142D01*
X164798095Y-52689761D01*
X164893333Y-52737380D01*
X165083809Y-52737380D01*
X165179047Y-52689761D01*
X165226666Y-52642142D01*
X165274285Y-52546904D01*
X165274285Y-52356428D01*
X165226666Y-52261190D01*
X165179047Y-52213571D01*
X165083809Y-52165952D01*
X158488095Y-48817380D02*
X158488095Y-47817380D01*
X159059523Y-48817380D02*
X158630952Y-48245952D01*
X159059523Y-47817380D02*
X158488095Y-48388809D01*
D11*
X162269523Y-50526904D02*
X162269523Y-49726904D01*
X162460000Y-49726904D01*
X162574285Y-49765000D01*
X162650476Y-49841190D01*
X162688571Y-49917380D01*
X162726666Y-50069761D01*
X162726666Y-50184047D01*
X162688571Y-50336428D01*
X162650476Y-50412619D01*
X162574285Y-50488809D01*
X162460000Y-50526904D01*
X162269523Y-50526904D01*
X163412380Y-49993571D02*
X163412380Y-50526904D01*
X163221904Y-49688809D02*
X163031428Y-50260238D01*
X163526666Y-50260238D01*
%TO.C,D3*%
D12*
X141367142Y-52737380D02*
X140795714Y-52737380D01*
X141081428Y-52737380D02*
X141081428Y-51737380D01*
X140986190Y-51880238D01*
X140890952Y-51975476D01*
X140795714Y-52023095D01*
X141795714Y-52737380D02*
X141795714Y-51737380D01*
X142367142Y-52737380D01*
X142367142Y-51737380D01*
X143271904Y-52070714D02*
X143271904Y-52737380D01*
X143033809Y-51689761D02*
X142795714Y-52404047D01*
X143414761Y-52404047D01*
X144319523Y-52737380D02*
X143748095Y-52737380D01*
X144033809Y-52737380D02*
X144033809Y-51737380D01*
X143938571Y-51880238D01*
X143843333Y-51975476D01*
X143748095Y-52023095D01*
X145176666Y-52070714D02*
X145176666Y-52737380D01*
X144938571Y-51689761D02*
X144700476Y-52404047D01*
X145319523Y-52404047D01*
X145843333Y-52165952D02*
X145748095Y-52118333D01*
X145700476Y-52070714D01*
X145652857Y-51975476D01*
X145652857Y-51927857D01*
X145700476Y-51832619D01*
X145748095Y-51785000D01*
X145843333Y-51737380D01*
X146033809Y-51737380D01*
X146129047Y-51785000D01*
X146176666Y-51832619D01*
X146224285Y-51927857D01*
X146224285Y-51975476D01*
X146176666Y-52070714D01*
X146129047Y-52118333D01*
X146033809Y-52165952D01*
X145843333Y-52165952D01*
X145748095Y-52213571D01*
X145700476Y-52261190D01*
X145652857Y-52356428D01*
X145652857Y-52546904D01*
X145700476Y-52642142D01*
X145748095Y-52689761D01*
X145843333Y-52737380D01*
X146033809Y-52737380D01*
X146129047Y-52689761D01*
X146176666Y-52642142D01*
X146224285Y-52546904D01*
X146224285Y-52356428D01*
X146176666Y-52261190D01*
X146129047Y-52213571D01*
X146033809Y-52165952D01*
X139438095Y-48817380D02*
X139438095Y-47817380D01*
X140009523Y-48817380D02*
X139580952Y-48245952D01*
X140009523Y-47817380D02*
X139438095Y-48388809D01*
D11*
X143219523Y-50526904D02*
X143219523Y-49726904D01*
X143410000Y-49726904D01*
X143524285Y-49765000D01*
X143600476Y-49841190D01*
X143638571Y-49917380D01*
X143676666Y-50069761D01*
X143676666Y-50184047D01*
X143638571Y-50336428D01*
X143600476Y-50412619D01*
X143524285Y-50488809D01*
X143410000Y-50526904D01*
X143219523Y-50526904D01*
X143943333Y-49726904D02*
X144438571Y-49726904D01*
X144171904Y-50031666D01*
X144286190Y-50031666D01*
X144362380Y-50069761D01*
X144400476Y-50107857D01*
X144438571Y-50184047D01*
X144438571Y-50374523D01*
X144400476Y-50450714D01*
X144362380Y-50488809D01*
X144286190Y-50526904D01*
X144057619Y-50526904D01*
X143981428Y-50488809D01*
X143943333Y-50450714D01*
%TO.C,D2*%
D12*
X122317142Y-52737380D02*
X121745714Y-52737380D01*
X122031428Y-52737380D02*
X122031428Y-51737380D01*
X121936190Y-51880238D01*
X121840952Y-51975476D01*
X121745714Y-52023095D01*
X122745714Y-52737380D02*
X122745714Y-51737380D01*
X123317142Y-52737380D01*
X123317142Y-51737380D01*
X124221904Y-52070714D02*
X124221904Y-52737380D01*
X123983809Y-51689761D02*
X123745714Y-52404047D01*
X124364761Y-52404047D01*
X125269523Y-52737380D02*
X124698095Y-52737380D01*
X124983809Y-52737380D02*
X124983809Y-51737380D01*
X124888571Y-51880238D01*
X124793333Y-51975476D01*
X124698095Y-52023095D01*
X126126666Y-52070714D02*
X126126666Y-52737380D01*
X125888571Y-51689761D02*
X125650476Y-52404047D01*
X126269523Y-52404047D01*
X126793333Y-52165952D02*
X126698095Y-52118333D01*
X126650476Y-52070714D01*
X126602857Y-51975476D01*
X126602857Y-51927857D01*
X126650476Y-51832619D01*
X126698095Y-51785000D01*
X126793333Y-51737380D01*
X126983809Y-51737380D01*
X127079047Y-51785000D01*
X127126666Y-51832619D01*
X127174285Y-51927857D01*
X127174285Y-51975476D01*
X127126666Y-52070714D01*
X127079047Y-52118333D01*
X126983809Y-52165952D01*
X126793333Y-52165952D01*
X126698095Y-52213571D01*
X126650476Y-52261190D01*
X126602857Y-52356428D01*
X126602857Y-52546904D01*
X126650476Y-52642142D01*
X126698095Y-52689761D01*
X126793333Y-52737380D01*
X126983809Y-52737380D01*
X127079047Y-52689761D01*
X127126666Y-52642142D01*
X127174285Y-52546904D01*
X127174285Y-52356428D01*
X127126666Y-52261190D01*
X127079047Y-52213571D01*
X126983809Y-52165952D01*
X120388095Y-48817380D02*
X120388095Y-47817380D01*
X120959523Y-48817380D02*
X120530952Y-48245952D01*
X120959523Y-47817380D02*
X120388095Y-48388809D01*
D11*
X124169523Y-50526904D02*
X124169523Y-49726904D01*
X124360000Y-49726904D01*
X124474285Y-49765000D01*
X124550476Y-49841190D01*
X124588571Y-49917380D01*
X124626666Y-50069761D01*
X124626666Y-50184047D01*
X124588571Y-50336428D01*
X124550476Y-50412619D01*
X124474285Y-50488809D01*
X124360000Y-50526904D01*
X124169523Y-50526904D01*
X124931428Y-49803095D02*
X124969523Y-49765000D01*
X125045714Y-49726904D01*
X125236190Y-49726904D01*
X125312380Y-49765000D01*
X125350476Y-49803095D01*
X125388571Y-49879285D01*
X125388571Y-49955476D01*
X125350476Y-50069761D01*
X124893333Y-50526904D01*
X125388571Y-50526904D01*
%TO.C,D1*%
D12*
X103267142Y-52737380D02*
X102695714Y-52737380D01*
X102981428Y-52737380D02*
X102981428Y-51737380D01*
X102886190Y-51880238D01*
X102790952Y-51975476D01*
X102695714Y-52023095D01*
X103695714Y-52737380D02*
X103695714Y-51737380D01*
X104267142Y-52737380D01*
X104267142Y-51737380D01*
X105171904Y-52070714D02*
X105171904Y-52737380D01*
X104933809Y-51689761D02*
X104695714Y-52404047D01*
X105314761Y-52404047D01*
X106219523Y-52737380D02*
X105648095Y-52737380D01*
X105933809Y-52737380D02*
X105933809Y-51737380D01*
X105838571Y-51880238D01*
X105743333Y-51975476D01*
X105648095Y-52023095D01*
X107076666Y-52070714D02*
X107076666Y-52737380D01*
X106838571Y-51689761D02*
X106600476Y-52404047D01*
X107219523Y-52404047D01*
X107743333Y-52165952D02*
X107648095Y-52118333D01*
X107600476Y-52070714D01*
X107552857Y-51975476D01*
X107552857Y-51927857D01*
X107600476Y-51832619D01*
X107648095Y-51785000D01*
X107743333Y-51737380D01*
X107933809Y-51737380D01*
X108029047Y-51785000D01*
X108076666Y-51832619D01*
X108124285Y-51927857D01*
X108124285Y-51975476D01*
X108076666Y-52070714D01*
X108029047Y-52118333D01*
X107933809Y-52165952D01*
X107743333Y-52165952D01*
X107648095Y-52213571D01*
X107600476Y-52261190D01*
X107552857Y-52356428D01*
X107552857Y-52546904D01*
X107600476Y-52642142D01*
X107648095Y-52689761D01*
X107743333Y-52737380D01*
X107933809Y-52737380D01*
X108029047Y-52689761D01*
X108076666Y-52642142D01*
X108124285Y-52546904D01*
X108124285Y-52356428D01*
X108076666Y-52261190D01*
X108029047Y-52213571D01*
X107933809Y-52165952D01*
X101338095Y-48817380D02*
X101338095Y-47817380D01*
X101909523Y-48817380D02*
X101480952Y-48245952D01*
X101909523Y-47817380D02*
X101338095Y-48388809D01*
D11*
X105119523Y-50526904D02*
X105119523Y-49726904D01*
X105310000Y-49726904D01*
X105424285Y-49765000D01*
X105500476Y-49841190D01*
X105538571Y-49917380D01*
X105576666Y-50069761D01*
X105576666Y-50184047D01*
X105538571Y-50336428D01*
X105500476Y-50412619D01*
X105424285Y-50488809D01*
X105310000Y-50526904D01*
X105119523Y-50526904D01*
X106338571Y-50526904D02*
X105881428Y-50526904D01*
X106110000Y-50526904D02*
X106110000Y-49726904D01*
X106033809Y-49841190D01*
X105957619Y-49917380D01*
X105881428Y-49955476D01*
%TO.C,SW13*%
D12*
X218424285Y-69286380D02*
X218424285Y-68286380D01*
X218757619Y-69000666D01*
X219090952Y-68286380D01*
X219090952Y-69286380D01*
X220090952Y-69286380D02*
X219519523Y-69286380D01*
X219805238Y-69286380D02*
X219805238Y-68286380D01*
X219710000Y-68429238D01*
X219614761Y-68524476D01*
X219519523Y-68572095D01*
X220424285Y-68286380D02*
X221043333Y-68286380D01*
X220710000Y-68667333D01*
X220852857Y-68667333D01*
X220948095Y-68714952D01*
X220995714Y-68762571D01*
X221043333Y-68857809D01*
X221043333Y-69095904D01*
X220995714Y-69191142D01*
X220948095Y-69238761D01*
X220852857Y-69286380D01*
X220567142Y-69286380D01*
X220471904Y-69238761D01*
X220424285Y-69191142D01*
X217900476Y-53490761D02*
X218043333Y-53538380D01*
X218281428Y-53538380D01*
X218376666Y-53490761D01*
X218424285Y-53443142D01*
X218471904Y-53347904D01*
X218471904Y-53252666D01*
X218424285Y-53157428D01*
X218376666Y-53109809D01*
X218281428Y-53062190D01*
X218090952Y-53014571D01*
X217995714Y-52966952D01*
X217948095Y-52919333D01*
X217900476Y-52824095D01*
X217900476Y-52728857D01*
X217948095Y-52633619D01*
X217995714Y-52586000D01*
X218090952Y-52538380D01*
X218329047Y-52538380D01*
X218471904Y-52586000D01*
X218805238Y-52538380D02*
X219043333Y-53538380D01*
X219233809Y-52824095D01*
X219424285Y-53538380D01*
X219662380Y-52538380D01*
X220567142Y-53538380D02*
X219995714Y-53538380D01*
X220281428Y-53538380D02*
X220281428Y-52538380D01*
X220186190Y-52681238D01*
X220090952Y-52776476D01*
X219995714Y-52824095D01*
X220900476Y-52538380D02*
X221519523Y-52538380D01*
X221186190Y-52919333D01*
X221329047Y-52919333D01*
X221424285Y-52966952D01*
X221471904Y-53014571D01*
X221519523Y-53109809D01*
X221519523Y-53347904D01*
X221471904Y-53443142D01*
X221424285Y-53490761D01*
X221329047Y-53538380D01*
X221043333Y-53538380D01*
X220948095Y-53490761D01*
X220900476Y-53443142D01*
%TO.C,SW12*%
X199374285Y-69286380D02*
X199374285Y-68286380D01*
X199707619Y-69000666D01*
X200040952Y-68286380D01*
X200040952Y-69286380D01*
X201040952Y-69286380D02*
X200469523Y-69286380D01*
X200755238Y-69286380D02*
X200755238Y-68286380D01*
X200660000Y-68429238D01*
X200564761Y-68524476D01*
X200469523Y-68572095D01*
X201421904Y-68381619D02*
X201469523Y-68334000D01*
X201564761Y-68286380D01*
X201802857Y-68286380D01*
X201898095Y-68334000D01*
X201945714Y-68381619D01*
X201993333Y-68476857D01*
X201993333Y-68572095D01*
X201945714Y-68714952D01*
X201374285Y-69286380D01*
X201993333Y-69286380D01*
X198850476Y-53490761D02*
X198993333Y-53538380D01*
X199231428Y-53538380D01*
X199326666Y-53490761D01*
X199374285Y-53443142D01*
X199421904Y-53347904D01*
X199421904Y-53252666D01*
X199374285Y-53157428D01*
X199326666Y-53109809D01*
X199231428Y-53062190D01*
X199040952Y-53014571D01*
X198945714Y-52966952D01*
X198898095Y-52919333D01*
X198850476Y-52824095D01*
X198850476Y-52728857D01*
X198898095Y-52633619D01*
X198945714Y-52586000D01*
X199040952Y-52538380D01*
X199279047Y-52538380D01*
X199421904Y-52586000D01*
X199755238Y-52538380D02*
X199993333Y-53538380D01*
X200183809Y-52824095D01*
X200374285Y-53538380D01*
X200612380Y-52538380D01*
X201517142Y-53538380D02*
X200945714Y-53538380D01*
X201231428Y-53538380D02*
X201231428Y-52538380D01*
X201136190Y-52681238D01*
X201040952Y-52776476D01*
X200945714Y-52824095D01*
X201898095Y-52633619D02*
X201945714Y-52586000D01*
X202040952Y-52538380D01*
X202279047Y-52538380D01*
X202374285Y-52586000D01*
X202421904Y-52633619D01*
X202469523Y-52728857D01*
X202469523Y-52824095D01*
X202421904Y-52966952D01*
X201850476Y-53538380D01*
X202469523Y-53538380D01*
%TO.C,SW11*%
X180324285Y-69286380D02*
X180324285Y-68286380D01*
X180657619Y-69000666D01*
X180990952Y-68286380D01*
X180990952Y-69286380D01*
X181990952Y-69286380D02*
X181419523Y-69286380D01*
X181705238Y-69286380D02*
X181705238Y-68286380D01*
X181610000Y-68429238D01*
X181514761Y-68524476D01*
X181419523Y-68572095D01*
X182943333Y-69286380D02*
X182371904Y-69286380D01*
X182657619Y-69286380D02*
X182657619Y-68286380D01*
X182562380Y-68429238D01*
X182467142Y-68524476D01*
X182371904Y-68572095D01*
X179800476Y-53490761D02*
X179943333Y-53538380D01*
X180181428Y-53538380D01*
X180276666Y-53490761D01*
X180324285Y-53443142D01*
X180371904Y-53347904D01*
X180371904Y-53252666D01*
X180324285Y-53157428D01*
X180276666Y-53109809D01*
X180181428Y-53062190D01*
X179990952Y-53014571D01*
X179895714Y-52966952D01*
X179848095Y-52919333D01*
X179800476Y-52824095D01*
X179800476Y-52728857D01*
X179848095Y-52633619D01*
X179895714Y-52586000D01*
X179990952Y-52538380D01*
X180229047Y-52538380D01*
X180371904Y-52586000D01*
X180705238Y-52538380D02*
X180943333Y-53538380D01*
X181133809Y-52824095D01*
X181324285Y-53538380D01*
X181562380Y-52538380D01*
X182467142Y-53538380D02*
X181895714Y-53538380D01*
X182181428Y-53538380D02*
X182181428Y-52538380D01*
X182086190Y-52681238D01*
X181990952Y-52776476D01*
X181895714Y-52824095D01*
X183419523Y-53538380D02*
X182848095Y-53538380D01*
X183133809Y-53538380D02*
X183133809Y-52538380D01*
X183038571Y-52681238D01*
X182943333Y-52776476D01*
X182848095Y-52824095D01*
%TO.C,SW10*%
X161274285Y-69286380D02*
X161274285Y-68286380D01*
X161607619Y-69000666D01*
X161940952Y-68286380D01*
X161940952Y-69286380D01*
X162940952Y-69286380D02*
X162369523Y-69286380D01*
X162655238Y-69286380D02*
X162655238Y-68286380D01*
X162560000Y-68429238D01*
X162464761Y-68524476D01*
X162369523Y-68572095D01*
X163560000Y-68286380D02*
X163655238Y-68286380D01*
X163750476Y-68334000D01*
X163798095Y-68381619D01*
X163845714Y-68476857D01*
X163893333Y-68667333D01*
X163893333Y-68905428D01*
X163845714Y-69095904D01*
X163798095Y-69191142D01*
X163750476Y-69238761D01*
X163655238Y-69286380D01*
X163560000Y-69286380D01*
X163464761Y-69238761D01*
X163417142Y-69191142D01*
X163369523Y-69095904D01*
X163321904Y-68905428D01*
X163321904Y-68667333D01*
X163369523Y-68476857D01*
X163417142Y-68381619D01*
X163464761Y-68334000D01*
X163560000Y-68286380D01*
X160750476Y-53490761D02*
X160893333Y-53538380D01*
X161131428Y-53538380D01*
X161226666Y-53490761D01*
X161274285Y-53443142D01*
X161321904Y-53347904D01*
X161321904Y-53252666D01*
X161274285Y-53157428D01*
X161226666Y-53109809D01*
X161131428Y-53062190D01*
X160940952Y-53014571D01*
X160845714Y-52966952D01*
X160798095Y-52919333D01*
X160750476Y-52824095D01*
X160750476Y-52728857D01*
X160798095Y-52633619D01*
X160845714Y-52586000D01*
X160940952Y-52538380D01*
X161179047Y-52538380D01*
X161321904Y-52586000D01*
X161655238Y-52538380D02*
X161893333Y-53538380D01*
X162083809Y-52824095D01*
X162274285Y-53538380D01*
X162512380Y-52538380D01*
X163417142Y-53538380D02*
X162845714Y-53538380D01*
X163131428Y-53538380D02*
X163131428Y-52538380D01*
X163036190Y-52681238D01*
X162940952Y-52776476D01*
X162845714Y-52824095D01*
X164036190Y-52538380D02*
X164131428Y-52538380D01*
X164226666Y-52586000D01*
X164274285Y-52633619D01*
X164321904Y-52728857D01*
X164369523Y-52919333D01*
X164369523Y-53157428D01*
X164321904Y-53347904D01*
X164274285Y-53443142D01*
X164226666Y-53490761D01*
X164131428Y-53538380D01*
X164036190Y-53538380D01*
X163940952Y-53490761D01*
X163893333Y-53443142D01*
X163845714Y-53347904D01*
X163798095Y-53157428D01*
X163798095Y-52919333D01*
X163845714Y-52728857D01*
X163893333Y-52633619D01*
X163940952Y-52586000D01*
X164036190Y-52538380D01*
%TO.C,SW9*%
X142700476Y-69286380D02*
X142700476Y-68286380D01*
X143033809Y-69000666D01*
X143367142Y-68286380D01*
X143367142Y-69286380D01*
X143890952Y-69286380D02*
X144081428Y-69286380D01*
X144176666Y-69238761D01*
X144224285Y-69191142D01*
X144319523Y-69048285D01*
X144367142Y-68857809D01*
X144367142Y-68476857D01*
X144319523Y-68381619D01*
X144271904Y-68334000D01*
X144176666Y-68286380D01*
X143986190Y-68286380D01*
X143890952Y-68334000D01*
X143843333Y-68381619D01*
X143795714Y-68476857D01*
X143795714Y-68714952D01*
X143843333Y-68810190D01*
X143890952Y-68857809D01*
X143986190Y-68905428D01*
X144176666Y-68905428D01*
X144271904Y-68857809D01*
X144319523Y-68810190D01*
X144367142Y-68714952D01*
X142176666Y-53490761D02*
X142319523Y-53538380D01*
X142557619Y-53538380D01*
X142652857Y-53490761D01*
X142700476Y-53443142D01*
X142748095Y-53347904D01*
X142748095Y-53252666D01*
X142700476Y-53157428D01*
X142652857Y-53109809D01*
X142557619Y-53062190D01*
X142367142Y-53014571D01*
X142271904Y-52966952D01*
X142224285Y-52919333D01*
X142176666Y-52824095D01*
X142176666Y-52728857D01*
X142224285Y-52633619D01*
X142271904Y-52586000D01*
X142367142Y-52538380D01*
X142605238Y-52538380D01*
X142748095Y-52586000D01*
X143081428Y-52538380D02*
X143319523Y-53538380D01*
X143510000Y-52824095D01*
X143700476Y-53538380D01*
X143938571Y-52538380D01*
X144367142Y-53538380D02*
X144557619Y-53538380D01*
X144652857Y-53490761D01*
X144700476Y-53443142D01*
X144795714Y-53300285D01*
X144843333Y-53109809D01*
X144843333Y-52728857D01*
X144795714Y-52633619D01*
X144748095Y-52586000D01*
X144652857Y-52538380D01*
X144462380Y-52538380D01*
X144367142Y-52586000D01*
X144319523Y-52633619D01*
X144271904Y-52728857D01*
X144271904Y-52966952D01*
X144319523Y-53062190D01*
X144367142Y-53109809D01*
X144462380Y-53157428D01*
X144652857Y-53157428D01*
X144748095Y-53109809D01*
X144795714Y-53062190D01*
X144843333Y-52966952D01*
%TO.C,SW8*%
X123650476Y-69286380D02*
X123650476Y-68286380D01*
X123983809Y-69000666D01*
X124317142Y-68286380D01*
X124317142Y-69286380D01*
X124936190Y-68714952D02*
X124840952Y-68667333D01*
X124793333Y-68619714D01*
X124745714Y-68524476D01*
X124745714Y-68476857D01*
X124793333Y-68381619D01*
X124840952Y-68334000D01*
X124936190Y-68286380D01*
X125126666Y-68286380D01*
X125221904Y-68334000D01*
X125269523Y-68381619D01*
X125317142Y-68476857D01*
X125317142Y-68524476D01*
X125269523Y-68619714D01*
X125221904Y-68667333D01*
X125126666Y-68714952D01*
X124936190Y-68714952D01*
X124840952Y-68762571D01*
X124793333Y-68810190D01*
X124745714Y-68905428D01*
X124745714Y-69095904D01*
X124793333Y-69191142D01*
X124840952Y-69238761D01*
X124936190Y-69286380D01*
X125126666Y-69286380D01*
X125221904Y-69238761D01*
X125269523Y-69191142D01*
X125317142Y-69095904D01*
X125317142Y-68905428D01*
X125269523Y-68810190D01*
X125221904Y-68762571D01*
X125126666Y-68714952D01*
X123126666Y-53490761D02*
X123269523Y-53538380D01*
X123507619Y-53538380D01*
X123602857Y-53490761D01*
X123650476Y-53443142D01*
X123698095Y-53347904D01*
X123698095Y-53252666D01*
X123650476Y-53157428D01*
X123602857Y-53109809D01*
X123507619Y-53062190D01*
X123317142Y-53014571D01*
X123221904Y-52966952D01*
X123174285Y-52919333D01*
X123126666Y-52824095D01*
X123126666Y-52728857D01*
X123174285Y-52633619D01*
X123221904Y-52586000D01*
X123317142Y-52538380D01*
X123555238Y-52538380D01*
X123698095Y-52586000D01*
X124031428Y-52538380D02*
X124269523Y-53538380D01*
X124460000Y-52824095D01*
X124650476Y-53538380D01*
X124888571Y-52538380D01*
X125412380Y-52966952D02*
X125317142Y-52919333D01*
X125269523Y-52871714D01*
X125221904Y-52776476D01*
X125221904Y-52728857D01*
X125269523Y-52633619D01*
X125317142Y-52586000D01*
X125412380Y-52538380D01*
X125602857Y-52538380D01*
X125698095Y-52586000D01*
X125745714Y-52633619D01*
X125793333Y-52728857D01*
X125793333Y-52776476D01*
X125745714Y-52871714D01*
X125698095Y-52919333D01*
X125602857Y-52966952D01*
X125412380Y-52966952D01*
X125317142Y-53014571D01*
X125269523Y-53062190D01*
X125221904Y-53157428D01*
X125221904Y-53347904D01*
X125269523Y-53443142D01*
X125317142Y-53490761D01*
X125412380Y-53538380D01*
X125602857Y-53538380D01*
X125698095Y-53490761D01*
X125745714Y-53443142D01*
X125793333Y-53347904D01*
X125793333Y-53157428D01*
X125745714Y-53062190D01*
X125698095Y-53014571D01*
X125602857Y-52966952D01*
%TO.C,SW7*%
X104600476Y-69286380D02*
X104600476Y-68286380D01*
X104933809Y-69000666D01*
X105267142Y-68286380D01*
X105267142Y-69286380D01*
X105648095Y-68286380D02*
X106314761Y-68286380D01*
X105886190Y-69286380D01*
X104076666Y-53490761D02*
X104219523Y-53538380D01*
X104457619Y-53538380D01*
X104552857Y-53490761D01*
X104600476Y-53443142D01*
X104648095Y-53347904D01*
X104648095Y-53252666D01*
X104600476Y-53157428D01*
X104552857Y-53109809D01*
X104457619Y-53062190D01*
X104267142Y-53014571D01*
X104171904Y-52966952D01*
X104124285Y-52919333D01*
X104076666Y-52824095D01*
X104076666Y-52728857D01*
X104124285Y-52633619D01*
X104171904Y-52586000D01*
X104267142Y-52538380D01*
X104505238Y-52538380D01*
X104648095Y-52586000D01*
X104981428Y-52538380D02*
X105219523Y-53538380D01*
X105410000Y-52824095D01*
X105600476Y-53538380D01*
X105838571Y-52538380D01*
X106124285Y-52538380D02*
X106790952Y-52538380D01*
X106362380Y-53538380D01*
%TO.C,SW6*%
X199850476Y-50236380D02*
X199850476Y-49236380D01*
X200183809Y-49950666D01*
X200517142Y-49236380D01*
X200517142Y-50236380D01*
X201421904Y-49236380D02*
X201231428Y-49236380D01*
X201136190Y-49284000D01*
X201088571Y-49331619D01*
X200993333Y-49474476D01*
X200945714Y-49664952D01*
X200945714Y-50045904D01*
X200993333Y-50141142D01*
X201040952Y-50188761D01*
X201136190Y-50236380D01*
X201326666Y-50236380D01*
X201421904Y-50188761D01*
X201469523Y-50141142D01*
X201517142Y-50045904D01*
X201517142Y-49807809D01*
X201469523Y-49712571D01*
X201421904Y-49664952D01*
X201326666Y-49617333D01*
X201136190Y-49617333D01*
X201040952Y-49664952D01*
X200993333Y-49712571D01*
X200945714Y-49807809D01*
X199326666Y-34440761D02*
X199469523Y-34488380D01*
X199707619Y-34488380D01*
X199802857Y-34440761D01*
X199850476Y-34393142D01*
X199898095Y-34297904D01*
X199898095Y-34202666D01*
X199850476Y-34107428D01*
X199802857Y-34059809D01*
X199707619Y-34012190D01*
X199517142Y-33964571D01*
X199421904Y-33916952D01*
X199374285Y-33869333D01*
X199326666Y-33774095D01*
X199326666Y-33678857D01*
X199374285Y-33583619D01*
X199421904Y-33536000D01*
X199517142Y-33488380D01*
X199755238Y-33488380D01*
X199898095Y-33536000D01*
X200231428Y-33488380D02*
X200469523Y-34488380D01*
X200660000Y-33774095D01*
X200850476Y-34488380D01*
X201088571Y-33488380D01*
X201898095Y-33488380D02*
X201707619Y-33488380D01*
X201612380Y-33536000D01*
X201564761Y-33583619D01*
X201469523Y-33726476D01*
X201421904Y-33916952D01*
X201421904Y-34297904D01*
X201469523Y-34393142D01*
X201517142Y-34440761D01*
X201612380Y-34488380D01*
X201802857Y-34488380D01*
X201898095Y-34440761D01*
X201945714Y-34393142D01*
X201993333Y-34297904D01*
X201993333Y-34059809D01*
X201945714Y-33964571D01*
X201898095Y-33916952D01*
X201802857Y-33869333D01*
X201612380Y-33869333D01*
X201517142Y-33916952D01*
X201469523Y-33964571D01*
X201421904Y-34059809D01*
%TO.C,SW5*%
X180800476Y-50236380D02*
X180800476Y-49236380D01*
X181133809Y-49950666D01*
X181467142Y-49236380D01*
X181467142Y-50236380D01*
X182419523Y-49236380D02*
X181943333Y-49236380D01*
X181895714Y-49712571D01*
X181943333Y-49664952D01*
X182038571Y-49617333D01*
X182276666Y-49617333D01*
X182371904Y-49664952D01*
X182419523Y-49712571D01*
X182467142Y-49807809D01*
X182467142Y-50045904D01*
X182419523Y-50141142D01*
X182371904Y-50188761D01*
X182276666Y-50236380D01*
X182038571Y-50236380D01*
X181943333Y-50188761D01*
X181895714Y-50141142D01*
X180276666Y-34440761D02*
X180419523Y-34488380D01*
X180657619Y-34488380D01*
X180752857Y-34440761D01*
X180800476Y-34393142D01*
X180848095Y-34297904D01*
X180848095Y-34202666D01*
X180800476Y-34107428D01*
X180752857Y-34059809D01*
X180657619Y-34012190D01*
X180467142Y-33964571D01*
X180371904Y-33916952D01*
X180324285Y-33869333D01*
X180276666Y-33774095D01*
X180276666Y-33678857D01*
X180324285Y-33583619D01*
X180371904Y-33536000D01*
X180467142Y-33488380D01*
X180705238Y-33488380D01*
X180848095Y-33536000D01*
X181181428Y-33488380D02*
X181419523Y-34488380D01*
X181610000Y-33774095D01*
X181800476Y-34488380D01*
X182038571Y-33488380D01*
X182895714Y-33488380D02*
X182419523Y-33488380D01*
X182371904Y-33964571D01*
X182419523Y-33916952D01*
X182514761Y-33869333D01*
X182752857Y-33869333D01*
X182848095Y-33916952D01*
X182895714Y-33964571D01*
X182943333Y-34059809D01*
X182943333Y-34297904D01*
X182895714Y-34393142D01*
X182848095Y-34440761D01*
X182752857Y-34488380D01*
X182514761Y-34488380D01*
X182419523Y-34440761D01*
X182371904Y-34393142D01*
%TO.C,SW4*%
X161750476Y-50236380D02*
X161750476Y-49236380D01*
X162083809Y-49950666D01*
X162417142Y-49236380D01*
X162417142Y-50236380D01*
X163321904Y-49569714D02*
X163321904Y-50236380D01*
X163083809Y-49188761D02*
X162845714Y-49903047D01*
X163464761Y-49903047D01*
X161226666Y-34440761D02*
X161369523Y-34488380D01*
X161607619Y-34488380D01*
X161702857Y-34440761D01*
X161750476Y-34393142D01*
X161798095Y-34297904D01*
X161798095Y-34202666D01*
X161750476Y-34107428D01*
X161702857Y-34059809D01*
X161607619Y-34012190D01*
X161417142Y-33964571D01*
X161321904Y-33916952D01*
X161274285Y-33869333D01*
X161226666Y-33774095D01*
X161226666Y-33678857D01*
X161274285Y-33583619D01*
X161321904Y-33536000D01*
X161417142Y-33488380D01*
X161655238Y-33488380D01*
X161798095Y-33536000D01*
X162131428Y-33488380D02*
X162369523Y-34488380D01*
X162560000Y-33774095D01*
X162750476Y-34488380D01*
X162988571Y-33488380D01*
X163798095Y-33821714D02*
X163798095Y-34488380D01*
X163560000Y-33440761D02*
X163321904Y-34155047D01*
X163940952Y-34155047D01*
%TO.C,SW3*%
X142700476Y-50236380D02*
X142700476Y-49236380D01*
X143033809Y-49950666D01*
X143367142Y-49236380D01*
X143367142Y-50236380D01*
X143748095Y-49236380D02*
X144367142Y-49236380D01*
X144033809Y-49617333D01*
X144176666Y-49617333D01*
X144271904Y-49664952D01*
X144319523Y-49712571D01*
X144367142Y-49807809D01*
X144367142Y-50045904D01*
X144319523Y-50141142D01*
X144271904Y-50188761D01*
X144176666Y-50236380D01*
X143890952Y-50236380D01*
X143795714Y-50188761D01*
X143748095Y-50141142D01*
X142176666Y-34440761D02*
X142319523Y-34488380D01*
X142557619Y-34488380D01*
X142652857Y-34440761D01*
X142700476Y-34393142D01*
X142748095Y-34297904D01*
X142748095Y-34202666D01*
X142700476Y-34107428D01*
X142652857Y-34059809D01*
X142557619Y-34012190D01*
X142367142Y-33964571D01*
X142271904Y-33916952D01*
X142224285Y-33869333D01*
X142176666Y-33774095D01*
X142176666Y-33678857D01*
X142224285Y-33583619D01*
X142271904Y-33536000D01*
X142367142Y-33488380D01*
X142605238Y-33488380D01*
X142748095Y-33536000D01*
X143081428Y-33488380D02*
X143319523Y-34488380D01*
X143510000Y-33774095D01*
X143700476Y-34488380D01*
X143938571Y-33488380D01*
X144224285Y-33488380D02*
X144843333Y-33488380D01*
X144510000Y-33869333D01*
X144652857Y-33869333D01*
X144748095Y-33916952D01*
X144795714Y-33964571D01*
X144843333Y-34059809D01*
X144843333Y-34297904D01*
X144795714Y-34393142D01*
X144748095Y-34440761D01*
X144652857Y-34488380D01*
X144367142Y-34488380D01*
X144271904Y-34440761D01*
X144224285Y-34393142D01*
%TO.C,SW2*%
X123650476Y-50236380D02*
X123650476Y-49236380D01*
X123983809Y-49950666D01*
X124317142Y-49236380D01*
X124317142Y-50236380D01*
X124745714Y-49331619D02*
X124793333Y-49284000D01*
X124888571Y-49236380D01*
X125126666Y-49236380D01*
X125221904Y-49284000D01*
X125269523Y-49331619D01*
X125317142Y-49426857D01*
X125317142Y-49522095D01*
X125269523Y-49664952D01*
X124698095Y-50236380D01*
X125317142Y-50236380D01*
X123126666Y-34440761D02*
X123269523Y-34488380D01*
X123507619Y-34488380D01*
X123602857Y-34440761D01*
X123650476Y-34393142D01*
X123698095Y-34297904D01*
X123698095Y-34202666D01*
X123650476Y-34107428D01*
X123602857Y-34059809D01*
X123507619Y-34012190D01*
X123317142Y-33964571D01*
X123221904Y-33916952D01*
X123174285Y-33869333D01*
X123126666Y-33774095D01*
X123126666Y-33678857D01*
X123174285Y-33583619D01*
X123221904Y-33536000D01*
X123317142Y-33488380D01*
X123555238Y-33488380D01*
X123698095Y-33536000D01*
X124031428Y-33488380D02*
X124269523Y-34488380D01*
X124460000Y-33774095D01*
X124650476Y-34488380D01*
X124888571Y-33488380D01*
X125221904Y-33583619D02*
X125269523Y-33536000D01*
X125364761Y-33488380D01*
X125602857Y-33488380D01*
X125698095Y-33536000D01*
X125745714Y-33583619D01*
X125793333Y-33678857D01*
X125793333Y-33774095D01*
X125745714Y-33916952D01*
X125174285Y-34488380D01*
X125793333Y-34488380D01*
%TO.C,SW1*%
X104600476Y-50236380D02*
X104600476Y-49236380D01*
X104933809Y-49950666D01*
X105267142Y-49236380D01*
X105267142Y-50236380D01*
X106267142Y-50236380D02*
X105695714Y-50236380D01*
X105981428Y-50236380D02*
X105981428Y-49236380D01*
X105886190Y-49379238D01*
X105790952Y-49474476D01*
X105695714Y-49522095D01*
X104076666Y-34440761D02*
X104219523Y-34488380D01*
X104457619Y-34488380D01*
X104552857Y-34440761D01*
X104600476Y-34393142D01*
X104648095Y-34297904D01*
X104648095Y-34202666D01*
X104600476Y-34107428D01*
X104552857Y-34059809D01*
X104457619Y-34012190D01*
X104267142Y-33964571D01*
X104171904Y-33916952D01*
X104124285Y-33869333D01*
X104076666Y-33774095D01*
X104076666Y-33678857D01*
X104124285Y-33583619D01*
X104171904Y-33536000D01*
X104267142Y-33488380D01*
X104505238Y-33488380D01*
X104648095Y-33536000D01*
X104981428Y-33488380D02*
X105219523Y-34488380D01*
X105410000Y-33774095D01*
X105600476Y-34488380D01*
X105838571Y-33488380D01*
X106743333Y-34488380D02*
X106171904Y-34488380D01*
X106457619Y-34488380D02*
X106457619Y-33488380D01*
X106362380Y-33631238D01*
X106267142Y-33726476D01*
X106171904Y-33774095D01*
%TO.C,SW14*%
X213528571Y-43734285D02*
X213528571Y-43400952D01*
X214052380Y-43258095D02*
X214052380Y-43734285D01*
X213052380Y-43734285D01*
X213052380Y-43258095D01*
X214052380Y-42829523D02*
X213052380Y-42829523D01*
X214052380Y-42258095D01*
X213052380Y-42258095D01*
X213957142Y-41210476D02*
X214004761Y-41258095D01*
X214052380Y-41400952D01*
X214052380Y-41496190D01*
X214004761Y-41639047D01*
X213909523Y-41734285D01*
X213814285Y-41781904D01*
X213623809Y-41829523D01*
X213480952Y-41829523D01*
X213290476Y-41781904D01*
X213195238Y-41734285D01*
X213100000Y-41639047D01*
X213052380Y-41496190D01*
X213052380Y-41400952D01*
X213100000Y-41258095D01*
X213147619Y-41210476D01*
X213052380Y-40591428D02*
X213052380Y-40400952D01*
X213100000Y-40305714D01*
X213195238Y-40210476D01*
X213385714Y-40162857D01*
X213719047Y-40162857D01*
X213909523Y-40210476D01*
X214004761Y-40305714D01*
X214052380Y-40400952D01*
X214052380Y-40591428D01*
X214004761Y-40686666D01*
X213909523Y-40781904D01*
X213719047Y-40829523D01*
X213385714Y-40829523D01*
X213195238Y-40781904D01*
X213100000Y-40686666D01*
X213052380Y-40591428D01*
X214052380Y-39734285D02*
X213052380Y-39734285D01*
X213052380Y-39496190D01*
X213100000Y-39353333D01*
X213195238Y-39258095D01*
X213290476Y-39210476D01*
X213480952Y-39162857D01*
X213623809Y-39162857D01*
X213814285Y-39210476D01*
X213909523Y-39258095D01*
X214004761Y-39353333D01*
X214052380Y-39496190D01*
X214052380Y-39734285D01*
X213528571Y-38734285D02*
X213528571Y-38400952D01*
X214052380Y-38258095D02*
X214052380Y-38734285D01*
X213052380Y-38734285D01*
X213052380Y-38258095D01*
X214052380Y-37258095D02*
X213576190Y-37591428D01*
X214052380Y-37829523D02*
X213052380Y-37829523D01*
X213052380Y-37448571D01*
X213100000Y-37353333D01*
X213147619Y-37305714D01*
X213242857Y-37258095D01*
X213385714Y-37258095D01*
X213480952Y-37305714D01*
X213528571Y-37353333D01*
X213576190Y-37448571D01*
X213576190Y-37829523D01*
X217804761Y-46329523D02*
X217852380Y-46186666D01*
X217852380Y-45948571D01*
X217804761Y-45853333D01*
X217757142Y-45805714D01*
X217661904Y-45758095D01*
X217566666Y-45758095D01*
X217471428Y-45805714D01*
X217423809Y-45853333D01*
X217376190Y-45948571D01*
X217328571Y-46139047D01*
X217280952Y-46234285D01*
X217233333Y-46281904D01*
X217138095Y-46329523D01*
X217042857Y-46329523D01*
X216947619Y-46281904D01*
X216900000Y-46234285D01*
X216852380Y-46139047D01*
X216852380Y-45900952D01*
X216900000Y-45758095D01*
X216852380Y-45424761D02*
X217852380Y-45186666D01*
X217138095Y-44996190D01*
X217852380Y-44805714D01*
X216852380Y-44567619D01*
X217852380Y-43662857D02*
X217852380Y-44234285D01*
X217852380Y-43948571D02*
X216852380Y-43948571D01*
X216995238Y-44043809D01*
X217090476Y-44139047D01*
X217138095Y-44234285D01*
X217185714Y-42805714D02*
X217852380Y-42805714D01*
X216804761Y-43043809D02*
X217519047Y-43281904D01*
X217519047Y-42662857D01*
%TD*%
M02*
