%TF.GenerationSoftware,KiCad,Pcbnew,(5.1.10)-1*%
%TF.CreationDate,2021-12-19T12:14:16+01:00*%
%TF.ProjectId,KiCadPCB,4b694361-6450-4434-922e-6b696361645f,rev?*%
%TF.SameCoordinates,Original*%
%TF.FileFunction,Profile,NP*%
%FSLAX46Y46*%
G04 Gerber Fmt 4.6, Leading zero omitted, Abs format (unit mm)*
G04 Created by KiCad (PCBNEW (5.1.10)-1) date 2021-12-19 12:14:16*
%MOMM*%
%LPD*%
G01*
G04 APERTURE LIST*
%TA.AperFunction,Profile*%
%ADD10C,0.050000*%
%TD*%
G04 APERTURE END LIST*
D10*
X203835000Y-24130000D02*
X203200000Y-24130000D01*
X205740000Y-26035000D02*
X203835000Y-24130000D01*
X103505000Y-24130000D02*
X203200000Y-24130000D01*
X102870000Y-24765000D02*
X103505000Y-24130000D01*
X101600000Y-26035000D02*
X102870000Y-24765000D01*
X208915000Y-73025000D02*
X210820000Y-71120000D01*
X205740000Y-73025000D02*
X208915000Y-73025000D01*
X98425000Y-73025000D02*
X205740000Y-73025000D01*
X96520000Y-71120000D02*
X98425000Y-73025000D01*
X83185000Y-31115000D02*
X82550000Y-31115000D01*
X83820000Y-33020000D02*
X83185000Y-31115000D01*
X92075000Y-31115000D02*
X96520000Y-31115000D01*
X91440000Y-33020000D02*
X92075000Y-31115000D01*
X82550000Y-31115000D02*
X81915000Y-31115000D01*
X81915000Y-31115000D02*
X80010000Y-31115000D01*
X83820000Y-33020000D02*
X90805000Y-33020000D01*
X90805000Y-33020000D02*
X91440000Y-33020000D01*
X210820000Y-71120000D02*
X227330000Y-71120000D01*
X80010000Y-71120000D02*
X96520000Y-71120000D01*
X229870000Y-33655000D02*
X229870000Y-68580000D01*
X210820000Y-31115000D02*
X227330000Y-31115000D01*
X205740000Y-26035000D02*
X210820000Y-31115000D01*
X96520000Y-31115000D02*
X101600000Y-26035000D01*
X77470000Y-68580000D02*
X77470000Y-33655000D01*
X229870000Y-68580000D02*
G75*
G02*
X227330000Y-71120000I-2540000J0D01*
G01*
X227330000Y-31115000D02*
G75*
G02*
X229870000Y-33655000I0J-2540000D01*
G01*
X80010000Y-71120000D02*
G75*
G02*
X77470000Y-68580000I0J2540000D01*
G01*
X77470000Y-33655000D02*
G75*
G02*
X80010000Y-31115000I2540000J0D01*
G01*
M02*
