%TF.GenerationSoftware,KiCad,Pcbnew,(5.1.10)-1*%
%TF.CreationDate,2021-12-19T12:17:38+01:00*%
%TF.ProjectId,KiCadPCB,4b694361-6450-4434-922e-6b696361645f,rev?*%
%TF.SameCoordinates,Original*%
%TF.FileFunction,Legend,Top*%
%TF.FilePolarity,Positive*%
%FSLAX46Y46*%
G04 Gerber Fmt 4.6, Leading zero omitted, Abs format (unit mm)*
G04 Created by KiCad (PCBNEW (5.1.10)-1) date 2021-12-19 12:17:38*
%MOMM*%
%LPD*%
G01*
G04 APERTURE LIST*
%ADD10C,0.500000*%
%ADD11C,0.120000*%
%ADD12C,0.150000*%
G04 APERTURE END LIST*
D10*
X113696755Y-29749523D02*
X112268184Y-29749523D01*
X112768184Y-25749523D01*
X115863422Y-29559047D02*
X115553898Y-29749523D01*
X114982470Y-29749523D01*
X114720565Y-29559047D01*
X114625327Y-29178095D01*
X114815803Y-27654285D01*
X115006279Y-27273333D01*
X115315803Y-27082857D01*
X115887232Y-27082857D01*
X116149136Y-27273333D01*
X116244375Y-27654285D01*
X116196755Y-28035238D01*
X114720565Y-28416190D01*
X120815803Y-27654285D02*
X119815803Y-27654285D01*
X119553898Y-29749523D02*
X120053898Y-25749523D01*
X121482470Y-25749523D01*
X122125327Y-29749523D02*
X122458660Y-27082857D01*
X122625327Y-25749523D02*
X122458660Y-25940000D01*
X122577708Y-26130476D01*
X122744375Y-25940000D01*
X122625327Y-25749523D01*
X122577708Y-26130476D01*
X123434851Y-29559047D02*
X123696755Y-29749523D01*
X124268184Y-29749523D01*
X124577708Y-29559047D01*
X124768184Y-29178095D01*
X124791994Y-28987619D01*
X124696755Y-28606666D01*
X124434851Y-28416190D01*
X124006279Y-28416190D01*
X123744375Y-28225714D01*
X123649136Y-27844761D01*
X123672946Y-27654285D01*
X123863422Y-27273333D01*
X124172946Y-27082857D01*
X124601517Y-27082857D01*
X124863422Y-27273333D01*
X125982470Y-29749523D02*
X126482470Y-25749523D01*
X127268184Y-29749523D02*
X127530089Y-27654285D01*
X127434851Y-27273333D01*
X127172946Y-27082857D01*
X126744375Y-27082857D01*
X126434851Y-27273333D01*
X126268184Y-27463809D01*
X129863422Y-29559047D02*
X129553898Y-29749523D01*
X128982470Y-29749523D01*
X128720565Y-29559047D01*
X128625327Y-29178095D01*
X128815803Y-27654285D01*
X129006279Y-27273333D01*
X129315803Y-27082857D01*
X129887232Y-27082857D01*
X130149136Y-27273333D01*
X130244375Y-27654285D01*
X130196755Y-28035238D01*
X128720565Y-28416190D01*
X134839613Y-29749523D02*
X135101517Y-27654285D01*
X135006279Y-27273333D01*
X134744375Y-27082857D01*
X134172946Y-27082857D01*
X133863422Y-27273333D01*
X134863422Y-29559047D02*
X134553898Y-29749523D01*
X133839613Y-29749523D01*
X133577708Y-29559047D01*
X133482470Y-29178095D01*
X133530089Y-28797142D01*
X133720565Y-28416190D01*
X134030089Y-28225714D01*
X134744375Y-28225714D01*
X135053898Y-28035238D01*
X137887232Y-27082857D02*
X137553898Y-29749523D01*
X136601517Y-27082857D02*
X136339613Y-29178095D01*
X136434851Y-29559047D01*
X136696755Y-29749523D01*
X137125327Y-29749523D01*
X137434851Y-29559047D01*
X137601517Y-29368571D01*
X141268184Y-29749523D02*
X141768184Y-25749523D01*
X142411041Y-28606666D01*
X143768184Y-25749523D01*
X143268184Y-29749523D01*
X145982470Y-29749523D02*
X146244375Y-27654285D01*
X146149136Y-27273333D01*
X145887232Y-27082857D01*
X145315803Y-27082857D01*
X145006279Y-27273333D01*
X146006279Y-29559047D02*
X145696755Y-29749523D01*
X144982470Y-29749523D01*
X144720565Y-29559047D01*
X144625327Y-29178095D01*
X144672946Y-28797142D01*
X144863422Y-28416190D01*
X145172946Y-28225714D01*
X145887232Y-28225714D01*
X146196755Y-28035238D01*
X148720565Y-29559047D02*
X148411041Y-29749523D01*
X147839613Y-29749523D01*
X147577708Y-29559047D01*
X147458660Y-29368571D01*
X147363422Y-28987619D01*
X147506279Y-27844761D01*
X147696755Y-27463809D01*
X147863422Y-27273333D01*
X148172946Y-27082857D01*
X148744375Y-27082857D01*
X149006279Y-27273333D01*
X149982470Y-29749523D02*
X150315803Y-27082857D01*
X150220565Y-27844761D02*
X150411041Y-27463809D01*
X150577708Y-27273333D01*
X150887232Y-27082857D01*
X151172946Y-27082857D01*
X152268184Y-29749523D02*
X152006279Y-29559047D01*
X151887232Y-29368571D01*
X151791994Y-28987619D01*
X151934851Y-27844761D01*
X152125327Y-27463809D01*
X152291994Y-27273333D01*
X152601517Y-27082857D01*
X153030089Y-27082857D01*
X153291994Y-27273333D01*
X153411041Y-27463809D01*
X153506279Y-27844761D01*
X153363422Y-28987619D01*
X153172946Y-29368571D01*
X153006279Y-29559047D01*
X152696755Y-29749523D01*
X152268184Y-29749523D01*
X154887232Y-27082857D02*
X154387232Y-31082857D01*
X154863422Y-27273333D02*
X155172946Y-27082857D01*
X155744375Y-27082857D01*
X156006279Y-27273333D01*
X156125327Y-27463809D01*
X156220565Y-27844761D01*
X156077708Y-28987619D01*
X155887232Y-29368571D01*
X155720565Y-29559047D01*
X155411041Y-29749523D01*
X154839613Y-29749523D01*
X154577708Y-29559047D01*
X158553898Y-29749523D02*
X158815803Y-27654285D01*
X158720565Y-27273333D01*
X158458660Y-27082857D01*
X157887232Y-27082857D01*
X157577708Y-27273333D01*
X158577708Y-29559047D02*
X158268184Y-29749523D01*
X157553898Y-29749523D01*
X157291994Y-29559047D01*
X157196755Y-29178095D01*
X157244375Y-28797142D01*
X157434851Y-28416190D01*
X157744375Y-28225714D01*
X158458660Y-28225714D01*
X158768184Y-28035238D01*
X161268184Y-29749523D02*
X161768184Y-25749523D01*
X161291994Y-29559047D02*
X160982470Y-29749523D01*
X160411041Y-29749523D01*
X160149136Y-29559047D01*
X160030089Y-29368571D01*
X159934851Y-28987619D01*
X160077708Y-27844761D01*
X160268184Y-27463809D01*
X160434851Y-27273333D01*
X160744375Y-27082857D01*
X161315803Y-27082857D01*
X161577708Y-27273333D01*
D11*
%TO.C,D14*%
X213745000Y-49045000D02*
X213745000Y-51285000D01*
X213985000Y-49045000D02*
X213985000Y-51285000D01*
X213865000Y-49045000D02*
X213865000Y-51285000D01*
X218035000Y-50165000D02*
X217385000Y-50165000D01*
X212495000Y-50165000D02*
X213145000Y-50165000D01*
X217385000Y-49045000D02*
X213145000Y-49045000D01*
X217385000Y-51285000D02*
X217385000Y-49045000D01*
X213145000Y-51285000D02*
X217385000Y-51285000D01*
X213145000Y-49045000D02*
X213145000Y-51285000D01*
%TO.C,D13*%
X218190000Y-68095000D02*
X218190000Y-70335000D01*
X218430000Y-68095000D02*
X218430000Y-70335000D01*
X218310000Y-68095000D02*
X218310000Y-70335000D01*
X222480000Y-69215000D02*
X221830000Y-69215000D01*
X216940000Y-69215000D02*
X217590000Y-69215000D01*
X221830000Y-68095000D02*
X217590000Y-68095000D01*
X221830000Y-70335000D02*
X221830000Y-68095000D01*
X217590000Y-70335000D02*
X221830000Y-70335000D01*
X217590000Y-68095000D02*
X217590000Y-70335000D01*
%TO.C,D12*%
X199140000Y-68095000D02*
X199140000Y-70335000D01*
X199380000Y-68095000D02*
X199380000Y-70335000D01*
X199260000Y-68095000D02*
X199260000Y-70335000D01*
X203430000Y-69215000D02*
X202780000Y-69215000D01*
X197890000Y-69215000D02*
X198540000Y-69215000D01*
X202780000Y-68095000D02*
X198540000Y-68095000D01*
X202780000Y-70335000D02*
X202780000Y-68095000D01*
X198540000Y-70335000D02*
X202780000Y-70335000D01*
X198540000Y-68095000D02*
X198540000Y-70335000D01*
%TO.C,D11*%
X180090000Y-68095000D02*
X180090000Y-70335000D01*
X180330000Y-68095000D02*
X180330000Y-70335000D01*
X180210000Y-68095000D02*
X180210000Y-70335000D01*
X184380000Y-69215000D02*
X183730000Y-69215000D01*
X178840000Y-69215000D02*
X179490000Y-69215000D01*
X183730000Y-68095000D02*
X179490000Y-68095000D01*
X183730000Y-70335000D02*
X183730000Y-68095000D01*
X179490000Y-70335000D02*
X183730000Y-70335000D01*
X179490000Y-68095000D02*
X179490000Y-70335000D01*
%TO.C,D10*%
X161040000Y-68095000D02*
X161040000Y-70335000D01*
X161280000Y-68095000D02*
X161280000Y-70335000D01*
X161160000Y-68095000D02*
X161160000Y-70335000D01*
X165330000Y-69215000D02*
X164680000Y-69215000D01*
X159790000Y-69215000D02*
X160440000Y-69215000D01*
X164680000Y-68095000D02*
X160440000Y-68095000D01*
X164680000Y-70335000D02*
X164680000Y-68095000D01*
X160440000Y-70335000D02*
X164680000Y-70335000D01*
X160440000Y-68095000D02*
X160440000Y-70335000D01*
%TO.C,D9*%
X141990000Y-68095000D02*
X141990000Y-70335000D01*
X142230000Y-68095000D02*
X142230000Y-70335000D01*
X142110000Y-68095000D02*
X142110000Y-70335000D01*
X146280000Y-69215000D02*
X145630000Y-69215000D01*
X140740000Y-69215000D02*
X141390000Y-69215000D01*
X145630000Y-68095000D02*
X141390000Y-68095000D01*
X145630000Y-70335000D02*
X145630000Y-68095000D01*
X141390000Y-70335000D02*
X145630000Y-70335000D01*
X141390000Y-68095000D02*
X141390000Y-70335000D01*
%TO.C,D8*%
X122940000Y-68095000D02*
X122940000Y-70335000D01*
X123180000Y-68095000D02*
X123180000Y-70335000D01*
X123060000Y-68095000D02*
X123060000Y-70335000D01*
X127230000Y-69215000D02*
X126580000Y-69215000D01*
X121690000Y-69215000D02*
X122340000Y-69215000D01*
X126580000Y-68095000D02*
X122340000Y-68095000D01*
X126580000Y-70335000D02*
X126580000Y-68095000D01*
X122340000Y-70335000D02*
X126580000Y-70335000D01*
X122340000Y-68095000D02*
X122340000Y-70335000D01*
%TO.C,D7*%
X103890000Y-68095000D02*
X103890000Y-70335000D01*
X104130000Y-68095000D02*
X104130000Y-70335000D01*
X104010000Y-68095000D02*
X104010000Y-70335000D01*
X108180000Y-69215000D02*
X107530000Y-69215000D01*
X102640000Y-69215000D02*
X103290000Y-69215000D01*
X107530000Y-68095000D02*
X103290000Y-68095000D01*
X107530000Y-70335000D02*
X107530000Y-68095000D01*
X103290000Y-70335000D02*
X107530000Y-70335000D01*
X103290000Y-68095000D02*
X103290000Y-70335000D01*
%TO.C,D6*%
X199140000Y-49045000D02*
X199140000Y-51285000D01*
X199380000Y-49045000D02*
X199380000Y-51285000D01*
X199260000Y-49045000D02*
X199260000Y-51285000D01*
X203430000Y-50165000D02*
X202780000Y-50165000D01*
X197890000Y-50165000D02*
X198540000Y-50165000D01*
X202780000Y-49045000D02*
X198540000Y-49045000D01*
X202780000Y-51285000D02*
X202780000Y-49045000D01*
X198540000Y-51285000D02*
X202780000Y-51285000D01*
X198540000Y-49045000D02*
X198540000Y-51285000D01*
%TO.C,D5*%
X180090000Y-49045000D02*
X180090000Y-51285000D01*
X180330000Y-49045000D02*
X180330000Y-51285000D01*
X180210000Y-49045000D02*
X180210000Y-51285000D01*
X184380000Y-50165000D02*
X183730000Y-50165000D01*
X178840000Y-50165000D02*
X179490000Y-50165000D01*
X183730000Y-49045000D02*
X179490000Y-49045000D01*
X183730000Y-51285000D02*
X183730000Y-49045000D01*
X179490000Y-51285000D02*
X183730000Y-51285000D01*
X179490000Y-49045000D02*
X179490000Y-51285000D01*
%TO.C,D4*%
X161040000Y-49045000D02*
X161040000Y-51285000D01*
X161280000Y-49045000D02*
X161280000Y-51285000D01*
X161160000Y-49045000D02*
X161160000Y-51285000D01*
X165330000Y-50165000D02*
X164680000Y-50165000D01*
X159790000Y-50165000D02*
X160440000Y-50165000D01*
X164680000Y-49045000D02*
X160440000Y-49045000D01*
X164680000Y-51285000D02*
X164680000Y-49045000D01*
X160440000Y-51285000D02*
X164680000Y-51285000D01*
X160440000Y-49045000D02*
X160440000Y-51285000D01*
%TO.C,D3*%
X141990000Y-49045000D02*
X141990000Y-51285000D01*
X142230000Y-49045000D02*
X142230000Y-51285000D01*
X142110000Y-49045000D02*
X142110000Y-51285000D01*
X146280000Y-50165000D02*
X145630000Y-50165000D01*
X140740000Y-50165000D02*
X141390000Y-50165000D01*
X145630000Y-49045000D02*
X141390000Y-49045000D01*
X145630000Y-51285000D02*
X145630000Y-49045000D01*
X141390000Y-51285000D02*
X145630000Y-51285000D01*
X141390000Y-49045000D02*
X141390000Y-51285000D01*
%TO.C,D2*%
X122940000Y-49045000D02*
X122940000Y-51285000D01*
X123180000Y-49045000D02*
X123180000Y-51285000D01*
X123060000Y-49045000D02*
X123060000Y-51285000D01*
X127230000Y-50165000D02*
X126580000Y-50165000D01*
X121690000Y-50165000D02*
X122340000Y-50165000D01*
X126580000Y-49045000D02*
X122340000Y-49045000D01*
X126580000Y-51285000D02*
X126580000Y-49045000D01*
X122340000Y-51285000D02*
X126580000Y-51285000D01*
X122340000Y-49045000D02*
X122340000Y-51285000D01*
%TO.C,D1*%
X103890000Y-49045000D02*
X103890000Y-51285000D01*
X104130000Y-49045000D02*
X104130000Y-51285000D01*
X104010000Y-49045000D02*
X104010000Y-51285000D01*
X108180000Y-50165000D02*
X107530000Y-50165000D01*
X102640000Y-50165000D02*
X103290000Y-50165000D01*
X107530000Y-49045000D02*
X103290000Y-49045000D01*
X107530000Y-51285000D02*
X107530000Y-49045000D01*
X103290000Y-51285000D02*
X107530000Y-51285000D01*
X103290000Y-49045000D02*
X103290000Y-51285000D01*
%TO.C,SW13*%
X212725000Y-67945000D02*
X212725000Y-53975000D01*
X226695000Y-67945000D02*
X212725000Y-67945000D01*
X226695000Y-53975000D02*
X226695000Y-67945000D01*
X212725000Y-53975000D02*
X226695000Y-53975000D01*
%TO.C,SW12*%
X193675000Y-67945000D02*
X193675000Y-53975000D01*
X207645000Y-67945000D02*
X193675000Y-67945000D01*
X207645000Y-53975000D02*
X207645000Y-67945000D01*
X193675000Y-53975000D02*
X207645000Y-53975000D01*
%TO.C,SW11*%
X174625000Y-67945000D02*
X174625000Y-53975000D01*
X188595000Y-67945000D02*
X174625000Y-67945000D01*
X188595000Y-53975000D02*
X188595000Y-67945000D01*
X174625000Y-53975000D02*
X188595000Y-53975000D01*
%TO.C,SW10*%
X155575000Y-67945000D02*
X155575000Y-53975000D01*
X169545000Y-67945000D02*
X155575000Y-67945000D01*
X169545000Y-53975000D02*
X169545000Y-67945000D01*
X155575000Y-53975000D02*
X169545000Y-53975000D01*
%TO.C,SW9*%
X136525000Y-67945000D02*
X136525000Y-53975000D01*
X150495000Y-67945000D02*
X136525000Y-67945000D01*
X150495000Y-53975000D02*
X150495000Y-67945000D01*
X136525000Y-53975000D02*
X150495000Y-53975000D01*
%TO.C,SW8*%
X117475000Y-67945000D02*
X117475000Y-53975000D01*
X131445000Y-67945000D02*
X117475000Y-67945000D01*
X131445000Y-53975000D02*
X131445000Y-67945000D01*
X117475000Y-53975000D02*
X131445000Y-53975000D01*
%TO.C,SW7*%
X98425000Y-67945000D02*
X98425000Y-53975000D01*
X112395000Y-67945000D02*
X98425000Y-67945000D01*
X112395000Y-53975000D02*
X112395000Y-67945000D01*
X98425000Y-53975000D02*
X112395000Y-53975000D01*
%TO.C,SW6*%
X193675000Y-48895000D02*
X193675000Y-34925000D01*
X207645000Y-48895000D02*
X193675000Y-48895000D01*
X207645000Y-34925000D02*
X207645000Y-48895000D01*
X193675000Y-34925000D02*
X207645000Y-34925000D01*
%TO.C,SW5*%
X174625000Y-48895000D02*
X174625000Y-34925000D01*
X188595000Y-48895000D02*
X174625000Y-48895000D01*
X188595000Y-34925000D02*
X188595000Y-48895000D01*
X174625000Y-34925000D02*
X188595000Y-34925000D01*
%TO.C,SW4*%
X155575000Y-48895000D02*
X155575000Y-34925000D01*
X169545000Y-48895000D02*
X155575000Y-48895000D01*
X169545000Y-34925000D02*
X169545000Y-48895000D01*
X155575000Y-34925000D02*
X169545000Y-34925000D01*
%TO.C,SW3*%
X136525000Y-48895000D02*
X136525000Y-34925000D01*
X150495000Y-48895000D02*
X136525000Y-48895000D01*
X150495000Y-34925000D02*
X150495000Y-48895000D01*
X136525000Y-34925000D02*
X150495000Y-34925000D01*
%TO.C,SW2*%
X117475000Y-48895000D02*
X117475000Y-34925000D01*
X131445000Y-48895000D02*
X117475000Y-48895000D01*
X131445000Y-34925000D02*
X131445000Y-48895000D01*
X117475000Y-34925000D02*
X131445000Y-34925000D01*
%TO.C,SW1*%
X98425000Y-48895000D02*
X98425000Y-34925000D01*
X112395000Y-48895000D02*
X98425000Y-48895000D01*
X112395000Y-34925000D02*
X112395000Y-48895000D01*
X98425000Y-34925000D02*
X112395000Y-34925000D01*
%TO.C,SW14*%
X224500000Y-40520000D02*
G75*
G03*
X224500000Y-40520000I-3000000J0D01*
G01*
X227800000Y-42320000D02*
X227800000Y-47220000D01*
X215200000Y-47220000D02*
X215200000Y-42320000D01*
X215200000Y-38720000D02*
X215200000Y-33820000D01*
X215200000Y-33820000D02*
X218000000Y-33820000D01*
X227800000Y-38620000D02*
X227800000Y-33820000D01*
X227800000Y-33820000D02*
X225300000Y-33820000D01*
X225300000Y-33020000D02*
X225600000Y-32720000D01*
X225600000Y-32720000D02*
X225600000Y-33320000D01*
X225600000Y-33320000D02*
X225300000Y-33020000D01*
X227800000Y-47220000D02*
X225200000Y-47220000D01*
X222800000Y-47220000D02*
X220200000Y-47220000D01*
X217800000Y-47220000D02*
X215200000Y-47220000D01*
X222000000Y-40520000D02*
X221000000Y-40520000D01*
X221500000Y-40020000D02*
X221500000Y-41020000D01*
%TO.C,D14*%
D12*
X214050714Y-48497380D02*
X214050714Y-47497380D01*
X214288809Y-47497380D01*
X214431666Y-47545000D01*
X214526904Y-47640238D01*
X214574523Y-47735476D01*
X214622142Y-47925952D01*
X214622142Y-48068809D01*
X214574523Y-48259285D01*
X214526904Y-48354523D01*
X214431666Y-48449761D01*
X214288809Y-48497380D01*
X214050714Y-48497380D01*
X215574523Y-48497380D02*
X215003095Y-48497380D01*
X215288809Y-48497380D02*
X215288809Y-47497380D01*
X215193571Y-47640238D01*
X215098333Y-47735476D01*
X215003095Y-47783095D01*
X216431666Y-47830714D02*
X216431666Y-48497380D01*
X216193571Y-47449761D02*
X215955476Y-48164047D01*
X216574523Y-48164047D01*
X211193095Y-48817380D02*
X211193095Y-47817380D01*
X211764523Y-48817380D02*
X211335952Y-48245952D01*
X211764523Y-47817380D02*
X211193095Y-48388809D01*
%TO.C,D13*%
X218495714Y-67547380D02*
X218495714Y-66547380D01*
X218733809Y-66547380D01*
X218876666Y-66595000D01*
X218971904Y-66690238D01*
X219019523Y-66785476D01*
X219067142Y-66975952D01*
X219067142Y-67118809D01*
X219019523Y-67309285D01*
X218971904Y-67404523D01*
X218876666Y-67499761D01*
X218733809Y-67547380D01*
X218495714Y-67547380D01*
X220019523Y-67547380D02*
X219448095Y-67547380D01*
X219733809Y-67547380D02*
X219733809Y-66547380D01*
X219638571Y-66690238D01*
X219543333Y-66785476D01*
X219448095Y-66833095D01*
X220352857Y-66547380D02*
X220971904Y-66547380D01*
X220638571Y-66928333D01*
X220781428Y-66928333D01*
X220876666Y-66975952D01*
X220924285Y-67023571D01*
X220971904Y-67118809D01*
X220971904Y-67356904D01*
X220924285Y-67452142D01*
X220876666Y-67499761D01*
X220781428Y-67547380D01*
X220495714Y-67547380D01*
X220400476Y-67499761D01*
X220352857Y-67452142D01*
X215638095Y-67867380D02*
X215638095Y-66867380D01*
X216209523Y-67867380D02*
X215780952Y-67295952D01*
X216209523Y-66867380D02*
X215638095Y-67438809D01*
%TO.C,D12*%
X199445714Y-67547380D02*
X199445714Y-66547380D01*
X199683809Y-66547380D01*
X199826666Y-66595000D01*
X199921904Y-66690238D01*
X199969523Y-66785476D01*
X200017142Y-66975952D01*
X200017142Y-67118809D01*
X199969523Y-67309285D01*
X199921904Y-67404523D01*
X199826666Y-67499761D01*
X199683809Y-67547380D01*
X199445714Y-67547380D01*
X200969523Y-67547380D02*
X200398095Y-67547380D01*
X200683809Y-67547380D02*
X200683809Y-66547380D01*
X200588571Y-66690238D01*
X200493333Y-66785476D01*
X200398095Y-66833095D01*
X201350476Y-66642619D02*
X201398095Y-66595000D01*
X201493333Y-66547380D01*
X201731428Y-66547380D01*
X201826666Y-66595000D01*
X201874285Y-66642619D01*
X201921904Y-66737857D01*
X201921904Y-66833095D01*
X201874285Y-66975952D01*
X201302857Y-67547380D01*
X201921904Y-67547380D01*
X196588095Y-67867380D02*
X196588095Y-66867380D01*
X197159523Y-67867380D02*
X196730952Y-67295952D01*
X197159523Y-66867380D02*
X196588095Y-67438809D01*
%TO.C,D11*%
X180395714Y-67547380D02*
X180395714Y-66547380D01*
X180633809Y-66547380D01*
X180776666Y-66595000D01*
X180871904Y-66690238D01*
X180919523Y-66785476D01*
X180967142Y-66975952D01*
X180967142Y-67118809D01*
X180919523Y-67309285D01*
X180871904Y-67404523D01*
X180776666Y-67499761D01*
X180633809Y-67547380D01*
X180395714Y-67547380D01*
X181919523Y-67547380D02*
X181348095Y-67547380D01*
X181633809Y-67547380D02*
X181633809Y-66547380D01*
X181538571Y-66690238D01*
X181443333Y-66785476D01*
X181348095Y-66833095D01*
X182871904Y-67547380D02*
X182300476Y-67547380D01*
X182586190Y-67547380D02*
X182586190Y-66547380D01*
X182490952Y-66690238D01*
X182395714Y-66785476D01*
X182300476Y-66833095D01*
X177538095Y-67867380D02*
X177538095Y-66867380D01*
X178109523Y-67867380D02*
X177680952Y-67295952D01*
X178109523Y-66867380D02*
X177538095Y-67438809D01*
%TO.C,D10*%
X161345714Y-67547380D02*
X161345714Y-66547380D01*
X161583809Y-66547380D01*
X161726666Y-66595000D01*
X161821904Y-66690238D01*
X161869523Y-66785476D01*
X161917142Y-66975952D01*
X161917142Y-67118809D01*
X161869523Y-67309285D01*
X161821904Y-67404523D01*
X161726666Y-67499761D01*
X161583809Y-67547380D01*
X161345714Y-67547380D01*
X162869523Y-67547380D02*
X162298095Y-67547380D01*
X162583809Y-67547380D02*
X162583809Y-66547380D01*
X162488571Y-66690238D01*
X162393333Y-66785476D01*
X162298095Y-66833095D01*
X163488571Y-66547380D02*
X163583809Y-66547380D01*
X163679047Y-66595000D01*
X163726666Y-66642619D01*
X163774285Y-66737857D01*
X163821904Y-66928333D01*
X163821904Y-67166428D01*
X163774285Y-67356904D01*
X163726666Y-67452142D01*
X163679047Y-67499761D01*
X163583809Y-67547380D01*
X163488571Y-67547380D01*
X163393333Y-67499761D01*
X163345714Y-67452142D01*
X163298095Y-67356904D01*
X163250476Y-67166428D01*
X163250476Y-66928333D01*
X163298095Y-66737857D01*
X163345714Y-66642619D01*
X163393333Y-66595000D01*
X163488571Y-66547380D01*
X158488095Y-67867380D02*
X158488095Y-66867380D01*
X159059523Y-67867380D02*
X158630952Y-67295952D01*
X159059523Y-66867380D02*
X158488095Y-67438809D01*
%TO.C,D9*%
X142771904Y-67547380D02*
X142771904Y-66547380D01*
X143010000Y-66547380D01*
X143152857Y-66595000D01*
X143248095Y-66690238D01*
X143295714Y-66785476D01*
X143343333Y-66975952D01*
X143343333Y-67118809D01*
X143295714Y-67309285D01*
X143248095Y-67404523D01*
X143152857Y-67499761D01*
X143010000Y-67547380D01*
X142771904Y-67547380D01*
X143819523Y-67547380D02*
X144010000Y-67547380D01*
X144105238Y-67499761D01*
X144152857Y-67452142D01*
X144248095Y-67309285D01*
X144295714Y-67118809D01*
X144295714Y-66737857D01*
X144248095Y-66642619D01*
X144200476Y-66595000D01*
X144105238Y-66547380D01*
X143914761Y-66547380D01*
X143819523Y-66595000D01*
X143771904Y-66642619D01*
X143724285Y-66737857D01*
X143724285Y-66975952D01*
X143771904Y-67071190D01*
X143819523Y-67118809D01*
X143914761Y-67166428D01*
X144105238Y-67166428D01*
X144200476Y-67118809D01*
X144248095Y-67071190D01*
X144295714Y-66975952D01*
X139438095Y-67867380D02*
X139438095Y-66867380D01*
X140009523Y-67867380D02*
X139580952Y-67295952D01*
X140009523Y-66867380D02*
X139438095Y-67438809D01*
%TO.C,D8*%
X123721904Y-67547380D02*
X123721904Y-66547380D01*
X123960000Y-66547380D01*
X124102857Y-66595000D01*
X124198095Y-66690238D01*
X124245714Y-66785476D01*
X124293333Y-66975952D01*
X124293333Y-67118809D01*
X124245714Y-67309285D01*
X124198095Y-67404523D01*
X124102857Y-67499761D01*
X123960000Y-67547380D01*
X123721904Y-67547380D01*
X124864761Y-66975952D02*
X124769523Y-66928333D01*
X124721904Y-66880714D01*
X124674285Y-66785476D01*
X124674285Y-66737857D01*
X124721904Y-66642619D01*
X124769523Y-66595000D01*
X124864761Y-66547380D01*
X125055238Y-66547380D01*
X125150476Y-66595000D01*
X125198095Y-66642619D01*
X125245714Y-66737857D01*
X125245714Y-66785476D01*
X125198095Y-66880714D01*
X125150476Y-66928333D01*
X125055238Y-66975952D01*
X124864761Y-66975952D01*
X124769523Y-67023571D01*
X124721904Y-67071190D01*
X124674285Y-67166428D01*
X124674285Y-67356904D01*
X124721904Y-67452142D01*
X124769523Y-67499761D01*
X124864761Y-67547380D01*
X125055238Y-67547380D01*
X125150476Y-67499761D01*
X125198095Y-67452142D01*
X125245714Y-67356904D01*
X125245714Y-67166428D01*
X125198095Y-67071190D01*
X125150476Y-67023571D01*
X125055238Y-66975952D01*
X120388095Y-67867380D02*
X120388095Y-66867380D01*
X120959523Y-67867380D02*
X120530952Y-67295952D01*
X120959523Y-66867380D02*
X120388095Y-67438809D01*
%TO.C,D7*%
X104671904Y-67547380D02*
X104671904Y-66547380D01*
X104910000Y-66547380D01*
X105052857Y-66595000D01*
X105148095Y-66690238D01*
X105195714Y-66785476D01*
X105243333Y-66975952D01*
X105243333Y-67118809D01*
X105195714Y-67309285D01*
X105148095Y-67404523D01*
X105052857Y-67499761D01*
X104910000Y-67547380D01*
X104671904Y-67547380D01*
X105576666Y-66547380D02*
X106243333Y-66547380D01*
X105814761Y-67547380D01*
X101338095Y-67867380D02*
X101338095Y-66867380D01*
X101909523Y-67867380D02*
X101480952Y-67295952D01*
X101909523Y-66867380D02*
X101338095Y-67438809D01*
%TO.C,D6*%
X199921904Y-48497380D02*
X199921904Y-47497380D01*
X200160000Y-47497380D01*
X200302857Y-47545000D01*
X200398095Y-47640238D01*
X200445714Y-47735476D01*
X200493333Y-47925952D01*
X200493333Y-48068809D01*
X200445714Y-48259285D01*
X200398095Y-48354523D01*
X200302857Y-48449761D01*
X200160000Y-48497380D01*
X199921904Y-48497380D01*
X201350476Y-47497380D02*
X201160000Y-47497380D01*
X201064761Y-47545000D01*
X201017142Y-47592619D01*
X200921904Y-47735476D01*
X200874285Y-47925952D01*
X200874285Y-48306904D01*
X200921904Y-48402142D01*
X200969523Y-48449761D01*
X201064761Y-48497380D01*
X201255238Y-48497380D01*
X201350476Y-48449761D01*
X201398095Y-48402142D01*
X201445714Y-48306904D01*
X201445714Y-48068809D01*
X201398095Y-47973571D01*
X201350476Y-47925952D01*
X201255238Y-47878333D01*
X201064761Y-47878333D01*
X200969523Y-47925952D01*
X200921904Y-47973571D01*
X200874285Y-48068809D01*
X196588095Y-48817380D02*
X196588095Y-47817380D01*
X197159523Y-48817380D02*
X196730952Y-48245952D01*
X197159523Y-47817380D02*
X196588095Y-48388809D01*
%TO.C,D5*%
X180871904Y-48497380D02*
X180871904Y-47497380D01*
X181110000Y-47497380D01*
X181252857Y-47545000D01*
X181348095Y-47640238D01*
X181395714Y-47735476D01*
X181443333Y-47925952D01*
X181443333Y-48068809D01*
X181395714Y-48259285D01*
X181348095Y-48354523D01*
X181252857Y-48449761D01*
X181110000Y-48497380D01*
X180871904Y-48497380D01*
X182348095Y-47497380D02*
X181871904Y-47497380D01*
X181824285Y-47973571D01*
X181871904Y-47925952D01*
X181967142Y-47878333D01*
X182205238Y-47878333D01*
X182300476Y-47925952D01*
X182348095Y-47973571D01*
X182395714Y-48068809D01*
X182395714Y-48306904D01*
X182348095Y-48402142D01*
X182300476Y-48449761D01*
X182205238Y-48497380D01*
X181967142Y-48497380D01*
X181871904Y-48449761D01*
X181824285Y-48402142D01*
X177538095Y-48817380D02*
X177538095Y-47817380D01*
X178109523Y-48817380D02*
X177680952Y-48245952D01*
X178109523Y-47817380D02*
X177538095Y-48388809D01*
%TO.C,D4*%
X161821904Y-48497380D02*
X161821904Y-47497380D01*
X162060000Y-47497380D01*
X162202857Y-47545000D01*
X162298095Y-47640238D01*
X162345714Y-47735476D01*
X162393333Y-47925952D01*
X162393333Y-48068809D01*
X162345714Y-48259285D01*
X162298095Y-48354523D01*
X162202857Y-48449761D01*
X162060000Y-48497380D01*
X161821904Y-48497380D01*
X163250476Y-47830714D02*
X163250476Y-48497380D01*
X163012380Y-47449761D02*
X162774285Y-48164047D01*
X163393333Y-48164047D01*
X158488095Y-48817380D02*
X158488095Y-47817380D01*
X159059523Y-48817380D02*
X158630952Y-48245952D01*
X159059523Y-47817380D02*
X158488095Y-48388809D01*
%TO.C,D3*%
X142771904Y-48497380D02*
X142771904Y-47497380D01*
X143010000Y-47497380D01*
X143152857Y-47545000D01*
X143248095Y-47640238D01*
X143295714Y-47735476D01*
X143343333Y-47925952D01*
X143343333Y-48068809D01*
X143295714Y-48259285D01*
X143248095Y-48354523D01*
X143152857Y-48449761D01*
X143010000Y-48497380D01*
X142771904Y-48497380D01*
X143676666Y-47497380D02*
X144295714Y-47497380D01*
X143962380Y-47878333D01*
X144105238Y-47878333D01*
X144200476Y-47925952D01*
X144248095Y-47973571D01*
X144295714Y-48068809D01*
X144295714Y-48306904D01*
X144248095Y-48402142D01*
X144200476Y-48449761D01*
X144105238Y-48497380D01*
X143819523Y-48497380D01*
X143724285Y-48449761D01*
X143676666Y-48402142D01*
X139438095Y-48817380D02*
X139438095Y-47817380D01*
X140009523Y-48817380D02*
X139580952Y-48245952D01*
X140009523Y-47817380D02*
X139438095Y-48388809D01*
%TO.C,D2*%
X123721904Y-48497380D02*
X123721904Y-47497380D01*
X123960000Y-47497380D01*
X124102857Y-47545000D01*
X124198095Y-47640238D01*
X124245714Y-47735476D01*
X124293333Y-47925952D01*
X124293333Y-48068809D01*
X124245714Y-48259285D01*
X124198095Y-48354523D01*
X124102857Y-48449761D01*
X123960000Y-48497380D01*
X123721904Y-48497380D01*
X124674285Y-47592619D02*
X124721904Y-47545000D01*
X124817142Y-47497380D01*
X125055238Y-47497380D01*
X125150476Y-47545000D01*
X125198095Y-47592619D01*
X125245714Y-47687857D01*
X125245714Y-47783095D01*
X125198095Y-47925952D01*
X124626666Y-48497380D01*
X125245714Y-48497380D01*
X120388095Y-48817380D02*
X120388095Y-47817380D01*
X120959523Y-48817380D02*
X120530952Y-48245952D01*
X120959523Y-47817380D02*
X120388095Y-48388809D01*
%TO.C,D1*%
X104671904Y-48497380D02*
X104671904Y-47497380D01*
X104910000Y-47497380D01*
X105052857Y-47545000D01*
X105148095Y-47640238D01*
X105195714Y-47735476D01*
X105243333Y-47925952D01*
X105243333Y-48068809D01*
X105195714Y-48259285D01*
X105148095Y-48354523D01*
X105052857Y-48449761D01*
X104910000Y-48497380D01*
X104671904Y-48497380D01*
X106195714Y-48497380D02*
X105624285Y-48497380D01*
X105910000Y-48497380D02*
X105910000Y-47497380D01*
X105814761Y-47640238D01*
X105719523Y-47735476D01*
X105624285Y-47783095D01*
X101338095Y-48817380D02*
X101338095Y-47817380D01*
X101909523Y-48817380D02*
X101480952Y-48245952D01*
X101909523Y-47817380D02*
X101338095Y-48388809D01*
%TO.C,SW13*%
X217900476Y-53490761D02*
X218043333Y-53538380D01*
X218281428Y-53538380D01*
X218376666Y-53490761D01*
X218424285Y-53443142D01*
X218471904Y-53347904D01*
X218471904Y-53252666D01*
X218424285Y-53157428D01*
X218376666Y-53109809D01*
X218281428Y-53062190D01*
X218090952Y-53014571D01*
X217995714Y-52966952D01*
X217948095Y-52919333D01*
X217900476Y-52824095D01*
X217900476Y-52728857D01*
X217948095Y-52633619D01*
X217995714Y-52586000D01*
X218090952Y-52538380D01*
X218329047Y-52538380D01*
X218471904Y-52586000D01*
X218805238Y-52538380D02*
X219043333Y-53538380D01*
X219233809Y-52824095D01*
X219424285Y-53538380D01*
X219662380Y-52538380D01*
X220567142Y-53538380D02*
X219995714Y-53538380D01*
X220281428Y-53538380D02*
X220281428Y-52538380D01*
X220186190Y-52681238D01*
X220090952Y-52776476D01*
X219995714Y-52824095D01*
X220900476Y-52538380D02*
X221519523Y-52538380D01*
X221186190Y-52919333D01*
X221329047Y-52919333D01*
X221424285Y-52966952D01*
X221471904Y-53014571D01*
X221519523Y-53109809D01*
X221519523Y-53347904D01*
X221471904Y-53443142D01*
X221424285Y-53490761D01*
X221329047Y-53538380D01*
X221043333Y-53538380D01*
X220948095Y-53490761D01*
X220900476Y-53443142D01*
%TO.C,SW12*%
X198850476Y-53490761D02*
X198993333Y-53538380D01*
X199231428Y-53538380D01*
X199326666Y-53490761D01*
X199374285Y-53443142D01*
X199421904Y-53347904D01*
X199421904Y-53252666D01*
X199374285Y-53157428D01*
X199326666Y-53109809D01*
X199231428Y-53062190D01*
X199040952Y-53014571D01*
X198945714Y-52966952D01*
X198898095Y-52919333D01*
X198850476Y-52824095D01*
X198850476Y-52728857D01*
X198898095Y-52633619D01*
X198945714Y-52586000D01*
X199040952Y-52538380D01*
X199279047Y-52538380D01*
X199421904Y-52586000D01*
X199755238Y-52538380D02*
X199993333Y-53538380D01*
X200183809Y-52824095D01*
X200374285Y-53538380D01*
X200612380Y-52538380D01*
X201517142Y-53538380D02*
X200945714Y-53538380D01*
X201231428Y-53538380D02*
X201231428Y-52538380D01*
X201136190Y-52681238D01*
X201040952Y-52776476D01*
X200945714Y-52824095D01*
X201898095Y-52633619D02*
X201945714Y-52586000D01*
X202040952Y-52538380D01*
X202279047Y-52538380D01*
X202374285Y-52586000D01*
X202421904Y-52633619D01*
X202469523Y-52728857D01*
X202469523Y-52824095D01*
X202421904Y-52966952D01*
X201850476Y-53538380D01*
X202469523Y-53538380D01*
%TO.C,SW11*%
X179800476Y-53490761D02*
X179943333Y-53538380D01*
X180181428Y-53538380D01*
X180276666Y-53490761D01*
X180324285Y-53443142D01*
X180371904Y-53347904D01*
X180371904Y-53252666D01*
X180324285Y-53157428D01*
X180276666Y-53109809D01*
X180181428Y-53062190D01*
X179990952Y-53014571D01*
X179895714Y-52966952D01*
X179848095Y-52919333D01*
X179800476Y-52824095D01*
X179800476Y-52728857D01*
X179848095Y-52633619D01*
X179895714Y-52586000D01*
X179990952Y-52538380D01*
X180229047Y-52538380D01*
X180371904Y-52586000D01*
X180705238Y-52538380D02*
X180943333Y-53538380D01*
X181133809Y-52824095D01*
X181324285Y-53538380D01*
X181562380Y-52538380D01*
X182467142Y-53538380D02*
X181895714Y-53538380D01*
X182181428Y-53538380D02*
X182181428Y-52538380D01*
X182086190Y-52681238D01*
X181990952Y-52776476D01*
X181895714Y-52824095D01*
X183419523Y-53538380D02*
X182848095Y-53538380D01*
X183133809Y-53538380D02*
X183133809Y-52538380D01*
X183038571Y-52681238D01*
X182943333Y-52776476D01*
X182848095Y-52824095D01*
%TO.C,SW10*%
X160750476Y-53490761D02*
X160893333Y-53538380D01*
X161131428Y-53538380D01*
X161226666Y-53490761D01*
X161274285Y-53443142D01*
X161321904Y-53347904D01*
X161321904Y-53252666D01*
X161274285Y-53157428D01*
X161226666Y-53109809D01*
X161131428Y-53062190D01*
X160940952Y-53014571D01*
X160845714Y-52966952D01*
X160798095Y-52919333D01*
X160750476Y-52824095D01*
X160750476Y-52728857D01*
X160798095Y-52633619D01*
X160845714Y-52586000D01*
X160940952Y-52538380D01*
X161179047Y-52538380D01*
X161321904Y-52586000D01*
X161655238Y-52538380D02*
X161893333Y-53538380D01*
X162083809Y-52824095D01*
X162274285Y-53538380D01*
X162512380Y-52538380D01*
X163417142Y-53538380D02*
X162845714Y-53538380D01*
X163131428Y-53538380D02*
X163131428Y-52538380D01*
X163036190Y-52681238D01*
X162940952Y-52776476D01*
X162845714Y-52824095D01*
X164036190Y-52538380D02*
X164131428Y-52538380D01*
X164226666Y-52586000D01*
X164274285Y-52633619D01*
X164321904Y-52728857D01*
X164369523Y-52919333D01*
X164369523Y-53157428D01*
X164321904Y-53347904D01*
X164274285Y-53443142D01*
X164226666Y-53490761D01*
X164131428Y-53538380D01*
X164036190Y-53538380D01*
X163940952Y-53490761D01*
X163893333Y-53443142D01*
X163845714Y-53347904D01*
X163798095Y-53157428D01*
X163798095Y-52919333D01*
X163845714Y-52728857D01*
X163893333Y-52633619D01*
X163940952Y-52586000D01*
X164036190Y-52538380D01*
%TO.C,SW9*%
X142176666Y-53490761D02*
X142319523Y-53538380D01*
X142557619Y-53538380D01*
X142652857Y-53490761D01*
X142700476Y-53443142D01*
X142748095Y-53347904D01*
X142748095Y-53252666D01*
X142700476Y-53157428D01*
X142652857Y-53109809D01*
X142557619Y-53062190D01*
X142367142Y-53014571D01*
X142271904Y-52966952D01*
X142224285Y-52919333D01*
X142176666Y-52824095D01*
X142176666Y-52728857D01*
X142224285Y-52633619D01*
X142271904Y-52586000D01*
X142367142Y-52538380D01*
X142605238Y-52538380D01*
X142748095Y-52586000D01*
X143081428Y-52538380D02*
X143319523Y-53538380D01*
X143510000Y-52824095D01*
X143700476Y-53538380D01*
X143938571Y-52538380D01*
X144367142Y-53538380D02*
X144557619Y-53538380D01*
X144652857Y-53490761D01*
X144700476Y-53443142D01*
X144795714Y-53300285D01*
X144843333Y-53109809D01*
X144843333Y-52728857D01*
X144795714Y-52633619D01*
X144748095Y-52586000D01*
X144652857Y-52538380D01*
X144462380Y-52538380D01*
X144367142Y-52586000D01*
X144319523Y-52633619D01*
X144271904Y-52728857D01*
X144271904Y-52966952D01*
X144319523Y-53062190D01*
X144367142Y-53109809D01*
X144462380Y-53157428D01*
X144652857Y-53157428D01*
X144748095Y-53109809D01*
X144795714Y-53062190D01*
X144843333Y-52966952D01*
%TO.C,SW8*%
X123126666Y-53490761D02*
X123269523Y-53538380D01*
X123507619Y-53538380D01*
X123602857Y-53490761D01*
X123650476Y-53443142D01*
X123698095Y-53347904D01*
X123698095Y-53252666D01*
X123650476Y-53157428D01*
X123602857Y-53109809D01*
X123507619Y-53062190D01*
X123317142Y-53014571D01*
X123221904Y-52966952D01*
X123174285Y-52919333D01*
X123126666Y-52824095D01*
X123126666Y-52728857D01*
X123174285Y-52633619D01*
X123221904Y-52586000D01*
X123317142Y-52538380D01*
X123555238Y-52538380D01*
X123698095Y-52586000D01*
X124031428Y-52538380D02*
X124269523Y-53538380D01*
X124460000Y-52824095D01*
X124650476Y-53538380D01*
X124888571Y-52538380D01*
X125412380Y-52966952D02*
X125317142Y-52919333D01*
X125269523Y-52871714D01*
X125221904Y-52776476D01*
X125221904Y-52728857D01*
X125269523Y-52633619D01*
X125317142Y-52586000D01*
X125412380Y-52538380D01*
X125602857Y-52538380D01*
X125698095Y-52586000D01*
X125745714Y-52633619D01*
X125793333Y-52728857D01*
X125793333Y-52776476D01*
X125745714Y-52871714D01*
X125698095Y-52919333D01*
X125602857Y-52966952D01*
X125412380Y-52966952D01*
X125317142Y-53014571D01*
X125269523Y-53062190D01*
X125221904Y-53157428D01*
X125221904Y-53347904D01*
X125269523Y-53443142D01*
X125317142Y-53490761D01*
X125412380Y-53538380D01*
X125602857Y-53538380D01*
X125698095Y-53490761D01*
X125745714Y-53443142D01*
X125793333Y-53347904D01*
X125793333Y-53157428D01*
X125745714Y-53062190D01*
X125698095Y-53014571D01*
X125602857Y-52966952D01*
%TO.C,SW7*%
X104076666Y-53490761D02*
X104219523Y-53538380D01*
X104457619Y-53538380D01*
X104552857Y-53490761D01*
X104600476Y-53443142D01*
X104648095Y-53347904D01*
X104648095Y-53252666D01*
X104600476Y-53157428D01*
X104552857Y-53109809D01*
X104457619Y-53062190D01*
X104267142Y-53014571D01*
X104171904Y-52966952D01*
X104124285Y-52919333D01*
X104076666Y-52824095D01*
X104076666Y-52728857D01*
X104124285Y-52633619D01*
X104171904Y-52586000D01*
X104267142Y-52538380D01*
X104505238Y-52538380D01*
X104648095Y-52586000D01*
X104981428Y-52538380D02*
X105219523Y-53538380D01*
X105410000Y-52824095D01*
X105600476Y-53538380D01*
X105838571Y-52538380D01*
X106124285Y-52538380D02*
X106790952Y-52538380D01*
X106362380Y-53538380D01*
%TO.C,SW6*%
X199326666Y-34440761D02*
X199469523Y-34488380D01*
X199707619Y-34488380D01*
X199802857Y-34440761D01*
X199850476Y-34393142D01*
X199898095Y-34297904D01*
X199898095Y-34202666D01*
X199850476Y-34107428D01*
X199802857Y-34059809D01*
X199707619Y-34012190D01*
X199517142Y-33964571D01*
X199421904Y-33916952D01*
X199374285Y-33869333D01*
X199326666Y-33774095D01*
X199326666Y-33678857D01*
X199374285Y-33583619D01*
X199421904Y-33536000D01*
X199517142Y-33488380D01*
X199755238Y-33488380D01*
X199898095Y-33536000D01*
X200231428Y-33488380D02*
X200469523Y-34488380D01*
X200660000Y-33774095D01*
X200850476Y-34488380D01*
X201088571Y-33488380D01*
X201898095Y-33488380D02*
X201707619Y-33488380D01*
X201612380Y-33536000D01*
X201564761Y-33583619D01*
X201469523Y-33726476D01*
X201421904Y-33916952D01*
X201421904Y-34297904D01*
X201469523Y-34393142D01*
X201517142Y-34440761D01*
X201612380Y-34488380D01*
X201802857Y-34488380D01*
X201898095Y-34440761D01*
X201945714Y-34393142D01*
X201993333Y-34297904D01*
X201993333Y-34059809D01*
X201945714Y-33964571D01*
X201898095Y-33916952D01*
X201802857Y-33869333D01*
X201612380Y-33869333D01*
X201517142Y-33916952D01*
X201469523Y-33964571D01*
X201421904Y-34059809D01*
%TO.C,SW5*%
X180276666Y-34440761D02*
X180419523Y-34488380D01*
X180657619Y-34488380D01*
X180752857Y-34440761D01*
X180800476Y-34393142D01*
X180848095Y-34297904D01*
X180848095Y-34202666D01*
X180800476Y-34107428D01*
X180752857Y-34059809D01*
X180657619Y-34012190D01*
X180467142Y-33964571D01*
X180371904Y-33916952D01*
X180324285Y-33869333D01*
X180276666Y-33774095D01*
X180276666Y-33678857D01*
X180324285Y-33583619D01*
X180371904Y-33536000D01*
X180467142Y-33488380D01*
X180705238Y-33488380D01*
X180848095Y-33536000D01*
X181181428Y-33488380D02*
X181419523Y-34488380D01*
X181610000Y-33774095D01*
X181800476Y-34488380D01*
X182038571Y-33488380D01*
X182895714Y-33488380D02*
X182419523Y-33488380D01*
X182371904Y-33964571D01*
X182419523Y-33916952D01*
X182514761Y-33869333D01*
X182752857Y-33869333D01*
X182848095Y-33916952D01*
X182895714Y-33964571D01*
X182943333Y-34059809D01*
X182943333Y-34297904D01*
X182895714Y-34393142D01*
X182848095Y-34440761D01*
X182752857Y-34488380D01*
X182514761Y-34488380D01*
X182419523Y-34440761D01*
X182371904Y-34393142D01*
%TO.C,SW4*%
X161226666Y-34440761D02*
X161369523Y-34488380D01*
X161607619Y-34488380D01*
X161702857Y-34440761D01*
X161750476Y-34393142D01*
X161798095Y-34297904D01*
X161798095Y-34202666D01*
X161750476Y-34107428D01*
X161702857Y-34059809D01*
X161607619Y-34012190D01*
X161417142Y-33964571D01*
X161321904Y-33916952D01*
X161274285Y-33869333D01*
X161226666Y-33774095D01*
X161226666Y-33678857D01*
X161274285Y-33583619D01*
X161321904Y-33536000D01*
X161417142Y-33488380D01*
X161655238Y-33488380D01*
X161798095Y-33536000D01*
X162131428Y-33488380D02*
X162369523Y-34488380D01*
X162560000Y-33774095D01*
X162750476Y-34488380D01*
X162988571Y-33488380D01*
X163798095Y-33821714D02*
X163798095Y-34488380D01*
X163560000Y-33440761D02*
X163321904Y-34155047D01*
X163940952Y-34155047D01*
%TO.C,SW3*%
X142176666Y-34440761D02*
X142319523Y-34488380D01*
X142557619Y-34488380D01*
X142652857Y-34440761D01*
X142700476Y-34393142D01*
X142748095Y-34297904D01*
X142748095Y-34202666D01*
X142700476Y-34107428D01*
X142652857Y-34059809D01*
X142557619Y-34012190D01*
X142367142Y-33964571D01*
X142271904Y-33916952D01*
X142224285Y-33869333D01*
X142176666Y-33774095D01*
X142176666Y-33678857D01*
X142224285Y-33583619D01*
X142271904Y-33536000D01*
X142367142Y-33488380D01*
X142605238Y-33488380D01*
X142748095Y-33536000D01*
X143081428Y-33488380D02*
X143319523Y-34488380D01*
X143510000Y-33774095D01*
X143700476Y-34488380D01*
X143938571Y-33488380D01*
X144224285Y-33488380D02*
X144843333Y-33488380D01*
X144510000Y-33869333D01*
X144652857Y-33869333D01*
X144748095Y-33916952D01*
X144795714Y-33964571D01*
X144843333Y-34059809D01*
X144843333Y-34297904D01*
X144795714Y-34393142D01*
X144748095Y-34440761D01*
X144652857Y-34488380D01*
X144367142Y-34488380D01*
X144271904Y-34440761D01*
X144224285Y-34393142D01*
%TO.C,SW2*%
X123126666Y-34440761D02*
X123269523Y-34488380D01*
X123507619Y-34488380D01*
X123602857Y-34440761D01*
X123650476Y-34393142D01*
X123698095Y-34297904D01*
X123698095Y-34202666D01*
X123650476Y-34107428D01*
X123602857Y-34059809D01*
X123507619Y-34012190D01*
X123317142Y-33964571D01*
X123221904Y-33916952D01*
X123174285Y-33869333D01*
X123126666Y-33774095D01*
X123126666Y-33678857D01*
X123174285Y-33583619D01*
X123221904Y-33536000D01*
X123317142Y-33488380D01*
X123555238Y-33488380D01*
X123698095Y-33536000D01*
X124031428Y-33488380D02*
X124269523Y-34488380D01*
X124460000Y-33774095D01*
X124650476Y-34488380D01*
X124888571Y-33488380D01*
X125221904Y-33583619D02*
X125269523Y-33536000D01*
X125364761Y-33488380D01*
X125602857Y-33488380D01*
X125698095Y-33536000D01*
X125745714Y-33583619D01*
X125793333Y-33678857D01*
X125793333Y-33774095D01*
X125745714Y-33916952D01*
X125174285Y-34488380D01*
X125793333Y-34488380D01*
%TO.C,SW1*%
X104076666Y-34440761D02*
X104219523Y-34488380D01*
X104457619Y-34488380D01*
X104552857Y-34440761D01*
X104600476Y-34393142D01*
X104648095Y-34297904D01*
X104648095Y-34202666D01*
X104600476Y-34107428D01*
X104552857Y-34059809D01*
X104457619Y-34012190D01*
X104267142Y-33964571D01*
X104171904Y-33916952D01*
X104124285Y-33869333D01*
X104076666Y-33774095D01*
X104076666Y-33678857D01*
X104124285Y-33583619D01*
X104171904Y-33536000D01*
X104267142Y-33488380D01*
X104505238Y-33488380D01*
X104648095Y-33536000D01*
X104981428Y-33488380D02*
X105219523Y-34488380D01*
X105410000Y-33774095D01*
X105600476Y-34488380D01*
X105838571Y-33488380D01*
X106743333Y-34488380D02*
X106171904Y-34488380D01*
X106457619Y-34488380D02*
X106457619Y-33488380D01*
X106362380Y-33631238D01*
X106267142Y-33726476D01*
X106171904Y-33774095D01*
%TO.C,U1*%
X97242380Y-51561904D02*
X98051904Y-51561904D01*
X98147142Y-51514285D01*
X98194761Y-51466666D01*
X98242380Y-51371428D01*
X98242380Y-51180952D01*
X98194761Y-51085714D01*
X98147142Y-51038095D01*
X98051904Y-50990476D01*
X97242380Y-50990476D01*
X98242380Y-49990476D02*
X98242380Y-50561904D01*
X98242380Y-50276190D02*
X97242380Y-50276190D01*
X97385238Y-50371428D01*
X97480476Y-50466666D01*
X97528095Y-50561904D01*
%TO.C,SW14*%
X213455476Y-33424761D02*
X213598333Y-33472380D01*
X213836428Y-33472380D01*
X213931666Y-33424761D01*
X213979285Y-33377142D01*
X214026904Y-33281904D01*
X214026904Y-33186666D01*
X213979285Y-33091428D01*
X213931666Y-33043809D01*
X213836428Y-32996190D01*
X213645952Y-32948571D01*
X213550714Y-32900952D01*
X213503095Y-32853333D01*
X213455476Y-32758095D01*
X213455476Y-32662857D01*
X213503095Y-32567619D01*
X213550714Y-32520000D01*
X213645952Y-32472380D01*
X213884047Y-32472380D01*
X214026904Y-32520000D01*
X214360238Y-32472380D02*
X214598333Y-33472380D01*
X214788809Y-32758095D01*
X214979285Y-33472380D01*
X215217380Y-32472380D01*
X216122142Y-33472380D02*
X215550714Y-33472380D01*
X215836428Y-33472380D02*
X215836428Y-32472380D01*
X215741190Y-32615238D01*
X215645952Y-32710476D01*
X215550714Y-32758095D01*
X216979285Y-32805714D02*
X216979285Y-33472380D01*
X216741190Y-32424761D02*
X216503095Y-33139047D01*
X217122142Y-33139047D01*
%TD*%
M02*
