%TF.GenerationSoftware,KiCad,Pcbnew,(5.1.10)-1*%
%TF.CreationDate,2021-12-19T12:14:16+01:00*%
%TF.ProjectId,KiCadPCB,4b694361-6450-4434-922e-6b696361645f,rev?*%
%TF.SameCoordinates,Original*%
%TF.FileFunction,Legend,Bot*%
%TF.FilePolarity,Positive*%
%FSLAX46Y46*%
G04 Gerber Fmt 4.6, Leading zero omitted, Abs format (unit mm)*
G04 Created by KiCad (PCBNEW (5.1.10)-1) date 2021-12-19 12:14:16*
%MOMM*%
%LPD*%
G01*
G04 APERTURE LIST*
%ADD10C,0.150000*%
G04 APERTURE END LIST*
D10*
X196389047Y-71842380D02*
X196389047Y-72556666D01*
X196436666Y-72699523D01*
X196531904Y-72794761D01*
X196674761Y-72842380D01*
X196770000Y-72842380D01*
X195436666Y-72842380D02*
X195912857Y-72842380D01*
X195912857Y-71842380D01*
X194531904Y-72747142D02*
X194579523Y-72794761D01*
X194722380Y-72842380D01*
X194817619Y-72842380D01*
X194960476Y-72794761D01*
X195055714Y-72699523D01*
X195103333Y-72604285D01*
X195150952Y-72413809D01*
X195150952Y-72270952D01*
X195103333Y-72080476D01*
X195055714Y-71985238D01*
X194960476Y-71890000D01*
X194817619Y-71842380D01*
X194722380Y-71842380D01*
X194579523Y-71890000D01*
X194531904Y-71937619D01*
X193817619Y-71842380D02*
X193817619Y-72556666D01*
X193865238Y-72699523D01*
X193960476Y-72794761D01*
X194103333Y-72842380D01*
X194198571Y-72842380D01*
X192865238Y-72842380D02*
X193341428Y-72842380D01*
X193341428Y-71842380D01*
X191960476Y-72747142D02*
X192008095Y-72794761D01*
X192150952Y-72842380D01*
X192246190Y-72842380D01*
X192389047Y-72794761D01*
X192484285Y-72699523D01*
X192531904Y-72604285D01*
X192579523Y-72413809D01*
X192579523Y-72270952D01*
X192531904Y-72080476D01*
X192484285Y-71985238D01*
X192389047Y-71890000D01*
X192246190Y-71842380D01*
X192150952Y-71842380D01*
X192008095Y-71890000D01*
X191960476Y-71937619D01*
X191246190Y-71842380D02*
X191246190Y-72556666D01*
X191293809Y-72699523D01*
X191389047Y-72794761D01*
X191531904Y-72842380D01*
X191627142Y-72842380D01*
X190293809Y-72842380D02*
X190770000Y-72842380D01*
X190770000Y-71842380D01*
X189389047Y-72747142D02*
X189436666Y-72794761D01*
X189579523Y-72842380D01*
X189674761Y-72842380D01*
X189817619Y-72794761D01*
X189912857Y-72699523D01*
X189960476Y-72604285D01*
X190008095Y-72413809D01*
X190008095Y-72270952D01*
X189960476Y-72080476D01*
X189912857Y-71985238D01*
X189817619Y-71890000D01*
X189674761Y-71842380D01*
X189579523Y-71842380D01*
X189436666Y-71890000D01*
X189389047Y-71937619D01*
X188674761Y-71842380D02*
X188674761Y-72556666D01*
X188722380Y-72699523D01*
X188817619Y-72794761D01*
X188960476Y-72842380D01*
X189055714Y-72842380D01*
X187722380Y-72842380D02*
X188198571Y-72842380D01*
X188198571Y-71842380D01*
X186817619Y-72747142D02*
X186865238Y-72794761D01*
X187008095Y-72842380D01*
X187103333Y-72842380D01*
X187246190Y-72794761D01*
X187341428Y-72699523D01*
X187389047Y-72604285D01*
X187436666Y-72413809D01*
X187436666Y-72270952D01*
X187389047Y-72080476D01*
X187341428Y-71985238D01*
X187246190Y-71890000D01*
X187103333Y-71842380D01*
X187008095Y-71842380D01*
X186865238Y-71890000D01*
X186817619Y-71937619D01*
M02*
