%TF.GenerationSoftware,KiCad,Pcbnew,(5.1.10)-1*%
%TF.CreationDate,2021-10-02T19:41:36+02:00*%
%TF.ProjectId,KiCadPCB,4b694361-6450-4434-922e-6b696361645f,rev?*%
%TF.SameCoordinates,Original*%
%TF.FileFunction,Copper,L2,Bot*%
%TF.FilePolarity,Positive*%
%FSLAX46Y46*%
G04 Gerber Fmt 4.6, Leading zero omitted, Abs format (unit mm)*
G04 Created by KiCad (PCBNEW (5.1.10)-1) date 2021-10-02 19:41:36*
%MOMM*%
%LPD*%
G01*
G04 APERTURE LIST*
%TA.AperFunction,ComponentPad*%
%ADD10O,1.600000X1.600000*%
%TD*%
%TA.AperFunction,ComponentPad*%
%ADD11R,1.600000X1.600000*%
%TD*%
%TA.AperFunction,ComponentPad*%
%ADD12C,2.200000*%
%TD*%
%TA.AperFunction,ComponentPad*%
%ADD13C,1.600000*%
%TD*%
%TA.AperFunction,ComponentPad*%
%ADD14R,2.000000X2.000000*%
%TD*%
%TA.AperFunction,ComponentPad*%
%ADD15C,2.000000*%
%TD*%
%TA.AperFunction,ComponentPad*%
%ADD16R,2.500000X3.000000*%
%TD*%
%TA.AperFunction,ViaPad*%
%ADD17C,0.800000*%
%TD*%
%TA.AperFunction,Conductor*%
%ADD18C,0.400000*%
%TD*%
G04 APERTURE END LIST*
D10*
%TO.P,D14,2*%
%TO.N,Net-(D14-Pad2)*%
X219075000Y-50165000D03*
D11*
%TO.P,D14,1*%
%TO.N,/COL0*%
X211455000Y-50165000D03*
%TD*%
D10*
%TO.P,D13,2*%
%TO.N,/ROW1*%
X223520000Y-69215000D03*
D11*
%TO.P,D13,1*%
%TO.N,Net-(D13-Pad1)*%
X215900000Y-69215000D03*
%TD*%
D10*
%TO.P,D12,2*%
%TO.N,/ROW1*%
X204470000Y-69215000D03*
D11*
%TO.P,D12,1*%
%TO.N,Net-(D12-Pad1)*%
X196850000Y-69215000D03*
%TD*%
D10*
%TO.P,D11,2*%
%TO.N,/ROW1*%
X185420000Y-69215000D03*
D11*
%TO.P,D11,1*%
%TO.N,Net-(D11-Pad1)*%
X177800000Y-69215000D03*
%TD*%
D10*
%TO.P,D10,2*%
%TO.N,/ROW1*%
X166370000Y-69215000D03*
D11*
%TO.P,D10,1*%
%TO.N,Net-(D10-Pad1)*%
X158750000Y-69215000D03*
%TD*%
D10*
%TO.P,D9,2*%
%TO.N,/ROW1*%
X147320000Y-69215000D03*
D11*
%TO.P,D9,1*%
%TO.N,Net-(D9-Pad1)*%
X139700000Y-69215000D03*
%TD*%
D10*
%TO.P,D8,2*%
%TO.N,/ROW1*%
X128270000Y-69215000D03*
D11*
%TO.P,D8,1*%
%TO.N,Net-(D8-Pad1)*%
X120650000Y-69215000D03*
%TD*%
D10*
%TO.P,D7,2*%
%TO.N,/ROW1*%
X109220000Y-69215000D03*
D11*
%TO.P,D7,1*%
%TO.N,Net-(D7-Pad1)*%
X101600000Y-69215000D03*
%TD*%
D10*
%TO.P,D6,2*%
%TO.N,/ROW0*%
X204470000Y-50165000D03*
D11*
%TO.P,D6,1*%
%TO.N,Net-(D6-Pad1)*%
X196850000Y-50165000D03*
%TD*%
D10*
%TO.P,D5,2*%
%TO.N,/ROW0*%
X185420000Y-50165000D03*
D11*
%TO.P,D5,1*%
%TO.N,Net-(D5-Pad1)*%
X177800000Y-50165000D03*
%TD*%
D10*
%TO.P,D4,2*%
%TO.N,/ROW0*%
X166370000Y-50165000D03*
D11*
%TO.P,D4,1*%
%TO.N,Net-(D4-Pad1)*%
X158750000Y-50165000D03*
%TD*%
D10*
%TO.P,D3,2*%
%TO.N,/ROW0*%
X147320000Y-50165000D03*
D11*
%TO.P,D3,1*%
%TO.N,Net-(D3-Pad1)*%
X139700000Y-50165000D03*
%TD*%
D10*
%TO.P,D2,2*%
%TO.N,/ROW0*%
X128270000Y-50165000D03*
D11*
%TO.P,D2,1*%
%TO.N,Net-(D2-Pad1)*%
X120650000Y-50165000D03*
%TD*%
D10*
%TO.P,D1,2*%
%TO.N,/ROW0*%
X109220000Y-50165000D03*
D11*
%TO.P,D1,1*%
%TO.N,Net-(D1-Pad1)*%
X101600000Y-50165000D03*
%TD*%
D12*
%TO.P,SW13,2*%
%TO.N,Net-(D13-Pad1)*%
X215900000Y-58420000D03*
%TO.P,SW13,1*%
%TO.N,/COL6*%
X222250000Y-55880000D03*
%TD*%
%TO.P,SW12,2*%
%TO.N,Net-(D12-Pad1)*%
X196850000Y-58420000D03*
%TO.P,SW12,1*%
%TO.N,/COL5*%
X203200000Y-55880000D03*
%TD*%
%TO.P,SW11,2*%
%TO.N,Net-(D11-Pad1)*%
X177800000Y-58420000D03*
%TO.P,SW11,1*%
%TO.N,/COL4*%
X184150000Y-55880000D03*
%TD*%
%TO.P,SW10,2*%
%TO.N,Net-(D10-Pad1)*%
X158750000Y-58420000D03*
%TO.P,SW10,1*%
%TO.N,/COL3*%
X165100000Y-55880000D03*
%TD*%
%TO.P,SW9,2*%
%TO.N,Net-(D9-Pad1)*%
X139700000Y-58420000D03*
%TO.P,SW9,1*%
%TO.N,/COL2*%
X146050000Y-55880000D03*
%TD*%
%TO.P,SW8,2*%
%TO.N,Net-(D8-Pad1)*%
X120650000Y-58420000D03*
%TO.P,SW8,1*%
%TO.N,/COL1*%
X127000000Y-55880000D03*
%TD*%
%TO.P,SW7,2*%
%TO.N,Net-(D7-Pad1)*%
X101600000Y-58420000D03*
%TO.P,SW7,1*%
%TO.N,/COL0*%
X107950000Y-55880000D03*
%TD*%
%TO.P,SW6,2*%
%TO.N,Net-(D6-Pad1)*%
X196850000Y-39370000D03*
%TO.P,SW6,1*%
%TO.N,/COL6*%
X203200000Y-36830000D03*
%TD*%
%TO.P,SW5,2*%
%TO.N,Net-(D5-Pad1)*%
X177800000Y-39370000D03*
%TO.P,SW5,1*%
%TO.N,/COL5*%
X184150000Y-36830000D03*
%TD*%
%TO.P,SW4,2*%
%TO.N,Net-(D4-Pad1)*%
X158750000Y-39370000D03*
%TO.P,SW4,1*%
%TO.N,/COL4*%
X165100000Y-36830000D03*
%TD*%
%TO.P,SW3,2*%
%TO.N,Net-(D3-Pad1)*%
X139700000Y-39370000D03*
%TO.P,SW3,1*%
%TO.N,/COL3*%
X146050000Y-36830000D03*
%TD*%
%TO.P,SW2,2*%
%TO.N,Net-(D2-Pad1)*%
X120650000Y-39370000D03*
%TO.P,SW2,1*%
%TO.N,/COL2*%
X127000000Y-36830000D03*
%TD*%
%TO.P,SW1,2*%
%TO.N,Net-(D1-Pad1)*%
X101600000Y-39370000D03*
%TO.P,SW1,1*%
%TO.N,/COL1*%
X107950000Y-36830000D03*
%TD*%
D13*
%TO.P,U1,24*%
%TO.N,Net-(U1-Pad24)*%
X95250000Y-36830000D03*
%TO.P,U1,23*%
%TO.N,GND*%
X95250000Y-39370000D03*
%TO.P,U1,22*%
%TO.N,Net-(U1-Pad22)*%
X95250000Y-41910000D03*
%TO.P,U1,21*%
%TO.N,+5V*%
X95250000Y-44450000D03*
%TO.P,U1,20*%
%TO.N,Net-(U1-Pad20)*%
X95250000Y-46990000D03*
%TO.P,U1,19*%
%TO.N,/COL0*%
X95250000Y-49530000D03*
%TO.P,U1,18*%
%TO.N,/COL1*%
X95250000Y-52070000D03*
%TO.P,U1,17*%
%TO.N,/COL2*%
X95250000Y-54610000D03*
%TO.P,U1,16*%
%TO.N,/COL3*%
X95250000Y-57150000D03*
%TO.P,U1,15*%
%TO.N,/COL4*%
X95250000Y-59690000D03*
%TO.P,U1,14*%
%TO.N,/COL5*%
X95250000Y-62230000D03*
%TO.P,U1,13*%
%TO.N,/COL6*%
X95250000Y-64770000D03*
%TO.P,U1,12*%
%TO.N,/ROW1*%
X80010000Y-64770000D03*
%TO.P,U1,11*%
%TO.N,/ROW0*%
X80010000Y-62230000D03*
%TO.P,U1,10*%
%TO.N,Net-(U1-Pad10)*%
X80010000Y-59690000D03*
%TO.P,U1,9*%
%TO.N,Net-(U1-Pad9)*%
X80010000Y-57150000D03*
%TO.P,U1,8*%
%TO.N,Net-(SW14-PadA)*%
X80010000Y-54610000D03*
%TO.P,U1,7*%
%TO.N,Net-(SW14-PadB)*%
X80010000Y-52070000D03*
%TO.P,U1,6*%
%TO.N,Net-(U1-Pad6)*%
X80010000Y-49530000D03*
%TO.P,U1,5*%
%TO.N,Net-(U1-Pad5)*%
X80010000Y-46990000D03*
%TO.P,U1,4*%
%TO.N,GND*%
X80010000Y-44450000D03*
%TO.P,U1,3*%
X80010000Y-41910000D03*
%TO.P,U1,2*%
%TO.N,Net-(U1-Pad2)*%
X80010000Y-39370000D03*
D11*
%TO.P,U1,1*%
%TO.N,Net-(U1-Pad1)*%
X80010000Y-36830000D03*
%TD*%
D14*
%TO.P,SW14,A*%
%TO.N,Net-(SW14-PadA)*%
X224000000Y-33020000D03*
D15*
%TO.P,SW14,C*%
%TO.N,GND*%
X221500000Y-33020000D03*
%TO.P,SW14,B*%
%TO.N,Net-(SW14-PadB)*%
X219000000Y-33020000D03*
D16*
%TO.P,SW14,MP*%
%TO.N,N/C*%
X227100000Y-40520000D03*
X215900000Y-40520000D03*
D15*
%TO.P,SW14,S1*%
%TO.N,/ROW0*%
X224000000Y-47520000D03*
%TO.P,SW14,S2*%
%TO.N,Net-(D14-Pad2)*%
X219000000Y-47520000D03*
%TD*%
D17*
%TO.N,/ROW0*%
X86360000Y-43815000D03*
%TO.N,Net-(SW14-PadA)*%
X83185000Y-41275000D03*
%TO.N,Net-(SW14-PadB)*%
X82550000Y-43180000D03*
%TD*%
D18*
%TO.N,/COL2*%
X146050000Y-55880000D02*
X140335000Y-55880000D01*
X132715000Y-48260000D02*
X132715000Y-42545000D01*
X132715000Y-42545000D02*
X127000000Y-36830000D01*
X140335000Y-55880000D02*
X132715000Y-48260000D01*
%TO.N,/COL3*%
X165100000Y-55880000D02*
X159385000Y-55880000D01*
X151765000Y-48260000D02*
X151765000Y-42545000D01*
X151765000Y-42545000D02*
X146050000Y-36830000D01*
X159385000Y-55880000D02*
X151765000Y-48260000D01*
%TO.N,/COL4*%
X184150000Y-55880000D02*
X178435000Y-55880000D01*
X170815000Y-48260000D02*
X170815000Y-42545000D01*
X170815000Y-42545000D02*
X165100000Y-36830000D01*
X178435000Y-55880000D02*
X170815000Y-48260000D01*
%TO.N,/ROW0*%
X106734998Y-50165000D02*
X109220000Y-50165000D01*
X97279997Y-40709999D02*
X106734998Y-50165000D01*
X89465001Y-40709999D02*
X97279997Y-40709999D01*
X86360000Y-43815000D02*
X89465001Y-40709999D01*
%TO.N,/COL1*%
X127000000Y-55880000D02*
X121285000Y-55880000D01*
X113665000Y-48260000D02*
X113665000Y-42545000D01*
X113665000Y-42545000D02*
X107950000Y-36830000D01*
X121285000Y-55880000D02*
X113665000Y-48260000D01*
%TO.N,/COL5*%
X203200000Y-55880000D02*
X197485000Y-55880000D01*
X197485000Y-55880000D02*
X189865000Y-48260000D01*
X189865000Y-42545000D02*
X184150000Y-36830000D01*
X189865000Y-48260000D02*
X189865000Y-42545000D01*
%TO.N,/COL6*%
X214849998Y-55880000D02*
X222250000Y-55880000D01*
X208915000Y-42545000D02*
X208915000Y-49945002D01*
X208915000Y-49945002D02*
X214849998Y-55880000D01*
X203200000Y-36830000D02*
X208915000Y-42545000D01*
%TO.N,Net-(SW14-PadA)*%
X83185000Y-41275000D02*
X83185000Y-41275000D01*
X224000000Y-33020000D02*
X222599999Y-31619999D01*
X217170000Y-32385000D02*
X217935001Y-31619999D01*
X222599999Y-31619999D02*
X217935001Y-31619999D01*
X92675010Y-32419990D02*
X92461467Y-32419991D01*
X92710000Y-32385000D02*
X92675010Y-32419990D01*
X92710000Y-32385000D02*
X217170000Y-32385000D01*
X83606458Y-41275000D02*
X83185000Y-41275000D01*
X92461467Y-32419991D02*
X83606458Y-41275000D01*
%TO.N,GND*%
X80010000Y-44450000D02*
X82550000Y-44450000D01*
X87630000Y-39370000D02*
X95250000Y-39370000D01*
X82550000Y-44450000D02*
X87630000Y-39370000D01*
X80010000Y-41910000D02*
X80010000Y-45085000D01*
X80010000Y-44450000D02*
X80010000Y-41910000D01*
%TO.N,Net-(SW14-PadB)*%
X92710000Y-33020000D02*
X82550000Y-43180000D01*
X219000000Y-33020000D02*
X92710000Y-33020000D01*
%TD*%
M02*
