%TF.GenerationSoftware,KiCad,Pcbnew,(5.1.10)-1*%
%TF.CreationDate,2021-12-19T12:14:16+01:00*%
%TF.ProjectId,KiCadPCB,4b694361-6450-4434-922e-6b696361645f,rev?*%
%TF.SameCoordinates,Original*%
%TF.FileFunction,Soldermask,Bot*%
%TF.FilePolarity,Negative*%
%FSLAX46Y46*%
G04 Gerber Fmt 4.6, Leading zero omitted, Abs format (unit mm)*
G04 Created by KiCad (PCBNEW (5.1.10)-1) date 2021-12-19 12:14:16*
%MOMM*%
%LPD*%
G01*
G04 APERTURE LIST*
%ADD10C,3.200000*%
%ADD11O,1.600000X1.600000*%
%ADD12R,1.600000X1.600000*%
%ADD13C,1.700000*%
%ADD14C,4.000000*%
%ADD15C,2.200000*%
%ADD16C,1.600000*%
%ADD17R,2.000000X2.000000*%
%ADD18C,2.000000*%
%ADD19R,2.500000X3.000000*%
G04 APERTURE END LIST*
D10*
%TO.C,H2*%
X202565000Y-27940000D03*
%TD*%
%TO.C,H1*%
X105410000Y-27940000D03*
%TD*%
D11*
%TO.C,D14*%
X219075000Y-50165000D03*
D12*
X211455000Y-50165000D03*
%TD*%
D11*
%TO.C,D13*%
X223520000Y-69215000D03*
D12*
X215900000Y-69215000D03*
%TD*%
D11*
%TO.C,D12*%
X204470000Y-69215000D03*
D12*
X196850000Y-69215000D03*
%TD*%
D11*
%TO.C,D11*%
X185420000Y-69215000D03*
D12*
X177800000Y-69215000D03*
%TD*%
D11*
%TO.C,D10*%
X166370000Y-69215000D03*
D12*
X158750000Y-69215000D03*
%TD*%
D11*
%TO.C,D9*%
X147320000Y-69215000D03*
D12*
X139700000Y-69215000D03*
%TD*%
D11*
%TO.C,D8*%
X128270000Y-69215000D03*
D12*
X120650000Y-69215000D03*
%TD*%
D11*
%TO.C,D7*%
X109220000Y-69215000D03*
D12*
X101600000Y-69215000D03*
%TD*%
D11*
%TO.C,D6*%
X204470000Y-50165000D03*
D12*
X196850000Y-50165000D03*
%TD*%
D11*
%TO.C,D5*%
X185420000Y-50165000D03*
D12*
X177800000Y-50165000D03*
%TD*%
D11*
%TO.C,D4*%
X166370000Y-50165000D03*
D12*
X158750000Y-50165000D03*
%TD*%
D11*
%TO.C,D3*%
X147320000Y-50165000D03*
D12*
X139700000Y-50165000D03*
%TD*%
D11*
%TO.C,D2*%
X128270000Y-50165000D03*
D12*
X120650000Y-50165000D03*
%TD*%
D11*
%TO.C,D1*%
X109220000Y-50165000D03*
D12*
X101600000Y-50165000D03*
%TD*%
D13*
%TO.C,SW13*%
X224790000Y-60960000D03*
X214630000Y-60960000D03*
D14*
X219710000Y-60960000D03*
D15*
X215900000Y-58420000D03*
X222250000Y-55880000D03*
%TD*%
D13*
%TO.C,SW12*%
X205740000Y-60960000D03*
X195580000Y-60960000D03*
D14*
X200660000Y-60960000D03*
D15*
X196850000Y-58420000D03*
X203200000Y-55880000D03*
%TD*%
D13*
%TO.C,SW11*%
X186690000Y-60960000D03*
X176530000Y-60960000D03*
D14*
X181610000Y-60960000D03*
D15*
X177800000Y-58420000D03*
X184150000Y-55880000D03*
%TD*%
D13*
%TO.C,SW10*%
X167640000Y-60960000D03*
X157480000Y-60960000D03*
D14*
X162560000Y-60960000D03*
D15*
X158750000Y-58420000D03*
X165100000Y-55880000D03*
%TD*%
D13*
%TO.C,SW9*%
X148590000Y-60960000D03*
X138430000Y-60960000D03*
D14*
X143510000Y-60960000D03*
D15*
X139700000Y-58420000D03*
X146050000Y-55880000D03*
%TD*%
D13*
%TO.C,SW8*%
X129540000Y-60960000D03*
X119380000Y-60960000D03*
D14*
X124460000Y-60960000D03*
D15*
X120650000Y-58420000D03*
X127000000Y-55880000D03*
%TD*%
D13*
%TO.C,SW7*%
X110490000Y-60960000D03*
X100330000Y-60960000D03*
D14*
X105410000Y-60960000D03*
D15*
X101600000Y-58420000D03*
X107950000Y-55880000D03*
%TD*%
D13*
%TO.C,SW6*%
X205740000Y-41910000D03*
X195580000Y-41910000D03*
D14*
X200660000Y-41910000D03*
D15*
X196850000Y-39370000D03*
X203200000Y-36830000D03*
%TD*%
D13*
%TO.C,SW5*%
X186690000Y-41910000D03*
X176530000Y-41910000D03*
D14*
X181610000Y-41910000D03*
D15*
X177800000Y-39370000D03*
X184150000Y-36830000D03*
%TD*%
D13*
%TO.C,SW4*%
X167640000Y-41910000D03*
X157480000Y-41910000D03*
D14*
X162560000Y-41910000D03*
D15*
X158750000Y-39370000D03*
X165100000Y-36830000D03*
%TD*%
D13*
%TO.C,SW3*%
X148590000Y-41910000D03*
X138430000Y-41910000D03*
D14*
X143510000Y-41910000D03*
D15*
X139700000Y-39370000D03*
X146050000Y-36830000D03*
%TD*%
D13*
%TO.C,SW2*%
X129540000Y-41910000D03*
X119380000Y-41910000D03*
D14*
X124460000Y-41910000D03*
D15*
X120650000Y-39370000D03*
X127000000Y-36830000D03*
%TD*%
D13*
%TO.C,SW1*%
X110490000Y-41910000D03*
X100330000Y-41910000D03*
D14*
X105410000Y-41910000D03*
D15*
X101600000Y-39370000D03*
X107950000Y-36830000D03*
%TD*%
D16*
%TO.C,U1*%
X95250000Y-36830000D03*
X95250000Y-39370000D03*
X95250000Y-41910000D03*
X95250000Y-44450000D03*
X95250000Y-46990000D03*
X95250000Y-49530000D03*
X95250000Y-52070000D03*
X95250000Y-54610000D03*
X95250000Y-57150000D03*
X95250000Y-59690000D03*
X95250000Y-62230000D03*
X95250000Y-64770000D03*
X80010000Y-64770000D03*
X80010000Y-62230000D03*
X80010000Y-59690000D03*
X80010000Y-57150000D03*
X80010000Y-54610000D03*
X80010000Y-52070000D03*
X80010000Y-49530000D03*
X80010000Y-46990000D03*
X80010000Y-44450000D03*
X80010000Y-41910000D03*
X80010000Y-39370000D03*
D12*
X80010000Y-36830000D03*
%TD*%
D17*
%TO.C,SW14*%
X224000000Y-33020000D03*
D18*
X221500000Y-33020000D03*
X219000000Y-33020000D03*
D19*
X227100000Y-40520000D03*
X215900000Y-40520000D03*
D18*
X224000000Y-47520000D03*
X219000000Y-47520000D03*
%TD*%
M02*
