M48
; DRILL file {KiCad (5.1.10)-1} date 12/19/21 12:17:47
; FORMAT={-:-/ absolute / inch / decimal}
; #@! TF.CreationDate,2021-12-19T12:17:47+01:00
; #@! TF.GenerationSoftware,Kicad,Pcbnew,(5.1.10)-1
; #@! TF.FileFunction,Plated,1,2,PTH
FMAT,2
INCH
T1C0.0157
T2C0.0315
T3C0.0394
T4C0.0433
T5C0.0591
T6C0.0787
%
G90
G05
T1
X3.25Y-1.7
X3.275Y-1.625
X3.4Y-1.725
T2
X4.0Y-1.975
X4.0Y-2.725
X4.3Y-1.975
X4.3Y-2.725
X4.75Y-1.975
X4.75Y-2.725
X5.05Y-1.975
X5.05Y-2.725
X5.5Y-1.975
X5.5Y-2.725
X5.8Y-1.975
X5.8Y-2.725
X6.25Y-1.975
X6.25Y-2.725
X6.55Y-1.975
X6.55Y-2.725
X7.0Y-1.975
X7.0Y-2.725
X7.3Y-1.975
X7.3Y-2.725
X7.75Y-1.975
X7.75Y-2.725
X8.05Y-1.975
X8.05Y-2.725
X8.325Y-1.975
X8.5Y-2.725
X8.625Y-1.975
X8.8Y-2.725
T3
X8.622Y-1.3
X8.622Y-1.8709
X8.7205Y-1.3
X8.8189Y-1.3
X8.8189Y-1.8709
T4
X3.15Y-1.45
X3.15Y-1.55
X3.15Y-1.65
X3.15Y-1.75
X3.15Y-1.85
X3.15Y-1.95
X3.15Y-2.05
X3.15Y-2.15
X3.15Y-2.25
X3.15Y-2.35
X3.15Y-2.45
X3.15Y-2.55
X3.75Y-1.45
X3.75Y-1.55
X3.75Y-1.65
X3.75Y-1.75
X3.75Y-1.85
X3.75Y-1.95
X3.75Y-2.05
X3.75Y-2.15
X3.75Y-2.25
X3.75Y-2.35
X3.75Y-2.45
X3.75Y-2.55
T5
X4.0Y-1.55
X4.0Y-2.3
X4.25Y-1.45
X4.25Y-2.2
X4.75Y-1.55
X4.75Y-2.3
X5.0Y-1.45
X5.0Y-2.2
X5.5Y-1.55
X5.5Y-2.3
X5.75Y-1.45
X5.75Y-2.2
X6.25Y-1.55
X6.25Y-2.3
X6.5Y-1.45
X6.5Y-2.2
X7.0Y-1.55
X7.0Y-2.3
X7.25Y-1.45
X7.25Y-2.2
X7.75Y-1.55
X7.75Y-2.3
X8.0Y-1.45
X8.0Y-2.2
X8.5Y-2.3
X8.75Y-2.2
T6
G00X8.5Y-1.5854
M15
G01X8.5Y-1.6051
M16
G05
G00X8.9409Y-1.5854
M15
G01X8.9409Y-1.6051
M16
G05
T0
M30
