M48
; DRILL file {KiCad (5.1.10)-1} date 12/19/21 12:17:47
; FORMAT={-:-/ absolute / inch / decimal}
; #@! TF.CreationDate,2021-12-19T12:17:47+01:00
; #@! TF.GenerationSoftware,Kicad,Pcbnew,(5.1.10)-1
; #@! TF.FileFunction,NonPlated,1,2,NPTH
FMAT,2
INCH
T1C0.0669
T2C0.1260
T3C0.1575
%
G90
G05
T1
X3.95Y-1.65
X3.95Y-2.4
X4.35Y-1.65
X4.35Y-2.4
X4.7Y-1.65
X4.7Y-2.4
X5.1Y-1.65
X5.1Y-2.4
X5.45Y-1.65
X5.45Y-2.4
X5.85Y-1.65
X5.85Y-2.4
X6.2Y-1.65
X6.2Y-2.4
X6.6Y-1.65
X6.6Y-2.4
X6.95Y-1.65
X6.95Y-2.4
X7.35Y-1.65
X7.35Y-2.4
X7.7Y-1.65
X7.7Y-2.4
X8.1Y-1.65
X8.1Y-2.4
X8.45Y-2.4
X8.85Y-2.4
T2
X4.15Y-1.1
X7.975Y-1.1
T3
X4.15Y-1.65
X4.15Y-2.4
X4.9Y-1.65
X4.9Y-2.4
X5.65Y-1.65
X5.65Y-2.4
X6.4Y-1.65
X6.4Y-2.4
X7.15Y-1.65
X7.15Y-2.4
X7.9Y-1.65
X7.9Y-2.4
X8.65Y-2.4
T0
M30
